%TF.GenerationSoftware,KiCad,Pcbnew,8.0.6*%
%TF.CreationDate,2024-12-15T00:01:45-05:00*%
%TF.ProjectId,VFDSAO,56464453-414f-42e6-9b69-6361645f7063,rev?*%
%TF.SameCoordinates,Original*%
%TF.FileFunction,Drillmap*%
%TF.FilePolarity,Positive*%
%FSLAX45Y45*%
G04 Gerber Fmt 4.5, Leading zero omitted, Abs format (unit mm)*
G04 Created by KiCad (PCBNEW 8.0.6) date 2024-12-15 00:01:45*
%MOMM*%
%LPD*%
G01*
G04 APERTURE LIST*
%ADD10C,0.160000*%
%ADD11C,0.100000*%
%ADD12C,0.200000*%
%ADD13C,0.220000*%
%ADD14C,0.239000*%
%ADD15C,0.320000*%
%ADD16C,0.345000*%
G04 APERTURE END LIST*
D10*
X13600000Y-10600000D02*
G75*
G02*
X12800000Y-10600000I-400000J0D01*
G01*
X9896191Y-7325000D02*
G75*
G02*
X9719086Y-7272984I-1J327510D01*
G01*
X10939735Y-10874372D02*
X11260265Y-10425629D01*
X14205000Y-9950000D02*
X14205000Y-9086434D01*
X9250714Y-8100000D02*
X7900000Y-8100000D01*
X5600000Y-6300000D02*
G75*
G02*
X5900000Y-6000000I300000J0D01*
G01*
X14373416Y-10132102D02*
G75*
G02*
X14300000Y-10300000I-73416J-67898D01*
G01*
X5600000Y-6300000D02*
X5600000Y-10000000D01*
X12200000Y-8000000D02*
X12200000Y-7000000D01*
X8450000Y-7100000D02*
G75*
G02*
X8400000Y-7050000I0J50000D01*
G01*
X9304385Y-11000000D02*
X10695615Y-11000000D01*
X14100000Y-6000000D02*
X5900000Y-6000000D01*
X12600000Y-10300000D02*
G75*
G02*
X12800000Y-10500000I0J-200000D01*
G01*
X8495615Y-10300000D02*
G75*
G02*
X8739732Y-10425631I-5J-300000D01*
G01*
X8350000Y-6900000D02*
G75*
G02*
X8400000Y-6950000I0J-50000D01*
G01*
X8495615Y-10300000D02*
X7400000Y-10300000D01*
X12100000Y-6900000D02*
X11650000Y-6900000D01*
X9304385Y-11000000D02*
G75*
G02*
X9060268Y-10874369I5J300000D01*
G01*
X14400000Y-8814082D02*
G75*
G02*
X14377145Y-8877708I-100000J2D01*
G01*
X5900000Y-10300000D02*
X6200000Y-10300000D01*
X7200000Y-10500000D02*
G75*
G02*
X7400000Y-10300000I200000J0D01*
G01*
X10280914Y-7272984D02*
G75*
G02*
X10103809Y-7325000I-177104J275494D01*
G01*
X14100000Y-6000000D02*
G75*
G02*
X14400000Y-6300000I0J-300000D01*
G01*
X13600000Y-10500000D02*
G75*
G02*
X13800000Y-10300000I200000J0D01*
G01*
X14373416Y-10132102D02*
X14205000Y-9950000D01*
X9450000Y-7100000D02*
X8450000Y-7100000D01*
X11600000Y-6950000D02*
G75*
G02*
X11650000Y-6900000I50000J0D01*
G01*
X7800000Y-7000000D02*
G75*
G02*
X7900000Y-6900000I100000J0D01*
G01*
X14400000Y-8814082D02*
X14400000Y-6300000D01*
X13600000Y-10500000D02*
X13600000Y-10600000D01*
X8739735Y-10425629D02*
X9060265Y-10874372D01*
X10280914Y-7272984D02*
X10550000Y-7100000D01*
X10550000Y-7100000D02*
X11550000Y-7100000D01*
X11260265Y-10425629D02*
G75*
G02*
X11504385Y-10299996I244125J-174372D01*
G01*
X8400000Y-7050000D02*
X8400000Y-6950000D01*
X12800000Y-10500000D02*
X12800000Y-10600000D01*
X7900000Y-8100000D02*
G75*
G02*
X7800000Y-8000000I0J100000D01*
G01*
X7200000Y-10600000D02*
G75*
G02*
X6400000Y-10600000I-400000J0D01*
G01*
X6400000Y-10500000D02*
X6400000Y-10600000D01*
X11600000Y-7050000D02*
G75*
G02*
X11550000Y-7100000I-50000J0D01*
G01*
X7200000Y-10500000D02*
X7200000Y-10600000D01*
X14300000Y-10300000D02*
X13800000Y-10300000D01*
X7800000Y-8000000D02*
X7800000Y-7000000D01*
X12100000Y-6900000D02*
G75*
G02*
X12200000Y-7000000I0J-100000D01*
G01*
X9896191Y-7325000D02*
X10103809Y-7325000D01*
X14205000Y-9086434D02*
X14377147Y-8877709D01*
X11504385Y-10300000D02*
X12600000Y-10300000D01*
X12200000Y-8000000D02*
G75*
G02*
X12100000Y-8100000I-100000J0D01*
G01*
D11*
X9250714Y-8100000D02*
G75*
G02*
X10749286Y-8100000I749286J-350000D01*
G01*
D10*
X6200000Y-10300000D02*
G75*
G02*
X6400000Y-10500000I0J-200000D01*
G01*
X10939735Y-10874372D02*
G75*
G02*
X10695615Y-11000004I-244125J174372D01*
G01*
X9450000Y-7100000D02*
X9719086Y-7272984D01*
X5900000Y-10300000D02*
G75*
G02*
X5600000Y-10000000I0J300000D01*
G01*
X11600000Y-6950000D02*
X11600000Y-7050000D01*
X7900000Y-6900000D02*
X8350000Y-6900000D01*
X10749286Y-8100000D02*
X12100000Y-8100000D01*
D12*
D11*
X13615000Y-9203500D02*
X13680000Y-9268500D01*
X13680000Y-9203500D02*
X13615000Y-9268500D01*
X13615000Y-9781500D02*
X13680000Y-9846500D01*
X13680000Y-9781500D02*
X13615000Y-9846500D01*
X7105530Y-6916500D02*
G75*
G02*
X7006470Y-6916500I-49530J0D01*
G01*
X7006470Y-6916500D02*
G75*
G02*
X7105530Y-6916500I49530J0D01*
G01*
X7613530Y-6814900D02*
G75*
G02*
X7514470Y-6814900I-49530J0D01*
G01*
X7514470Y-6814900D02*
G75*
G02*
X7613530Y-6814900I49530J0D01*
G01*
X7613530Y-7018100D02*
G75*
G02*
X7514470Y-7018100I-49530J0D01*
G01*
X7514470Y-7018100D02*
G75*
G02*
X7613530Y-7018100I49530J0D01*
G01*
D13*
X9300000Y-10390000D02*
X9300000Y-10610000D01*
X9190000Y-10500000D02*
X9410000Y-10500000D01*
X10700000Y-10390000D02*
X10700000Y-10610000D01*
X10590000Y-10500000D02*
X10810000Y-10500000D01*
D14*
X6491500Y-9884500D02*
X6491500Y-9715500D01*
X6322500Y-9715500D01*
X6322500Y-9884500D01*
X6491500Y-9884500D01*
D15*
X6800000Y-10760000D02*
X6960000Y-10600000D01*
X6800000Y-10440000D01*
X6640000Y-10600000D01*
X6800000Y-10760000D01*
X13200000Y-10760000D02*
X13360000Y-10600000D01*
X13200000Y-10440000D01*
X13040000Y-10600000D01*
X13200000Y-10760000D01*
D16*
X7067500Y-8027500D02*
X7412500Y-8372500D01*
X7412500Y-8027500D02*
X7067500Y-8372500D01*
X7412500Y-8200000D02*
G75*
G02*
X7067500Y-8200000I-172500J0D01*
G01*
X7067500Y-8200000D02*
G75*
G02*
X7412500Y-8200000I172500J0D01*
G01*
X12587500Y-9627500D02*
X12932500Y-9972500D01*
X12932500Y-9627500D02*
X12587500Y-9972500D01*
X12932500Y-9800000D02*
G75*
G02*
X12587500Y-9800000I-172500J0D01*
G01*
X12587500Y-9800000D02*
G75*
G02*
X12932500Y-9800000I172500J0D01*
G01*
D12*
X5852777Y-11319484D02*
X5852777Y-11119484D01*
X5852777Y-11119484D02*
X5900396Y-11119484D01*
X5900396Y-11119484D02*
X5928967Y-11129008D01*
X5928967Y-11129008D02*
X5948015Y-11148055D01*
X5948015Y-11148055D02*
X5957539Y-11167103D01*
X5957539Y-11167103D02*
X5967062Y-11205198D01*
X5967062Y-11205198D02*
X5967062Y-11233769D01*
X5967062Y-11233769D02*
X5957539Y-11271865D01*
X5957539Y-11271865D02*
X5948015Y-11290912D01*
X5948015Y-11290912D02*
X5928967Y-11309960D01*
X5928967Y-11309960D02*
X5900396Y-11319484D01*
X5900396Y-11319484D02*
X5852777Y-11319484D01*
X6052777Y-11319484D02*
X6052777Y-11186150D01*
X6052777Y-11224246D02*
X6062301Y-11205198D01*
X6062301Y-11205198D02*
X6071824Y-11195674D01*
X6071824Y-11195674D02*
X6090872Y-11186150D01*
X6090872Y-11186150D02*
X6109920Y-11186150D01*
X6176586Y-11319484D02*
X6176586Y-11186150D01*
X6176586Y-11119484D02*
X6167062Y-11129008D01*
X6167062Y-11129008D02*
X6176586Y-11138531D01*
X6176586Y-11138531D02*
X6186110Y-11129008D01*
X6186110Y-11129008D02*
X6176586Y-11119484D01*
X6176586Y-11119484D02*
X6176586Y-11138531D01*
X6300396Y-11319484D02*
X6281348Y-11309960D01*
X6281348Y-11309960D02*
X6271824Y-11290912D01*
X6271824Y-11290912D02*
X6271824Y-11119484D01*
X6405158Y-11319484D02*
X6386110Y-11309960D01*
X6386110Y-11309960D02*
X6376586Y-11290912D01*
X6376586Y-11290912D02*
X6376586Y-11119484D01*
X6633729Y-11319484D02*
X6633729Y-11119484D01*
X6633729Y-11119484D02*
X6700396Y-11262341D01*
X6700396Y-11262341D02*
X6767062Y-11119484D01*
X6767062Y-11119484D02*
X6767062Y-11319484D01*
X6948015Y-11319484D02*
X6948015Y-11214722D01*
X6948015Y-11214722D02*
X6938491Y-11195674D01*
X6938491Y-11195674D02*
X6919443Y-11186150D01*
X6919443Y-11186150D02*
X6881348Y-11186150D01*
X6881348Y-11186150D02*
X6862301Y-11195674D01*
X6948015Y-11309960D02*
X6928967Y-11319484D01*
X6928967Y-11319484D02*
X6881348Y-11319484D01*
X6881348Y-11319484D02*
X6862301Y-11309960D01*
X6862301Y-11309960D02*
X6852777Y-11290912D01*
X6852777Y-11290912D02*
X6852777Y-11271865D01*
X6852777Y-11271865D02*
X6862301Y-11252817D01*
X6862301Y-11252817D02*
X6881348Y-11243293D01*
X6881348Y-11243293D02*
X6928967Y-11243293D01*
X6928967Y-11243293D02*
X6948015Y-11233769D01*
X7043253Y-11186150D02*
X7043253Y-11386150D01*
X7043253Y-11195674D02*
X7062301Y-11186150D01*
X7062301Y-11186150D02*
X7100396Y-11186150D01*
X7100396Y-11186150D02*
X7119443Y-11195674D01*
X7119443Y-11195674D02*
X7128967Y-11205198D01*
X7128967Y-11205198D02*
X7138491Y-11224246D01*
X7138491Y-11224246D02*
X7138491Y-11281388D01*
X7138491Y-11281388D02*
X7128967Y-11300436D01*
X7128967Y-11300436D02*
X7119443Y-11309960D01*
X7119443Y-11309960D02*
X7100396Y-11319484D01*
X7100396Y-11319484D02*
X7062301Y-11319484D01*
X7062301Y-11319484D02*
X7043253Y-11309960D01*
X7224205Y-11300436D02*
X7233729Y-11309960D01*
X7233729Y-11309960D02*
X7224205Y-11319484D01*
X7224205Y-11319484D02*
X7214682Y-11309960D01*
X7214682Y-11309960D02*
X7224205Y-11300436D01*
X7224205Y-11300436D02*
X7224205Y-11319484D01*
X7224205Y-11195674D02*
X7233729Y-11205198D01*
X7233729Y-11205198D02*
X7224205Y-11214722D01*
X7224205Y-11214722D02*
X7214682Y-11205198D01*
X7214682Y-11205198D02*
X7224205Y-11195674D01*
X7224205Y-11195674D02*
X7224205Y-11214722D01*
D11*
X5527000Y-11615500D02*
X5592000Y-11680500D01*
X5592000Y-11615500D02*
X5527000Y-11680500D01*
D12*
X5890872Y-11539484D02*
X5909920Y-11539484D01*
X5909920Y-11539484D02*
X5928967Y-11549008D01*
X5928967Y-11549008D02*
X5938491Y-11558531D01*
X5938491Y-11558531D02*
X5948015Y-11577579D01*
X5948015Y-11577579D02*
X5957539Y-11615674D01*
X5957539Y-11615674D02*
X5957539Y-11663293D01*
X5957539Y-11663293D02*
X5948015Y-11701388D01*
X5948015Y-11701388D02*
X5938491Y-11720436D01*
X5938491Y-11720436D02*
X5928967Y-11729960D01*
X5928967Y-11729960D02*
X5909920Y-11739484D01*
X5909920Y-11739484D02*
X5890872Y-11739484D01*
X5890872Y-11739484D02*
X5871824Y-11729960D01*
X5871824Y-11729960D02*
X5862301Y-11720436D01*
X5862301Y-11720436D02*
X5852777Y-11701388D01*
X5852777Y-11701388D02*
X5843253Y-11663293D01*
X5843253Y-11663293D02*
X5843253Y-11615674D01*
X5843253Y-11615674D02*
X5852777Y-11577579D01*
X5852777Y-11577579D02*
X5862301Y-11558531D01*
X5862301Y-11558531D02*
X5871824Y-11549008D01*
X5871824Y-11549008D02*
X5890872Y-11539484D01*
X6043253Y-11720436D02*
X6052777Y-11729960D01*
X6052777Y-11729960D02*
X6043253Y-11739484D01*
X6043253Y-11739484D02*
X6033729Y-11729960D01*
X6033729Y-11729960D02*
X6043253Y-11720436D01*
X6043253Y-11720436D02*
X6043253Y-11739484D01*
X6224205Y-11539484D02*
X6186110Y-11539484D01*
X6186110Y-11539484D02*
X6167062Y-11549008D01*
X6167062Y-11549008D02*
X6157539Y-11558531D01*
X6157539Y-11558531D02*
X6138491Y-11587103D01*
X6138491Y-11587103D02*
X6128967Y-11625198D01*
X6128967Y-11625198D02*
X6128967Y-11701388D01*
X6128967Y-11701388D02*
X6138491Y-11720436D01*
X6138491Y-11720436D02*
X6148015Y-11729960D01*
X6148015Y-11729960D02*
X6167062Y-11739484D01*
X6167062Y-11739484D02*
X6205158Y-11739484D01*
X6205158Y-11739484D02*
X6224205Y-11729960D01*
X6224205Y-11729960D02*
X6233729Y-11720436D01*
X6233729Y-11720436D02*
X6243253Y-11701388D01*
X6243253Y-11701388D02*
X6243253Y-11653769D01*
X6243253Y-11653769D02*
X6233729Y-11634722D01*
X6233729Y-11634722D02*
X6224205Y-11625198D01*
X6224205Y-11625198D02*
X6205158Y-11615674D01*
X6205158Y-11615674D02*
X6167062Y-11615674D01*
X6167062Y-11615674D02*
X6148015Y-11625198D01*
X6148015Y-11625198D02*
X6138491Y-11634722D01*
X6138491Y-11634722D02*
X6128967Y-11653769D01*
X6424205Y-11539484D02*
X6328967Y-11539484D01*
X6328967Y-11539484D02*
X6319443Y-11634722D01*
X6319443Y-11634722D02*
X6328967Y-11625198D01*
X6328967Y-11625198D02*
X6348015Y-11615674D01*
X6348015Y-11615674D02*
X6395634Y-11615674D01*
X6395634Y-11615674D02*
X6414682Y-11625198D01*
X6414682Y-11625198D02*
X6424205Y-11634722D01*
X6424205Y-11634722D02*
X6433729Y-11653769D01*
X6433729Y-11653769D02*
X6433729Y-11701388D01*
X6433729Y-11701388D02*
X6424205Y-11720436D01*
X6424205Y-11720436D02*
X6414682Y-11729960D01*
X6414682Y-11729960D02*
X6395634Y-11739484D01*
X6395634Y-11739484D02*
X6348015Y-11739484D01*
X6348015Y-11739484D02*
X6328967Y-11729960D01*
X6328967Y-11729960D02*
X6319443Y-11720436D01*
X6557539Y-11539484D02*
X6576586Y-11539484D01*
X6576586Y-11539484D02*
X6595634Y-11549008D01*
X6595634Y-11549008D02*
X6605158Y-11558531D01*
X6605158Y-11558531D02*
X6614682Y-11577579D01*
X6614682Y-11577579D02*
X6624205Y-11615674D01*
X6624205Y-11615674D02*
X6624205Y-11663293D01*
X6624205Y-11663293D02*
X6614682Y-11701388D01*
X6614682Y-11701388D02*
X6605158Y-11720436D01*
X6605158Y-11720436D02*
X6595634Y-11729960D01*
X6595634Y-11729960D02*
X6576586Y-11739484D01*
X6576586Y-11739484D02*
X6557539Y-11739484D01*
X6557539Y-11739484D02*
X6538491Y-11729960D01*
X6538491Y-11729960D02*
X6528967Y-11720436D01*
X6528967Y-11720436D02*
X6519443Y-11701388D01*
X6519443Y-11701388D02*
X6509920Y-11663293D01*
X6509920Y-11663293D02*
X6509920Y-11615674D01*
X6509920Y-11615674D02*
X6519443Y-11577579D01*
X6519443Y-11577579D02*
X6528967Y-11558531D01*
X6528967Y-11558531D02*
X6538491Y-11549008D01*
X6538491Y-11549008D02*
X6557539Y-11539484D01*
X6709920Y-11739484D02*
X6709920Y-11606150D01*
X6709920Y-11625198D02*
X6719443Y-11615674D01*
X6719443Y-11615674D02*
X6738491Y-11606150D01*
X6738491Y-11606150D02*
X6767063Y-11606150D01*
X6767063Y-11606150D02*
X6786110Y-11615674D01*
X6786110Y-11615674D02*
X6795634Y-11634722D01*
X6795634Y-11634722D02*
X6795634Y-11739484D01*
X6795634Y-11634722D02*
X6805158Y-11615674D01*
X6805158Y-11615674D02*
X6824205Y-11606150D01*
X6824205Y-11606150D02*
X6852777Y-11606150D01*
X6852777Y-11606150D02*
X6871824Y-11615674D01*
X6871824Y-11615674D02*
X6881348Y-11634722D01*
X6881348Y-11634722D02*
X6881348Y-11739484D01*
X6976586Y-11739484D02*
X6976586Y-11606150D01*
X6976586Y-11625198D02*
X6986110Y-11615674D01*
X6986110Y-11615674D02*
X7005158Y-11606150D01*
X7005158Y-11606150D02*
X7033729Y-11606150D01*
X7033729Y-11606150D02*
X7052777Y-11615674D01*
X7052777Y-11615674D02*
X7062301Y-11634722D01*
X7062301Y-11634722D02*
X7062301Y-11739484D01*
X7062301Y-11634722D02*
X7071824Y-11615674D01*
X7071824Y-11615674D02*
X7090872Y-11606150D01*
X7090872Y-11606150D02*
X7119443Y-11606150D01*
X7119443Y-11606150D02*
X7138491Y-11615674D01*
X7138491Y-11615674D02*
X7148015Y-11634722D01*
X7148015Y-11634722D02*
X7148015Y-11739484D01*
X7538491Y-11529960D02*
X7367063Y-11787103D01*
X7795634Y-11539484D02*
X7814682Y-11539484D01*
X7814682Y-11539484D02*
X7833729Y-11549008D01*
X7833729Y-11549008D02*
X7843253Y-11558531D01*
X7843253Y-11558531D02*
X7852777Y-11577579D01*
X7852777Y-11577579D02*
X7862301Y-11615674D01*
X7862301Y-11615674D02*
X7862301Y-11663293D01*
X7862301Y-11663293D02*
X7852777Y-11701388D01*
X7852777Y-11701388D02*
X7843253Y-11720436D01*
X7843253Y-11720436D02*
X7833729Y-11729960D01*
X7833729Y-11729960D02*
X7814682Y-11739484D01*
X7814682Y-11739484D02*
X7795634Y-11739484D01*
X7795634Y-11739484D02*
X7776586Y-11729960D01*
X7776586Y-11729960D02*
X7767063Y-11720436D01*
X7767063Y-11720436D02*
X7757539Y-11701388D01*
X7757539Y-11701388D02*
X7748015Y-11663293D01*
X7748015Y-11663293D02*
X7748015Y-11615674D01*
X7748015Y-11615674D02*
X7757539Y-11577579D01*
X7757539Y-11577579D02*
X7767063Y-11558531D01*
X7767063Y-11558531D02*
X7776586Y-11549008D01*
X7776586Y-11549008D02*
X7795634Y-11539484D01*
X7948015Y-11720436D02*
X7957539Y-11729960D01*
X7957539Y-11729960D02*
X7948015Y-11739484D01*
X7948015Y-11739484D02*
X7938491Y-11729960D01*
X7938491Y-11729960D02*
X7948015Y-11720436D01*
X7948015Y-11720436D02*
X7948015Y-11739484D01*
X8081348Y-11539484D02*
X8100396Y-11539484D01*
X8100396Y-11539484D02*
X8119444Y-11549008D01*
X8119444Y-11549008D02*
X8128967Y-11558531D01*
X8128967Y-11558531D02*
X8138491Y-11577579D01*
X8138491Y-11577579D02*
X8148015Y-11615674D01*
X8148015Y-11615674D02*
X8148015Y-11663293D01*
X8148015Y-11663293D02*
X8138491Y-11701388D01*
X8138491Y-11701388D02*
X8128967Y-11720436D01*
X8128967Y-11720436D02*
X8119444Y-11729960D01*
X8119444Y-11729960D02*
X8100396Y-11739484D01*
X8100396Y-11739484D02*
X8081348Y-11739484D01*
X8081348Y-11739484D02*
X8062301Y-11729960D01*
X8062301Y-11729960D02*
X8052777Y-11720436D01*
X8052777Y-11720436D02*
X8043253Y-11701388D01*
X8043253Y-11701388D02*
X8033729Y-11663293D01*
X8033729Y-11663293D02*
X8033729Y-11615674D01*
X8033729Y-11615674D02*
X8043253Y-11577579D01*
X8043253Y-11577579D02*
X8052777Y-11558531D01*
X8052777Y-11558531D02*
X8062301Y-11549008D01*
X8062301Y-11549008D02*
X8081348Y-11539484D01*
X8224206Y-11558531D02*
X8233729Y-11549008D01*
X8233729Y-11549008D02*
X8252777Y-11539484D01*
X8252777Y-11539484D02*
X8300396Y-11539484D01*
X8300396Y-11539484D02*
X8319444Y-11549008D01*
X8319444Y-11549008D02*
X8328967Y-11558531D01*
X8328967Y-11558531D02*
X8338491Y-11577579D01*
X8338491Y-11577579D02*
X8338491Y-11596627D01*
X8338491Y-11596627D02*
X8328967Y-11625198D01*
X8328967Y-11625198D02*
X8214682Y-11739484D01*
X8214682Y-11739484D02*
X8338491Y-11739484D01*
X8519444Y-11539484D02*
X8424206Y-11539484D01*
X8424206Y-11539484D02*
X8414682Y-11634722D01*
X8414682Y-11634722D02*
X8424206Y-11625198D01*
X8424206Y-11625198D02*
X8443253Y-11615674D01*
X8443253Y-11615674D02*
X8490872Y-11615674D01*
X8490872Y-11615674D02*
X8509920Y-11625198D01*
X8509920Y-11625198D02*
X8519444Y-11634722D01*
X8519444Y-11634722D02*
X8528968Y-11653769D01*
X8528968Y-11653769D02*
X8528968Y-11701388D01*
X8528968Y-11701388D02*
X8519444Y-11720436D01*
X8519444Y-11720436D02*
X8509920Y-11729960D01*
X8509920Y-11729960D02*
X8490872Y-11739484D01*
X8490872Y-11739484D02*
X8443253Y-11739484D01*
X8443253Y-11739484D02*
X8424206Y-11729960D01*
X8424206Y-11729960D02*
X8414682Y-11720436D01*
X8700396Y-11539484D02*
X8662301Y-11539484D01*
X8662301Y-11539484D02*
X8643253Y-11549008D01*
X8643253Y-11549008D02*
X8633729Y-11558531D01*
X8633729Y-11558531D02*
X8614682Y-11587103D01*
X8614682Y-11587103D02*
X8605158Y-11625198D01*
X8605158Y-11625198D02*
X8605158Y-11701388D01*
X8605158Y-11701388D02*
X8614682Y-11720436D01*
X8614682Y-11720436D02*
X8624206Y-11729960D01*
X8624206Y-11729960D02*
X8643253Y-11739484D01*
X8643253Y-11739484D02*
X8681349Y-11739484D01*
X8681349Y-11739484D02*
X8700396Y-11729960D01*
X8700396Y-11729960D02*
X8709920Y-11720436D01*
X8709920Y-11720436D02*
X8719444Y-11701388D01*
X8719444Y-11701388D02*
X8719444Y-11653769D01*
X8719444Y-11653769D02*
X8709920Y-11634722D01*
X8709920Y-11634722D02*
X8700396Y-11625198D01*
X8700396Y-11625198D02*
X8681349Y-11615674D01*
X8681349Y-11615674D02*
X8643253Y-11615674D01*
X8643253Y-11615674D02*
X8624206Y-11625198D01*
X8624206Y-11625198D02*
X8614682Y-11634722D01*
X8614682Y-11634722D02*
X8605158Y-11653769D01*
X8795634Y-11539484D02*
X8795634Y-11577579D01*
X8871825Y-11539484D02*
X8871825Y-11577579D01*
X9167063Y-11815674D02*
X9157539Y-11806150D01*
X9157539Y-11806150D02*
X9138491Y-11777579D01*
X9138491Y-11777579D02*
X9128968Y-11758531D01*
X9128968Y-11758531D02*
X9119444Y-11729960D01*
X9119444Y-11729960D02*
X9109920Y-11682341D01*
X9109920Y-11682341D02*
X9109920Y-11644246D01*
X9109920Y-11644246D02*
X9119444Y-11596627D01*
X9119444Y-11596627D02*
X9128968Y-11568055D01*
X9128968Y-11568055D02*
X9138491Y-11549008D01*
X9138491Y-11549008D02*
X9157539Y-11520436D01*
X9157539Y-11520436D02*
X9167063Y-11510912D01*
X9233730Y-11558531D02*
X9243253Y-11549008D01*
X9243253Y-11549008D02*
X9262301Y-11539484D01*
X9262301Y-11539484D02*
X9309920Y-11539484D01*
X9309920Y-11539484D02*
X9328968Y-11549008D01*
X9328968Y-11549008D02*
X9338491Y-11558531D01*
X9338491Y-11558531D02*
X9348015Y-11577579D01*
X9348015Y-11577579D02*
X9348015Y-11596627D01*
X9348015Y-11596627D02*
X9338491Y-11625198D01*
X9338491Y-11625198D02*
X9224206Y-11739484D01*
X9224206Y-11739484D02*
X9348015Y-11739484D01*
X9586111Y-11739484D02*
X9586111Y-11539484D01*
X9671825Y-11739484D02*
X9671825Y-11634722D01*
X9671825Y-11634722D02*
X9662301Y-11615674D01*
X9662301Y-11615674D02*
X9643253Y-11606150D01*
X9643253Y-11606150D02*
X9614682Y-11606150D01*
X9614682Y-11606150D02*
X9595634Y-11615674D01*
X9595634Y-11615674D02*
X9586111Y-11625198D01*
X9795634Y-11739484D02*
X9776587Y-11729960D01*
X9776587Y-11729960D02*
X9767063Y-11720436D01*
X9767063Y-11720436D02*
X9757539Y-11701388D01*
X9757539Y-11701388D02*
X9757539Y-11644246D01*
X9757539Y-11644246D02*
X9767063Y-11625198D01*
X9767063Y-11625198D02*
X9776587Y-11615674D01*
X9776587Y-11615674D02*
X9795634Y-11606150D01*
X9795634Y-11606150D02*
X9824206Y-11606150D01*
X9824206Y-11606150D02*
X9843253Y-11615674D01*
X9843253Y-11615674D02*
X9852777Y-11625198D01*
X9852777Y-11625198D02*
X9862301Y-11644246D01*
X9862301Y-11644246D02*
X9862301Y-11701388D01*
X9862301Y-11701388D02*
X9852777Y-11720436D01*
X9852777Y-11720436D02*
X9843253Y-11729960D01*
X9843253Y-11729960D02*
X9824206Y-11739484D01*
X9824206Y-11739484D02*
X9795634Y-11739484D01*
X9976587Y-11739484D02*
X9957539Y-11729960D01*
X9957539Y-11729960D02*
X9948015Y-11710912D01*
X9948015Y-11710912D02*
X9948015Y-11539484D01*
X10128968Y-11729960D02*
X10109920Y-11739484D01*
X10109920Y-11739484D02*
X10071825Y-11739484D01*
X10071825Y-11739484D02*
X10052777Y-11729960D01*
X10052777Y-11729960D02*
X10043253Y-11710912D01*
X10043253Y-11710912D02*
X10043253Y-11634722D01*
X10043253Y-11634722D02*
X10052777Y-11615674D01*
X10052777Y-11615674D02*
X10071825Y-11606150D01*
X10071825Y-11606150D02*
X10109920Y-11606150D01*
X10109920Y-11606150D02*
X10128968Y-11615674D01*
X10128968Y-11615674D02*
X10138492Y-11634722D01*
X10138492Y-11634722D02*
X10138492Y-11653769D01*
X10138492Y-11653769D02*
X10043253Y-11672817D01*
X10214682Y-11729960D02*
X10233730Y-11739484D01*
X10233730Y-11739484D02*
X10271825Y-11739484D01*
X10271825Y-11739484D02*
X10290873Y-11729960D01*
X10290873Y-11729960D02*
X10300396Y-11710912D01*
X10300396Y-11710912D02*
X10300396Y-11701388D01*
X10300396Y-11701388D02*
X10290873Y-11682341D01*
X10290873Y-11682341D02*
X10271825Y-11672817D01*
X10271825Y-11672817D02*
X10243253Y-11672817D01*
X10243253Y-11672817D02*
X10224206Y-11663293D01*
X10224206Y-11663293D02*
X10214682Y-11644246D01*
X10214682Y-11644246D02*
X10214682Y-11634722D01*
X10214682Y-11634722D02*
X10224206Y-11615674D01*
X10224206Y-11615674D02*
X10243253Y-11606150D01*
X10243253Y-11606150D02*
X10271825Y-11606150D01*
X10271825Y-11606150D02*
X10290873Y-11615674D01*
X10367063Y-11815674D02*
X10376587Y-11806150D01*
X10376587Y-11806150D02*
X10395634Y-11777579D01*
X10395634Y-11777579D02*
X10405158Y-11758531D01*
X10405158Y-11758531D02*
X10414682Y-11729960D01*
X10414682Y-11729960D02*
X10424206Y-11682341D01*
X10424206Y-11682341D02*
X10424206Y-11644246D01*
X10424206Y-11644246D02*
X10414682Y-11596627D01*
X10414682Y-11596627D02*
X10405158Y-11568055D01*
X10405158Y-11568055D02*
X10395634Y-11549008D01*
X10395634Y-11549008D02*
X10376587Y-11520436D01*
X10376587Y-11520436D02*
X10367063Y-11510912D01*
X10728968Y-11815674D02*
X10719444Y-11806150D01*
X10719444Y-11806150D02*
X10700396Y-11777579D01*
X10700396Y-11777579D02*
X10690873Y-11758531D01*
X10690873Y-11758531D02*
X10681349Y-11729960D01*
X10681349Y-11729960D02*
X10671825Y-11682341D01*
X10671825Y-11682341D02*
X10671825Y-11644246D01*
X10671825Y-11644246D02*
X10681349Y-11596627D01*
X10681349Y-11596627D02*
X10690873Y-11568055D01*
X10690873Y-11568055D02*
X10700396Y-11549008D01*
X10700396Y-11549008D02*
X10719444Y-11520436D01*
X10719444Y-11520436D02*
X10728968Y-11510912D01*
X10805158Y-11606150D02*
X10805158Y-11739484D01*
X10805158Y-11625198D02*
X10814682Y-11615674D01*
X10814682Y-11615674D02*
X10833730Y-11606150D01*
X10833730Y-11606150D02*
X10862301Y-11606150D01*
X10862301Y-11606150D02*
X10881349Y-11615674D01*
X10881349Y-11615674D02*
X10890873Y-11634722D01*
X10890873Y-11634722D02*
X10890873Y-11739484D01*
X11014682Y-11739484D02*
X10995634Y-11729960D01*
X10995634Y-11729960D02*
X10986111Y-11720436D01*
X10986111Y-11720436D02*
X10976587Y-11701388D01*
X10976587Y-11701388D02*
X10976587Y-11644246D01*
X10976587Y-11644246D02*
X10986111Y-11625198D01*
X10986111Y-11625198D02*
X10995634Y-11615674D01*
X10995634Y-11615674D02*
X11014682Y-11606150D01*
X11014682Y-11606150D02*
X11043254Y-11606150D01*
X11043254Y-11606150D02*
X11062301Y-11615674D01*
X11062301Y-11615674D02*
X11071825Y-11625198D01*
X11071825Y-11625198D02*
X11081349Y-11644246D01*
X11081349Y-11644246D02*
X11081349Y-11701388D01*
X11081349Y-11701388D02*
X11071825Y-11720436D01*
X11071825Y-11720436D02*
X11062301Y-11729960D01*
X11062301Y-11729960D02*
X11043254Y-11739484D01*
X11043254Y-11739484D02*
X11014682Y-11739484D01*
X11138492Y-11606150D02*
X11214682Y-11606150D01*
X11167063Y-11539484D02*
X11167063Y-11710912D01*
X11167063Y-11710912D02*
X11176587Y-11729960D01*
X11176587Y-11729960D02*
X11195634Y-11739484D01*
X11195634Y-11739484D02*
X11214682Y-11739484D01*
X11433730Y-11606150D02*
X11433730Y-11806150D01*
X11433730Y-11615674D02*
X11452777Y-11606150D01*
X11452777Y-11606150D02*
X11490873Y-11606150D01*
X11490873Y-11606150D02*
X11509920Y-11615674D01*
X11509920Y-11615674D02*
X11519444Y-11625198D01*
X11519444Y-11625198D02*
X11528968Y-11644246D01*
X11528968Y-11644246D02*
X11528968Y-11701388D01*
X11528968Y-11701388D02*
X11519444Y-11720436D01*
X11519444Y-11720436D02*
X11509920Y-11729960D01*
X11509920Y-11729960D02*
X11490873Y-11739484D01*
X11490873Y-11739484D02*
X11452777Y-11739484D01*
X11452777Y-11739484D02*
X11433730Y-11729960D01*
X11643253Y-11739484D02*
X11624206Y-11729960D01*
X11624206Y-11729960D02*
X11614682Y-11710912D01*
X11614682Y-11710912D02*
X11614682Y-11539484D01*
X11805158Y-11739484D02*
X11805158Y-11634722D01*
X11805158Y-11634722D02*
X11795634Y-11615674D01*
X11795634Y-11615674D02*
X11776587Y-11606150D01*
X11776587Y-11606150D02*
X11738492Y-11606150D01*
X11738492Y-11606150D02*
X11719444Y-11615674D01*
X11805158Y-11729960D02*
X11786111Y-11739484D01*
X11786111Y-11739484D02*
X11738492Y-11739484D01*
X11738492Y-11739484D02*
X11719444Y-11729960D01*
X11719444Y-11729960D02*
X11709920Y-11710912D01*
X11709920Y-11710912D02*
X11709920Y-11691865D01*
X11709920Y-11691865D02*
X11719444Y-11672817D01*
X11719444Y-11672817D02*
X11738492Y-11663293D01*
X11738492Y-11663293D02*
X11786111Y-11663293D01*
X11786111Y-11663293D02*
X11805158Y-11653769D01*
X11871825Y-11606150D02*
X11948015Y-11606150D01*
X11900396Y-11539484D02*
X11900396Y-11710912D01*
X11900396Y-11710912D02*
X11909920Y-11729960D01*
X11909920Y-11729960D02*
X11928968Y-11739484D01*
X11928968Y-11739484D02*
X11948015Y-11739484D01*
X12090873Y-11729960D02*
X12071825Y-11739484D01*
X12071825Y-11739484D02*
X12033730Y-11739484D01*
X12033730Y-11739484D02*
X12014682Y-11729960D01*
X12014682Y-11729960D02*
X12005158Y-11710912D01*
X12005158Y-11710912D02*
X12005158Y-11634722D01*
X12005158Y-11634722D02*
X12014682Y-11615674D01*
X12014682Y-11615674D02*
X12033730Y-11606150D01*
X12033730Y-11606150D02*
X12071825Y-11606150D01*
X12071825Y-11606150D02*
X12090873Y-11615674D01*
X12090873Y-11615674D02*
X12100396Y-11634722D01*
X12100396Y-11634722D02*
X12100396Y-11653769D01*
X12100396Y-11653769D02*
X12005158Y-11672817D01*
X12271825Y-11739484D02*
X12271825Y-11539484D01*
X12271825Y-11729960D02*
X12252777Y-11739484D01*
X12252777Y-11739484D02*
X12214682Y-11739484D01*
X12214682Y-11739484D02*
X12195634Y-11729960D01*
X12195634Y-11729960D02*
X12186111Y-11720436D01*
X12186111Y-11720436D02*
X12176587Y-11701388D01*
X12176587Y-11701388D02*
X12176587Y-11644246D01*
X12176587Y-11644246D02*
X12186111Y-11625198D01*
X12186111Y-11625198D02*
X12195634Y-11615674D01*
X12195634Y-11615674D02*
X12214682Y-11606150D01*
X12214682Y-11606150D02*
X12252777Y-11606150D01*
X12252777Y-11606150D02*
X12271825Y-11615674D01*
X12348015Y-11815674D02*
X12357539Y-11806150D01*
X12357539Y-11806150D02*
X12376587Y-11777579D01*
X12376587Y-11777579D02*
X12386111Y-11758531D01*
X12386111Y-11758531D02*
X12395634Y-11729960D01*
X12395634Y-11729960D02*
X12405158Y-11682341D01*
X12405158Y-11682341D02*
X12405158Y-11644246D01*
X12405158Y-11644246D02*
X12395634Y-11596627D01*
X12395634Y-11596627D02*
X12386111Y-11568055D01*
X12386111Y-11568055D02*
X12376587Y-11549008D01*
X12376587Y-11549008D02*
X12357539Y-11520436D01*
X12357539Y-11520436D02*
X12348015Y-11510912D01*
D11*
X5592000Y-11912000D02*
G75*
G02*
X5492940Y-11912000I-49530J0D01*
G01*
X5492940Y-11912000D02*
G75*
G02*
X5592000Y-11912000I49530J0D01*
G01*
D12*
X5890872Y-11803484D02*
X5909920Y-11803484D01*
X5909920Y-11803484D02*
X5928967Y-11813008D01*
X5928967Y-11813008D02*
X5938491Y-11822531D01*
X5938491Y-11822531D02*
X5948015Y-11841579D01*
X5948015Y-11841579D02*
X5957539Y-11879674D01*
X5957539Y-11879674D02*
X5957539Y-11927293D01*
X5957539Y-11927293D02*
X5948015Y-11965388D01*
X5948015Y-11965388D02*
X5938491Y-11984436D01*
X5938491Y-11984436D02*
X5928967Y-11993960D01*
X5928967Y-11993960D02*
X5909920Y-12003484D01*
X5909920Y-12003484D02*
X5890872Y-12003484D01*
X5890872Y-12003484D02*
X5871824Y-11993960D01*
X5871824Y-11993960D02*
X5862301Y-11984436D01*
X5862301Y-11984436D02*
X5852777Y-11965388D01*
X5852777Y-11965388D02*
X5843253Y-11927293D01*
X5843253Y-11927293D02*
X5843253Y-11879674D01*
X5843253Y-11879674D02*
X5852777Y-11841579D01*
X5852777Y-11841579D02*
X5862301Y-11822531D01*
X5862301Y-11822531D02*
X5871824Y-11813008D01*
X5871824Y-11813008D02*
X5890872Y-11803484D01*
X6043253Y-11984436D02*
X6052777Y-11993960D01*
X6052777Y-11993960D02*
X6043253Y-12003484D01*
X6043253Y-12003484D02*
X6033729Y-11993960D01*
X6033729Y-11993960D02*
X6043253Y-11984436D01*
X6043253Y-11984436D02*
X6043253Y-12003484D01*
X6148015Y-12003484D02*
X6186110Y-12003484D01*
X6186110Y-12003484D02*
X6205158Y-11993960D01*
X6205158Y-11993960D02*
X6214682Y-11984436D01*
X6214682Y-11984436D02*
X6233729Y-11955865D01*
X6233729Y-11955865D02*
X6243253Y-11917769D01*
X6243253Y-11917769D02*
X6243253Y-11841579D01*
X6243253Y-11841579D02*
X6233729Y-11822531D01*
X6233729Y-11822531D02*
X6224205Y-11813008D01*
X6224205Y-11813008D02*
X6205158Y-11803484D01*
X6205158Y-11803484D02*
X6167062Y-11803484D01*
X6167062Y-11803484D02*
X6148015Y-11813008D01*
X6148015Y-11813008D02*
X6138491Y-11822531D01*
X6138491Y-11822531D02*
X6128967Y-11841579D01*
X6128967Y-11841579D02*
X6128967Y-11889198D01*
X6128967Y-11889198D02*
X6138491Y-11908246D01*
X6138491Y-11908246D02*
X6148015Y-11917769D01*
X6148015Y-11917769D02*
X6167062Y-11927293D01*
X6167062Y-11927293D02*
X6205158Y-11927293D01*
X6205158Y-11927293D02*
X6224205Y-11917769D01*
X6224205Y-11917769D02*
X6233729Y-11908246D01*
X6233729Y-11908246D02*
X6243253Y-11889198D01*
X6338491Y-12003484D02*
X6376586Y-12003484D01*
X6376586Y-12003484D02*
X6395634Y-11993960D01*
X6395634Y-11993960D02*
X6405158Y-11984436D01*
X6405158Y-11984436D02*
X6424205Y-11955865D01*
X6424205Y-11955865D02*
X6433729Y-11917769D01*
X6433729Y-11917769D02*
X6433729Y-11841579D01*
X6433729Y-11841579D02*
X6424205Y-11822531D01*
X6424205Y-11822531D02*
X6414682Y-11813008D01*
X6414682Y-11813008D02*
X6395634Y-11803484D01*
X6395634Y-11803484D02*
X6357539Y-11803484D01*
X6357539Y-11803484D02*
X6338491Y-11813008D01*
X6338491Y-11813008D02*
X6328967Y-11822531D01*
X6328967Y-11822531D02*
X6319443Y-11841579D01*
X6319443Y-11841579D02*
X6319443Y-11889198D01*
X6319443Y-11889198D02*
X6328967Y-11908246D01*
X6328967Y-11908246D02*
X6338491Y-11917769D01*
X6338491Y-11917769D02*
X6357539Y-11927293D01*
X6357539Y-11927293D02*
X6395634Y-11927293D01*
X6395634Y-11927293D02*
X6414682Y-11917769D01*
X6414682Y-11917769D02*
X6424205Y-11908246D01*
X6424205Y-11908246D02*
X6433729Y-11889198D01*
X6624205Y-12003484D02*
X6509920Y-12003484D01*
X6567062Y-12003484D02*
X6567062Y-11803484D01*
X6567062Y-11803484D02*
X6548015Y-11832055D01*
X6548015Y-11832055D02*
X6528967Y-11851103D01*
X6528967Y-11851103D02*
X6509920Y-11860627D01*
X6709920Y-12003484D02*
X6709920Y-11870150D01*
X6709920Y-11889198D02*
X6719443Y-11879674D01*
X6719443Y-11879674D02*
X6738491Y-11870150D01*
X6738491Y-11870150D02*
X6767063Y-11870150D01*
X6767063Y-11870150D02*
X6786110Y-11879674D01*
X6786110Y-11879674D02*
X6795634Y-11898722D01*
X6795634Y-11898722D02*
X6795634Y-12003484D01*
X6795634Y-11898722D02*
X6805158Y-11879674D01*
X6805158Y-11879674D02*
X6824205Y-11870150D01*
X6824205Y-11870150D02*
X6852777Y-11870150D01*
X6852777Y-11870150D02*
X6871824Y-11879674D01*
X6871824Y-11879674D02*
X6881348Y-11898722D01*
X6881348Y-11898722D02*
X6881348Y-12003484D01*
X6976586Y-12003484D02*
X6976586Y-11870150D01*
X6976586Y-11889198D02*
X6986110Y-11879674D01*
X6986110Y-11879674D02*
X7005158Y-11870150D01*
X7005158Y-11870150D02*
X7033729Y-11870150D01*
X7033729Y-11870150D02*
X7052777Y-11879674D01*
X7052777Y-11879674D02*
X7062301Y-11898722D01*
X7062301Y-11898722D02*
X7062301Y-12003484D01*
X7062301Y-11898722D02*
X7071824Y-11879674D01*
X7071824Y-11879674D02*
X7090872Y-11870150D01*
X7090872Y-11870150D02*
X7119443Y-11870150D01*
X7119443Y-11870150D02*
X7138491Y-11879674D01*
X7138491Y-11879674D02*
X7148015Y-11898722D01*
X7148015Y-11898722D02*
X7148015Y-12003484D01*
X7538491Y-11793960D02*
X7367063Y-12051103D01*
X7795634Y-11803484D02*
X7814682Y-11803484D01*
X7814682Y-11803484D02*
X7833729Y-11813008D01*
X7833729Y-11813008D02*
X7843253Y-11822531D01*
X7843253Y-11822531D02*
X7852777Y-11841579D01*
X7852777Y-11841579D02*
X7862301Y-11879674D01*
X7862301Y-11879674D02*
X7862301Y-11927293D01*
X7862301Y-11927293D02*
X7852777Y-11965388D01*
X7852777Y-11965388D02*
X7843253Y-11984436D01*
X7843253Y-11984436D02*
X7833729Y-11993960D01*
X7833729Y-11993960D02*
X7814682Y-12003484D01*
X7814682Y-12003484D02*
X7795634Y-12003484D01*
X7795634Y-12003484D02*
X7776586Y-11993960D01*
X7776586Y-11993960D02*
X7767063Y-11984436D01*
X7767063Y-11984436D02*
X7757539Y-11965388D01*
X7757539Y-11965388D02*
X7748015Y-11927293D01*
X7748015Y-11927293D02*
X7748015Y-11879674D01*
X7748015Y-11879674D02*
X7757539Y-11841579D01*
X7757539Y-11841579D02*
X7767063Y-11822531D01*
X7767063Y-11822531D02*
X7776586Y-11813008D01*
X7776586Y-11813008D02*
X7795634Y-11803484D01*
X7948015Y-11984436D02*
X7957539Y-11993960D01*
X7957539Y-11993960D02*
X7948015Y-12003484D01*
X7948015Y-12003484D02*
X7938491Y-11993960D01*
X7938491Y-11993960D02*
X7948015Y-11984436D01*
X7948015Y-11984436D02*
X7948015Y-12003484D01*
X8081348Y-11803484D02*
X8100396Y-11803484D01*
X8100396Y-11803484D02*
X8119444Y-11813008D01*
X8119444Y-11813008D02*
X8128967Y-11822531D01*
X8128967Y-11822531D02*
X8138491Y-11841579D01*
X8138491Y-11841579D02*
X8148015Y-11879674D01*
X8148015Y-11879674D02*
X8148015Y-11927293D01*
X8148015Y-11927293D02*
X8138491Y-11965388D01*
X8138491Y-11965388D02*
X8128967Y-11984436D01*
X8128967Y-11984436D02*
X8119444Y-11993960D01*
X8119444Y-11993960D02*
X8100396Y-12003484D01*
X8100396Y-12003484D02*
X8081348Y-12003484D01*
X8081348Y-12003484D02*
X8062301Y-11993960D01*
X8062301Y-11993960D02*
X8052777Y-11984436D01*
X8052777Y-11984436D02*
X8043253Y-11965388D01*
X8043253Y-11965388D02*
X8033729Y-11927293D01*
X8033729Y-11927293D02*
X8033729Y-11879674D01*
X8033729Y-11879674D02*
X8043253Y-11841579D01*
X8043253Y-11841579D02*
X8052777Y-11822531D01*
X8052777Y-11822531D02*
X8062301Y-11813008D01*
X8062301Y-11813008D02*
X8081348Y-11803484D01*
X8214682Y-11803484D02*
X8338491Y-11803484D01*
X8338491Y-11803484D02*
X8271825Y-11879674D01*
X8271825Y-11879674D02*
X8300396Y-11879674D01*
X8300396Y-11879674D02*
X8319444Y-11889198D01*
X8319444Y-11889198D02*
X8328967Y-11898722D01*
X8328967Y-11898722D02*
X8338491Y-11917769D01*
X8338491Y-11917769D02*
X8338491Y-11965388D01*
X8338491Y-11965388D02*
X8328967Y-11984436D01*
X8328967Y-11984436D02*
X8319444Y-11993960D01*
X8319444Y-11993960D02*
X8300396Y-12003484D01*
X8300396Y-12003484D02*
X8243253Y-12003484D01*
X8243253Y-12003484D02*
X8224206Y-11993960D01*
X8224206Y-11993960D02*
X8214682Y-11984436D01*
X8433729Y-12003484D02*
X8471825Y-12003484D01*
X8471825Y-12003484D02*
X8490872Y-11993960D01*
X8490872Y-11993960D02*
X8500396Y-11984436D01*
X8500396Y-11984436D02*
X8519444Y-11955865D01*
X8519444Y-11955865D02*
X8528968Y-11917769D01*
X8528968Y-11917769D02*
X8528968Y-11841579D01*
X8528968Y-11841579D02*
X8519444Y-11822531D01*
X8519444Y-11822531D02*
X8509920Y-11813008D01*
X8509920Y-11813008D02*
X8490872Y-11803484D01*
X8490872Y-11803484D02*
X8452777Y-11803484D01*
X8452777Y-11803484D02*
X8433729Y-11813008D01*
X8433729Y-11813008D02*
X8424206Y-11822531D01*
X8424206Y-11822531D02*
X8414682Y-11841579D01*
X8414682Y-11841579D02*
X8414682Y-11889198D01*
X8414682Y-11889198D02*
X8424206Y-11908246D01*
X8424206Y-11908246D02*
X8433729Y-11917769D01*
X8433729Y-11917769D02*
X8452777Y-11927293D01*
X8452777Y-11927293D02*
X8490872Y-11927293D01*
X8490872Y-11927293D02*
X8509920Y-11917769D01*
X8509920Y-11917769D02*
X8519444Y-11908246D01*
X8519444Y-11908246D02*
X8528968Y-11889198D01*
X8652777Y-11803484D02*
X8671825Y-11803484D01*
X8671825Y-11803484D02*
X8690872Y-11813008D01*
X8690872Y-11813008D02*
X8700396Y-11822531D01*
X8700396Y-11822531D02*
X8709920Y-11841579D01*
X8709920Y-11841579D02*
X8719444Y-11879674D01*
X8719444Y-11879674D02*
X8719444Y-11927293D01*
X8719444Y-11927293D02*
X8709920Y-11965388D01*
X8709920Y-11965388D02*
X8700396Y-11984436D01*
X8700396Y-11984436D02*
X8690872Y-11993960D01*
X8690872Y-11993960D02*
X8671825Y-12003484D01*
X8671825Y-12003484D02*
X8652777Y-12003484D01*
X8652777Y-12003484D02*
X8633729Y-11993960D01*
X8633729Y-11993960D02*
X8624206Y-11984436D01*
X8624206Y-11984436D02*
X8614682Y-11965388D01*
X8614682Y-11965388D02*
X8605158Y-11927293D01*
X8605158Y-11927293D02*
X8605158Y-11879674D01*
X8605158Y-11879674D02*
X8614682Y-11841579D01*
X8614682Y-11841579D02*
X8624206Y-11822531D01*
X8624206Y-11822531D02*
X8633729Y-11813008D01*
X8633729Y-11813008D02*
X8652777Y-11803484D01*
X8795634Y-11803484D02*
X8795634Y-11841579D01*
X8871825Y-11803484D02*
X8871825Y-11841579D01*
X9167063Y-12079674D02*
X9157539Y-12070150D01*
X9157539Y-12070150D02*
X9138491Y-12041579D01*
X9138491Y-12041579D02*
X9128968Y-12022531D01*
X9128968Y-12022531D02*
X9119444Y-11993960D01*
X9119444Y-11993960D02*
X9109920Y-11946341D01*
X9109920Y-11946341D02*
X9109920Y-11908246D01*
X9109920Y-11908246D02*
X9119444Y-11860627D01*
X9119444Y-11860627D02*
X9128968Y-11832055D01*
X9128968Y-11832055D02*
X9138491Y-11813008D01*
X9138491Y-11813008D02*
X9157539Y-11784436D01*
X9157539Y-11784436D02*
X9167063Y-11774912D01*
X9224206Y-11803484D02*
X9348015Y-11803484D01*
X9348015Y-11803484D02*
X9281349Y-11879674D01*
X9281349Y-11879674D02*
X9309920Y-11879674D01*
X9309920Y-11879674D02*
X9328968Y-11889198D01*
X9328968Y-11889198D02*
X9338491Y-11898722D01*
X9338491Y-11898722D02*
X9348015Y-11917769D01*
X9348015Y-11917769D02*
X9348015Y-11965388D01*
X9348015Y-11965388D02*
X9338491Y-11984436D01*
X9338491Y-11984436D02*
X9328968Y-11993960D01*
X9328968Y-11993960D02*
X9309920Y-12003484D01*
X9309920Y-12003484D02*
X9252777Y-12003484D01*
X9252777Y-12003484D02*
X9233730Y-11993960D01*
X9233730Y-11993960D02*
X9224206Y-11984436D01*
X9586111Y-12003484D02*
X9586111Y-11803484D01*
X9671825Y-12003484D02*
X9671825Y-11898722D01*
X9671825Y-11898722D02*
X9662301Y-11879674D01*
X9662301Y-11879674D02*
X9643253Y-11870150D01*
X9643253Y-11870150D02*
X9614682Y-11870150D01*
X9614682Y-11870150D02*
X9595634Y-11879674D01*
X9595634Y-11879674D02*
X9586111Y-11889198D01*
X9795634Y-12003484D02*
X9776587Y-11993960D01*
X9776587Y-11993960D02*
X9767063Y-11984436D01*
X9767063Y-11984436D02*
X9757539Y-11965388D01*
X9757539Y-11965388D02*
X9757539Y-11908246D01*
X9757539Y-11908246D02*
X9767063Y-11889198D01*
X9767063Y-11889198D02*
X9776587Y-11879674D01*
X9776587Y-11879674D02*
X9795634Y-11870150D01*
X9795634Y-11870150D02*
X9824206Y-11870150D01*
X9824206Y-11870150D02*
X9843253Y-11879674D01*
X9843253Y-11879674D02*
X9852777Y-11889198D01*
X9852777Y-11889198D02*
X9862301Y-11908246D01*
X9862301Y-11908246D02*
X9862301Y-11965388D01*
X9862301Y-11965388D02*
X9852777Y-11984436D01*
X9852777Y-11984436D02*
X9843253Y-11993960D01*
X9843253Y-11993960D02*
X9824206Y-12003484D01*
X9824206Y-12003484D02*
X9795634Y-12003484D01*
X9976587Y-12003484D02*
X9957539Y-11993960D01*
X9957539Y-11993960D02*
X9948015Y-11974912D01*
X9948015Y-11974912D02*
X9948015Y-11803484D01*
X10128968Y-11993960D02*
X10109920Y-12003484D01*
X10109920Y-12003484D02*
X10071825Y-12003484D01*
X10071825Y-12003484D02*
X10052777Y-11993960D01*
X10052777Y-11993960D02*
X10043253Y-11974912D01*
X10043253Y-11974912D02*
X10043253Y-11898722D01*
X10043253Y-11898722D02*
X10052777Y-11879674D01*
X10052777Y-11879674D02*
X10071825Y-11870150D01*
X10071825Y-11870150D02*
X10109920Y-11870150D01*
X10109920Y-11870150D02*
X10128968Y-11879674D01*
X10128968Y-11879674D02*
X10138492Y-11898722D01*
X10138492Y-11898722D02*
X10138492Y-11917769D01*
X10138492Y-11917769D02*
X10043253Y-11936817D01*
X10214682Y-11993960D02*
X10233730Y-12003484D01*
X10233730Y-12003484D02*
X10271825Y-12003484D01*
X10271825Y-12003484D02*
X10290873Y-11993960D01*
X10290873Y-11993960D02*
X10300396Y-11974912D01*
X10300396Y-11974912D02*
X10300396Y-11965388D01*
X10300396Y-11965388D02*
X10290873Y-11946341D01*
X10290873Y-11946341D02*
X10271825Y-11936817D01*
X10271825Y-11936817D02*
X10243253Y-11936817D01*
X10243253Y-11936817D02*
X10224206Y-11927293D01*
X10224206Y-11927293D02*
X10214682Y-11908246D01*
X10214682Y-11908246D02*
X10214682Y-11898722D01*
X10214682Y-11898722D02*
X10224206Y-11879674D01*
X10224206Y-11879674D02*
X10243253Y-11870150D01*
X10243253Y-11870150D02*
X10271825Y-11870150D01*
X10271825Y-11870150D02*
X10290873Y-11879674D01*
X10367063Y-12079674D02*
X10376587Y-12070150D01*
X10376587Y-12070150D02*
X10395634Y-12041579D01*
X10395634Y-12041579D02*
X10405158Y-12022531D01*
X10405158Y-12022531D02*
X10414682Y-11993960D01*
X10414682Y-11993960D02*
X10424206Y-11946341D01*
X10424206Y-11946341D02*
X10424206Y-11908246D01*
X10424206Y-11908246D02*
X10414682Y-11860627D01*
X10414682Y-11860627D02*
X10405158Y-11832055D01*
X10405158Y-11832055D02*
X10395634Y-11813008D01*
X10395634Y-11813008D02*
X10376587Y-11784436D01*
X10376587Y-11784436D02*
X10367063Y-11774912D01*
X10728968Y-12079674D02*
X10719444Y-12070150D01*
X10719444Y-12070150D02*
X10700396Y-12041579D01*
X10700396Y-12041579D02*
X10690873Y-12022531D01*
X10690873Y-12022531D02*
X10681349Y-11993960D01*
X10681349Y-11993960D02*
X10671825Y-11946341D01*
X10671825Y-11946341D02*
X10671825Y-11908246D01*
X10671825Y-11908246D02*
X10681349Y-11860627D01*
X10681349Y-11860627D02*
X10690873Y-11832055D01*
X10690873Y-11832055D02*
X10700396Y-11813008D01*
X10700396Y-11813008D02*
X10719444Y-11784436D01*
X10719444Y-11784436D02*
X10728968Y-11774912D01*
X10805158Y-11870150D02*
X10805158Y-12003484D01*
X10805158Y-11889198D02*
X10814682Y-11879674D01*
X10814682Y-11879674D02*
X10833730Y-11870150D01*
X10833730Y-11870150D02*
X10862301Y-11870150D01*
X10862301Y-11870150D02*
X10881349Y-11879674D01*
X10881349Y-11879674D02*
X10890873Y-11898722D01*
X10890873Y-11898722D02*
X10890873Y-12003484D01*
X11014682Y-12003484D02*
X10995634Y-11993960D01*
X10995634Y-11993960D02*
X10986111Y-11984436D01*
X10986111Y-11984436D02*
X10976587Y-11965388D01*
X10976587Y-11965388D02*
X10976587Y-11908246D01*
X10976587Y-11908246D02*
X10986111Y-11889198D01*
X10986111Y-11889198D02*
X10995634Y-11879674D01*
X10995634Y-11879674D02*
X11014682Y-11870150D01*
X11014682Y-11870150D02*
X11043254Y-11870150D01*
X11043254Y-11870150D02*
X11062301Y-11879674D01*
X11062301Y-11879674D02*
X11071825Y-11889198D01*
X11071825Y-11889198D02*
X11081349Y-11908246D01*
X11081349Y-11908246D02*
X11081349Y-11965388D01*
X11081349Y-11965388D02*
X11071825Y-11984436D01*
X11071825Y-11984436D02*
X11062301Y-11993960D01*
X11062301Y-11993960D02*
X11043254Y-12003484D01*
X11043254Y-12003484D02*
X11014682Y-12003484D01*
X11138492Y-11870150D02*
X11214682Y-11870150D01*
X11167063Y-11803484D02*
X11167063Y-11974912D01*
X11167063Y-11974912D02*
X11176587Y-11993960D01*
X11176587Y-11993960D02*
X11195634Y-12003484D01*
X11195634Y-12003484D02*
X11214682Y-12003484D01*
X11433730Y-11870150D02*
X11433730Y-12070150D01*
X11433730Y-11879674D02*
X11452777Y-11870150D01*
X11452777Y-11870150D02*
X11490873Y-11870150D01*
X11490873Y-11870150D02*
X11509920Y-11879674D01*
X11509920Y-11879674D02*
X11519444Y-11889198D01*
X11519444Y-11889198D02*
X11528968Y-11908246D01*
X11528968Y-11908246D02*
X11528968Y-11965388D01*
X11528968Y-11965388D02*
X11519444Y-11984436D01*
X11519444Y-11984436D02*
X11509920Y-11993960D01*
X11509920Y-11993960D02*
X11490873Y-12003484D01*
X11490873Y-12003484D02*
X11452777Y-12003484D01*
X11452777Y-12003484D02*
X11433730Y-11993960D01*
X11643253Y-12003484D02*
X11624206Y-11993960D01*
X11624206Y-11993960D02*
X11614682Y-11974912D01*
X11614682Y-11974912D02*
X11614682Y-11803484D01*
X11805158Y-12003484D02*
X11805158Y-11898722D01*
X11805158Y-11898722D02*
X11795634Y-11879674D01*
X11795634Y-11879674D02*
X11776587Y-11870150D01*
X11776587Y-11870150D02*
X11738492Y-11870150D01*
X11738492Y-11870150D02*
X11719444Y-11879674D01*
X11805158Y-11993960D02*
X11786111Y-12003484D01*
X11786111Y-12003484D02*
X11738492Y-12003484D01*
X11738492Y-12003484D02*
X11719444Y-11993960D01*
X11719444Y-11993960D02*
X11709920Y-11974912D01*
X11709920Y-11974912D02*
X11709920Y-11955865D01*
X11709920Y-11955865D02*
X11719444Y-11936817D01*
X11719444Y-11936817D02*
X11738492Y-11927293D01*
X11738492Y-11927293D02*
X11786111Y-11927293D01*
X11786111Y-11927293D02*
X11805158Y-11917769D01*
X11871825Y-11870150D02*
X11948015Y-11870150D01*
X11900396Y-11803484D02*
X11900396Y-11974912D01*
X11900396Y-11974912D02*
X11909920Y-11993960D01*
X11909920Y-11993960D02*
X11928968Y-12003484D01*
X11928968Y-12003484D02*
X11948015Y-12003484D01*
X12090873Y-11993960D02*
X12071825Y-12003484D01*
X12071825Y-12003484D02*
X12033730Y-12003484D01*
X12033730Y-12003484D02*
X12014682Y-11993960D01*
X12014682Y-11993960D02*
X12005158Y-11974912D01*
X12005158Y-11974912D02*
X12005158Y-11898722D01*
X12005158Y-11898722D02*
X12014682Y-11879674D01*
X12014682Y-11879674D02*
X12033730Y-11870150D01*
X12033730Y-11870150D02*
X12071825Y-11870150D01*
X12071825Y-11870150D02*
X12090873Y-11879674D01*
X12090873Y-11879674D02*
X12100396Y-11898722D01*
X12100396Y-11898722D02*
X12100396Y-11917769D01*
X12100396Y-11917769D02*
X12005158Y-11936817D01*
X12271825Y-12003484D02*
X12271825Y-11803484D01*
X12271825Y-11993960D02*
X12252777Y-12003484D01*
X12252777Y-12003484D02*
X12214682Y-12003484D01*
X12214682Y-12003484D02*
X12195634Y-11993960D01*
X12195634Y-11993960D02*
X12186111Y-11984436D01*
X12186111Y-11984436D02*
X12176587Y-11965388D01*
X12176587Y-11965388D02*
X12176587Y-11908246D01*
X12176587Y-11908246D02*
X12186111Y-11889198D01*
X12186111Y-11889198D02*
X12195634Y-11879674D01*
X12195634Y-11879674D02*
X12214682Y-11870150D01*
X12214682Y-11870150D02*
X12252777Y-11870150D01*
X12252777Y-11870150D02*
X12271825Y-11879674D01*
X12348015Y-12079674D02*
X12357539Y-12070150D01*
X12357539Y-12070150D02*
X12376587Y-12041579D01*
X12376587Y-12041579D02*
X12386111Y-12022531D01*
X12386111Y-12022531D02*
X12395634Y-11993960D01*
X12395634Y-11993960D02*
X12405158Y-11946341D01*
X12405158Y-11946341D02*
X12405158Y-11908246D01*
X12405158Y-11908246D02*
X12395634Y-11860627D01*
X12395634Y-11860627D02*
X12386111Y-11832055D01*
X12386111Y-11832055D02*
X12376587Y-11813008D01*
X12376587Y-11813008D02*
X12357539Y-11784436D01*
X12357539Y-11784436D02*
X12348015Y-11774912D01*
X5492000Y-12076000D02*
X5492000Y-12276000D01*
X5392000Y-12176000D02*
X5592000Y-12176000D01*
X5843253Y-12086531D02*
X5852777Y-12077008D01*
X5852777Y-12077008D02*
X5871824Y-12067484D01*
X5871824Y-12067484D02*
X5919443Y-12067484D01*
X5919443Y-12067484D02*
X5938491Y-12077008D01*
X5938491Y-12077008D02*
X5948015Y-12086531D01*
X5948015Y-12086531D02*
X5957539Y-12105579D01*
X5957539Y-12105579D02*
X5957539Y-12124627D01*
X5957539Y-12124627D02*
X5948015Y-12153198D01*
X5948015Y-12153198D02*
X5833729Y-12267484D01*
X5833729Y-12267484D02*
X5957539Y-12267484D01*
X6043253Y-12248436D02*
X6052777Y-12257960D01*
X6052777Y-12257960D02*
X6043253Y-12267484D01*
X6043253Y-12267484D02*
X6033729Y-12257960D01*
X6033729Y-12257960D02*
X6043253Y-12248436D01*
X6043253Y-12248436D02*
X6043253Y-12267484D01*
X6128967Y-12086531D02*
X6138491Y-12077008D01*
X6138491Y-12077008D02*
X6157539Y-12067484D01*
X6157539Y-12067484D02*
X6205158Y-12067484D01*
X6205158Y-12067484D02*
X6224205Y-12077008D01*
X6224205Y-12077008D02*
X6233729Y-12086531D01*
X6233729Y-12086531D02*
X6243253Y-12105579D01*
X6243253Y-12105579D02*
X6243253Y-12124627D01*
X6243253Y-12124627D02*
X6233729Y-12153198D01*
X6233729Y-12153198D02*
X6119443Y-12267484D01*
X6119443Y-12267484D02*
X6243253Y-12267484D01*
X6367062Y-12067484D02*
X6386110Y-12067484D01*
X6386110Y-12067484D02*
X6405158Y-12077008D01*
X6405158Y-12077008D02*
X6414682Y-12086531D01*
X6414682Y-12086531D02*
X6424205Y-12105579D01*
X6424205Y-12105579D02*
X6433729Y-12143674D01*
X6433729Y-12143674D02*
X6433729Y-12191293D01*
X6433729Y-12191293D02*
X6424205Y-12229388D01*
X6424205Y-12229388D02*
X6414682Y-12248436D01*
X6414682Y-12248436D02*
X6405158Y-12257960D01*
X6405158Y-12257960D02*
X6386110Y-12267484D01*
X6386110Y-12267484D02*
X6367062Y-12267484D01*
X6367062Y-12267484D02*
X6348015Y-12257960D01*
X6348015Y-12257960D02*
X6338491Y-12248436D01*
X6338491Y-12248436D02*
X6328967Y-12229388D01*
X6328967Y-12229388D02*
X6319443Y-12191293D01*
X6319443Y-12191293D02*
X6319443Y-12143674D01*
X6319443Y-12143674D02*
X6328967Y-12105579D01*
X6328967Y-12105579D02*
X6338491Y-12086531D01*
X6338491Y-12086531D02*
X6348015Y-12077008D01*
X6348015Y-12077008D02*
X6367062Y-12067484D01*
X6557539Y-12067484D02*
X6576586Y-12067484D01*
X6576586Y-12067484D02*
X6595634Y-12077008D01*
X6595634Y-12077008D02*
X6605158Y-12086531D01*
X6605158Y-12086531D02*
X6614682Y-12105579D01*
X6614682Y-12105579D02*
X6624205Y-12143674D01*
X6624205Y-12143674D02*
X6624205Y-12191293D01*
X6624205Y-12191293D02*
X6614682Y-12229388D01*
X6614682Y-12229388D02*
X6605158Y-12248436D01*
X6605158Y-12248436D02*
X6595634Y-12257960D01*
X6595634Y-12257960D02*
X6576586Y-12267484D01*
X6576586Y-12267484D02*
X6557539Y-12267484D01*
X6557539Y-12267484D02*
X6538491Y-12257960D01*
X6538491Y-12257960D02*
X6528967Y-12248436D01*
X6528967Y-12248436D02*
X6519443Y-12229388D01*
X6519443Y-12229388D02*
X6509920Y-12191293D01*
X6509920Y-12191293D02*
X6509920Y-12143674D01*
X6509920Y-12143674D02*
X6519443Y-12105579D01*
X6519443Y-12105579D02*
X6528967Y-12086531D01*
X6528967Y-12086531D02*
X6538491Y-12077008D01*
X6538491Y-12077008D02*
X6557539Y-12067484D01*
X6709920Y-12267484D02*
X6709920Y-12134150D01*
X6709920Y-12153198D02*
X6719443Y-12143674D01*
X6719443Y-12143674D02*
X6738491Y-12134150D01*
X6738491Y-12134150D02*
X6767063Y-12134150D01*
X6767063Y-12134150D02*
X6786110Y-12143674D01*
X6786110Y-12143674D02*
X6795634Y-12162722D01*
X6795634Y-12162722D02*
X6795634Y-12267484D01*
X6795634Y-12162722D02*
X6805158Y-12143674D01*
X6805158Y-12143674D02*
X6824205Y-12134150D01*
X6824205Y-12134150D02*
X6852777Y-12134150D01*
X6852777Y-12134150D02*
X6871824Y-12143674D01*
X6871824Y-12143674D02*
X6881348Y-12162722D01*
X6881348Y-12162722D02*
X6881348Y-12267484D01*
X6976586Y-12267484D02*
X6976586Y-12134150D01*
X6976586Y-12153198D02*
X6986110Y-12143674D01*
X6986110Y-12143674D02*
X7005158Y-12134150D01*
X7005158Y-12134150D02*
X7033729Y-12134150D01*
X7033729Y-12134150D02*
X7052777Y-12143674D01*
X7052777Y-12143674D02*
X7062301Y-12162722D01*
X7062301Y-12162722D02*
X7062301Y-12267484D01*
X7062301Y-12162722D02*
X7071824Y-12143674D01*
X7071824Y-12143674D02*
X7090872Y-12134150D01*
X7090872Y-12134150D02*
X7119443Y-12134150D01*
X7119443Y-12134150D02*
X7138491Y-12143674D01*
X7138491Y-12143674D02*
X7148015Y-12162722D01*
X7148015Y-12162722D02*
X7148015Y-12267484D01*
X7538491Y-12057960D02*
X7367063Y-12315103D01*
X7795634Y-12067484D02*
X7814682Y-12067484D01*
X7814682Y-12067484D02*
X7833729Y-12077008D01*
X7833729Y-12077008D02*
X7843253Y-12086531D01*
X7843253Y-12086531D02*
X7852777Y-12105579D01*
X7852777Y-12105579D02*
X7862301Y-12143674D01*
X7862301Y-12143674D02*
X7862301Y-12191293D01*
X7862301Y-12191293D02*
X7852777Y-12229388D01*
X7852777Y-12229388D02*
X7843253Y-12248436D01*
X7843253Y-12248436D02*
X7833729Y-12257960D01*
X7833729Y-12257960D02*
X7814682Y-12267484D01*
X7814682Y-12267484D02*
X7795634Y-12267484D01*
X7795634Y-12267484D02*
X7776586Y-12257960D01*
X7776586Y-12257960D02*
X7767063Y-12248436D01*
X7767063Y-12248436D02*
X7757539Y-12229388D01*
X7757539Y-12229388D02*
X7748015Y-12191293D01*
X7748015Y-12191293D02*
X7748015Y-12143674D01*
X7748015Y-12143674D02*
X7757539Y-12105579D01*
X7757539Y-12105579D02*
X7767063Y-12086531D01*
X7767063Y-12086531D02*
X7776586Y-12077008D01*
X7776586Y-12077008D02*
X7795634Y-12067484D01*
X7948015Y-12248436D02*
X7957539Y-12257960D01*
X7957539Y-12257960D02*
X7948015Y-12267484D01*
X7948015Y-12267484D02*
X7938491Y-12257960D01*
X7938491Y-12257960D02*
X7948015Y-12248436D01*
X7948015Y-12248436D02*
X7948015Y-12267484D01*
X8081348Y-12067484D02*
X8100396Y-12067484D01*
X8100396Y-12067484D02*
X8119444Y-12077008D01*
X8119444Y-12077008D02*
X8128967Y-12086531D01*
X8128967Y-12086531D02*
X8138491Y-12105579D01*
X8138491Y-12105579D02*
X8148015Y-12143674D01*
X8148015Y-12143674D02*
X8148015Y-12191293D01*
X8148015Y-12191293D02*
X8138491Y-12229388D01*
X8138491Y-12229388D02*
X8128967Y-12248436D01*
X8128967Y-12248436D02*
X8119444Y-12257960D01*
X8119444Y-12257960D02*
X8100396Y-12267484D01*
X8100396Y-12267484D02*
X8081348Y-12267484D01*
X8081348Y-12267484D02*
X8062301Y-12257960D01*
X8062301Y-12257960D02*
X8052777Y-12248436D01*
X8052777Y-12248436D02*
X8043253Y-12229388D01*
X8043253Y-12229388D02*
X8033729Y-12191293D01*
X8033729Y-12191293D02*
X8033729Y-12143674D01*
X8033729Y-12143674D02*
X8043253Y-12105579D01*
X8043253Y-12105579D02*
X8052777Y-12086531D01*
X8052777Y-12086531D02*
X8062301Y-12077008D01*
X8062301Y-12077008D02*
X8081348Y-12067484D01*
X8262301Y-12153198D02*
X8243253Y-12143674D01*
X8243253Y-12143674D02*
X8233729Y-12134150D01*
X8233729Y-12134150D02*
X8224206Y-12115103D01*
X8224206Y-12115103D02*
X8224206Y-12105579D01*
X8224206Y-12105579D02*
X8233729Y-12086531D01*
X8233729Y-12086531D02*
X8243253Y-12077008D01*
X8243253Y-12077008D02*
X8262301Y-12067484D01*
X8262301Y-12067484D02*
X8300396Y-12067484D01*
X8300396Y-12067484D02*
X8319444Y-12077008D01*
X8319444Y-12077008D02*
X8328967Y-12086531D01*
X8328967Y-12086531D02*
X8338491Y-12105579D01*
X8338491Y-12105579D02*
X8338491Y-12115103D01*
X8338491Y-12115103D02*
X8328967Y-12134150D01*
X8328967Y-12134150D02*
X8319444Y-12143674D01*
X8319444Y-12143674D02*
X8300396Y-12153198D01*
X8300396Y-12153198D02*
X8262301Y-12153198D01*
X8262301Y-12153198D02*
X8243253Y-12162722D01*
X8243253Y-12162722D02*
X8233729Y-12172246D01*
X8233729Y-12172246D02*
X8224206Y-12191293D01*
X8224206Y-12191293D02*
X8224206Y-12229388D01*
X8224206Y-12229388D02*
X8233729Y-12248436D01*
X8233729Y-12248436D02*
X8243253Y-12257960D01*
X8243253Y-12257960D02*
X8262301Y-12267484D01*
X8262301Y-12267484D02*
X8300396Y-12267484D01*
X8300396Y-12267484D02*
X8319444Y-12257960D01*
X8319444Y-12257960D02*
X8328967Y-12248436D01*
X8328967Y-12248436D02*
X8338491Y-12229388D01*
X8338491Y-12229388D02*
X8338491Y-12191293D01*
X8338491Y-12191293D02*
X8328967Y-12172246D01*
X8328967Y-12172246D02*
X8319444Y-12162722D01*
X8319444Y-12162722D02*
X8300396Y-12153198D01*
X8509920Y-12067484D02*
X8471825Y-12067484D01*
X8471825Y-12067484D02*
X8452777Y-12077008D01*
X8452777Y-12077008D02*
X8443253Y-12086531D01*
X8443253Y-12086531D02*
X8424206Y-12115103D01*
X8424206Y-12115103D02*
X8414682Y-12153198D01*
X8414682Y-12153198D02*
X8414682Y-12229388D01*
X8414682Y-12229388D02*
X8424206Y-12248436D01*
X8424206Y-12248436D02*
X8433729Y-12257960D01*
X8433729Y-12257960D02*
X8452777Y-12267484D01*
X8452777Y-12267484D02*
X8490872Y-12267484D01*
X8490872Y-12267484D02*
X8509920Y-12257960D01*
X8509920Y-12257960D02*
X8519444Y-12248436D01*
X8519444Y-12248436D02*
X8528968Y-12229388D01*
X8528968Y-12229388D02*
X8528968Y-12181769D01*
X8528968Y-12181769D02*
X8519444Y-12162722D01*
X8519444Y-12162722D02*
X8509920Y-12153198D01*
X8509920Y-12153198D02*
X8490872Y-12143674D01*
X8490872Y-12143674D02*
X8452777Y-12143674D01*
X8452777Y-12143674D02*
X8433729Y-12153198D01*
X8433729Y-12153198D02*
X8424206Y-12162722D01*
X8424206Y-12162722D02*
X8414682Y-12181769D01*
X8700396Y-12067484D02*
X8662301Y-12067484D01*
X8662301Y-12067484D02*
X8643253Y-12077008D01*
X8643253Y-12077008D02*
X8633729Y-12086531D01*
X8633729Y-12086531D02*
X8614682Y-12115103D01*
X8614682Y-12115103D02*
X8605158Y-12153198D01*
X8605158Y-12153198D02*
X8605158Y-12229388D01*
X8605158Y-12229388D02*
X8614682Y-12248436D01*
X8614682Y-12248436D02*
X8624206Y-12257960D01*
X8624206Y-12257960D02*
X8643253Y-12267484D01*
X8643253Y-12267484D02*
X8681349Y-12267484D01*
X8681349Y-12267484D02*
X8700396Y-12257960D01*
X8700396Y-12257960D02*
X8709920Y-12248436D01*
X8709920Y-12248436D02*
X8719444Y-12229388D01*
X8719444Y-12229388D02*
X8719444Y-12181769D01*
X8719444Y-12181769D02*
X8709920Y-12162722D01*
X8709920Y-12162722D02*
X8700396Y-12153198D01*
X8700396Y-12153198D02*
X8681349Y-12143674D01*
X8681349Y-12143674D02*
X8643253Y-12143674D01*
X8643253Y-12143674D02*
X8624206Y-12153198D01*
X8624206Y-12153198D02*
X8614682Y-12162722D01*
X8614682Y-12162722D02*
X8605158Y-12181769D01*
X8795634Y-12067484D02*
X8795634Y-12105579D01*
X8871825Y-12067484D02*
X8871825Y-12105579D01*
X9167063Y-12343674D02*
X9157539Y-12334150D01*
X9157539Y-12334150D02*
X9138491Y-12305579D01*
X9138491Y-12305579D02*
X9128968Y-12286531D01*
X9128968Y-12286531D02*
X9119444Y-12257960D01*
X9119444Y-12257960D02*
X9109920Y-12210341D01*
X9109920Y-12210341D02*
X9109920Y-12172246D01*
X9109920Y-12172246D02*
X9119444Y-12124627D01*
X9119444Y-12124627D02*
X9128968Y-12096055D01*
X9128968Y-12096055D02*
X9138491Y-12077008D01*
X9138491Y-12077008D02*
X9157539Y-12048436D01*
X9157539Y-12048436D02*
X9167063Y-12038912D01*
X9233730Y-12086531D02*
X9243253Y-12077008D01*
X9243253Y-12077008D02*
X9262301Y-12067484D01*
X9262301Y-12067484D02*
X9309920Y-12067484D01*
X9309920Y-12067484D02*
X9328968Y-12077008D01*
X9328968Y-12077008D02*
X9338491Y-12086531D01*
X9338491Y-12086531D02*
X9348015Y-12105579D01*
X9348015Y-12105579D02*
X9348015Y-12124627D01*
X9348015Y-12124627D02*
X9338491Y-12153198D01*
X9338491Y-12153198D02*
X9224206Y-12267484D01*
X9224206Y-12267484D02*
X9348015Y-12267484D01*
X9586111Y-12267484D02*
X9586111Y-12067484D01*
X9671825Y-12267484D02*
X9671825Y-12162722D01*
X9671825Y-12162722D02*
X9662301Y-12143674D01*
X9662301Y-12143674D02*
X9643253Y-12134150D01*
X9643253Y-12134150D02*
X9614682Y-12134150D01*
X9614682Y-12134150D02*
X9595634Y-12143674D01*
X9595634Y-12143674D02*
X9586111Y-12153198D01*
X9795634Y-12267484D02*
X9776587Y-12257960D01*
X9776587Y-12257960D02*
X9767063Y-12248436D01*
X9767063Y-12248436D02*
X9757539Y-12229388D01*
X9757539Y-12229388D02*
X9757539Y-12172246D01*
X9757539Y-12172246D02*
X9767063Y-12153198D01*
X9767063Y-12153198D02*
X9776587Y-12143674D01*
X9776587Y-12143674D02*
X9795634Y-12134150D01*
X9795634Y-12134150D02*
X9824206Y-12134150D01*
X9824206Y-12134150D02*
X9843253Y-12143674D01*
X9843253Y-12143674D02*
X9852777Y-12153198D01*
X9852777Y-12153198D02*
X9862301Y-12172246D01*
X9862301Y-12172246D02*
X9862301Y-12229388D01*
X9862301Y-12229388D02*
X9852777Y-12248436D01*
X9852777Y-12248436D02*
X9843253Y-12257960D01*
X9843253Y-12257960D02*
X9824206Y-12267484D01*
X9824206Y-12267484D02*
X9795634Y-12267484D01*
X9976587Y-12267484D02*
X9957539Y-12257960D01*
X9957539Y-12257960D02*
X9948015Y-12238912D01*
X9948015Y-12238912D02*
X9948015Y-12067484D01*
X10128968Y-12257960D02*
X10109920Y-12267484D01*
X10109920Y-12267484D02*
X10071825Y-12267484D01*
X10071825Y-12267484D02*
X10052777Y-12257960D01*
X10052777Y-12257960D02*
X10043253Y-12238912D01*
X10043253Y-12238912D02*
X10043253Y-12162722D01*
X10043253Y-12162722D02*
X10052777Y-12143674D01*
X10052777Y-12143674D02*
X10071825Y-12134150D01*
X10071825Y-12134150D02*
X10109920Y-12134150D01*
X10109920Y-12134150D02*
X10128968Y-12143674D01*
X10128968Y-12143674D02*
X10138492Y-12162722D01*
X10138492Y-12162722D02*
X10138492Y-12181769D01*
X10138492Y-12181769D02*
X10043253Y-12200817D01*
X10214682Y-12257960D02*
X10233730Y-12267484D01*
X10233730Y-12267484D02*
X10271825Y-12267484D01*
X10271825Y-12267484D02*
X10290873Y-12257960D01*
X10290873Y-12257960D02*
X10300396Y-12238912D01*
X10300396Y-12238912D02*
X10300396Y-12229388D01*
X10300396Y-12229388D02*
X10290873Y-12210341D01*
X10290873Y-12210341D02*
X10271825Y-12200817D01*
X10271825Y-12200817D02*
X10243253Y-12200817D01*
X10243253Y-12200817D02*
X10224206Y-12191293D01*
X10224206Y-12191293D02*
X10214682Y-12172246D01*
X10214682Y-12172246D02*
X10214682Y-12162722D01*
X10214682Y-12162722D02*
X10224206Y-12143674D01*
X10224206Y-12143674D02*
X10243253Y-12134150D01*
X10243253Y-12134150D02*
X10271825Y-12134150D01*
X10271825Y-12134150D02*
X10290873Y-12143674D01*
X10367063Y-12343674D02*
X10376587Y-12334150D01*
X10376587Y-12334150D02*
X10395634Y-12305579D01*
X10395634Y-12305579D02*
X10405158Y-12286531D01*
X10405158Y-12286531D02*
X10414682Y-12257960D01*
X10414682Y-12257960D02*
X10424206Y-12210341D01*
X10424206Y-12210341D02*
X10424206Y-12172246D01*
X10424206Y-12172246D02*
X10414682Y-12124627D01*
X10414682Y-12124627D02*
X10405158Y-12096055D01*
X10405158Y-12096055D02*
X10395634Y-12077008D01*
X10395634Y-12077008D02*
X10376587Y-12048436D01*
X10376587Y-12048436D02*
X10367063Y-12038912D01*
X10728968Y-12343674D02*
X10719444Y-12334150D01*
X10719444Y-12334150D02*
X10700396Y-12305579D01*
X10700396Y-12305579D02*
X10690873Y-12286531D01*
X10690873Y-12286531D02*
X10681349Y-12257960D01*
X10681349Y-12257960D02*
X10671825Y-12210341D01*
X10671825Y-12210341D02*
X10671825Y-12172246D01*
X10671825Y-12172246D02*
X10681349Y-12124627D01*
X10681349Y-12124627D02*
X10690873Y-12096055D01*
X10690873Y-12096055D02*
X10700396Y-12077008D01*
X10700396Y-12077008D02*
X10719444Y-12048436D01*
X10719444Y-12048436D02*
X10728968Y-12038912D01*
X10805158Y-12134150D02*
X10805158Y-12267484D01*
X10805158Y-12153198D02*
X10814682Y-12143674D01*
X10814682Y-12143674D02*
X10833730Y-12134150D01*
X10833730Y-12134150D02*
X10862301Y-12134150D01*
X10862301Y-12134150D02*
X10881349Y-12143674D01*
X10881349Y-12143674D02*
X10890873Y-12162722D01*
X10890873Y-12162722D02*
X10890873Y-12267484D01*
X11014682Y-12267484D02*
X10995634Y-12257960D01*
X10995634Y-12257960D02*
X10986111Y-12248436D01*
X10986111Y-12248436D02*
X10976587Y-12229388D01*
X10976587Y-12229388D02*
X10976587Y-12172246D01*
X10976587Y-12172246D02*
X10986111Y-12153198D01*
X10986111Y-12153198D02*
X10995634Y-12143674D01*
X10995634Y-12143674D02*
X11014682Y-12134150D01*
X11014682Y-12134150D02*
X11043254Y-12134150D01*
X11043254Y-12134150D02*
X11062301Y-12143674D01*
X11062301Y-12143674D02*
X11071825Y-12153198D01*
X11071825Y-12153198D02*
X11081349Y-12172246D01*
X11081349Y-12172246D02*
X11081349Y-12229388D01*
X11081349Y-12229388D02*
X11071825Y-12248436D01*
X11071825Y-12248436D02*
X11062301Y-12257960D01*
X11062301Y-12257960D02*
X11043254Y-12267484D01*
X11043254Y-12267484D02*
X11014682Y-12267484D01*
X11138492Y-12134150D02*
X11214682Y-12134150D01*
X11167063Y-12067484D02*
X11167063Y-12238912D01*
X11167063Y-12238912D02*
X11176587Y-12257960D01*
X11176587Y-12257960D02*
X11195634Y-12267484D01*
X11195634Y-12267484D02*
X11214682Y-12267484D01*
X11433730Y-12134150D02*
X11433730Y-12334150D01*
X11433730Y-12143674D02*
X11452777Y-12134150D01*
X11452777Y-12134150D02*
X11490873Y-12134150D01*
X11490873Y-12134150D02*
X11509920Y-12143674D01*
X11509920Y-12143674D02*
X11519444Y-12153198D01*
X11519444Y-12153198D02*
X11528968Y-12172246D01*
X11528968Y-12172246D02*
X11528968Y-12229388D01*
X11528968Y-12229388D02*
X11519444Y-12248436D01*
X11519444Y-12248436D02*
X11509920Y-12257960D01*
X11509920Y-12257960D02*
X11490873Y-12267484D01*
X11490873Y-12267484D02*
X11452777Y-12267484D01*
X11452777Y-12267484D02*
X11433730Y-12257960D01*
X11643253Y-12267484D02*
X11624206Y-12257960D01*
X11624206Y-12257960D02*
X11614682Y-12238912D01*
X11614682Y-12238912D02*
X11614682Y-12067484D01*
X11805158Y-12267484D02*
X11805158Y-12162722D01*
X11805158Y-12162722D02*
X11795634Y-12143674D01*
X11795634Y-12143674D02*
X11776587Y-12134150D01*
X11776587Y-12134150D02*
X11738492Y-12134150D01*
X11738492Y-12134150D02*
X11719444Y-12143674D01*
X11805158Y-12257960D02*
X11786111Y-12267484D01*
X11786111Y-12267484D02*
X11738492Y-12267484D01*
X11738492Y-12267484D02*
X11719444Y-12257960D01*
X11719444Y-12257960D02*
X11709920Y-12238912D01*
X11709920Y-12238912D02*
X11709920Y-12219865D01*
X11709920Y-12219865D02*
X11719444Y-12200817D01*
X11719444Y-12200817D02*
X11738492Y-12191293D01*
X11738492Y-12191293D02*
X11786111Y-12191293D01*
X11786111Y-12191293D02*
X11805158Y-12181769D01*
X11871825Y-12134150D02*
X11948015Y-12134150D01*
X11900396Y-12067484D02*
X11900396Y-12238912D01*
X11900396Y-12238912D02*
X11909920Y-12257960D01*
X11909920Y-12257960D02*
X11928968Y-12267484D01*
X11928968Y-12267484D02*
X11948015Y-12267484D01*
X12090873Y-12257960D02*
X12071825Y-12267484D01*
X12071825Y-12267484D02*
X12033730Y-12267484D01*
X12033730Y-12267484D02*
X12014682Y-12257960D01*
X12014682Y-12257960D02*
X12005158Y-12238912D01*
X12005158Y-12238912D02*
X12005158Y-12162722D01*
X12005158Y-12162722D02*
X12014682Y-12143674D01*
X12014682Y-12143674D02*
X12033730Y-12134150D01*
X12033730Y-12134150D02*
X12071825Y-12134150D01*
X12071825Y-12134150D02*
X12090873Y-12143674D01*
X12090873Y-12143674D02*
X12100396Y-12162722D01*
X12100396Y-12162722D02*
X12100396Y-12181769D01*
X12100396Y-12181769D02*
X12005158Y-12200817D01*
X12271825Y-12267484D02*
X12271825Y-12067484D01*
X12271825Y-12257960D02*
X12252777Y-12267484D01*
X12252777Y-12267484D02*
X12214682Y-12267484D01*
X12214682Y-12267484D02*
X12195634Y-12257960D01*
X12195634Y-12257960D02*
X12186111Y-12248436D01*
X12186111Y-12248436D02*
X12176587Y-12229388D01*
X12176587Y-12229388D02*
X12176587Y-12172246D01*
X12176587Y-12172246D02*
X12186111Y-12153198D01*
X12186111Y-12153198D02*
X12195634Y-12143674D01*
X12195634Y-12143674D02*
X12214682Y-12134150D01*
X12214682Y-12134150D02*
X12252777Y-12134150D01*
X12252777Y-12134150D02*
X12271825Y-12143674D01*
X12348015Y-12343674D02*
X12357539Y-12334150D01*
X12357539Y-12334150D02*
X12376587Y-12305579D01*
X12376587Y-12305579D02*
X12386111Y-12286531D01*
X12386111Y-12286531D02*
X12395634Y-12257960D01*
X12395634Y-12257960D02*
X12405158Y-12210341D01*
X12405158Y-12210341D02*
X12405158Y-12172246D01*
X12405158Y-12172246D02*
X12395634Y-12124627D01*
X12395634Y-12124627D02*
X12386111Y-12096055D01*
X12386111Y-12096055D02*
X12376587Y-12077008D01*
X12376587Y-12077008D02*
X12357539Y-12048436D01*
X12357539Y-12048436D02*
X12348015Y-12038912D01*
X5562711Y-12566711D02*
X5562711Y-12425289D01*
X5421289Y-12425289D01*
X5421289Y-12566711D01*
X5562711Y-12566711D01*
X5843253Y-12406531D02*
X5852777Y-12397008D01*
X5852777Y-12397008D02*
X5871824Y-12387484D01*
X5871824Y-12387484D02*
X5919443Y-12387484D01*
X5919443Y-12387484D02*
X5938491Y-12397008D01*
X5938491Y-12397008D02*
X5948015Y-12406531D01*
X5948015Y-12406531D02*
X5957539Y-12425579D01*
X5957539Y-12425579D02*
X5957539Y-12444627D01*
X5957539Y-12444627D02*
X5948015Y-12473198D01*
X5948015Y-12473198D02*
X5833729Y-12587484D01*
X5833729Y-12587484D02*
X5957539Y-12587484D01*
X6043253Y-12568436D02*
X6052777Y-12577960D01*
X6052777Y-12577960D02*
X6043253Y-12587484D01*
X6043253Y-12587484D02*
X6033729Y-12577960D01*
X6033729Y-12577960D02*
X6043253Y-12568436D01*
X6043253Y-12568436D02*
X6043253Y-12587484D01*
X6119443Y-12387484D02*
X6243253Y-12387484D01*
X6243253Y-12387484D02*
X6176586Y-12463674D01*
X6176586Y-12463674D02*
X6205158Y-12463674D01*
X6205158Y-12463674D02*
X6224205Y-12473198D01*
X6224205Y-12473198D02*
X6233729Y-12482722D01*
X6233729Y-12482722D02*
X6243253Y-12501769D01*
X6243253Y-12501769D02*
X6243253Y-12549388D01*
X6243253Y-12549388D02*
X6233729Y-12568436D01*
X6233729Y-12568436D02*
X6224205Y-12577960D01*
X6224205Y-12577960D02*
X6205158Y-12587484D01*
X6205158Y-12587484D02*
X6148015Y-12587484D01*
X6148015Y-12587484D02*
X6128967Y-12577960D01*
X6128967Y-12577960D02*
X6119443Y-12568436D01*
X6338491Y-12587484D02*
X6376586Y-12587484D01*
X6376586Y-12587484D02*
X6395634Y-12577960D01*
X6395634Y-12577960D02*
X6405158Y-12568436D01*
X6405158Y-12568436D02*
X6424205Y-12539865D01*
X6424205Y-12539865D02*
X6433729Y-12501769D01*
X6433729Y-12501769D02*
X6433729Y-12425579D01*
X6433729Y-12425579D02*
X6424205Y-12406531D01*
X6424205Y-12406531D02*
X6414682Y-12397008D01*
X6414682Y-12397008D02*
X6395634Y-12387484D01*
X6395634Y-12387484D02*
X6357539Y-12387484D01*
X6357539Y-12387484D02*
X6338491Y-12397008D01*
X6338491Y-12397008D02*
X6328967Y-12406531D01*
X6328967Y-12406531D02*
X6319443Y-12425579D01*
X6319443Y-12425579D02*
X6319443Y-12473198D01*
X6319443Y-12473198D02*
X6328967Y-12492246D01*
X6328967Y-12492246D02*
X6338491Y-12501769D01*
X6338491Y-12501769D02*
X6357539Y-12511293D01*
X6357539Y-12511293D02*
X6395634Y-12511293D01*
X6395634Y-12511293D02*
X6414682Y-12501769D01*
X6414682Y-12501769D02*
X6424205Y-12492246D01*
X6424205Y-12492246D02*
X6433729Y-12473198D01*
X6557539Y-12387484D02*
X6576586Y-12387484D01*
X6576586Y-12387484D02*
X6595634Y-12397008D01*
X6595634Y-12397008D02*
X6605158Y-12406531D01*
X6605158Y-12406531D02*
X6614682Y-12425579D01*
X6614682Y-12425579D02*
X6624205Y-12463674D01*
X6624205Y-12463674D02*
X6624205Y-12511293D01*
X6624205Y-12511293D02*
X6614682Y-12549388D01*
X6614682Y-12549388D02*
X6605158Y-12568436D01*
X6605158Y-12568436D02*
X6595634Y-12577960D01*
X6595634Y-12577960D02*
X6576586Y-12587484D01*
X6576586Y-12587484D02*
X6557539Y-12587484D01*
X6557539Y-12587484D02*
X6538491Y-12577960D01*
X6538491Y-12577960D02*
X6528967Y-12568436D01*
X6528967Y-12568436D02*
X6519443Y-12549388D01*
X6519443Y-12549388D02*
X6509920Y-12511293D01*
X6509920Y-12511293D02*
X6509920Y-12463674D01*
X6509920Y-12463674D02*
X6519443Y-12425579D01*
X6519443Y-12425579D02*
X6528967Y-12406531D01*
X6528967Y-12406531D02*
X6538491Y-12397008D01*
X6538491Y-12397008D02*
X6557539Y-12387484D01*
X6709920Y-12587484D02*
X6709920Y-12454150D01*
X6709920Y-12473198D02*
X6719443Y-12463674D01*
X6719443Y-12463674D02*
X6738491Y-12454150D01*
X6738491Y-12454150D02*
X6767063Y-12454150D01*
X6767063Y-12454150D02*
X6786110Y-12463674D01*
X6786110Y-12463674D02*
X6795634Y-12482722D01*
X6795634Y-12482722D02*
X6795634Y-12587484D01*
X6795634Y-12482722D02*
X6805158Y-12463674D01*
X6805158Y-12463674D02*
X6824205Y-12454150D01*
X6824205Y-12454150D02*
X6852777Y-12454150D01*
X6852777Y-12454150D02*
X6871824Y-12463674D01*
X6871824Y-12463674D02*
X6881348Y-12482722D01*
X6881348Y-12482722D02*
X6881348Y-12587484D01*
X6976586Y-12587484D02*
X6976586Y-12454150D01*
X6976586Y-12473198D02*
X6986110Y-12463674D01*
X6986110Y-12463674D02*
X7005158Y-12454150D01*
X7005158Y-12454150D02*
X7033729Y-12454150D01*
X7033729Y-12454150D02*
X7052777Y-12463674D01*
X7052777Y-12463674D02*
X7062301Y-12482722D01*
X7062301Y-12482722D02*
X7062301Y-12587484D01*
X7062301Y-12482722D02*
X7071824Y-12463674D01*
X7071824Y-12463674D02*
X7090872Y-12454150D01*
X7090872Y-12454150D02*
X7119443Y-12454150D01*
X7119443Y-12454150D02*
X7138491Y-12463674D01*
X7138491Y-12463674D02*
X7148015Y-12482722D01*
X7148015Y-12482722D02*
X7148015Y-12587484D01*
X7538491Y-12377960D02*
X7367063Y-12635103D01*
X7795634Y-12387484D02*
X7814682Y-12387484D01*
X7814682Y-12387484D02*
X7833729Y-12397008D01*
X7833729Y-12397008D02*
X7843253Y-12406531D01*
X7843253Y-12406531D02*
X7852777Y-12425579D01*
X7852777Y-12425579D02*
X7862301Y-12463674D01*
X7862301Y-12463674D02*
X7862301Y-12511293D01*
X7862301Y-12511293D02*
X7852777Y-12549388D01*
X7852777Y-12549388D02*
X7843253Y-12568436D01*
X7843253Y-12568436D02*
X7833729Y-12577960D01*
X7833729Y-12577960D02*
X7814682Y-12587484D01*
X7814682Y-12587484D02*
X7795634Y-12587484D01*
X7795634Y-12587484D02*
X7776586Y-12577960D01*
X7776586Y-12577960D02*
X7767063Y-12568436D01*
X7767063Y-12568436D02*
X7757539Y-12549388D01*
X7757539Y-12549388D02*
X7748015Y-12511293D01*
X7748015Y-12511293D02*
X7748015Y-12463674D01*
X7748015Y-12463674D02*
X7757539Y-12425579D01*
X7757539Y-12425579D02*
X7767063Y-12406531D01*
X7767063Y-12406531D02*
X7776586Y-12397008D01*
X7776586Y-12397008D02*
X7795634Y-12387484D01*
X7948015Y-12568436D02*
X7957539Y-12577960D01*
X7957539Y-12577960D02*
X7948015Y-12587484D01*
X7948015Y-12587484D02*
X7938491Y-12577960D01*
X7938491Y-12577960D02*
X7948015Y-12568436D01*
X7948015Y-12568436D02*
X7948015Y-12587484D01*
X8081348Y-12387484D02*
X8100396Y-12387484D01*
X8100396Y-12387484D02*
X8119444Y-12397008D01*
X8119444Y-12397008D02*
X8128967Y-12406531D01*
X8128967Y-12406531D02*
X8138491Y-12425579D01*
X8138491Y-12425579D02*
X8148015Y-12463674D01*
X8148015Y-12463674D02*
X8148015Y-12511293D01*
X8148015Y-12511293D02*
X8138491Y-12549388D01*
X8138491Y-12549388D02*
X8128967Y-12568436D01*
X8128967Y-12568436D02*
X8119444Y-12577960D01*
X8119444Y-12577960D02*
X8100396Y-12587484D01*
X8100396Y-12587484D02*
X8081348Y-12587484D01*
X8081348Y-12587484D02*
X8062301Y-12577960D01*
X8062301Y-12577960D02*
X8052777Y-12568436D01*
X8052777Y-12568436D02*
X8043253Y-12549388D01*
X8043253Y-12549388D02*
X8033729Y-12511293D01*
X8033729Y-12511293D02*
X8033729Y-12463674D01*
X8033729Y-12463674D02*
X8043253Y-12425579D01*
X8043253Y-12425579D02*
X8052777Y-12406531D01*
X8052777Y-12406531D02*
X8062301Y-12397008D01*
X8062301Y-12397008D02*
X8081348Y-12387484D01*
X8243253Y-12587484D02*
X8281348Y-12587484D01*
X8281348Y-12587484D02*
X8300396Y-12577960D01*
X8300396Y-12577960D02*
X8309920Y-12568436D01*
X8309920Y-12568436D02*
X8328967Y-12539865D01*
X8328967Y-12539865D02*
X8338491Y-12501769D01*
X8338491Y-12501769D02*
X8338491Y-12425579D01*
X8338491Y-12425579D02*
X8328967Y-12406531D01*
X8328967Y-12406531D02*
X8319444Y-12397008D01*
X8319444Y-12397008D02*
X8300396Y-12387484D01*
X8300396Y-12387484D02*
X8262301Y-12387484D01*
X8262301Y-12387484D02*
X8243253Y-12397008D01*
X8243253Y-12397008D02*
X8233729Y-12406531D01*
X8233729Y-12406531D02*
X8224206Y-12425579D01*
X8224206Y-12425579D02*
X8224206Y-12473198D01*
X8224206Y-12473198D02*
X8233729Y-12492246D01*
X8233729Y-12492246D02*
X8243253Y-12501769D01*
X8243253Y-12501769D02*
X8262301Y-12511293D01*
X8262301Y-12511293D02*
X8300396Y-12511293D01*
X8300396Y-12511293D02*
X8319444Y-12501769D01*
X8319444Y-12501769D02*
X8328967Y-12492246D01*
X8328967Y-12492246D02*
X8338491Y-12473198D01*
X8509920Y-12454150D02*
X8509920Y-12587484D01*
X8462301Y-12377960D02*
X8414682Y-12520817D01*
X8414682Y-12520817D02*
X8538491Y-12520817D01*
X8719444Y-12587484D02*
X8605158Y-12587484D01*
X8662301Y-12587484D02*
X8662301Y-12387484D01*
X8662301Y-12387484D02*
X8643253Y-12416055D01*
X8643253Y-12416055D02*
X8624206Y-12435103D01*
X8624206Y-12435103D02*
X8605158Y-12444627D01*
X8795634Y-12387484D02*
X8795634Y-12425579D01*
X8871825Y-12387484D02*
X8871825Y-12425579D01*
X9167063Y-12663674D02*
X9157539Y-12654150D01*
X9157539Y-12654150D02*
X9138491Y-12625579D01*
X9138491Y-12625579D02*
X9128968Y-12606531D01*
X9128968Y-12606531D02*
X9119444Y-12577960D01*
X9119444Y-12577960D02*
X9109920Y-12530341D01*
X9109920Y-12530341D02*
X9109920Y-12492246D01*
X9109920Y-12492246D02*
X9119444Y-12444627D01*
X9119444Y-12444627D02*
X9128968Y-12416055D01*
X9128968Y-12416055D02*
X9138491Y-12397008D01*
X9138491Y-12397008D02*
X9157539Y-12368436D01*
X9157539Y-12368436D02*
X9167063Y-12358912D01*
X9348015Y-12587484D02*
X9233730Y-12587484D01*
X9290872Y-12587484D02*
X9290872Y-12387484D01*
X9290872Y-12387484D02*
X9271825Y-12416055D01*
X9271825Y-12416055D02*
X9252777Y-12435103D01*
X9252777Y-12435103D02*
X9233730Y-12444627D01*
X9586111Y-12587484D02*
X9586111Y-12387484D01*
X9671825Y-12587484D02*
X9671825Y-12482722D01*
X9671825Y-12482722D02*
X9662301Y-12463674D01*
X9662301Y-12463674D02*
X9643253Y-12454150D01*
X9643253Y-12454150D02*
X9614682Y-12454150D01*
X9614682Y-12454150D02*
X9595634Y-12463674D01*
X9595634Y-12463674D02*
X9586111Y-12473198D01*
X9795634Y-12587484D02*
X9776587Y-12577960D01*
X9776587Y-12577960D02*
X9767063Y-12568436D01*
X9767063Y-12568436D02*
X9757539Y-12549388D01*
X9757539Y-12549388D02*
X9757539Y-12492246D01*
X9757539Y-12492246D02*
X9767063Y-12473198D01*
X9767063Y-12473198D02*
X9776587Y-12463674D01*
X9776587Y-12463674D02*
X9795634Y-12454150D01*
X9795634Y-12454150D02*
X9824206Y-12454150D01*
X9824206Y-12454150D02*
X9843253Y-12463674D01*
X9843253Y-12463674D02*
X9852777Y-12473198D01*
X9852777Y-12473198D02*
X9862301Y-12492246D01*
X9862301Y-12492246D02*
X9862301Y-12549388D01*
X9862301Y-12549388D02*
X9852777Y-12568436D01*
X9852777Y-12568436D02*
X9843253Y-12577960D01*
X9843253Y-12577960D02*
X9824206Y-12587484D01*
X9824206Y-12587484D02*
X9795634Y-12587484D01*
X9976587Y-12587484D02*
X9957539Y-12577960D01*
X9957539Y-12577960D02*
X9948015Y-12558912D01*
X9948015Y-12558912D02*
X9948015Y-12387484D01*
X10128968Y-12577960D02*
X10109920Y-12587484D01*
X10109920Y-12587484D02*
X10071825Y-12587484D01*
X10071825Y-12587484D02*
X10052777Y-12577960D01*
X10052777Y-12577960D02*
X10043253Y-12558912D01*
X10043253Y-12558912D02*
X10043253Y-12482722D01*
X10043253Y-12482722D02*
X10052777Y-12463674D01*
X10052777Y-12463674D02*
X10071825Y-12454150D01*
X10071825Y-12454150D02*
X10109920Y-12454150D01*
X10109920Y-12454150D02*
X10128968Y-12463674D01*
X10128968Y-12463674D02*
X10138492Y-12482722D01*
X10138492Y-12482722D02*
X10138492Y-12501769D01*
X10138492Y-12501769D02*
X10043253Y-12520817D01*
X10205158Y-12663674D02*
X10214682Y-12654150D01*
X10214682Y-12654150D02*
X10233730Y-12625579D01*
X10233730Y-12625579D02*
X10243253Y-12606531D01*
X10243253Y-12606531D02*
X10252777Y-12577960D01*
X10252777Y-12577960D02*
X10262301Y-12530341D01*
X10262301Y-12530341D02*
X10262301Y-12492246D01*
X10262301Y-12492246D02*
X10252777Y-12444627D01*
X10252777Y-12444627D02*
X10243253Y-12416055D01*
X10243253Y-12416055D02*
X10233730Y-12397008D01*
X10233730Y-12397008D02*
X10214682Y-12368436D01*
X10214682Y-12368436D02*
X10205158Y-12358912D01*
X10567063Y-12663674D02*
X10557539Y-12654150D01*
X10557539Y-12654150D02*
X10538492Y-12625579D01*
X10538492Y-12625579D02*
X10528968Y-12606531D01*
X10528968Y-12606531D02*
X10519444Y-12577960D01*
X10519444Y-12577960D02*
X10509920Y-12530341D01*
X10509920Y-12530341D02*
X10509920Y-12492246D01*
X10509920Y-12492246D02*
X10519444Y-12444627D01*
X10519444Y-12444627D02*
X10528968Y-12416055D01*
X10528968Y-12416055D02*
X10538492Y-12397008D01*
X10538492Y-12397008D02*
X10557539Y-12368436D01*
X10557539Y-12368436D02*
X10567063Y-12358912D01*
X10643253Y-12454150D02*
X10643253Y-12587484D01*
X10643253Y-12473198D02*
X10652777Y-12463674D01*
X10652777Y-12463674D02*
X10671825Y-12454150D01*
X10671825Y-12454150D02*
X10700396Y-12454150D01*
X10700396Y-12454150D02*
X10719444Y-12463674D01*
X10719444Y-12463674D02*
X10728968Y-12482722D01*
X10728968Y-12482722D02*
X10728968Y-12587484D01*
X10852777Y-12587484D02*
X10833730Y-12577960D01*
X10833730Y-12577960D02*
X10824206Y-12568436D01*
X10824206Y-12568436D02*
X10814682Y-12549388D01*
X10814682Y-12549388D02*
X10814682Y-12492246D01*
X10814682Y-12492246D02*
X10824206Y-12473198D01*
X10824206Y-12473198D02*
X10833730Y-12463674D01*
X10833730Y-12463674D02*
X10852777Y-12454150D01*
X10852777Y-12454150D02*
X10881349Y-12454150D01*
X10881349Y-12454150D02*
X10900396Y-12463674D01*
X10900396Y-12463674D02*
X10909920Y-12473198D01*
X10909920Y-12473198D02*
X10919444Y-12492246D01*
X10919444Y-12492246D02*
X10919444Y-12549388D01*
X10919444Y-12549388D02*
X10909920Y-12568436D01*
X10909920Y-12568436D02*
X10900396Y-12577960D01*
X10900396Y-12577960D02*
X10881349Y-12587484D01*
X10881349Y-12587484D02*
X10852777Y-12587484D01*
X10976587Y-12454150D02*
X11052777Y-12454150D01*
X11005158Y-12387484D02*
X11005158Y-12558912D01*
X11005158Y-12558912D02*
X11014682Y-12577960D01*
X11014682Y-12577960D02*
X11033730Y-12587484D01*
X11033730Y-12587484D02*
X11052777Y-12587484D01*
X11271825Y-12454150D02*
X11271825Y-12654150D01*
X11271825Y-12463674D02*
X11290872Y-12454150D01*
X11290872Y-12454150D02*
X11328968Y-12454150D01*
X11328968Y-12454150D02*
X11348015Y-12463674D01*
X11348015Y-12463674D02*
X11357539Y-12473198D01*
X11357539Y-12473198D02*
X11367063Y-12492246D01*
X11367063Y-12492246D02*
X11367063Y-12549388D01*
X11367063Y-12549388D02*
X11357539Y-12568436D01*
X11357539Y-12568436D02*
X11348015Y-12577960D01*
X11348015Y-12577960D02*
X11328968Y-12587484D01*
X11328968Y-12587484D02*
X11290872Y-12587484D01*
X11290872Y-12587484D02*
X11271825Y-12577960D01*
X11481349Y-12587484D02*
X11462301Y-12577960D01*
X11462301Y-12577960D02*
X11452777Y-12558912D01*
X11452777Y-12558912D02*
X11452777Y-12387484D01*
X11643253Y-12587484D02*
X11643253Y-12482722D01*
X11643253Y-12482722D02*
X11633730Y-12463674D01*
X11633730Y-12463674D02*
X11614682Y-12454150D01*
X11614682Y-12454150D02*
X11576587Y-12454150D01*
X11576587Y-12454150D02*
X11557539Y-12463674D01*
X11643253Y-12577960D02*
X11624206Y-12587484D01*
X11624206Y-12587484D02*
X11576587Y-12587484D01*
X11576587Y-12587484D02*
X11557539Y-12577960D01*
X11557539Y-12577960D02*
X11548015Y-12558912D01*
X11548015Y-12558912D02*
X11548015Y-12539865D01*
X11548015Y-12539865D02*
X11557539Y-12520817D01*
X11557539Y-12520817D02*
X11576587Y-12511293D01*
X11576587Y-12511293D02*
X11624206Y-12511293D01*
X11624206Y-12511293D02*
X11643253Y-12501769D01*
X11709920Y-12454150D02*
X11786111Y-12454150D01*
X11738492Y-12387484D02*
X11738492Y-12558912D01*
X11738492Y-12558912D02*
X11748015Y-12577960D01*
X11748015Y-12577960D02*
X11767063Y-12587484D01*
X11767063Y-12587484D02*
X11786111Y-12587484D01*
X11928968Y-12577960D02*
X11909920Y-12587484D01*
X11909920Y-12587484D02*
X11871825Y-12587484D01*
X11871825Y-12587484D02*
X11852777Y-12577960D01*
X11852777Y-12577960D02*
X11843253Y-12558912D01*
X11843253Y-12558912D02*
X11843253Y-12482722D01*
X11843253Y-12482722D02*
X11852777Y-12463674D01*
X11852777Y-12463674D02*
X11871825Y-12454150D01*
X11871825Y-12454150D02*
X11909920Y-12454150D01*
X11909920Y-12454150D02*
X11928968Y-12463674D01*
X11928968Y-12463674D02*
X11938492Y-12482722D01*
X11938492Y-12482722D02*
X11938492Y-12501769D01*
X11938492Y-12501769D02*
X11843253Y-12520817D01*
X12109920Y-12587484D02*
X12109920Y-12387484D01*
X12109920Y-12577960D02*
X12090873Y-12587484D01*
X12090873Y-12587484D02*
X12052777Y-12587484D01*
X12052777Y-12587484D02*
X12033730Y-12577960D01*
X12033730Y-12577960D02*
X12024206Y-12568436D01*
X12024206Y-12568436D02*
X12014682Y-12549388D01*
X12014682Y-12549388D02*
X12014682Y-12492246D01*
X12014682Y-12492246D02*
X12024206Y-12473198D01*
X12024206Y-12473198D02*
X12033730Y-12463674D01*
X12033730Y-12463674D02*
X12052777Y-12454150D01*
X12052777Y-12454150D02*
X12090873Y-12454150D01*
X12090873Y-12454150D02*
X12109920Y-12463674D01*
X12186111Y-12663674D02*
X12195634Y-12654150D01*
X12195634Y-12654150D02*
X12214682Y-12625579D01*
X12214682Y-12625579D02*
X12224206Y-12606531D01*
X12224206Y-12606531D02*
X12233730Y-12577960D01*
X12233730Y-12577960D02*
X12243253Y-12530341D01*
X12243253Y-12530341D02*
X12243253Y-12492246D01*
X12243253Y-12492246D02*
X12233730Y-12444627D01*
X12233730Y-12444627D02*
X12224206Y-12416055D01*
X12224206Y-12416055D02*
X12214682Y-12397008D01*
X12214682Y-12397008D02*
X12195634Y-12368436D01*
X12195634Y-12368436D02*
X12186111Y-12358912D01*
X5492000Y-12916000D02*
X5592000Y-12816000D01*
X5492000Y-12716000D01*
X5392000Y-12816000D01*
X5492000Y-12916000D01*
X5833729Y-12707484D02*
X5957539Y-12707484D01*
X5957539Y-12707484D02*
X5890872Y-12783674D01*
X5890872Y-12783674D02*
X5919443Y-12783674D01*
X5919443Y-12783674D02*
X5938491Y-12793198D01*
X5938491Y-12793198D02*
X5948015Y-12802722D01*
X5948015Y-12802722D02*
X5957539Y-12821769D01*
X5957539Y-12821769D02*
X5957539Y-12869388D01*
X5957539Y-12869388D02*
X5948015Y-12888436D01*
X5948015Y-12888436D02*
X5938491Y-12897960D01*
X5938491Y-12897960D02*
X5919443Y-12907484D01*
X5919443Y-12907484D02*
X5862301Y-12907484D01*
X5862301Y-12907484D02*
X5843253Y-12897960D01*
X5843253Y-12897960D02*
X5833729Y-12888436D01*
X6043253Y-12888436D02*
X6052777Y-12897960D01*
X6052777Y-12897960D02*
X6043253Y-12907484D01*
X6043253Y-12907484D02*
X6033729Y-12897960D01*
X6033729Y-12897960D02*
X6043253Y-12888436D01*
X6043253Y-12888436D02*
X6043253Y-12907484D01*
X6128967Y-12726531D02*
X6138491Y-12717008D01*
X6138491Y-12717008D02*
X6157539Y-12707484D01*
X6157539Y-12707484D02*
X6205158Y-12707484D01*
X6205158Y-12707484D02*
X6224205Y-12717008D01*
X6224205Y-12717008D02*
X6233729Y-12726531D01*
X6233729Y-12726531D02*
X6243253Y-12745579D01*
X6243253Y-12745579D02*
X6243253Y-12764627D01*
X6243253Y-12764627D02*
X6233729Y-12793198D01*
X6233729Y-12793198D02*
X6119443Y-12907484D01*
X6119443Y-12907484D02*
X6243253Y-12907484D01*
X6367062Y-12707484D02*
X6386110Y-12707484D01*
X6386110Y-12707484D02*
X6405158Y-12717008D01*
X6405158Y-12717008D02*
X6414682Y-12726531D01*
X6414682Y-12726531D02*
X6424205Y-12745579D01*
X6424205Y-12745579D02*
X6433729Y-12783674D01*
X6433729Y-12783674D02*
X6433729Y-12831293D01*
X6433729Y-12831293D02*
X6424205Y-12869388D01*
X6424205Y-12869388D02*
X6414682Y-12888436D01*
X6414682Y-12888436D02*
X6405158Y-12897960D01*
X6405158Y-12897960D02*
X6386110Y-12907484D01*
X6386110Y-12907484D02*
X6367062Y-12907484D01*
X6367062Y-12907484D02*
X6348015Y-12897960D01*
X6348015Y-12897960D02*
X6338491Y-12888436D01*
X6338491Y-12888436D02*
X6328967Y-12869388D01*
X6328967Y-12869388D02*
X6319443Y-12831293D01*
X6319443Y-12831293D02*
X6319443Y-12783674D01*
X6319443Y-12783674D02*
X6328967Y-12745579D01*
X6328967Y-12745579D02*
X6338491Y-12726531D01*
X6338491Y-12726531D02*
X6348015Y-12717008D01*
X6348015Y-12717008D02*
X6367062Y-12707484D01*
X6557539Y-12707484D02*
X6576586Y-12707484D01*
X6576586Y-12707484D02*
X6595634Y-12717008D01*
X6595634Y-12717008D02*
X6605158Y-12726531D01*
X6605158Y-12726531D02*
X6614682Y-12745579D01*
X6614682Y-12745579D02*
X6624205Y-12783674D01*
X6624205Y-12783674D02*
X6624205Y-12831293D01*
X6624205Y-12831293D02*
X6614682Y-12869388D01*
X6614682Y-12869388D02*
X6605158Y-12888436D01*
X6605158Y-12888436D02*
X6595634Y-12897960D01*
X6595634Y-12897960D02*
X6576586Y-12907484D01*
X6576586Y-12907484D02*
X6557539Y-12907484D01*
X6557539Y-12907484D02*
X6538491Y-12897960D01*
X6538491Y-12897960D02*
X6528967Y-12888436D01*
X6528967Y-12888436D02*
X6519443Y-12869388D01*
X6519443Y-12869388D02*
X6509920Y-12831293D01*
X6509920Y-12831293D02*
X6509920Y-12783674D01*
X6509920Y-12783674D02*
X6519443Y-12745579D01*
X6519443Y-12745579D02*
X6528967Y-12726531D01*
X6528967Y-12726531D02*
X6538491Y-12717008D01*
X6538491Y-12717008D02*
X6557539Y-12707484D01*
X6709920Y-12907484D02*
X6709920Y-12774150D01*
X6709920Y-12793198D02*
X6719443Y-12783674D01*
X6719443Y-12783674D02*
X6738491Y-12774150D01*
X6738491Y-12774150D02*
X6767063Y-12774150D01*
X6767063Y-12774150D02*
X6786110Y-12783674D01*
X6786110Y-12783674D02*
X6795634Y-12802722D01*
X6795634Y-12802722D02*
X6795634Y-12907484D01*
X6795634Y-12802722D02*
X6805158Y-12783674D01*
X6805158Y-12783674D02*
X6824205Y-12774150D01*
X6824205Y-12774150D02*
X6852777Y-12774150D01*
X6852777Y-12774150D02*
X6871824Y-12783674D01*
X6871824Y-12783674D02*
X6881348Y-12802722D01*
X6881348Y-12802722D02*
X6881348Y-12907484D01*
X6976586Y-12907484D02*
X6976586Y-12774150D01*
X6976586Y-12793198D02*
X6986110Y-12783674D01*
X6986110Y-12783674D02*
X7005158Y-12774150D01*
X7005158Y-12774150D02*
X7033729Y-12774150D01*
X7033729Y-12774150D02*
X7052777Y-12783674D01*
X7052777Y-12783674D02*
X7062301Y-12802722D01*
X7062301Y-12802722D02*
X7062301Y-12907484D01*
X7062301Y-12802722D02*
X7071824Y-12783674D01*
X7071824Y-12783674D02*
X7090872Y-12774150D01*
X7090872Y-12774150D02*
X7119443Y-12774150D01*
X7119443Y-12774150D02*
X7138491Y-12783674D01*
X7138491Y-12783674D02*
X7148015Y-12802722D01*
X7148015Y-12802722D02*
X7148015Y-12907484D01*
X7538491Y-12697960D02*
X7367063Y-12955103D01*
X7795634Y-12707484D02*
X7814682Y-12707484D01*
X7814682Y-12707484D02*
X7833729Y-12717008D01*
X7833729Y-12717008D02*
X7843253Y-12726531D01*
X7843253Y-12726531D02*
X7852777Y-12745579D01*
X7852777Y-12745579D02*
X7862301Y-12783674D01*
X7862301Y-12783674D02*
X7862301Y-12831293D01*
X7862301Y-12831293D02*
X7852777Y-12869388D01*
X7852777Y-12869388D02*
X7843253Y-12888436D01*
X7843253Y-12888436D02*
X7833729Y-12897960D01*
X7833729Y-12897960D02*
X7814682Y-12907484D01*
X7814682Y-12907484D02*
X7795634Y-12907484D01*
X7795634Y-12907484D02*
X7776586Y-12897960D01*
X7776586Y-12897960D02*
X7767063Y-12888436D01*
X7767063Y-12888436D02*
X7757539Y-12869388D01*
X7757539Y-12869388D02*
X7748015Y-12831293D01*
X7748015Y-12831293D02*
X7748015Y-12783674D01*
X7748015Y-12783674D02*
X7757539Y-12745579D01*
X7757539Y-12745579D02*
X7767063Y-12726531D01*
X7767063Y-12726531D02*
X7776586Y-12717008D01*
X7776586Y-12717008D02*
X7795634Y-12707484D01*
X7948015Y-12888436D02*
X7957539Y-12897960D01*
X7957539Y-12897960D02*
X7948015Y-12907484D01*
X7948015Y-12907484D02*
X7938491Y-12897960D01*
X7938491Y-12897960D02*
X7948015Y-12888436D01*
X7948015Y-12888436D02*
X7948015Y-12907484D01*
X8148015Y-12907484D02*
X8033729Y-12907484D01*
X8090872Y-12907484D02*
X8090872Y-12707484D01*
X8090872Y-12707484D02*
X8071825Y-12736055D01*
X8071825Y-12736055D02*
X8052777Y-12755103D01*
X8052777Y-12755103D02*
X8033729Y-12764627D01*
X8224206Y-12726531D02*
X8233729Y-12717008D01*
X8233729Y-12717008D02*
X8252777Y-12707484D01*
X8252777Y-12707484D02*
X8300396Y-12707484D01*
X8300396Y-12707484D02*
X8319444Y-12717008D01*
X8319444Y-12717008D02*
X8328967Y-12726531D01*
X8328967Y-12726531D02*
X8338491Y-12745579D01*
X8338491Y-12745579D02*
X8338491Y-12764627D01*
X8338491Y-12764627D02*
X8328967Y-12793198D01*
X8328967Y-12793198D02*
X8214682Y-12907484D01*
X8214682Y-12907484D02*
X8338491Y-12907484D01*
X8509920Y-12707484D02*
X8471825Y-12707484D01*
X8471825Y-12707484D02*
X8452777Y-12717008D01*
X8452777Y-12717008D02*
X8443253Y-12726531D01*
X8443253Y-12726531D02*
X8424206Y-12755103D01*
X8424206Y-12755103D02*
X8414682Y-12793198D01*
X8414682Y-12793198D02*
X8414682Y-12869388D01*
X8414682Y-12869388D02*
X8424206Y-12888436D01*
X8424206Y-12888436D02*
X8433729Y-12897960D01*
X8433729Y-12897960D02*
X8452777Y-12907484D01*
X8452777Y-12907484D02*
X8490872Y-12907484D01*
X8490872Y-12907484D02*
X8509920Y-12897960D01*
X8509920Y-12897960D02*
X8519444Y-12888436D01*
X8519444Y-12888436D02*
X8528968Y-12869388D01*
X8528968Y-12869388D02*
X8528968Y-12821769D01*
X8528968Y-12821769D02*
X8519444Y-12802722D01*
X8519444Y-12802722D02*
X8509920Y-12793198D01*
X8509920Y-12793198D02*
X8490872Y-12783674D01*
X8490872Y-12783674D02*
X8452777Y-12783674D01*
X8452777Y-12783674D02*
X8433729Y-12793198D01*
X8433729Y-12793198D02*
X8424206Y-12802722D01*
X8424206Y-12802722D02*
X8414682Y-12821769D01*
X8652777Y-12707484D02*
X8671825Y-12707484D01*
X8671825Y-12707484D02*
X8690872Y-12717008D01*
X8690872Y-12717008D02*
X8700396Y-12726531D01*
X8700396Y-12726531D02*
X8709920Y-12745579D01*
X8709920Y-12745579D02*
X8719444Y-12783674D01*
X8719444Y-12783674D02*
X8719444Y-12831293D01*
X8719444Y-12831293D02*
X8709920Y-12869388D01*
X8709920Y-12869388D02*
X8700396Y-12888436D01*
X8700396Y-12888436D02*
X8690872Y-12897960D01*
X8690872Y-12897960D02*
X8671825Y-12907484D01*
X8671825Y-12907484D02*
X8652777Y-12907484D01*
X8652777Y-12907484D02*
X8633729Y-12897960D01*
X8633729Y-12897960D02*
X8624206Y-12888436D01*
X8624206Y-12888436D02*
X8614682Y-12869388D01*
X8614682Y-12869388D02*
X8605158Y-12831293D01*
X8605158Y-12831293D02*
X8605158Y-12783674D01*
X8605158Y-12783674D02*
X8614682Y-12745579D01*
X8614682Y-12745579D02*
X8624206Y-12726531D01*
X8624206Y-12726531D02*
X8633729Y-12717008D01*
X8633729Y-12717008D02*
X8652777Y-12707484D01*
X8795634Y-12707484D02*
X8795634Y-12745579D01*
X8871825Y-12707484D02*
X8871825Y-12745579D01*
X9167063Y-12983674D02*
X9157539Y-12974150D01*
X9157539Y-12974150D02*
X9138491Y-12945579D01*
X9138491Y-12945579D02*
X9128968Y-12926531D01*
X9128968Y-12926531D02*
X9119444Y-12897960D01*
X9119444Y-12897960D02*
X9109920Y-12850341D01*
X9109920Y-12850341D02*
X9109920Y-12812246D01*
X9109920Y-12812246D02*
X9119444Y-12764627D01*
X9119444Y-12764627D02*
X9128968Y-12736055D01*
X9128968Y-12736055D02*
X9138491Y-12717008D01*
X9138491Y-12717008D02*
X9157539Y-12688436D01*
X9157539Y-12688436D02*
X9167063Y-12678912D01*
X9233730Y-12726531D02*
X9243253Y-12717008D01*
X9243253Y-12717008D02*
X9262301Y-12707484D01*
X9262301Y-12707484D02*
X9309920Y-12707484D01*
X9309920Y-12707484D02*
X9328968Y-12717008D01*
X9328968Y-12717008D02*
X9338491Y-12726531D01*
X9338491Y-12726531D02*
X9348015Y-12745579D01*
X9348015Y-12745579D02*
X9348015Y-12764627D01*
X9348015Y-12764627D02*
X9338491Y-12793198D01*
X9338491Y-12793198D02*
X9224206Y-12907484D01*
X9224206Y-12907484D02*
X9348015Y-12907484D01*
X9586111Y-12907484D02*
X9586111Y-12707484D01*
X9671825Y-12907484D02*
X9671825Y-12802722D01*
X9671825Y-12802722D02*
X9662301Y-12783674D01*
X9662301Y-12783674D02*
X9643253Y-12774150D01*
X9643253Y-12774150D02*
X9614682Y-12774150D01*
X9614682Y-12774150D02*
X9595634Y-12783674D01*
X9595634Y-12783674D02*
X9586111Y-12793198D01*
X9795634Y-12907484D02*
X9776587Y-12897960D01*
X9776587Y-12897960D02*
X9767063Y-12888436D01*
X9767063Y-12888436D02*
X9757539Y-12869388D01*
X9757539Y-12869388D02*
X9757539Y-12812246D01*
X9757539Y-12812246D02*
X9767063Y-12793198D01*
X9767063Y-12793198D02*
X9776587Y-12783674D01*
X9776587Y-12783674D02*
X9795634Y-12774150D01*
X9795634Y-12774150D02*
X9824206Y-12774150D01*
X9824206Y-12774150D02*
X9843253Y-12783674D01*
X9843253Y-12783674D02*
X9852777Y-12793198D01*
X9852777Y-12793198D02*
X9862301Y-12812246D01*
X9862301Y-12812246D02*
X9862301Y-12869388D01*
X9862301Y-12869388D02*
X9852777Y-12888436D01*
X9852777Y-12888436D02*
X9843253Y-12897960D01*
X9843253Y-12897960D02*
X9824206Y-12907484D01*
X9824206Y-12907484D02*
X9795634Y-12907484D01*
X9976587Y-12907484D02*
X9957539Y-12897960D01*
X9957539Y-12897960D02*
X9948015Y-12878912D01*
X9948015Y-12878912D02*
X9948015Y-12707484D01*
X10128968Y-12897960D02*
X10109920Y-12907484D01*
X10109920Y-12907484D02*
X10071825Y-12907484D01*
X10071825Y-12907484D02*
X10052777Y-12897960D01*
X10052777Y-12897960D02*
X10043253Y-12878912D01*
X10043253Y-12878912D02*
X10043253Y-12802722D01*
X10043253Y-12802722D02*
X10052777Y-12783674D01*
X10052777Y-12783674D02*
X10071825Y-12774150D01*
X10071825Y-12774150D02*
X10109920Y-12774150D01*
X10109920Y-12774150D02*
X10128968Y-12783674D01*
X10128968Y-12783674D02*
X10138492Y-12802722D01*
X10138492Y-12802722D02*
X10138492Y-12821769D01*
X10138492Y-12821769D02*
X10043253Y-12840817D01*
X10214682Y-12897960D02*
X10233730Y-12907484D01*
X10233730Y-12907484D02*
X10271825Y-12907484D01*
X10271825Y-12907484D02*
X10290873Y-12897960D01*
X10290873Y-12897960D02*
X10300396Y-12878912D01*
X10300396Y-12878912D02*
X10300396Y-12869388D01*
X10300396Y-12869388D02*
X10290873Y-12850341D01*
X10290873Y-12850341D02*
X10271825Y-12840817D01*
X10271825Y-12840817D02*
X10243253Y-12840817D01*
X10243253Y-12840817D02*
X10224206Y-12831293D01*
X10224206Y-12831293D02*
X10214682Y-12812246D01*
X10214682Y-12812246D02*
X10214682Y-12802722D01*
X10214682Y-12802722D02*
X10224206Y-12783674D01*
X10224206Y-12783674D02*
X10243253Y-12774150D01*
X10243253Y-12774150D02*
X10271825Y-12774150D01*
X10271825Y-12774150D02*
X10290873Y-12783674D01*
X10367063Y-12983674D02*
X10376587Y-12974150D01*
X10376587Y-12974150D02*
X10395634Y-12945579D01*
X10395634Y-12945579D02*
X10405158Y-12926531D01*
X10405158Y-12926531D02*
X10414682Y-12897960D01*
X10414682Y-12897960D02*
X10424206Y-12850341D01*
X10424206Y-12850341D02*
X10424206Y-12812246D01*
X10424206Y-12812246D02*
X10414682Y-12764627D01*
X10414682Y-12764627D02*
X10405158Y-12736055D01*
X10405158Y-12736055D02*
X10395634Y-12717008D01*
X10395634Y-12717008D02*
X10376587Y-12688436D01*
X10376587Y-12688436D02*
X10367063Y-12678912D01*
X10728968Y-12983674D02*
X10719444Y-12974150D01*
X10719444Y-12974150D02*
X10700396Y-12945579D01*
X10700396Y-12945579D02*
X10690873Y-12926531D01*
X10690873Y-12926531D02*
X10681349Y-12897960D01*
X10681349Y-12897960D02*
X10671825Y-12850341D01*
X10671825Y-12850341D02*
X10671825Y-12812246D01*
X10671825Y-12812246D02*
X10681349Y-12764627D01*
X10681349Y-12764627D02*
X10690873Y-12736055D01*
X10690873Y-12736055D02*
X10700396Y-12717008D01*
X10700396Y-12717008D02*
X10719444Y-12688436D01*
X10719444Y-12688436D02*
X10728968Y-12678912D01*
X10805158Y-12774150D02*
X10805158Y-12907484D01*
X10805158Y-12793198D02*
X10814682Y-12783674D01*
X10814682Y-12783674D02*
X10833730Y-12774150D01*
X10833730Y-12774150D02*
X10862301Y-12774150D01*
X10862301Y-12774150D02*
X10881349Y-12783674D01*
X10881349Y-12783674D02*
X10890873Y-12802722D01*
X10890873Y-12802722D02*
X10890873Y-12907484D01*
X11014682Y-12907484D02*
X10995634Y-12897960D01*
X10995634Y-12897960D02*
X10986111Y-12888436D01*
X10986111Y-12888436D02*
X10976587Y-12869388D01*
X10976587Y-12869388D02*
X10976587Y-12812246D01*
X10976587Y-12812246D02*
X10986111Y-12793198D01*
X10986111Y-12793198D02*
X10995634Y-12783674D01*
X10995634Y-12783674D02*
X11014682Y-12774150D01*
X11014682Y-12774150D02*
X11043254Y-12774150D01*
X11043254Y-12774150D02*
X11062301Y-12783674D01*
X11062301Y-12783674D02*
X11071825Y-12793198D01*
X11071825Y-12793198D02*
X11081349Y-12812246D01*
X11081349Y-12812246D02*
X11081349Y-12869388D01*
X11081349Y-12869388D02*
X11071825Y-12888436D01*
X11071825Y-12888436D02*
X11062301Y-12897960D01*
X11062301Y-12897960D02*
X11043254Y-12907484D01*
X11043254Y-12907484D02*
X11014682Y-12907484D01*
X11138492Y-12774150D02*
X11214682Y-12774150D01*
X11167063Y-12707484D02*
X11167063Y-12878912D01*
X11167063Y-12878912D02*
X11176587Y-12897960D01*
X11176587Y-12897960D02*
X11195634Y-12907484D01*
X11195634Y-12907484D02*
X11214682Y-12907484D01*
X11433730Y-12774150D02*
X11433730Y-12974150D01*
X11433730Y-12783674D02*
X11452777Y-12774150D01*
X11452777Y-12774150D02*
X11490873Y-12774150D01*
X11490873Y-12774150D02*
X11509920Y-12783674D01*
X11509920Y-12783674D02*
X11519444Y-12793198D01*
X11519444Y-12793198D02*
X11528968Y-12812246D01*
X11528968Y-12812246D02*
X11528968Y-12869388D01*
X11528968Y-12869388D02*
X11519444Y-12888436D01*
X11519444Y-12888436D02*
X11509920Y-12897960D01*
X11509920Y-12897960D02*
X11490873Y-12907484D01*
X11490873Y-12907484D02*
X11452777Y-12907484D01*
X11452777Y-12907484D02*
X11433730Y-12897960D01*
X11643253Y-12907484D02*
X11624206Y-12897960D01*
X11624206Y-12897960D02*
X11614682Y-12878912D01*
X11614682Y-12878912D02*
X11614682Y-12707484D01*
X11805158Y-12907484D02*
X11805158Y-12802722D01*
X11805158Y-12802722D02*
X11795634Y-12783674D01*
X11795634Y-12783674D02*
X11776587Y-12774150D01*
X11776587Y-12774150D02*
X11738492Y-12774150D01*
X11738492Y-12774150D02*
X11719444Y-12783674D01*
X11805158Y-12897960D02*
X11786111Y-12907484D01*
X11786111Y-12907484D02*
X11738492Y-12907484D01*
X11738492Y-12907484D02*
X11719444Y-12897960D01*
X11719444Y-12897960D02*
X11709920Y-12878912D01*
X11709920Y-12878912D02*
X11709920Y-12859865D01*
X11709920Y-12859865D02*
X11719444Y-12840817D01*
X11719444Y-12840817D02*
X11738492Y-12831293D01*
X11738492Y-12831293D02*
X11786111Y-12831293D01*
X11786111Y-12831293D02*
X11805158Y-12821769D01*
X11871825Y-12774150D02*
X11948015Y-12774150D01*
X11900396Y-12707484D02*
X11900396Y-12878912D01*
X11900396Y-12878912D02*
X11909920Y-12897960D01*
X11909920Y-12897960D02*
X11928968Y-12907484D01*
X11928968Y-12907484D02*
X11948015Y-12907484D01*
X12090873Y-12897960D02*
X12071825Y-12907484D01*
X12071825Y-12907484D02*
X12033730Y-12907484D01*
X12033730Y-12907484D02*
X12014682Y-12897960D01*
X12014682Y-12897960D02*
X12005158Y-12878912D01*
X12005158Y-12878912D02*
X12005158Y-12802722D01*
X12005158Y-12802722D02*
X12014682Y-12783674D01*
X12014682Y-12783674D02*
X12033730Y-12774150D01*
X12033730Y-12774150D02*
X12071825Y-12774150D01*
X12071825Y-12774150D02*
X12090873Y-12783674D01*
X12090873Y-12783674D02*
X12100396Y-12802722D01*
X12100396Y-12802722D02*
X12100396Y-12821769D01*
X12100396Y-12821769D02*
X12005158Y-12840817D01*
X12271825Y-12907484D02*
X12271825Y-12707484D01*
X12271825Y-12897960D02*
X12252777Y-12907484D01*
X12252777Y-12907484D02*
X12214682Y-12907484D01*
X12214682Y-12907484D02*
X12195634Y-12897960D01*
X12195634Y-12897960D02*
X12186111Y-12888436D01*
X12186111Y-12888436D02*
X12176587Y-12869388D01*
X12176587Y-12869388D02*
X12176587Y-12812246D01*
X12176587Y-12812246D02*
X12186111Y-12793198D01*
X12186111Y-12793198D02*
X12195634Y-12783674D01*
X12195634Y-12783674D02*
X12214682Y-12774150D01*
X12214682Y-12774150D02*
X12252777Y-12774150D01*
X12252777Y-12774150D02*
X12271825Y-12783674D01*
X12348015Y-12983674D02*
X12357539Y-12974150D01*
X12357539Y-12974150D02*
X12376587Y-12945579D01*
X12376587Y-12945579D02*
X12386111Y-12926531D01*
X12386111Y-12926531D02*
X12395634Y-12897960D01*
X12395634Y-12897960D02*
X12405158Y-12850341D01*
X12405158Y-12850341D02*
X12405158Y-12812246D01*
X12405158Y-12812246D02*
X12395634Y-12764627D01*
X12395634Y-12764627D02*
X12386111Y-12736055D01*
X12386111Y-12736055D02*
X12376587Y-12717008D01*
X12376587Y-12717008D02*
X12357539Y-12688436D01*
X12357539Y-12688436D02*
X12348015Y-12678912D01*
X5392000Y-13036000D02*
X5592000Y-13236000D01*
X5592000Y-13036000D02*
X5392000Y-13236000D01*
X5592000Y-13136000D02*
G75*
G02*
X5392000Y-13136000I-100000J0D01*
G01*
X5392000Y-13136000D02*
G75*
G02*
X5592000Y-13136000I100000J0D01*
G01*
X5833729Y-13027484D02*
X5957539Y-13027484D01*
X5957539Y-13027484D02*
X5890872Y-13103674D01*
X5890872Y-13103674D02*
X5919443Y-13103674D01*
X5919443Y-13103674D02*
X5938491Y-13113198D01*
X5938491Y-13113198D02*
X5948015Y-13122722D01*
X5948015Y-13122722D02*
X5957539Y-13141769D01*
X5957539Y-13141769D02*
X5957539Y-13189388D01*
X5957539Y-13189388D02*
X5948015Y-13208436D01*
X5948015Y-13208436D02*
X5938491Y-13217960D01*
X5938491Y-13217960D02*
X5919443Y-13227484D01*
X5919443Y-13227484D02*
X5862301Y-13227484D01*
X5862301Y-13227484D02*
X5843253Y-13217960D01*
X5843253Y-13217960D02*
X5833729Y-13208436D01*
X6043253Y-13208436D02*
X6052777Y-13217960D01*
X6052777Y-13217960D02*
X6043253Y-13227484D01*
X6043253Y-13227484D02*
X6033729Y-13217960D01*
X6033729Y-13217960D02*
X6043253Y-13208436D01*
X6043253Y-13208436D02*
X6043253Y-13227484D01*
X6224205Y-13094150D02*
X6224205Y-13227484D01*
X6176586Y-13017960D02*
X6128967Y-13160817D01*
X6128967Y-13160817D02*
X6252777Y-13160817D01*
X6424205Y-13027484D02*
X6328967Y-13027484D01*
X6328967Y-13027484D02*
X6319443Y-13122722D01*
X6319443Y-13122722D02*
X6328967Y-13113198D01*
X6328967Y-13113198D02*
X6348015Y-13103674D01*
X6348015Y-13103674D02*
X6395634Y-13103674D01*
X6395634Y-13103674D02*
X6414682Y-13113198D01*
X6414682Y-13113198D02*
X6424205Y-13122722D01*
X6424205Y-13122722D02*
X6433729Y-13141769D01*
X6433729Y-13141769D02*
X6433729Y-13189388D01*
X6433729Y-13189388D02*
X6424205Y-13208436D01*
X6424205Y-13208436D02*
X6414682Y-13217960D01*
X6414682Y-13217960D02*
X6395634Y-13227484D01*
X6395634Y-13227484D02*
X6348015Y-13227484D01*
X6348015Y-13227484D02*
X6328967Y-13217960D01*
X6328967Y-13217960D02*
X6319443Y-13208436D01*
X6557539Y-13027484D02*
X6576586Y-13027484D01*
X6576586Y-13027484D02*
X6595634Y-13037008D01*
X6595634Y-13037008D02*
X6605158Y-13046531D01*
X6605158Y-13046531D02*
X6614682Y-13065579D01*
X6614682Y-13065579D02*
X6624205Y-13103674D01*
X6624205Y-13103674D02*
X6624205Y-13151293D01*
X6624205Y-13151293D02*
X6614682Y-13189388D01*
X6614682Y-13189388D02*
X6605158Y-13208436D01*
X6605158Y-13208436D02*
X6595634Y-13217960D01*
X6595634Y-13217960D02*
X6576586Y-13227484D01*
X6576586Y-13227484D02*
X6557539Y-13227484D01*
X6557539Y-13227484D02*
X6538491Y-13217960D01*
X6538491Y-13217960D02*
X6528967Y-13208436D01*
X6528967Y-13208436D02*
X6519443Y-13189388D01*
X6519443Y-13189388D02*
X6509920Y-13151293D01*
X6509920Y-13151293D02*
X6509920Y-13103674D01*
X6509920Y-13103674D02*
X6519443Y-13065579D01*
X6519443Y-13065579D02*
X6528967Y-13046531D01*
X6528967Y-13046531D02*
X6538491Y-13037008D01*
X6538491Y-13037008D02*
X6557539Y-13027484D01*
X6709920Y-13227484D02*
X6709920Y-13094150D01*
X6709920Y-13113198D02*
X6719443Y-13103674D01*
X6719443Y-13103674D02*
X6738491Y-13094150D01*
X6738491Y-13094150D02*
X6767063Y-13094150D01*
X6767063Y-13094150D02*
X6786110Y-13103674D01*
X6786110Y-13103674D02*
X6795634Y-13122722D01*
X6795634Y-13122722D02*
X6795634Y-13227484D01*
X6795634Y-13122722D02*
X6805158Y-13103674D01*
X6805158Y-13103674D02*
X6824205Y-13094150D01*
X6824205Y-13094150D02*
X6852777Y-13094150D01*
X6852777Y-13094150D02*
X6871824Y-13103674D01*
X6871824Y-13103674D02*
X6881348Y-13122722D01*
X6881348Y-13122722D02*
X6881348Y-13227484D01*
X6976586Y-13227484D02*
X6976586Y-13094150D01*
X6976586Y-13113198D02*
X6986110Y-13103674D01*
X6986110Y-13103674D02*
X7005158Y-13094150D01*
X7005158Y-13094150D02*
X7033729Y-13094150D01*
X7033729Y-13094150D02*
X7052777Y-13103674D01*
X7052777Y-13103674D02*
X7062301Y-13122722D01*
X7062301Y-13122722D02*
X7062301Y-13227484D01*
X7062301Y-13122722D02*
X7071824Y-13103674D01*
X7071824Y-13103674D02*
X7090872Y-13094150D01*
X7090872Y-13094150D02*
X7119443Y-13094150D01*
X7119443Y-13094150D02*
X7138491Y-13103674D01*
X7138491Y-13103674D02*
X7148015Y-13122722D01*
X7148015Y-13122722D02*
X7148015Y-13227484D01*
X7538491Y-13017960D02*
X7367063Y-13275103D01*
X7795634Y-13027484D02*
X7814682Y-13027484D01*
X7814682Y-13027484D02*
X7833729Y-13037008D01*
X7833729Y-13037008D02*
X7843253Y-13046531D01*
X7843253Y-13046531D02*
X7852777Y-13065579D01*
X7852777Y-13065579D02*
X7862301Y-13103674D01*
X7862301Y-13103674D02*
X7862301Y-13151293D01*
X7862301Y-13151293D02*
X7852777Y-13189388D01*
X7852777Y-13189388D02*
X7843253Y-13208436D01*
X7843253Y-13208436D02*
X7833729Y-13217960D01*
X7833729Y-13217960D02*
X7814682Y-13227484D01*
X7814682Y-13227484D02*
X7795634Y-13227484D01*
X7795634Y-13227484D02*
X7776586Y-13217960D01*
X7776586Y-13217960D02*
X7767063Y-13208436D01*
X7767063Y-13208436D02*
X7757539Y-13189388D01*
X7757539Y-13189388D02*
X7748015Y-13151293D01*
X7748015Y-13151293D02*
X7748015Y-13103674D01*
X7748015Y-13103674D02*
X7757539Y-13065579D01*
X7757539Y-13065579D02*
X7767063Y-13046531D01*
X7767063Y-13046531D02*
X7776586Y-13037008D01*
X7776586Y-13037008D02*
X7795634Y-13027484D01*
X7948015Y-13208436D02*
X7957539Y-13217960D01*
X7957539Y-13217960D02*
X7948015Y-13227484D01*
X7948015Y-13227484D02*
X7938491Y-13217960D01*
X7938491Y-13217960D02*
X7948015Y-13208436D01*
X7948015Y-13208436D02*
X7948015Y-13227484D01*
X8148015Y-13227484D02*
X8033729Y-13227484D01*
X8090872Y-13227484D02*
X8090872Y-13027484D01*
X8090872Y-13027484D02*
X8071825Y-13056055D01*
X8071825Y-13056055D02*
X8052777Y-13075103D01*
X8052777Y-13075103D02*
X8033729Y-13084627D01*
X8214682Y-13027484D02*
X8338491Y-13027484D01*
X8338491Y-13027484D02*
X8271825Y-13103674D01*
X8271825Y-13103674D02*
X8300396Y-13103674D01*
X8300396Y-13103674D02*
X8319444Y-13113198D01*
X8319444Y-13113198D02*
X8328967Y-13122722D01*
X8328967Y-13122722D02*
X8338491Y-13141769D01*
X8338491Y-13141769D02*
X8338491Y-13189388D01*
X8338491Y-13189388D02*
X8328967Y-13208436D01*
X8328967Y-13208436D02*
X8319444Y-13217960D01*
X8319444Y-13217960D02*
X8300396Y-13227484D01*
X8300396Y-13227484D02*
X8243253Y-13227484D01*
X8243253Y-13227484D02*
X8224206Y-13217960D01*
X8224206Y-13217960D02*
X8214682Y-13208436D01*
X8519444Y-13027484D02*
X8424206Y-13027484D01*
X8424206Y-13027484D02*
X8414682Y-13122722D01*
X8414682Y-13122722D02*
X8424206Y-13113198D01*
X8424206Y-13113198D02*
X8443253Y-13103674D01*
X8443253Y-13103674D02*
X8490872Y-13103674D01*
X8490872Y-13103674D02*
X8509920Y-13113198D01*
X8509920Y-13113198D02*
X8519444Y-13122722D01*
X8519444Y-13122722D02*
X8528968Y-13141769D01*
X8528968Y-13141769D02*
X8528968Y-13189388D01*
X8528968Y-13189388D02*
X8519444Y-13208436D01*
X8519444Y-13208436D02*
X8509920Y-13217960D01*
X8509920Y-13217960D02*
X8490872Y-13227484D01*
X8490872Y-13227484D02*
X8443253Y-13227484D01*
X8443253Y-13227484D02*
X8424206Y-13217960D01*
X8424206Y-13217960D02*
X8414682Y-13208436D01*
X8643253Y-13113198D02*
X8624206Y-13103674D01*
X8624206Y-13103674D02*
X8614682Y-13094150D01*
X8614682Y-13094150D02*
X8605158Y-13075103D01*
X8605158Y-13075103D02*
X8605158Y-13065579D01*
X8605158Y-13065579D02*
X8614682Y-13046531D01*
X8614682Y-13046531D02*
X8624206Y-13037008D01*
X8624206Y-13037008D02*
X8643253Y-13027484D01*
X8643253Y-13027484D02*
X8681349Y-13027484D01*
X8681349Y-13027484D02*
X8700396Y-13037008D01*
X8700396Y-13037008D02*
X8709920Y-13046531D01*
X8709920Y-13046531D02*
X8719444Y-13065579D01*
X8719444Y-13065579D02*
X8719444Y-13075103D01*
X8719444Y-13075103D02*
X8709920Y-13094150D01*
X8709920Y-13094150D02*
X8700396Y-13103674D01*
X8700396Y-13103674D02*
X8681349Y-13113198D01*
X8681349Y-13113198D02*
X8643253Y-13113198D01*
X8643253Y-13113198D02*
X8624206Y-13122722D01*
X8624206Y-13122722D02*
X8614682Y-13132246D01*
X8614682Y-13132246D02*
X8605158Y-13151293D01*
X8605158Y-13151293D02*
X8605158Y-13189388D01*
X8605158Y-13189388D02*
X8614682Y-13208436D01*
X8614682Y-13208436D02*
X8624206Y-13217960D01*
X8624206Y-13217960D02*
X8643253Y-13227484D01*
X8643253Y-13227484D02*
X8681349Y-13227484D01*
X8681349Y-13227484D02*
X8700396Y-13217960D01*
X8700396Y-13217960D02*
X8709920Y-13208436D01*
X8709920Y-13208436D02*
X8719444Y-13189388D01*
X8719444Y-13189388D02*
X8719444Y-13151293D01*
X8719444Y-13151293D02*
X8709920Y-13132246D01*
X8709920Y-13132246D02*
X8700396Y-13122722D01*
X8700396Y-13122722D02*
X8681349Y-13113198D01*
X8795634Y-13027484D02*
X8795634Y-13065579D01*
X8871825Y-13027484D02*
X8871825Y-13065579D01*
X9167063Y-13303674D02*
X9157539Y-13294150D01*
X9157539Y-13294150D02*
X9138491Y-13265579D01*
X9138491Y-13265579D02*
X9128968Y-13246531D01*
X9128968Y-13246531D02*
X9119444Y-13217960D01*
X9119444Y-13217960D02*
X9109920Y-13170341D01*
X9109920Y-13170341D02*
X9109920Y-13132246D01*
X9109920Y-13132246D02*
X9119444Y-13084627D01*
X9119444Y-13084627D02*
X9128968Y-13056055D01*
X9128968Y-13056055D02*
X9138491Y-13037008D01*
X9138491Y-13037008D02*
X9157539Y-13008436D01*
X9157539Y-13008436D02*
X9167063Y-12998912D01*
X9233730Y-13046531D02*
X9243253Y-13037008D01*
X9243253Y-13037008D02*
X9262301Y-13027484D01*
X9262301Y-13027484D02*
X9309920Y-13027484D01*
X9309920Y-13027484D02*
X9328968Y-13037008D01*
X9328968Y-13037008D02*
X9338491Y-13046531D01*
X9338491Y-13046531D02*
X9348015Y-13065579D01*
X9348015Y-13065579D02*
X9348015Y-13084627D01*
X9348015Y-13084627D02*
X9338491Y-13113198D01*
X9338491Y-13113198D02*
X9224206Y-13227484D01*
X9224206Y-13227484D02*
X9348015Y-13227484D01*
X9586111Y-13227484D02*
X9586111Y-13027484D01*
X9671825Y-13227484D02*
X9671825Y-13122722D01*
X9671825Y-13122722D02*
X9662301Y-13103674D01*
X9662301Y-13103674D02*
X9643253Y-13094150D01*
X9643253Y-13094150D02*
X9614682Y-13094150D01*
X9614682Y-13094150D02*
X9595634Y-13103674D01*
X9595634Y-13103674D02*
X9586111Y-13113198D01*
X9795634Y-13227484D02*
X9776587Y-13217960D01*
X9776587Y-13217960D02*
X9767063Y-13208436D01*
X9767063Y-13208436D02*
X9757539Y-13189388D01*
X9757539Y-13189388D02*
X9757539Y-13132246D01*
X9757539Y-13132246D02*
X9767063Y-13113198D01*
X9767063Y-13113198D02*
X9776587Y-13103674D01*
X9776587Y-13103674D02*
X9795634Y-13094150D01*
X9795634Y-13094150D02*
X9824206Y-13094150D01*
X9824206Y-13094150D02*
X9843253Y-13103674D01*
X9843253Y-13103674D02*
X9852777Y-13113198D01*
X9852777Y-13113198D02*
X9862301Y-13132246D01*
X9862301Y-13132246D02*
X9862301Y-13189388D01*
X9862301Y-13189388D02*
X9852777Y-13208436D01*
X9852777Y-13208436D02*
X9843253Y-13217960D01*
X9843253Y-13217960D02*
X9824206Y-13227484D01*
X9824206Y-13227484D02*
X9795634Y-13227484D01*
X9976587Y-13227484D02*
X9957539Y-13217960D01*
X9957539Y-13217960D02*
X9948015Y-13198912D01*
X9948015Y-13198912D02*
X9948015Y-13027484D01*
X10128968Y-13217960D02*
X10109920Y-13227484D01*
X10109920Y-13227484D02*
X10071825Y-13227484D01*
X10071825Y-13227484D02*
X10052777Y-13217960D01*
X10052777Y-13217960D02*
X10043253Y-13198912D01*
X10043253Y-13198912D02*
X10043253Y-13122722D01*
X10043253Y-13122722D02*
X10052777Y-13103674D01*
X10052777Y-13103674D02*
X10071825Y-13094150D01*
X10071825Y-13094150D02*
X10109920Y-13094150D01*
X10109920Y-13094150D02*
X10128968Y-13103674D01*
X10128968Y-13103674D02*
X10138492Y-13122722D01*
X10138492Y-13122722D02*
X10138492Y-13141769D01*
X10138492Y-13141769D02*
X10043253Y-13160817D01*
X10214682Y-13217960D02*
X10233730Y-13227484D01*
X10233730Y-13227484D02*
X10271825Y-13227484D01*
X10271825Y-13227484D02*
X10290873Y-13217960D01*
X10290873Y-13217960D02*
X10300396Y-13198912D01*
X10300396Y-13198912D02*
X10300396Y-13189388D01*
X10300396Y-13189388D02*
X10290873Y-13170341D01*
X10290873Y-13170341D02*
X10271825Y-13160817D01*
X10271825Y-13160817D02*
X10243253Y-13160817D01*
X10243253Y-13160817D02*
X10224206Y-13151293D01*
X10224206Y-13151293D02*
X10214682Y-13132246D01*
X10214682Y-13132246D02*
X10214682Y-13122722D01*
X10214682Y-13122722D02*
X10224206Y-13103674D01*
X10224206Y-13103674D02*
X10243253Y-13094150D01*
X10243253Y-13094150D02*
X10271825Y-13094150D01*
X10271825Y-13094150D02*
X10290873Y-13103674D01*
X10367063Y-13303674D02*
X10376587Y-13294150D01*
X10376587Y-13294150D02*
X10395634Y-13265579D01*
X10395634Y-13265579D02*
X10405158Y-13246531D01*
X10405158Y-13246531D02*
X10414682Y-13217960D01*
X10414682Y-13217960D02*
X10424206Y-13170341D01*
X10424206Y-13170341D02*
X10424206Y-13132246D01*
X10424206Y-13132246D02*
X10414682Y-13084627D01*
X10414682Y-13084627D02*
X10405158Y-13056055D01*
X10405158Y-13056055D02*
X10395634Y-13037008D01*
X10395634Y-13037008D02*
X10376587Y-13008436D01*
X10376587Y-13008436D02*
X10367063Y-12998912D01*
X10728968Y-13303674D02*
X10719444Y-13294150D01*
X10719444Y-13294150D02*
X10700396Y-13265579D01*
X10700396Y-13265579D02*
X10690873Y-13246531D01*
X10690873Y-13246531D02*
X10681349Y-13217960D01*
X10681349Y-13217960D02*
X10671825Y-13170341D01*
X10671825Y-13170341D02*
X10671825Y-13132246D01*
X10671825Y-13132246D02*
X10681349Y-13084627D01*
X10681349Y-13084627D02*
X10690873Y-13056055D01*
X10690873Y-13056055D02*
X10700396Y-13037008D01*
X10700396Y-13037008D02*
X10719444Y-13008436D01*
X10719444Y-13008436D02*
X10728968Y-12998912D01*
X10805158Y-13094150D02*
X10805158Y-13227484D01*
X10805158Y-13113198D02*
X10814682Y-13103674D01*
X10814682Y-13103674D02*
X10833730Y-13094150D01*
X10833730Y-13094150D02*
X10862301Y-13094150D01*
X10862301Y-13094150D02*
X10881349Y-13103674D01*
X10881349Y-13103674D02*
X10890873Y-13122722D01*
X10890873Y-13122722D02*
X10890873Y-13227484D01*
X11014682Y-13227484D02*
X10995634Y-13217960D01*
X10995634Y-13217960D02*
X10986111Y-13208436D01*
X10986111Y-13208436D02*
X10976587Y-13189388D01*
X10976587Y-13189388D02*
X10976587Y-13132246D01*
X10976587Y-13132246D02*
X10986111Y-13113198D01*
X10986111Y-13113198D02*
X10995634Y-13103674D01*
X10995634Y-13103674D02*
X11014682Y-13094150D01*
X11014682Y-13094150D02*
X11043254Y-13094150D01*
X11043254Y-13094150D02*
X11062301Y-13103674D01*
X11062301Y-13103674D02*
X11071825Y-13113198D01*
X11071825Y-13113198D02*
X11081349Y-13132246D01*
X11081349Y-13132246D02*
X11081349Y-13189388D01*
X11081349Y-13189388D02*
X11071825Y-13208436D01*
X11071825Y-13208436D02*
X11062301Y-13217960D01*
X11062301Y-13217960D02*
X11043254Y-13227484D01*
X11043254Y-13227484D02*
X11014682Y-13227484D01*
X11138492Y-13094150D02*
X11214682Y-13094150D01*
X11167063Y-13027484D02*
X11167063Y-13198912D01*
X11167063Y-13198912D02*
X11176587Y-13217960D01*
X11176587Y-13217960D02*
X11195634Y-13227484D01*
X11195634Y-13227484D02*
X11214682Y-13227484D01*
X11433730Y-13094150D02*
X11433730Y-13294150D01*
X11433730Y-13103674D02*
X11452777Y-13094150D01*
X11452777Y-13094150D02*
X11490873Y-13094150D01*
X11490873Y-13094150D02*
X11509920Y-13103674D01*
X11509920Y-13103674D02*
X11519444Y-13113198D01*
X11519444Y-13113198D02*
X11528968Y-13132246D01*
X11528968Y-13132246D02*
X11528968Y-13189388D01*
X11528968Y-13189388D02*
X11519444Y-13208436D01*
X11519444Y-13208436D02*
X11509920Y-13217960D01*
X11509920Y-13217960D02*
X11490873Y-13227484D01*
X11490873Y-13227484D02*
X11452777Y-13227484D01*
X11452777Y-13227484D02*
X11433730Y-13217960D01*
X11643253Y-13227484D02*
X11624206Y-13217960D01*
X11624206Y-13217960D02*
X11614682Y-13198912D01*
X11614682Y-13198912D02*
X11614682Y-13027484D01*
X11805158Y-13227484D02*
X11805158Y-13122722D01*
X11805158Y-13122722D02*
X11795634Y-13103674D01*
X11795634Y-13103674D02*
X11776587Y-13094150D01*
X11776587Y-13094150D02*
X11738492Y-13094150D01*
X11738492Y-13094150D02*
X11719444Y-13103674D01*
X11805158Y-13217960D02*
X11786111Y-13227484D01*
X11786111Y-13227484D02*
X11738492Y-13227484D01*
X11738492Y-13227484D02*
X11719444Y-13217960D01*
X11719444Y-13217960D02*
X11709920Y-13198912D01*
X11709920Y-13198912D02*
X11709920Y-13179865D01*
X11709920Y-13179865D02*
X11719444Y-13160817D01*
X11719444Y-13160817D02*
X11738492Y-13151293D01*
X11738492Y-13151293D02*
X11786111Y-13151293D01*
X11786111Y-13151293D02*
X11805158Y-13141769D01*
X11871825Y-13094150D02*
X11948015Y-13094150D01*
X11900396Y-13027484D02*
X11900396Y-13198912D01*
X11900396Y-13198912D02*
X11909920Y-13217960D01*
X11909920Y-13217960D02*
X11928968Y-13227484D01*
X11928968Y-13227484D02*
X11948015Y-13227484D01*
X12090873Y-13217960D02*
X12071825Y-13227484D01*
X12071825Y-13227484D02*
X12033730Y-13227484D01*
X12033730Y-13227484D02*
X12014682Y-13217960D01*
X12014682Y-13217960D02*
X12005158Y-13198912D01*
X12005158Y-13198912D02*
X12005158Y-13122722D01*
X12005158Y-13122722D02*
X12014682Y-13103674D01*
X12014682Y-13103674D02*
X12033730Y-13094150D01*
X12033730Y-13094150D02*
X12071825Y-13094150D01*
X12071825Y-13094150D02*
X12090873Y-13103674D01*
X12090873Y-13103674D02*
X12100396Y-13122722D01*
X12100396Y-13122722D02*
X12100396Y-13141769D01*
X12100396Y-13141769D02*
X12005158Y-13160817D01*
X12271825Y-13227484D02*
X12271825Y-13027484D01*
X12271825Y-13217960D02*
X12252777Y-13227484D01*
X12252777Y-13227484D02*
X12214682Y-13227484D01*
X12214682Y-13227484D02*
X12195634Y-13217960D01*
X12195634Y-13217960D02*
X12186111Y-13208436D01*
X12186111Y-13208436D02*
X12176587Y-13189388D01*
X12176587Y-13189388D02*
X12176587Y-13132246D01*
X12176587Y-13132246D02*
X12186111Y-13113198D01*
X12186111Y-13113198D02*
X12195634Y-13103674D01*
X12195634Y-13103674D02*
X12214682Y-13094150D01*
X12214682Y-13094150D02*
X12252777Y-13094150D01*
X12252777Y-13094150D02*
X12271825Y-13103674D01*
X12348015Y-13303674D02*
X12357539Y-13294150D01*
X12357539Y-13294150D02*
X12376587Y-13265579D01*
X12376587Y-13265579D02*
X12386111Y-13246531D01*
X12386111Y-13246531D02*
X12395634Y-13217960D01*
X12395634Y-13217960D02*
X12405158Y-13170341D01*
X12405158Y-13170341D02*
X12405158Y-13132246D01*
X12405158Y-13132246D02*
X12395634Y-13084627D01*
X12395634Y-13084627D02*
X12386111Y-13056055D01*
X12386111Y-13056055D02*
X12376587Y-13037008D01*
X12376587Y-13037008D02*
X12357539Y-13008436D01*
X12357539Y-13008436D02*
X12348015Y-12998912D01*
M02*
