%TF.GenerationSoftware,KiCad,Pcbnew,8.0.6*%
%TF.CreationDate,2024-12-15T00:33:14-05:00*%
%TF.ProjectId,VFDSAO,56464453-414f-42e6-9b69-6361645f7063,rev?*%
%TF.SameCoordinates,Original*%
%TF.FileFunction,Soldermask,Top*%
%TF.FilePolarity,Negative*%
%FSLAX46Y46*%
G04 Gerber Fmt 4.6, Leading zero omitted, Abs format (unit mm)*
G04 Created by KiCad (PCBNEW 8.0.6) date 2024-12-15 00:33:14*
%MOMM*%
%LPD*%
G01*
G04 APERTURE LIST*
G04 Aperture macros list*
%AMRoundRect*
0 Rectangle with rounded corners*
0 $1 Rounding radius*
0 $2 $3 $4 $5 $6 $7 $8 $9 X,Y pos of 4 corners*
0 Add a 4 corners polygon primitive as box body*
4,1,4,$2,$3,$4,$5,$6,$7,$8,$9,$2,$3,0*
0 Add four circle primitives for the rounded corners*
1,1,$1+$1,$2,$3*
1,1,$1+$1,$4,$5*
1,1,$1+$1,$6,$7*
1,1,$1+$1,$8,$9*
0 Add four rect primitives between the rounded corners*
20,1,$1+$1,$2,$3,$4,$5,0*
20,1,$1+$1,$4,$5,$6,$7,0*
20,1,$1+$1,$6,$7,$8,$9,0*
20,1,$1+$1,$8,$9,$2,$3,0*%
%AMFreePoly0*
4,1,45,0.313254,0.697394,0.316790,0.695930,0.363792,0.655799,0.370930,0.641790,0.372394,0.638254,0.380000,0.600000,0.380000,-0.600000,0.372394,-0.638254,0.370930,-0.641790,0.330799,-0.688792,0.316790,-0.695930,0.313254,-0.697394,0.275000,-0.705000,-0.275000,-0.705000,-0.313254,-0.697394,-0.316790,-0.695930,-0.363792,-0.655799,-0.370930,-0.641790,-0.372394,-0.638254,-0.380000,-0.600000,
-0.380000,-0.305000,-0.725000,-0.305000,-0.763254,-0.297394,-0.766790,-0.295930,-0.813792,-0.255799,-0.820930,-0.241790,-0.822394,-0.238254,-0.830000,-0.200000,-0.830000,0.350000,-0.822394,0.388254,-0.820930,0.391790,-0.780799,0.438792,-0.766790,0.445930,-0.763254,0.447394,-0.725000,0.455000,-0.380000,0.455000,-0.380000,0.600000,-0.372394,0.638254,-0.370930,0.641790,-0.330799,0.688792,
-0.316790,0.695930,-0.313254,0.697394,-0.275000,0.705000,0.275000,0.705000,0.313254,0.697394,0.313254,0.697394,$1*%
%AMFreePoly1*
4,1,45,0.313254,0.697394,0.316790,0.695930,0.363792,0.655799,0.370930,0.641790,0.372394,0.638254,0.380000,0.600000,0.380000,0.455000,0.725000,0.455000,0.763254,0.447394,0.766790,0.445930,0.813792,0.405799,0.820930,0.391790,0.822394,0.388254,0.830000,0.350000,0.830000,-0.200000,0.822394,-0.238254,0.820930,-0.241790,0.780799,-0.288792,0.766790,-0.295930,0.763254,-0.297394,
0.725000,-0.305000,0.380000,-0.305000,0.380000,-0.600000,0.372394,-0.638254,0.370930,-0.641790,0.330799,-0.688792,0.316790,-0.695930,0.313254,-0.697394,0.275000,-0.705000,-0.275000,-0.705000,-0.313254,-0.697394,-0.316790,-0.695930,-0.363792,-0.655799,-0.370930,-0.641790,-0.372394,-0.638254,-0.380000,-0.600000,-0.380000,0.600000,-0.372394,0.638254,-0.370930,0.641790,-0.330799,0.688792,
-0.316790,0.695930,-0.313254,0.697394,-0.275000,0.705000,0.275000,0.705000,0.313254,0.697394,0.313254,0.697394,$1*%
G04 Aperture macros list end*
%ADD10RoundRect,0.150000X-0.512500X-0.150000X0.512500X-0.150000X0.512500X0.150000X-0.512500X0.150000X0*%
%ADD11RoundRect,0.135000X-0.135000X-0.185000X0.135000X-0.185000X0.135000X0.185000X-0.135000X0.185000X0*%
%ADD12RoundRect,0.140000X0.170000X-0.140000X0.170000X0.140000X-0.170000X0.140000X-0.170000X-0.140000X0*%
%ADD13RoundRect,0.135000X0.135000X0.185000X-0.135000X0.185000X-0.135000X-0.185000X0.135000X-0.185000X0*%
%ADD14RoundRect,0.135000X0.185000X-0.135000X0.185000X0.135000X-0.185000X0.135000X-0.185000X-0.135000X0*%
%ADD15C,0.650000*%
%ADD16RoundRect,0.150000X0.425000X-0.150000X0.425000X0.150000X-0.425000X0.150000X-0.425000X-0.150000X0*%
%ADD17RoundRect,0.075000X0.500000X-0.075000X0.500000X0.075000X-0.500000X0.075000X-0.500000X-0.075000X0*%
%ADD18O,2.100000X1.000000*%
%ADD19O,1.800000X1.000000*%
%ADD20RoundRect,0.140000X-0.170000X0.140000X-0.170000X-0.140000X0.170000X-0.140000X0.170000X0.140000X0*%
%ADD21C,1.800000*%
%ADD22C,3.200000*%
%ADD23RoundRect,0.212500X-0.212500X-0.887500X0.212500X-0.887500X0.212500X0.887500X-0.212500X0.887500X0*%
%ADD24RoundRect,0.135000X-0.185000X0.135000X-0.185000X-0.135000X0.185000X-0.135000X0.185000X0.135000X0*%
%ADD25C,5.400000*%
%ADD26R,1.400000X1.200000*%
%ADD27C,2.200000*%
%ADD28RoundRect,0.225000X0.375000X-0.225000X0.375000X0.225000X-0.375000X0.225000X-0.375000X-0.225000X0*%
%ADD29RoundRect,0.243750X-0.243750X-0.456250X0.243750X-0.456250X0.243750X0.456250X-0.243750X0.456250X0*%
%ADD30RoundRect,0.140000X0.140000X0.170000X-0.140000X0.170000X-0.140000X-0.170000X0.140000X-0.170000X0*%
%ADD31RoundRect,0.050000X0.350000X0.050000X-0.350000X0.050000X-0.350000X-0.050000X0.350000X-0.050000X0*%
%ADD32RoundRect,0.050000X0.050000X0.350000X-0.050000X0.350000X-0.050000X-0.350000X0.050000X-0.350000X0*%
%ADD33R,3.700000X3.700000*%
%ADD34RoundRect,0.243750X0.243750X0.456250X-0.243750X0.456250X-0.243750X-0.456250X0.243750X-0.456250X0*%
%ADD35RoundRect,0.150000X0.512500X0.150000X-0.512500X0.150000X-0.512500X-0.150000X0.512500X-0.150000X0*%
%ADD36R,1.000000X1.800000*%
%ADD37RoundRect,0.150000X-0.587500X-0.150000X0.587500X-0.150000X0.587500X0.150000X-0.587500X0.150000X0*%
%ADD38FreePoly0,90.000000*%
%ADD39RoundRect,0.102000X0.600000X-0.350000X0.600000X0.350000X-0.600000X0.350000X-0.600000X-0.350000X0*%
%ADD40RoundRect,0.102000X0.600000X-0.225000X0.600000X0.225000X-0.600000X0.225000X-0.600000X-0.225000X0*%
%ADD41FreePoly1,90.000000*%
%ADD42RoundRect,0.225000X0.225000X0.375000X-0.225000X0.375000X-0.225000X-0.375000X0.225000X-0.375000X0*%
%ADD43RoundRect,0.250000X-0.250000X-0.475000X0.250000X-0.475000X0.250000X0.475000X-0.250000X0.475000X0*%
%ADD44RoundRect,0.100000X-0.225000X-0.100000X0.225000X-0.100000X0.225000X0.100000X-0.225000X0.100000X0*%
%ADD45FreePoly0,270.000000*%
%ADD46RoundRect,0.102000X-0.600000X0.350000X-0.600000X-0.350000X0.600000X-0.350000X0.600000X0.350000X0*%
%ADD47RoundRect,0.102000X-0.600000X0.225000X-0.600000X-0.225000X0.600000X-0.225000X0.600000X0.225000X0*%
%ADD48FreePoly1,270.000000*%
%ADD49RoundRect,0.140000X-0.140000X-0.170000X0.140000X-0.170000X0.140000X0.170000X-0.140000X0.170000X0*%
%ADD50RoundRect,0.150000X-0.150000X0.512500X-0.150000X-0.512500X0.150000X-0.512500X0.150000X0.512500X0*%
%ADD51RoundRect,0.250000X0.250000X0.475000X-0.250000X0.475000X-0.250000X-0.475000X0.250000X-0.475000X0*%
%ADD52RoundRect,0.225000X-0.225000X-0.375000X0.225000X-0.375000X0.225000X0.375000X-0.225000X0.375000X0*%
%ADD53RoundRect,0.250000X0.475000X-0.250000X0.475000X0.250000X-0.475000X0.250000X-0.475000X-0.250000X0*%
%ADD54FreePoly0,180.000000*%
%ADD55RoundRect,0.102000X0.350000X0.600000X-0.350000X0.600000X-0.350000X-0.600000X0.350000X-0.600000X0*%
%ADD56RoundRect,0.102000X0.225000X0.600000X-0.225000X0.600000X-0.225000X-0.600000X0.225000X-0.600000X0*%
%ADD57FreePoly1,180.000000*%
%ADD58C,0.990600*%
%ADD59C,2.390000*%
%ADD60C,3.450000*%
%ADD61RoundRect,0.250000X-0.600000X0.600000X-0.600000X-0.600000X0.600000X-0.600000X0.600000X0.600000X0*%
%ADD62C,1.700000*%
G04 APERTURE END LIST*
D10*
%TO.C,Q61*%
X62000000Y-79050000D03*
X62000000Y-80000000D03*
X62000000Y-80950000D03*
X64275000Y-80950000D03*
X64275000Y-80000000D03*
X64275000Y-79050000D03*
%TD*%
D11*
%TO.C,R76*%
X61740000Y-82250000D03*
X62760000Y-82250000D03*
%TD*%
D12*
%TO.C,C32*%
X77600000Y-89580000D03*
X77600000Y-88620000D03*
%TD*%
D13*
%TO.C,R15*%
X127010000Y-79000000D03*
X125990000Y-79000000D03*
%TD*%
D11*
%TO.C,R84*%
X130740000Y-82250000D03*
X131760000Y-82250000D03*
%TD*%
D13*
%TO.C,R37*%
X69260000Y-77750000D03*
X68240000Y-77750000D03*
%TD*%
D10*
%TO.C,Q65*%
X61995000Y-74550000D03*
X61995000Y-75500000D03*
X61995000Y-76450000D03*
X64270000Y-76450000D03*
X64270000Y-75500000D03*
X64270000Y-74550000D03*
%TD*%
D11*
%TO.C,R83*%
X139740000Y-77750000D03*
X140760000Y-77750000D03*
%TD*%
D14*
%TO.C,R62*%
X120500000Y-85010000D03*
X120500000Y-83990000D03*
%TD*%
D15*
%TO.C,J11*%
X136475000Y-98140000D03*
X136475000Y-92360000D03*
D16*
X135400000Y-98450000D03*
X135400000Y-97650000D03*
D17*
X135400000Y-96500000D03*
X135400000Y-95500000D03*
X135400000Y-95000000D03*
X135400000Y-94000000D03*
D16*
X135400000Y-92850000D03*
X135400000Y-92050000D03*
X135400000Y-92050000D03*
X135400000Y-92850000D03*
D17*
X135400000Y-93500000D03*
X135400000Y-94500000D03*
X135400000Y-96000000D03*
X135400000Y-97000000D03*
D16*
X135400000Y-97650000D03*
X135400000Y-98450000D03*
D18*
X135975000Y-99570000D03*
D19*
X140155000Y-99570000D03*
D18*
X135975000Y-90930000D03*
D19*
X140155000Y-90930000D03*
%TD*%
D20*
%TO.C,C27*%
X132500000Y-90520000D03*
X132500000Y-91480000D03*
%TD*%
%TO.C,C41*%
X123000000Y-65020000D03*
X123000000Y-65980000D03*
%TD*%
D11*
%TO.C,R72*%
X66240000Y-77750000D03*
X67260000Y-77750000D03*
%TD*%
D12*
%TO.C,C43*%
X77000000Y-84980000D03*
X77000000Y-84020000D03*
%TD*%
D21*
%TO.C,D25*%
X75000000Y-63000000D03*
X77500000Y-63000000D03*
X80000000Y-63000000D03*
X82500000Y-63000000D03*
X85000000Y-63000000D03*
X115000000Y-63000000D03*
X117500000Y-63000000D03*
X120000000Y-63000000D03*
X122500000Y-63000000D03*
X125000000Y-63000000D03*
X125000000Y-87000000D03*
X122500000Y-87000000D03*
X120000000Y-87000000D03*
X117500000Y-87000000D03*
X115000000Y-87000000D03*
X112500000Y-87000000D03*
X87500000Y-87000000D03*
X85000000Y-87000000D03*
X82500000Y-87000000D03*
X80000000Y-87000000D03*
X77500000Y-87000000D03*
X75000000Y-87000000D03*
%TD*%
D22*
%TO.C,H17*%
X68000000Y-106000000D03*
%TD*%
D10*
%TO.C,Q54*%
X135500000Y-70050000D03*
X135500000Y-71000000D03*
X135500000Y-71950000D03*
X137775000Y-71950000D03*
X137775000Y-71000000D03*
X137775000Y-70050000D03*
%TD*%
D13*
%TO.C,R51*%
X60260000Y-77750000D03*
X59240000Y-77750000D03*
%TD*%
D23*
%TO.C,L11*%
X135750000Y-88100000D03*
X137400000Y-88100000D03*
%TD*%
D13*
%TO.C,R35*%
X64760000Y-73250000D03*
X63740000Y-73250000D03*
%TD*%
%TO.C,R43*%
X60260000Y-82250000D03*
X59240000Y-82250000D03*
%TD*%
%TO.C,R53*%
X64755000Y-77750000D03*
X63735000Y-77750000D03*
%TD*%
D24*
%TO.C,R40*%
X82000000Y-64990000D03*
X82000000Y-66010000D03*
%TD*%
D25*
%TO.C,H11*%
X92000000Y-98000000D03*
%TD*%
D26*
%TO.C,Y12*%
X84450000Y-94000000D03*
X86650000Y-94000000D03*
X86650000Y-92300000D03*
X84450000Y-92300000D03*
%TD*%
D14*
%TO.C,R19*%
X69500000Y-86510000D03*
X69500000Y-85490000D03*
%TD*%
D20*
%TO.C,C11*%
X128800000Y-80370000D03*
X128800000Y-81330000D03*
%TD*%
D27*
%TO.C,H16*%
X107000000Y-105000000D03*
%TD*%
D20*
%TO.C,C28*%
X80600000Y-98620000D03*
X80600000Y-99580000D03*
%TD*%
D28*
%TO.C,D16*%
X59200000Y-93550000D03*
X59200000Y-90250000D03*
%TD*%
D14*
%TO.C,R50*%
X83000000Y-85010000D03*
X83000000Y-83990000D03*
%TD*%
%TO.C,R18*%
X78600000Y-89610000D03*
X78600000Y-88590000D03*
%TD*%
D10*
%TO.C,Q57*%
X66500000Y-74550000D03*
X66500000Y-75500000D03*
X66500000Y-76450000D03*
X68775000Y-76450000D03*
X68775000Y-75500000D03*
X68775000Y-74550000D03*
%TD*%
D13*
%TO.C,R63*%
X138260000Y-82250000D03*
X137240000Y-82250000D03*
%TD*%
D10*
%TO.C,Q67*%
X135500000Y-74550000D03*
X135500000Y-75500000D03*
X135500000Y-76450000D03*
X137775000Y-76450000D03*
X137775000Y-75500000D03*
X137775000Y-74550000D03*
%TD*%
D29*
%TO.C,D17*%
X66162500Y-93100000D03*
X68037500Y-93100000D03*
%TD*%
D13*
%TO.C,R14*%
X133310000Y-96500000D03*
X132290000Y-96500000D03*
%TD*%
D14*
%TO.C,R64*%
X123000000Y-85010000D03*
X123000000Y-83990000D03*
%TD*%
D10*
%TO.C,Q62*%
X66480000Y-79050000D03*
X66480000Y-80000000D03*
X66480000Y-80950000D03*
X68755000Y-80950000D03*
X68755000Y-80000000D03*
X68755000Y-79050000D03*
%TD*%
D30*
%TO.C,C12*%
X127980000Y-72000000D03*
X127020000Y-72000000D03*
%TD*%
D31*
%TO.C,U15*%
X81830000Y-96575000D03*
X81830000Y-96225000D03*
X81830000Y-95875000D03*
X81830000Y-95525000D03*
X81830000Y-95175000D03*
X81830000Y-94825000D03*
X81830000Y-94475000D03*
X81830000Y-94125000D03*
X81830000Y-93775000D03*
X81830000Y-93425000D03*
X81830000Y-93075000D03*
X81830000Y-92725000D03*
X81830000Y-92375000D03*
X81830000Y-92025000D03*
D32*
X80955000Y-91850000D03*
X80605000Y-91850000D03*
X80255000Y-91850000D03*
X79905000Y-91850000D03*
X79555000Y-91850000D03*
X79205000Y-91850000D03*
X78855000Y-91850000D03*
X78505000Y-91850000D03*
X78155000Y-91850000D03*
X77805000Y-91850000D03*
D31*
X76930000Y-92025000D03*
X76930000Y-92375000D03*
X76930000Y-92725000D03*
X76930000Y-93075000D03*
X76930000Y-93425000D03*
X76930000Y-93775000D03*
X76930000Y-94125000D03*
X76930000Y-94475000D03*
X76930000Y-94825000D03*
X76930000Y-95175000D03*
X76930000Y-95525000D03*
X76930000Y-95875000D03*
X76930000Y-96225000D03*
X76930000Y-96575000D03*
D32*
X77805000Y-96750000D03*
X78155000Y-96750000D03*
X78505000Y-96750000D03*
X78855000Y-96750000D03*
X79205000Y-96750000D03*
X79555000Y-96750000D03*
X79905000Y-96750000D03*
X80255000Y-96750000D03*
X80605000Y-96750000D03*
X80955000Y-96750000D03*
D33*
X79380000Y-94300000D03*
%TD*%
D10*
%TO.C,Q56*%
X62000000Y-70050000D03*
X62000000Y-71000000D03*
X62000000Y-71950000D03*
X64275000Y-71950000D03*
X64275000Y-71000000D03*
X64275000Y-70050000D03*
%TD*%
%TO.C,Q53*%
X131000000Y-70050000D03*
X131000000Y-71000000D03*
X131000000Y-71950000D03*
X133275000Y-71950000D03*
X133275000Y-71000000D03*
X133275000Y-70050000D03*
%TD*%
D24*
%TO.C,R42*%
X122000000Y-64990000D03*
X122000000Y-66010000D03*
%TD*%
D13*
%TO.C,R33*%
X60260000Y-73250000D03*
X59240000Y-73250000D03*
%TD*%
%TO.C,R65*%
X142760000Y-82250000D03*
X141740000Y-82250000D03*
%TD*%
%TO.C,R45*%
X64760000Y-82250000D03*
X63740000Y-82250000D03*
%TD*%
D11*
%TO.C,R75*%
X57240000Y-82250000D03*
X58260000Y-82250000D03*
%TD*%
D34*
%TO.C,D12*%
X91837500Y-91800000D03*
X89962500Y-91800000D03*
%TD*%
D13*
%TO.C,R59*%
X142760000Y-77750000D03*
X141740000Y-77750000D03*
%TD*%
%TO.C,R49*%
X69260000Y-73250000D03*
X68240000Y-73250000D03*
%TD*%
D35*
%TO.C,U16*%
X137862500Y-86000000D03*
X137862500Y-85050000D03*
X137862500Y-84100000D03*
X135587500Y-84100000D03*
X135587500Y-86000000D03*
%TD*%
D13*
%TO.C,R20*%
X69319771Y-62028255D03*
X68299771Y-62028255D03*
%TD*%
D11*
%TO.C,R79*%
X57240000Y-77750000D03*
X58260000Y-77750000D03*
%TD*%
D10*
%TO.C,Q58*%
X70980000Y-74550000D03*
X70980000Y-75500000D03*
X70980000Y-76450000D03*
X73255000Y-76450000D03*
X73255000Y-75500000D03*
X73255000Y-74550000D03*
%TD*%
D11*
%TO.C,R69*%
X135240000Y-73250000D03*
X136260000Y-73250000D03*
%TD*%
D29*
%TO.C,D14*%
X66200000Y-91100000D03*
X68075000Y-91100000D03*
%TD*%
D12*
%TO.C,C25*%
X69800000Y-95930000D03*
X69800000Y-94970000D03*
%TD*%
D14*
%TO.C,R13*%
X83150000Y-90550000D03*
X83150000Y-89530000D03*
%TD*%
D10*
%TO.C,Q52*%
X126500000Y-74550000D03*
X126500000Y-75500000D03*
X126500000Y-76450000D03*
X128775000Y-76450000D03*
X128775000Y-75500000D03*
X128775000Y-74550000D03*
%TD*%
D14*
%TO.C,R46*%
X78000000Y-85010000D03*
X78000000Y-83990000D03*
%TD*%
D36*
%TO.C,Y11*%
X85400000Y-96550000D03*
X87900000Y-96550000D03*
%TD*%
D37*
%TO.C,Q11*%
X61312500Y-86450000D03*
X61312500Y-88350000D03*
X63187500Y-87400000D03*
%TD*%
D14*
%TO.C,R56*%
X113000000Y-85010000D03*
X113000000Y-83990000D03*
%TD*%
D25*
%TO.C,H12*%
X129000000Y-93000000D03*
%TD*%
D24*
%TO.C,R36*%
X79500000Y-64990000D03*
X79500000Y-66010000D03*
%TD*%
D20*
%TO.C,C34*%
X115500000Y-65020000D03*
X115500000Y-65980000D03*
%TD*%
D13*
%TO.C,R17*%
X70410000Y-93100000D03*
X69390000Y-93100000D03*
%TD*%
D20*
%TO.C,C31*%
X79600000Y-98620000D03*
X79600000Y-99580000D03*
%TD*%
D38*
%TO.C,D22*%
X65720000Y-66925000D03*
D39*
X65720000Y-65800000D03*
D40*
X65720000Y-64775000D03*
D41*
X65720000Y-63775000D03*
%TD*%
D11*
%TO.C,R82*%
X135240000Y-77750000D03*
X136260000Y-77750000D03*
%TD*%
D14*
%TO.C,R52*%
X85500000Y-85010000D03*
X85500000Y-83990000D03*
%TD*%
D34*
%TO.C,D11*%
X91837500Y-88000000D03*
X89962500Y-88000000D03*
%TD*%
D42*
%TO.C,D23*%
X142325000Y-88400000D03*
X139025000Y-88400000D03*
%TD*%
D24*
%TO.C,R30*%
X117000000Y-64990000D03*
X117000000Y-66010000D03*
%TD*%
D14*
%TO.C,R54*%
X88000000Y-85010000D03*
X88000000Y-83990000D03*
%TD*%
D13*
%TO.C,R25*%
X142685000Y-84500000D03*
X141665000Y-84500000D03*
%TD*%
D28*
%TO.C,D21*%
X59187500Y-87500000D03*
X59187500Y-84200000D03*
%TD*%
D43*
%TO.C,C18*%
X66250000Y-84337500D03*
X68150000Y-84337500D03*
%TD*%
D11*
%TO.C,R70*%
X57240000Y-73250000D03*
X58260000Y-73250000D03*
%TD*%
D10*
%TO.C,Q64*%
X57500000Y-74550000D03*
X57500000Y-75500000D03*
X57500000Y-76450000D03*
X59775000Y-76450000D03*
X59775000Y-75500000D03*
X59775000Y-74550000D03*
%TD*%
D14*
%TO.C,R58*%
X115500000Y-85010000D03*
X115500000Y-83990000D03*
%TD*%
D44*
%TO.C,U11*%
X125500000Y-80350000D03*
X125500000Y-81000000D03*
X125500000Y-81650000D03*
X127400000Y-81650000D03*
X127400000Y-80350000D03*
%TD*%
D45*
%TO.C,D24*%
X134280000Y-63875000D03*
D46*
X134280000Y-65000000D03*
D47*
X134280000Y-66025000D03*
D48*
X134280000Y-67025000D03*
%TD*%
D11*
%TO.C,R71*%
X61740000Y-73250000D03*
X62760000Y-73250000D03*
%TD*%
D34*
%TO.C,D13*%
X91850000Y-93750000D03*
X89975000Y-93750000D03*
%TD*%
D11*
%TO.C,R81*%
X130602500Y-77750000D03*
X131622500Y-77750000D03*
%TD*%
D49*
%TO.C,C15*%
X85070000Y-98250000D03*
X86030000Y-98250000D03*
%TD*%
D12*
%TO.C,C53*%
X124500000Y-84980000D03*
X124500000Y-84020000D03*
%TD*%
D20*
%TO.C,C37*%
X78000000Y-65020000D03*
X78000000Y-65980000D03*
%TD*%
D50*
%TO.C,U14*%
X67750000Y-86462500D03*
X66800000Y-86462500D03*
X65850000Y-86462500D03*
X65850000Y-88737500D03*
X66800000Y-88737500D03*
X67750000Y-88737500D03*
%TD*%
D20*
%TO.C,C35*%
X118000000Y-65020000D03*
X118000000Y-65980000D03*
%TD*%
D14*
%TO.C,R60*%
X118000000Y-85010000D03*
X118000000Y-83990000D03*
%TD*%
D11*
%TO.C,R73*%
X70720000Y-77750000D03*
X71740000Y-77750000D03*
%TD*%
D13*
%TO.C,R39*%
X73740000Y-77750000D03*
X72720000Y-77750000D03*
%TD*%
D12*
%TO.C,C26*%
X85150000Y-90510000D03*
X85150000Y-89550000D03*
%TD*%
D24*
%TO.C,R12*%
X88600000Y-93090000D03*
X88600000Y-94110000D03*
%TD*%
%TO.C,R38*%
X84500000Y-64990000D03*
X84500000Y-66010000D03*
%TD*%
D12*
%TO.C,C50*%
X117000000Y-84980000D03*
X117000000Y-84020000D03*
%TD*%
D24*
%TO.C,R32*%
X119500000Y-64990000D03*
X119500000Y-66010000D03*
%TD*%
D13*
%TO.C,R41*%
X142760000Y-73250000D03*
X141740000Y-73250000D03*
%TD*%
D25*
%TO.C,H14*%
X139000000Y-65000000D03*
%TD*%
D10*
%TO.C,U13*%
X126500000Y-68600000D03*
X126500000Y-69550000D03*
X126500000Y-70500000D03*
X128775000Y-70500000D03*
X128775000Y-69550000D03*
X128775000Y-68600000D03*
%TD*%
D12*
%TO.C,C24*%
X84150000Y-90510000D03*
X84150000Y-89550000D03*
%TD*%
D14*
%TO.C,R22*%
X88600000Y-90060000D03*
X88600000Y-89040000D03*
%TD*%
D11*
%TO.C,R74*%
X139740000Y-73250000D03*
X140760000Y-73250000D03*
%TD*%
D10*
%TO.C,Q60*%
X57500000Y-79050000D03*
X57500000Y-80000000D03*
X57500000Y-80950000D03*
X59775000Y-80950000D03*
X59775000Y-80000000D03*
X59775000Y-79050000D03*
%TD*%
D13*
%TO.C,R27*%
X129260000Y-77750000D03*
X128240000Y-77750000D03*
%TD*%
D14*
%TO.C,R66*%
X125500000Y-85010000D03*
X125500000Y-83990000D03*
%TD*%
D51*
%TO.C,C13*%
X64250000Y-89800000D03*
X62350000Y-89800000D03*
%TD*%
D13*
%TO.C,R31*%
X138260000Y-73250000D03*
X137240000Y-73250000D03*
%TD*%
D11*
%TO.C,R77*%
X66220000Y-82250000D03*
X67240000Y-82250000D03*
%TD*%
D13*
%TO.C,R16*%
X70410000Y-91100000D03*
X69390000Y-91100000D03*
%TD*%
%TO.C,R29*%
X133760000Y-73250000D03*
X132740000Y-73250000D03*
%TD*%
D11*
%TO.C,R85*%
X135240000Y-82250000D03*
X136260000Y-82250000D03*
%TD*%
D12*
%TO.C,C42*%
X74500000Y-84980000D03*
X74500000Y-84020000D03*
%TD*%
D10*
%TO.C,Q66*%
X130862500Y-74550000D03*
X130862500Y-75500000D03*
X130862500Y-76450000D03*
X133137500Y-76450000D03*
X133137500Y-75500000D03*
X133137500Y-74550000D03*
%TD*%
D11*
%TO.C,R67*%
X126240000Y-77750000D03*
X127260000Y-77750000D03*
%TD*%
D30*
%TO.C,C23*%
X125500000Y-89000000D03*
X124540000Y-89000000D03*
%TD*%
D11*
%TO.C,R78*%
X66240000Y-73250000D03*
X67260000Y-73250000D03*
%TD*%
D13*
%TO.C,R57*%
X138260000Y-77750000D03*
X137240000Y-77750000D03*
%TD*%
%TO.C,R24*%
X59847500Y-88900000D03*
X58827500Y-88900000D03*
%TD*%
D12*
%TO.C,C46*%
X84500000Y-84980000D03*
X84500000Y-84020000D03*
%TD*%
D14*
%TO.C,R44*%
X75500000Y-85010000D03*
X75500000Y-83990000D03*
%TD*%
D52*
%TO.C,D15*%
X61150000Y-92000000D03*
X64450000Y-92000000D03*
%TD*%
D20*
%TO.C,C36*%
X120500000Y-65020000D03*
X120500000Y-65980000D03*
%TD*%
D27*
%TO.C,H15*%
X93000000Y-105000000D03*
%TD*%
D13*
%TO.C,R26*%
X140685000Y-84500000D03*
X139665000Y-84500000D03*
%TD*%
D20*
%TO.C,C21*%
X81600000Y-98620000D03*
X81600000Y-99580000D03*
%TD*%
D14*
%TO.C,R11*%
X88600000Y-92160000D03*
X88600000Y-91140000D03*
%TD*%
D11*
%TO.C,R1*%
X132490000Y-93500000D03*
X133510000Y-93500000D03*
%TD*%
D34*
%TO.C,D19*%
X91862500Y-89900000D03*
X89987500Y-89900000D03*
%TD*%
D10*
%TO.C,Q59*%
X140000000Y-70050000D03*
X140000000Y-71000000D03*
X140000000Y-71950000D03*
X142275000Y-71950000D03*
X142275000Y-71000000D03*
X142275000Y-70050000D03*
%TD*%
D12*
%TO.C,C44*%
X79500000Y-84980000D03*
X79500000Y-84020000D03*
%TD*%
D11*
%TO.C,R80*%
X61735000Y-77750000D03*
X62755000Y-77750000D03*
%TD*%
D20*
%TO.C,C40*%
X83000000Y-65020000D03*
X83000000Y-65980000D03*
%TD*%
D10*
%TO.C,Q69*%
X131000000Y-79050000D03*
X131000000Y-80000000D03*
X131000000Y-80950000D03*
X133275000Y-80950000D03*
X133275000Y-80000000D03*
X133275000Y-79050000D03*
%TD*%
D13*
%TO.C,R47*%
X69240000Y-82250000D03*
X68220000Y-82250000D03*
%TD*%
D12*
%TO.C,C48*%
X112000000Y-84980000D03*
X112000000Y-84020000D03*
%TD*%
D49*
%TO.C,C17*%
X78520000Y-100575000D03*
X79480000Y-100575000D03*
%TD*%
D12*
%TO.C,C51*%
X119500000Y-84980000D03*
X119500000Y-84020000D03*
%TD*%
D14*
%TO.C,R21*%
X78550000Y-99610000D03*
X78550000Y-98590000D03*
%TD*%
D10*
%TO.C,Q68*%
X140000000Y-74550000D03*
X140000000Y-75500000D03*
X140000000Y-76450000D03*
X142275000Y-76450000D03*
X142275000Y-75500000D03*
X142275000Y-74550000D03*
%TD*%
%TO.C,U12*%
X74662500Y-98550000D03*
X74662500Y-100450000D03*
X76937500Y-99500000D03*
%TD*%
D13*
%TO.C,R61*%
X133760000Y-82250000D03*
X132740000Y-82250000D03*
%TD*%
D12*
%TO.C,C45*%
X82000000Y-84980000D03*
X82000000Y-84020000D03*
%TD*%
D20*
%TO.C,C22*%
X75550000Y-95370000D03*
X75550000Y-96330000D03*
%TD*%
D24*
%TO.C,R34*%
X77000000Y-64990000D03*
X77000000Y-66010000D03*
%TD*%
D22*
%TO.C,H18*%
X132000000Y-106000000D03*
%TD*%
D30*
%TO.C,C14*%
X88230000Y-98250000D03*
X87270000Y-98250000D03*
%TD*%
D13*
%TO.C,R88*%
X140660000Y-83500000D03*
X139640000Y-83500000D03*
%TD*%
D20*
%TO.C,C19*%
X133500000Y-90520000D03*
X133500000Y-91480000D03*
%TD*%
D51*
%TO.C,C33*%
X142275000Y-86150000D03*
X140375000Y-86150000D03*
%TD*%
D53*
%TO.C,C29*%
X133400000Y-86050000D03*
X133400000Y-84150000D03*
%TD*%
D54*
%TO.C,D20*%
X72825000Y-88980000D03*
D55*
X71700000Y-88980000D03*
D56*
X70675000Y-88980000D03*
D57*
X69675000Y-88980000D03*
%TD*%
D54*
%TO.C,D18*%
X130725000Y-88980000D03*
D55*
X129600000Y-88980000D03*
D56*
X128575000Y-88980000D03*
D57*
X127575000Y-88980000D03*
%TD*%
D12*
%TO.C,C47*%
X87000000Y-84980000D03*
X87000000Y-84020000D03*
%TD*%
D13*
%TO.C,R55*%
X133622500Y-77750000D03*
X132602500Y-77750000D03*
%TD*%
D20*
%TO.C,C38*%
X80500000Y-65020000D03*
X80500000Y-65980000D03*
%TD*%
D10*
%TO.C,Q71*%
X140000000Y-79050000D03*
X140000000Y-80000000D03*
X140000000Y-80950000D03*
X142275000Y-80950000D03*
X142275000Y-80000000D03*
X142275000Y-79050000D03*
%TD*%
D25*
%TO.C,H13*%
X61000000Y-65000000D03*
%TD*%
D12*
%TO.C,C52*%
X122000000Y-84980000D03*
X122000000Y-84020000D03*
%TD*%
D14*
%TO.C,R48*%
X80500000Y-85010000D03*
X80500000Y-83990000D03*
%TD*%
D12*
%TO.C,C30*%
X76700000Y-89580000D03*
X76700000Y-88620000D03*
%TD*%
D24*
%TO.C,R28*%
X114500000Y-64990000D03*
X114500000Y-66010000D03*
%TD*%
D10*
%TO.C,Q55*%
X57500000Y-70050000D03*
X57500000Y-71000000D03*
X57500000Y-71950000D03*
X59775000Y-71950000D03*
X59775000Y-71000000D03*
X59775000Y-70050000D03*
%TD*%
D13*
%TO.C,R23*%
X62097500Y-84450000D03*
X61077500Y-84450000D03*
%TD*%
%TO.C,R87*%
X142660000Y-83500000D03*
X141640000Y-83500000D03*
%TD*%
D12*
%TO.C,C49*%
X114500000Y-84980000D03*
X114500000Y-84020000D03*
%TD*%
D11*
%TO.C,R86*%
X139740000Y-82250000D03*
X140760000Y-82250000D03*
%TD*%
D10*
%TO.C,Q70*%
X135500000Y-79050000D03*
X135500000Y-80000000D03*
X135500000Y-80950000D03*
X137775000Y-80950000D03*
X137775000Y-80000000D03*
X137775000Y-79050000D03*
%TD*%
D20*
%TO.C,C39*%
X85500000Y-65020000D03*
X85500000Y-65980000D03*
%TD*%
D12*
%TO.C,C20*%
X74200000Y-94380000D03*
X74200000Y-93420000D03*
%TD*%
D49*
%TO.C,C16*%
X74745000Y-101750000D03*
X75705000Y-101750000D03*
%TD*%
D11*
%TO.C,R68*%
X130740000Y-73250000D03*
X131760000Y-73250000D03*
%TD*%
D10*
%TO.C,Q63*%
X66500000Y-70050000D03*
X66500000Y-71000000D03*
X66500000Y-71950000D03*
X68775000Y-71950000D03*
X68775000Y-71000000D03*
X68775000Y-70050000D03*
%TD*%
D58*
%TO.C,J12*%
X70560000Y-69165000D03*
X75640000Y-68149000D03*
X75640000Y-70181000D03*
%TD*%
D59*
%TO.C,BT11*%
X64070000Y-98000000D03*
D60*
X72400000Y-82000000D03*
X127600000Y-98000000D03*
%TD*%
D61*
%TO.C,J16*%
X97455000Y-104247500D03*
D62*
X97455000Y-106787500D03*
X99995000Y-104247500D03*
X99995000Y-106787500D03*
X102535000Y-104247500D03*
X102535000Y-106787500D03*
%TD*%
M02*
