%TF.GenerationSoftware,KiCad,Pcbnew,8.0.6*%
%TF.CreationDate,2024-12-15T00:01:45-05:00*%
%TF.ProjectId,VFDSAO,56464453-414f-42e6-9b69-6361645f7063,rev?*%
%TF.SameCoordinates,Original*%
%TF.FileFunction,Drillmap*%
%TF.FilePolarity,Positive*%
%FSLAX45Y45*%
G04 Gerber Fmt 4.5, Leading zero omitted, Abs format (unit mm)*
G04 Created by KiCad (PCBNEW 8.0.6) date 2024-12-15 00:01:45*
%MOMM*%
%LPD*%
G01*
G04 APERTURE LIST*
%ADD10C,0.160000*%
%ADD11C,0.100000*%
%ADD12C,0.200000*%
%ADD13C,0.350000*%
G04 APERTURE END LIST*
D10*
X13600000Y-10600000D02*
G75*
G02*
X12800000Y-10600000I-400000J0D01*
G01*
X9896191Y-7325000D02*
G75*
G02*
X9719086Y-7272984I-1J327510D01*
G01*
X10939735Y-10874372D02*
X11260265Y-10425629D01*
X14205000Y-9950000D02*
X14205000Y-9086434D01*
X9250714Y-8100000D02*
X7900000Y-8100000D01*
X5600000Y-6300000D02*
G75*
G02*
X5900000Y-6000000I300000J0D01*
G01*
X14373416Y-10132102D02*
G75*
G02*
X14300000Y-10300000I-73416J-67898D01*
G01*
X5600000Y-6300000D02*
X5600000Y-10000000D01*
X12200000Y-8000000D02*
X12200000Y-7000000D01*
X8450000Y-7100000D02*
G75*
G02*
X8400000Y-7050000I0J50000D01*
G01*
X9304385Y-11000000D02*
X10695615Y-11000000D01*
X14100000Y-6000000D02*
X5900000Y-6000000D01*
X12600000Y-10300000D02*
G75*
G02*
X12800000Y-10500000I0J-200000D01*
G01*
X8495615Y-10300000D02*
G75*
G02*
X8739732Y-10425631I-5J-300000D01*
G01*
X8350000Y-6900000D02*
G75*
G02*
X8400000Y-6950000I0J-50000D01*
G01*
X8495615Y-10300000D02*
X7400000Y-10300000D01*
X12100000Y-6900000D02*
X11650000Y-6900000D01*
X9304385Y-11000000D02*
G75*
G02*
X9060268Y-10874369I5J300000D01*
G01*
X14400000Y-8814082D02*
G75*
G02*
X14377145Y-8877708I-100000J2D01*
G01*
X5900000Y-10300000D02*
X6200000Y-10300000D01*
X7200000Y-10500000D02*
G75*
G02*
X7400000Y-10300000I200000J0D01*
G01*
X10280914Y-7272984D02*
G75*
G02*
X10103809Y-7325000I-177104J275494D01*
G01*
X14100000Y-6000000D02*
G75*
G02*
X14400000Y-6300000I0J-300000D01*
G01*
X13600000Y-10500000D02*
G75*
G02*
X13800000Y-10300000I200000J0D01*
G01*
X14373416Y-10132102D02*
X14205000Y-9950000D01*
X9450000Y-7100000D02*
X8450000Y-7100000D01*
X11600000Y-6950000D02*
G75*
G02*
X11650000Y-6900000I50000J0D01*
G01*
X7800000Y-7000000D02*
G75*
G02*
X7900000Y-6900000I100000J0D01*
G01*
X14400000Y-8814082D02*
X14400000Y-6300000D01*
X13600000Y-10500000D02*
X13600000Y-10600000D01*
X8739735Y-10425629D02*
X9060265Y-10874372D01*
X10280914Y-7272984D02*
X10550000Y-7100000D01*
X10550000Y-7100000D02*
X11550000Y-7100000D01*
X11260265Y-10425629D02*
G75*
G02*
X11504385Y-10299996I244125J-174372D01*
G01*
X8400000Y-7050000D02*
X8400000Y-6950000D01*
X12800000Y-10500000D02*
X12800000Y-10600000D01*
X7900000Y-8100000D02*
G75*
G02*
X7800000Y-8000000I0J100000D01*
G01*
X7200000Y-10600000D02*
G75*
G02*
X6400000Y-10600000I-400000J0D01*
G01*
X6400000Y-10500000D02*
X6400000Y-10600000D01*
X11600000Y-7050000D02*
G75*
G02*
X11550000Y-7100000I-50000J0D01*
G01*
X7200000Y-10500000D02*
X7200000Y-10600000D01*
X14300000Y-10300000D02*
X13800000Y-10300000D01*
X7800000Y-8000000D02*
X7800000Y-7000000D01*
X12100000Y-6900000D02*
G75*
G02*
X12200000Y-7000000I0J-100000D01*
G01*
X9896191Y-7325000D02*
X10103809Y-7325000D01*
X14205000Y-9086434D02*
X14377147Y-8877709D01*
X11504385Y-10300000D02*
X12600000Y-10300000D01*
X12200000Y-8000000D02*
G75*
G02*
X12100000Y-8100000I-100000J0D01*
G01*
D11*
X9250714Y-8100000D02*
G75*
G02*
X10749286Y-8100000I749286J-350000D01*
G01*
D10*
X6200000Y-10300000D02*
G75*
G02*
X6400000Y-10500000I0J-200000D01*
G01*
X10939735Y-10874372D02*
G75*
G02*
X10695615Y-11000004I-244125J174372D01*
G01*
X9450000Y-7100000D02*
X9719086Y-7272984D01*
X5900000Y-10300000D02*
G75*
G02*
X5600000Y-10000000I0J300000D01*
G01*
X11600000Y-6950000D02*
X11600000Y-7050000D01*
X7900000Y-6900000D02*
X8350000Y-6900000D01*
X10749286Y-8100000D02*
X12100000Y-8100000D01*
D12*
D11*
X5640000Y-9490000D02*
X5660000Y-9510000D01*
X5660000Y-9490000D02*
X5640000Y-9510000D01*
X5640000Y-9490000D02*
X5660000Y-9510000D01*
X5660000Y-9490000D02*
X5640000Y-9510000D01*
X5815000Y-8615000D02*
X5835000Y-8635000D01*
X5835000Y-8615000D02*
X5815000Y-8635000D01*
X5840000Y-7465000D02*
X5860000Y-7485000D01*
X5860000Y-7465000D02*
X5840000Y-7485000D01*
X5840000Y-9490000D02*
X5860000Y-9510000D01*
X5860000Y-9490000D02*
X5840000Y-9510000D01*
X5852500Y-8550000D02*
X5872500Y-8570000D01*
X5872500Y-8550000D02*
X5852500Y-8570000D01*
X5852855Y-7022855D02*
X5872855Y-7042855D01*
X5872855Y-7022855D02*
X5852855Y-7042855D01*
X5855000Y-7915000D02*
X5875000Y-7935000D01*
X5875000Y-7915000D02*
X5855000Y-7935000D01*
X5879645Y-7575355D02*
X5899645Y-7595355D01*
X5899645Y-7575355D02*
X5879645Y-7595355D01*
X5890000Y-7115000D02*
X5910000Y-7135000D01*
X5910000Y-7115000D02*
X5890000Y-7135000D01*
X5890000Y-7190000D02*
X5910000Y-7210000D01*
X5910000Y-7190000D02*
X5890000Y-7210000D01*
X5890000Y-7640000D02*
X5910000Y-7660000D01*
X5910000Y-7640000D02*
X5890000Y-7660000D01*
X5890000Y-8015000D02*
X5910000Y-8035000D01*
X5910000Y-8015000D02*
X5890000Y-8035000D01*
X5890000Y-8090000D02*
X5910000Y-8110000D01*
X5910000Y-8090000D02*
X5890000Y-8110000D01*
X6010000Y-8370000D02*
X6030000Y-8390000D01*
X6030000Y-8370000D02*
X6010000Y-8390000D01*
X6030000Y-8990000D02*
X6050000Y-9010000D01*
X6050000Y-8990000D02*
X6030000Y-9010000D01*
X6040000Y-9490000D02*
X6060000Y-9510000D01*
X6060000Y-9490000D02*
X6040000Y-9510000D01*
X6055000Y-8150000D02*
X6075000Y-8170000D01*
X6075000Y-8150000D02*
X6055000Y-8170000D01*
X6060000Y-9360000D02*
X6080000Y-9380000D01*
X6080000Y-9360000D02*
X6060000Y-9380000D01*
X6195000Y-8355000D02*
X6215000Y-8375000D01*
X6215000Y-8355000D02*
X6195000Y-8375000D01*
X6210000Y-8500000D02*
X6230000Y-8520000D01*
X6230000Y-8500000D02*
X6210000Y-8520000D01*
X6240000Y-9490000D02*
X6260000Y-9510000D01*
X6260000Y-9490000D02*
X6240000Y-9510000D01*
X6251068Y-7881125D02*
X6271068Y-7901125D01*
X6271068Y-7881125D02*
X6251068Y-7901125D01*
X6275000Y-9250000D02*
X6295000Y-9270000D01*
X6295000Y-9250000D02*
X6275000Y-9270000D01*
X6285000Y-7580000D02*
X6305000Y-7600000D01*
X6305000Y-7580000D02*
X6285000Y-7600000D01*
X6290000Y-7015000D02*
X6310000Y-7035000D01*
X6310000Y-7015000D02*
X6290000Y-7035000D01*
X6296702Y-7837587D02*
X6316702Y-7857587D01*
X6316702Y-7837587D02*
X6296702Y-7857587D01*
X6340000Y-7115000D02*
X6360000Y-7135000D01*
X6360000Y-7115000D02*
X6340000Y-7135000D01*
X6340000Y-8015000D02*
X6360000Y-8035000D01*
X6360000Y-8015000D02*
X6340000Y-8035000D01*
X6340000Y-8090000D02*
X6360000Y-8110000D01*
X6360000Y-8090000D02*
X6340000Y-8110000D01*
X6354500Y-7640000D02*
X6374500Y-7660000D01*
X6374500Y-7640000D02*
X6354500Y-7660000D01*
X6360355Y-7169645D02*
X6380355Y-7189645D01*
X6380355Y-7169645D02*
X6360355Y-7189645D01*
X6380000Y-7545000D02*
X6400000Y-7565000D01*
X6400000Y-7545000D02*
X6380000Y-7565000D01*
X6395000Y-8595000D02*
X6415000Y-8615000D01*
X6415000Y-8595000D02*
X6395000Y-8615000D01*
X6425000Y-6915000D02*
X6445000Y-6935000D01*
X6445000Y-6915000D02*
X6425000Y-6935000D01*
X6440000Y-9490000D02*
X6460000Y-9510000D01*
X6460000Y-9490000D02*
X6440000Y-9510000D01*
X6485000Y-6585000D02*
X6505000Y-6605000D01*
X6505000Y-6585000D02*
X6485000Y-6605000D01*
X6490000Y-9245000D02*
X6510000Y-9265000D01*
X6510000Y-9245000D02*
X6490000Y-9265000D01*
X6510000Y-8652500D02*
X6530000Y-8672500D01*
X6530000Y-8652500D02*
X6510000Y-8672500D01*
X6515000Y-7505000D02*
X6535000Y-7525000D01*
X6535000Y-7505000D02*
X6515000Y-7525000D01*
X6560000Y-6760000D02*
X6580000Y-6780000D01*
X6580000Y-6760000D02*
X6560000Y-6780000D01*
X6590000Y-9490000D02*
X6610000Y-9510000D01*
X6610000Y-9490000D02*
X6590000Y-9510000D01*
X6645000Y-6370000D02*
X6665000Y-6390000D01*
X6665000Y-6370000D02*
X6645000Y-6390000D01*
X6650000Y-7870000D02*
X6670000Y-7890000D01*
X6670000Y-7870000D02*
X6650000Y-7890000D01*
X6740000Y-7015000D02*
X6760000Y-7035000D01*
X6760000Y-7015000D02*
X6740000Y-7035000D01*
X6740000Y-7465000D02*
X6760000Y-7485000D01*
X6760000Y-7465000D02*
X6740000Y-7485000D01*
X6740000Y-9490000D02*
X6760000Y-9510000D01*
X6760000Y-9490000D02*
X6740000Y-9510000D01*
X6750000Y-8760000D02*
X6770000Y-8780000D01*
X6770000Y-8760000D02*
X6750000Y-8780000D01*
X6788683Y-7555791D02*
X6808683Y-7575791D01*
X6808683Y-7555791D02*
X6788683Y-7575791D01*
X6790000Y-7115000D02*
X6810000Y-7135000D01*
X6810000Y-7115000D02*
X6790000Y-7135000D01*
X6790000Y-7190000D02*
X6810000Y-7210000D01*
X6810000Y-7190000D02*
X6790000Y-7210000D01*
X6797176Y-7615187D02*
X6817176Y-7635187D01*
X6817176Y-7615187D02*
X6797176Y-7635187D01*
X6801750Y-8015000D02*
X6821750Y-8035000D01*
X6821750Y-8015000D02*
X6801750Y-8035000D01*
X6801750Y-8090000D02*
X6821750Y-8110000D01*
X6821750Y-8090000D02*
X6801750Y-8110000D01*
X6805000Y-8423750D02*
X6825000Y-8443750D01*
X6825000Y-8423750D02*
X6805000Y-8443750D01*
X6840000Y-6620000D02*
X6860000Y-6640000D01*
X6860000Y-6620000D02*
X6840000Y-6640000D01*
X6846231Y-8632304D02*
X6866231Y-8652304D01*
X6866231Y-8632304D02*
X6846231Y-8652304D01*
X6850000Y-8725000D02*
X6870000Y-8745000D01*
X6870000Y-8725000D02*
X6850000Y-8745000D01*
X6859556Y-8573803D02*
X6879556Y-8593803D01*
X6879556Y-8573803D02*
X6859556Y-8593803D01*
X6890000Y-6390000D02*
X6910000Y-6410000D01*
X6910000Y-6390000D02*
X6890000Y-6410000D01*
X6900000Y-8325000D02*
X6920000Y-8345000D01*
X6920000Y-8325000D02*
X6900000Y-8345000D01*
X6952319Y-8667682D02*
X6972319Y-8687682D01*
X6972319Y-8667682D02*
X6952319Y-8687682D01*
X6991976Y-8706223D02*
X7011976Y-8726223D01*
X7011976Y-8706223D02*
X6991976Y-8726223D01*
X7000000Y-8965000D02*
X7020000Y-8985000D01*
X7020000Y-8965000D02*
X7000000Y-8985000D01*
X7002040Y-6752249D02*
X7022040Y-6772249D01*
X7022040Y-6752249D02*
X7002040Y-6772249D01*
X7005000Y-8605000D02*
X7025000Y-8625000D01*
X7025000Y-8605000D02*
X7005000Y-8625000D01*
X7010000Y-7215000D02*
X7030000Y-7235000D01*
X7030000Y-7215000D02*
X7010000Y-7235000D01*
X7054289Y-8655711D02*
X7074289Y-8675711D01*
X7074289Y-8655711D02*
X7054289Y-8675711D01*
X7094961Y-8615411D02*
X7114961Y-8635411D01*
X7114961Y-8615411D02*
X7094961Y-8635411D01*
X7100000Y-9100000D02*
X7120000Y-9120000D01*
X7120000Y-9100000D02*
X7100000Y-9120000D01*
X7110000Y-9170000D02*
X7130000Y-9190000D01*
X7130000Y-9170000D02*
X7110000Y-9190000D01*
X7120000Y-6710000D02*
X7140000Y-6730000D01*
X7140000Y-6710000D02*
X7120000Y-6730000D01*
X7190000Y-8980000D02*
X7210000Y-9000000D01*
X7210000Y-8980000D02*
X7190000Y-9000000D01*
X7210000Y-7450000D02*
X7230000Y-7470000D01*
X7230000Y-7450000D02*
X7210000Y-7470000D01*
X7238000Y-7565000D02*
X7258000Y-7585000D01*
X7258000Y-7565000D02*
X7238000Y-7585000D01*
X7238000Y-7640000D02*
X7258000Y-7660000D01*
X7258000Y-7640000D02*
X7238000Y-7660000D01*
X7245000Y-6785000D02*
X7265000Y-6805000D01*
X7265000Y-6785000D02*
X7245000Y-6805000D01*
X7265000Y-9065000D02*
X7285000Y-9085000D01*
X7285000Y-9065000D02*
X7265000Y-9085000D01*
X7270000Y-8720000D02*
X7290000Y-8740000D01*
X7290000Y-8720000D02*
X7270000Y-8740000D01*
X7312500Y-9312500D02*
X7332500Y-9332500D01*
X7332500Y-9312500D02*
X7312500Y-9332500D01*
X7365000Y-9310000D02*
X7385000Y-9330000D01*
X7385000Y-9310000D02*
X7365000Y-9330000D01*
X7415000Y-7385000D02*
X7435000Y-7405000D01*
X7435000Y-7385000D02*
X7415000Y-7405000D01*
X7415000Y-7875000D02*
X7435000Y-7895000D01*
X7435000Y-7875000D02*
X7415000Y-7895000D01*
X7415000Y-9260000D02*
X7435000Y-9280000D01*
X7435000Y-9260000D02*
X7415000Y-9280000D01*
X7415000Y-9895000D02*
X7435000Y-9915000D01*
X7435000Y-9895000D02*
X7415000Y-9915000D01*
X7430838Y-8909326D02*
X7450838Y-8929326D01*
X7450838Y-8909326D02*
X7430838Y-8929326D01*
X7445000Y-9580000D02*
X7465000Y-9600000D01*
X7465000Y-9580000D02*
X7445000Y-9600000D01*
X7450000Y-6780000D02*
X7470000Y-6800000D01*
X7470000Y-6780000D02*
X7450000Y-6800000D01*
X7465000Y-8860000D02*
X7485000Y-8880000D01*
X7485000Y-8860000D02*
X7465000Y-8880000D01*
X7465000Y-9200000D02*
X7485000Y-9220000D01*
X7485000Y-9200000D02*
X7465000Y-9220000D01*
X7485000Y-8375001D02*
X7505000Y-8395001D01*
X7505000Y-8375001D02*
X7485000Y-8395001D01*
X7495000Y-9600000D02*
X7515000Y-9620000D01*
X7515000Y-9600000D02*
X7495000Y-9620000D01*
X7533096Y-9426500D02*
X7553096Y-9446500D01*
X7553096Y-9426500D02*
X7533096Y-9446500D01*
X7535000Y-9312500D02*
X7555000Y-9332500D01*
X7555000Y-9312500D02*
X7535000Y-9332500D01*
X7540803Y-9366997D02*
X7560803Y-9386997D01*
X7560803Y-9366997D02*
X7540803Y-9386997D01*
X7559339Y-9117340D02*
X7579339Y-9137340D01*
X7579339Y-9117340D02*
X7559339Y-9137340D01*
X7570000Y-8155000D02*
X7590000Y-8175000D01*
X7590000Y-8155000D02*
X7570000Y-8175000D01*
X7570000Y-9705000D02*
X7590000Y-9725000D01*
X7590000Y-9705000D02*
X7570000Y-9725000D01*
X7590000Y-10040000D02*
X7610000Y-10060000D01*
X7610000Y-10040000D02*
X7590000Y-10060000D01*
X7591622Y-8964530D02*
X7611622Y-8984530D01*
X7611622Y-8964530D02*
X7591622Y-8984530D01*
X7615000Y-9575000D02*
X7635000Y-9595000D01*
X7635000Y-9575000D02*
X7615000Y-9595000D01*
X7615000Y-9735000D02*
X7635000Y-9755000D01*
X7635000Y-9735000D02*
X7615000Y-9755000D01*
X7617366Y-9132601D02*
X7637366Y-9152601D01*
X7637366Y-9132601D02*
X7617366Y-9152601D01*
X7617500Y-10168500D02*
X7637500Y-10188500D01*
X7637500Y-10168500D02*
X7617500Y-10188500D01*
X7620000Y-8375000D02*
X7640000Y-8395000D01*
X7640000Y-8375000D02*
X7620000Y-8395000D01*
X7645000Y-9800000D02*
X7665000Y-9820000D01*
X7665000Y-9800000D02*
X7645000Y-9820000D01*
X7670000Y-9735000D02*
X7690000Y-9755000D01*
X7690000Y-9735000D02*
X7670000Y-9755000D01*
X7676140Y-9120533D02*
X7696140Y-9140533D01*
X7696140Y-9120533D02*
X7676140Y-9140533D01*
X7680000Y-9060000D02*
X7700000Y-9080000D01*
X7700000Y-9060000D02*
X7680000Y-9080000D01*
X7735000Y-9885000D02*
X7755000Y-9905000D01*
X7755000Y-9885000D02*
X7735000Y-9905000D01*
X7740000Y-7290000D02*
X7760000Y-7310000D01*
X7760000Y-7290000D02*
X7740000Y-7310000D01*
X7740000Y-7790000D02*
X7760000Y-7810000D01*
X7760000Y-7790000D02*
X7740000Y-7810000D01*
X7765000Y-9310000D02*
X7785000Y-9330000D01*
X7785000Y-9310000D02*
X7765000Y-9330000D01*
X7769368Y-9029139D02*
X7789368Y-9049139D01*
X7789368Y-9029139D02*
X7769368Y-9049139D01*
X7786890Y-9798116D02*
X7806890Y-9818116D01*
X7806890Y-9798116D02*
X7786890Y-9818116D01*
X7822726Y-9002786D02*
X7842726Y-9022786D01*
X7842726Y-9002786D02*
X7822726Y-9022786D01*
X7850002Y-9785002D02*
X7870002Y-9805002D01*
X7870002Y-9785002D02*
X7850002Y-9805002D01*
X7855000Y-8752500D02*
X7875000Y-8772500D01*
X7875000Y-8752500D02*
X7855000Y-8772500D01*
X7865000Y-8360000D02*
X7885000Y-8380000D01*
X7885000Y-8360000D02*
X7865000Y-8380000D01*
X7865000Y-9545000D02*
X7885000Y-9565000D01*
X7885000Y-9545000D02*
X7865000Y-9565000D01*
X7872500Y-10095000D02*
X7892500Y-10115000D01*
X7892500Y-10095000D02*
X7872500Y-10115000D01*
X7907500Y-9061198D02*
X7927500Y-9081198D01*
X7927500Y-9061198D02*
X7907500Y-9081198D01*
X7940000Y-8140000D02*
X7960000Y-8160000D01*
X7960000Y-8140000D02*
X7940000Y-8160000D01*
X7940000Y-8940000D02*
X7960000Y-8960000D01*
X7960000Y-8940000D02*
X7940000Y-8960000D01*
X7945000Y-9775000D02*
X7965000Y-9795000D01*
X7965000Y-9775000D02*
X7945000Y-9795000D01*
X7970000Y-10097500D02*
X7990000Y-10117500D01*
X7990000Y-10097500D02*
X7970000Y-10117500D01*
X7983959Y-8852500D02*
X8003959Y-8872500D01*
X8003959Y-8852500D02*
X7983959Y-8872500D01*
X8006223Y-9780106D02*
X8026223Y-9800106D01*
X8026223Y-9780106D02*
X8006223Y-9800106D01*
X8014355Y-9506355D02*
X8034355Y-9526355D01*
X8034355Y-9506355D02*
X8014355Y-9526355D01*
X8036991Y-8857702D02*
X8056991Y-8877702D01*
X8056991Y-8857702D02*
X8036991Y-8877702D01*
X8052500Y-9062500D02*
X8072500Y-9082500D01*
X8072500Y-9062500D02*
X8052500Y-9082500D01*
X8064290Y-9765000D02*
X8084290Y-9785000D01*
X8084290Y-9765000D02*
X8064290Y-9785000D01*
X8075000Y-9390000D02*
X8095000Y-9410000D01*
X8095000Y-9390000D02*
X8075000Y-9410000D01*
X8105000Y-8392000D02*
X8125000Y-8412000D01*
X8125000Y-8392000D02*
X8105000Y-8412000D01*
X8115000Y-8760000D02*
X8135000Y-8780000D01*
X8135000Y-8760000D02*
X8115000Y-8780000D01*
X8140000Y-8140000D02*
X8160000Y-8160000D01*
X8160000Y-8140000D02*
X8140000Y-8160000D01*
X8155000Y-8905000D02*
X8175000Y-8925000D01*
X8175000Y-8905000D02*
X8155000Y-8925000D01*
X8174056Y-9055000D02*
X8194056Y-9075000D01*
X8194056Y-9055000D02*
X8174056Y-9075000D01*
X8220000Y-8905000D02*
X8240000Y-8925000D01*
X8240000Y-8905000D02*
X8220000Y-8925000D01*
X8235000Y-10020000D02*
X8255000Y-10040000D01*
X8255000Y-10020000D02*
X8235000Y-10040000D01*
X8281751Y-8878250D02*
X8301751Y-8898250D01*
X8301751Y-8878250D02*
X8281751Y-8898250D01*
X8292500Y-9149387D02*
X8312500Y-9169387D01*
X8312500Y-9149387D02*
X8292500Y-9169387D01*
X8293402Y-9381973D02*
X8313402Y-9401973D01*
X8313402Y-9381973D02*
X8293402Y-9401973D01*
X8295000Y-9310000D02*
X8315000Y-9330000D01*
X8315000Y-9310000D02*
X8295000Y-9330000D01*
X8299086Y-9249087D02*
X8319086Y-9269087D01*
X8319086Y-9249087D02*
X8299086Y-9269087D01*
X8335000Y-10080000D02*
X8355000Y-10100000D01*
X8355000Y-10080000D02*
X8335000Y-10100000D01*
X8335787Y-9477029D02*
X8355787Y-9497029D01*
X8355787Y-9477029D02*
X8335787Y-9497029D01*
X8355000Y-6560000D02*
X8375000Y-6580000D01*
X8375000Y-6560000D02*
X8355000Y-6580000D01*
X8360000Y-8390000D02*
X8380000Y-8410000D01*
X8380000Y-8390000D02*
X8360000Y-8410000D01*
X8392108Y-9088674D02*
X8412108Y-9108674D01*
X8412108Y-9088674D02*
X8392108Y-9108674D01*
X8500000Y-8340000D02*
X8520000Y-8360000D01*
X8520000Y-8340000D02*
X8500000Y-8360000D01*
X8505000Y-9180000D02*
X8525000Y-9200000D01*
X8525000Y-9180000D02*
X8505000Y-9200000D01*
X8520000Y-9950000D02*
X8540000Y-9970000D01*
X8540000Y-9950000D02*
X8520000Y-9970000D01*
X8595000Y-8920000D02*
X8615000Y-8940000D01*
X8615000Y-8920000D02*
X8595000Y-8940000D01*
X8610000Y-6455000D02*
X8630000Y-6475000D01*
X8630000Y-6455000D02*
X8610000Y-6475000D01*
X8612500Y-8372500D02*
X8632500Y-8392500D01*
X8632500Y-8372500D02*
X8612500Y-8392500D01*
X8630000Y-8770000D02*
X8650000Y-8790000D01*
X8650000Y-8770000D02*
X8630000Y-8790000D01*
X8645000Y-9085000D02*
X8665000Y-9105000D01*
X8665000Y-9085000D02*
X8645000Y-9105000D01*
X8735000Y-8355000D02*
X8755000Y-8375000D01*
X8755000Y-8355000D02*
X8735000Y-8375000D01*
X8747500Y-9500000D02*
X8767500Y-9520000D01*
X8767500Y-9500000D02*
X8747500Y-9520000D01*
X8790000Y-8980000D02*
X8810000Y-9000000D01*
X8810000Y-8980000D02*
X8790000Y-9000000D01*
X8830000Y-8315000D02*
X8850000Y-8335000D01*
X8850000Y-8315000D02*
X8830000Y-8335000D01*
X8890000Y-8390000D02*
X8910000Y-8410000D01*
X8910000Y-8390000D02*
X8890000Y-8410000D01*
X8890001Y-8610000D02*
X8910001Y-8630000D01*
X8910001Y-8610000D02*
X8890001Y-8630000D01*
X8920355Y-9600355D02*
X8940355Y-9620355D01*
X8940355Y-9600355D02*
X8920355Y-9620355D01*
X8933118Y-8639954D02*
X8953118Y-8659954D01*
X8953118Y-8639954D02*
X8933118Y-8659954D01*
X8940000Y-8343779D02*
X8960000Y-8363779D01*
X8960000Y-8343779D02*
X8940000Y-8363779D01*
X8960000Y-9540000D02*
X8980000Y-9560000D01*
X8980000Y-9540000D02*
X8960000Y-9560000D01*
X8983107Y-8623912D02*
X9003107Y-8643912D01*
X9003107Y-8623912D02*
X8983107Y-8643912D01*
X8987496Y-8316718D02*
X9007496Y-8336718D01*
X9007496Y-8316718D02*
X8987496Y-8336718D01*
X9052500Y-8647500D02*
X9072500Y-8667500D01*
X9072500Y-8647500D02*
X9052500Y-8667500D01*
X9072525Y-8590940D02*
X9092525Y-8610940D01*
X9092525Y-8590940D02*
X9072525Y-8610940D01*
X9150000Y-8590000D02*
X9170000Y-8610000D01*
X9170000Y-8590000D02*
X9150000Y-8610000D01*
X9150001Y-8235000D02*
X9170001Y-8255000D01*
X9170001Y-8235000D02*
X9150001Y-8255000D01*
X9330000Y-8645000D02*
X9350000Y-8665000D01*
X9350000Y-8645000D02*
X9330000Y-8665000D01*
X9530000Y-10350000D02*
X9550000Y-10370000D01*
X9550000Y-10350000D02*
X9530000Y-10370000D01*
X9590000Y-8690000D02*
X9610000Y-8710000D01*
X9610000Y-8690000D02*
X9590000Y-8710000D01*
X9605000Y-8600000D02*
X9625000Y-8620000D01*
X9625000Y-8600000D02*
X9605000Y-8620000D01*
X9607500Y-9132500D02*
X9627500Y-9152500D01*
X9627500Y-9132500D02*
X9607500Y-9152500D01*
X9790000Y-8690000D02*
X9810000Y-8710000D01*
X9810000Y-8690000D02*
X9790000Y-8710000D01*
X9985000Y-6545000D02*
X10005000Y-6565000D01*
X10005000Y-6545000D02*
X9985000Y-6565000D01*
X10180000Y-10255000D02*
X10200000Y-10275000D01*
X10200000Y-10255000D02*
X10180000Y-10275000D01*
X10390000Y-8690000D02*
X10410000Y-8710000D01*
X10410000Y-8690000D02*
X10390000Y-8710000D01*
X10415000Y-10285000D02*
X10435000Y-10305000D01*
X10435000Y-10285000D02*
X10415000Y-10305000D01*
X10440000Y-9105000D02*
X10460000Y-9125000D01*
X10460000Y-9105000D02*
X10440000Y-9125000D01*
X10625000Y-10215000D02*
X10645000Y-10235000D01*
X10645000Y-10215000D02*
X10625000Y-10235000D01*
X10760000Y-8880000D02*
X10780000Y-8900000D01*
X10780000Y-8880000D02*
X10760000Y-8900000D01*
X11055000Y-8875000D02*
X11075000Y-8895000D01*
X11075000Y-8875000D02*
X11055000Y-8895000D01*
X11065000Y-8650000D02*
X11085000Y-8670000D01*
X11085000Y-8650000D02*
X11065000Y-8670000D01*
X11240000Y-9105000D02*
X11260000Y-9125000D01*
X11260000Y-9105000D02*
X11240000Y-9125000D01*
X11290000Y-6455000D02*
X11310000Y-6475000D01*
X11310000Y-6455000D02*
X11290000Y-6475000D01*
X11365000Y-8400000D02*
X11385000Y-8420000D01*
X11385000Y-8400000D02*
X11365000Y-8420000D01*
X11565000Y-8875000D02*
X11585000Y-8895000D01*
X11585000Y-8875000D02*
X11565000Y-8895000D01*
X11610000Y-6588000D02*
X11630000Y-6608000D01*
X11630000Y-6588000D02*
X11610000Y-6608000D01*
X11915000Y-8870000D02*
X11935000Y-8890000D01*
X11935000Y-8870000D02*
X11915000Y-8890000D01*
X12005000Y-10005000D02*
X12025000Y-10025000D01*
X12025000Y-10005000D02*
X12005000Y-10025000D01*
X12045000Y-8895000D02*
X12065000Y-8915000D01*
X12065000Y-8895000D02*
X12045000Y-8915000D01*
X12090000Y-9140000D02*
X12110000Y-9160000D01*
X12110000Y-9140000D02*
X12090000Y-9160000D01*
X12355355Y-8194690D02*
X12375355Y-8214690D01*
X12375355Y-8194690D02*
X12355355Y-8214690D01*
X12360000Y-8815000D02*
X12380000Y-8835000D01*
X12380000Y-8815000D02*
X12360000Y-8835000D01*
X12385000Y-8890000D02*
X12405000Y-8910000D01*
X12405000Y-8890000D02*
X12385000Y-8910000D01*
X12411287Y-8085139D02*
X12431287Y-8105139D01*
X12431287Y-8085139D02*
X12411287Y-8105139D01*
X12470000Y-8097500D02*
X12490000Y-8117500D01*
X12490000Y-8097500D02*
X12470000Y-8117500D01*
X12500000Y-6850000D02*
X12520000Y-6870000D01*
X12520000Y-6850000D02*
X12500000Y-6870000D01*
X12532500Y-7875000D02*
X12552500Y-7895000D01*
X12552500Y-7875000D02*
X12532500Y-7895000D01*
X12535000Y-6940000D02*
X12555000Y-6960000D01*
X12555000Y-6940000D02*
X12535000Y-6960000D01*
X12590355Y-7330355D02*
X12610355Y-7350355D01*
X12610355Y-7330355D02*
X12590355Y-7350355D01*
X12600000Y-9995000D02*
X12620000Y-10015000D01*
X12620000Y-9995000D02*
X12600000Y-10015000D01*
X12640000Y-8935000D02*
X12660000Y-8955000D01*
X12660000Y-8935000D02*
X12640000Y-8955000D01*
X12650000Y-7130000D02*
X12670000Y-7150000D01*
X12670000Y-7130000D02*
X12650000Y-7150000D01*
X12717625Y-8315000D02*
X12737625Y-8335000D01*
X12737625Y-8315000D02*
X12717625Y-8335000D01*
X12740000Y-7490000D02*
X12760000Y-7510000D01*
X12760000Y-7490000D02*
X12740000Y-7510000D01*
X12747112Y-7123297D02*
X12767112Y-7143297D01*
X12767112Y-7123297D02*
X12747112Y-7143297D01*
X12790000Y-7565000D02*
X12810000Y-7585000D01*
X12810000Y-7565000D02*
X12790000Y-7585000D01*
X12790000Y-7640000D02*
X12810000Y-7660000D01*
X12810000Y-7640000D02*
X12790000Y-7660000D01*
X12825000Y-7322500D02*
X12845000Y-7342500D01*
X12845000Y-7322500D02*
X12825000Y-7342500D01*
X12837500Y-6552500D02*
X12857500Y-6572500D01*
X12857500Y-6552500D02*
X12837500Y-6572500D01*
X12843025Y-8317261D02*
X12863025Y-8337261D01*
X12863025Y-8317261D02*
X12843025Y-8337261D01*
X12860000Y-8265000D02*
X12880000Y-8285000D01*
X12880000Y-8265000D02*
X12860000Y-8285000D01*
X12860000Y-8372500D02*
X12880000Y-8392500D01*
X12880000Y-8372500D02*
X12860000Y-8392500D01*
X12897500Y-8175000D02*
X12917500Y-8195000D01*
X12917500Y-8175000D02*
X12897500Y-8195000D01*
X12920000Y-8947500D02*
X12940000Y-8967500D01*
X12940000Y-8947500D02*
X12920000Y-8967500D01*
X12937500Y-7230000D02*
X12957500Y-7250000D01*
X12957500Y-7230000D02*
X12937500Y-7250000D01*
X12950000Y-8642500D02*
X12970000Y-8662500D01*
X12970000Y-8642500D02*
X12950000Y-8662500D01*
X13002500Y-8772500D02*
X13022500Y-8792500D01*
X13022500Y-8772500D02*
X13002500Y-8792500D01*
X13042500Y-9765000D02*
X13062500Y-9785000D01*
X13062500Y-9765000D02*
X13042500Y-9785000D01*
X13065000Y-8765000D02*
X13085000Y-8785000D01*
X13085000Y-8765000D02*
X13065000Y-8785000D01*
X13102500Y-9765000D02*
X13122500Y-9785000D01*
X13122500Y-9765000D02*
X13102500Y-9785000D01*
X13105000Y-6577500D02*
X13125000Y-6597500D01*
X13125000Y-6577500D02*
X13105000Y-6597500D01*
X13121909Y-8553091D02*
X13141909Y-8573091D01*
X13141909Y-8553091D02*
X13121909Y-8573091D01*
X13165000Y-9665000D02*
X13185000Y-9685000D01*
X13185000Y-9665000D02*
X13165000Y-9685000D01*
X13167500Y-7482500D02*
X13187500Y-7502500D01*
X13187500Y-7482500D02*
X13167500Y-7502500D01*
X13180000Y-6330000D02*
X13200000Y-6350000D01*
X13200000Y-6330000D02*
X13180000Y-6350000D01*
X13190000Y-7015000D02*
X13210000Y-7035000D01*
X13210000Y-7015000D02*
X13190000Y-7035000D01*
X13190000Y-7915000D02*
X13210000Y-7935000D01*
X13210000Y-7915000D02*
X13190000Y-7935000D01*
X13226250Y-7565000D02*
X13246250Y-7585000D01*
X13246250Y-7565000D02*
X13226250Y-7585000D01*
X13226250Y-7640000D02*
X13246250Y-7660000D01*
X13246250Y-7640000D02*
X13226250Y-7660000D01*
X13240000Y-7115000D02*
X13260000Y-7135000D01*
X13260000Y-7115000D02*
X13240000Y-7135000D01*
X13240000Y-7190000D02*
X13260000Y-7210000D01*
X13260000Y-7190000D02*
X13240000Y-7210000D01*
X13240000Y-8015000D02*
X13260000Y-8035000D01*
X13260000Y-8015000D02*
X13240000Y-8035000D01*
X13240000Y-8090000D02*
X13260000Y-8110000D01*
X13260000Y-8090000D02*
X13240000Y-8110000D01*
X13320000Y-6690000D02*
X13340000Y-6710000D01*
X13340000Y-6690000D02*
X13320000Y-6710000D01*
X13330000Y-6490000D02*
X13350000Y-6510000D01*
X13350000Y-6490000D02*
X13330000Y-6510000D01*
X13384351Y-8491610D02*
X13404351Y-8511610D01*
X13404351Y-8491610D02*
X13384351Y-8511610D01*
X13405000Y-9442500D02*
X13425000Y-9462500D01*
X13425000Y-9442500D02*
X13405000Y-9462500D01*
X13405000Y-9575000D02*
X13425000Y-9595000D01*
X13425000Y-9575000D02*
X13405000Y-9595000D01*
X13415000Y-8910000D02*
X13435000Y-8930000D01*
X13435000Y-8910000D02*
X13415000Y-8930000D01*
X13420000Y-9270000D02*
X13440000Y-9290000D01*
X13440000Y-9270000D02*
X13420000Y-9290000D01*
X13422500Y-7050000D02*
X13442500Y-7070000D01*
X13442500Y-7050000D02*
X13422500Y-7070000D01*
X13430000Y-9750000D02*
X13450000Y-9770000D01*
X13450000Y-9750000D02*
X13430000Y-9770000D01*
X13447500Y-8595000D02*
X13467500Y-8615000D01*
X13467500Y-8595000D02*
X13447500Y-8615000D01*
X13496734Y-8496725D02*
X13516734Y-8516725D01*
X13516734Y-8496725D02*
X13496734Y-8516725D01*
X13640000Y-7015000D02*
X13660000Y-7035000D01*
X13660000Y-7015000D02*
X13640000Y-7035000D01*
X13640000Y-7465000D02*
X13660000Y-7485000D01*
X13660000Y-7465000D02*
X13640000Y-7485000D01*
X13640000Y-7915000D02*
X13660000Y-7935000D01*
X13660000Y-7915000D02*
X13640000Y-7935000D01*
X13690000Y-7115000D02*
X13710000Y-7135000D01*
X13710000Y-7115000D02*
X13690000Y-7135000D01*
X13690000Y-7190000D02*
X13710000Y-7210000D01*
X13710000Y-7190000D02*
X13690000Y-7210000D01*
X13690000Y-7565000D02*
X13710000Y-7585000D01*
X13710000Y-7565000D02*
X13690000Y-7585000D01*
X13690000Y-7640000D02*
X13710000Y-7660000D01*
X13710000Y-7640000D02*
X13690000Y-7660000D01*
X13690000Y-8015000D02*
X13710000Y-8035000D01*
X13710000Y-8015000D02*
X13690000Y-8035000D01*
X13690000Y-8090000D02*
X13710000Y-8110000D01*
X13710000Y-8090000D02*
X13690000Y-8110000D01*
X13845000Y-9360000D02*
X13865000Y-9380000D01*
X13865000Y-9360000D02*
X13845000Y-9380000D01*
X13860000Y-8330000D02*
X13880000Y-8350000D01*
X13880000Y-8330000D02*
X13860000Y-8350000D01*
X13915000Y-8560000D02*
X13935000Y-8580000D01*
X13935000Y-8560000D02*
X13915000Y-8580000D01*
X14070858Y-7010858D02*
X14090858Y-7030858D01*
X14090858Y-7010858D02*
X14070858Y-7030858D01*
X14090000Y-7465000D02*
X14110000Y-7485000D01*
X14110000Y-7465000D02*
X14090000Y-7485000D01*
X14090000Y-7915000D02*
X14110000Y-7935000D01*
X14110000Y-7915000D02*
X14090000Y-7935000D01*
X14140000Y-7190000D02*
X14160000Y-7210000D01*
X14160000Y-7190000D02*
X14140000Y-7210000D01*
X14140000Y-7565000D02*
X14160000Y-7585000D01*
X14160000Y-7565000D02*
X14140000Y-7585000D01*
X14140000Y-7640000D02*
X14160000Y-7660000D01*
X14160000Y-7640000D02*
X14140000Y-7660000D01*
X14140000Y-8015000D02*
X14160000Y-8035000D01*
X14160000Y-8015000D02*
X14140000Y-8035000D01*
X14140000Y-8090000D02*
X14160000Y-8110000D01*
X14160000Y-8090000D02*
X14140000Y-8110000D01*
X14170000Y-7115000D02*
X14190000Y-7135000D01*
X14190000Y-7115000D02*
X14170000Y-7135000D01*
X7205000Y-9644500D02*
G75*
G02*
X7175000Y-9644500I-15000J0D01*
G01*
X7175000Y-9644500D02*
G75*
G02*
X7205000Y-9644500I15000J0D01*
G01*
X8475000Y-6900000D02*
X8475000Y-6950000D01*
X8450000Y-6925000D02*
X8500000Y-6925000D01*
X8475000Y-6900000D02*
X8475000Y-6950000D01*
X8450000Y-6925000D02*
X8500000Y-6925000D01*
X8550000Y-6900000D02*
X8550000Y-6950000D01*
X8525000Y-6925000D02*
X8575000Y-6925000D01*
X8550000Y-6900000D02*
X8550000Y-6950000D01*
X8525000Y-6925000D02*
X8575000Y-6925000D01*
X8625000Y-6900000D02*
X8625000Y-6950000D01*
X8600000Y-6925000D02*
X8650000Y-6925000D01*
X8700000Y-6900000D02*
X8700000Y-6950000D01*
X8675000Y-6925000D02*
X8725000Y-6925000D01*
X8775000Y-6900000D02*
X8775000Y-6950000D01*
X8750000Y-6925000D02*
X8800000Y-6925000D01*
X8775000Y-6900000D02*
X8775000Y-6950000D01*
X8750000Y-6925000D02*
X8800000Y-6925000D01*
X8850000Y-6900000D02*
X8850000Y-6950000D01*
X8825000Y-6925000D02*
X8875000Y-6925000D01*
X8925000Y-6900000D02*
X8925000Y-6950000D01*
X8900000Y-6925000D02*
X8950000Y-6925000D01*
X9000000Y-6900000D02*
X9000000Y-6950000D01*
X8975000Y-6925000D02*
X9025000Y-6925000D01*
X9075000Y-6900000D02*
X9075000Y-6950000D01*
X9050000Y-6925000D02*
X9100000Y-6925000D01*
X9075000Y-7025000D02*
X9075000Y-7075000D01*
X9050000Y-7050000D02*
X9100000Y-7050000D01*
X9150000Y-6900000D02*
X9150000Y-6950000D01*
X9125000Y-6925000D02*
X9175000Y-6925000D01*
X9225000Y-6900000D02*
X9225000Y-6950000D01*
X9200000Y-6925000D02*
X9250000Y-6925000D01*
X9300000Y-6900000D02*
X9300000Y-6950000D01*
X9275000Y-6925000D02*
X9325000Y-6925000D01*
X9350000Y-8050000D02*
X9350000Y-8100000D01*
X9325000Y-8075000D02*
X9375000Y-8075000D01*
X9375000Y-6900000D02*
X9375000Y-6950000D01*
X9350000Y-6925000D02*
X9400000Y-6925000D01*
X9425000Y-8050000D02*
X9425000Y-8100000D01*
X9400000Y-8075000D02*
X9450000Y-8075000D01*
X9425000Y-8050000D02*
X9425000Y-8100000D01*
X9400000Y-8075000D02*
X9450000Y-8075000D01*
X9450000Y-6900000D02*
X9450000Y-6950000D01*
X9425000Y-6925000D02*
X9475000Y-6925000D01*
X9500000Y-8050000D02*
X9500000Y-8100000D01*
X9475000Y-8075000D02*
X9525000Y-8075000D01*
X9525000Y-6900000D02*
X9525000Y-6950000D01*
X9500000Y-6925000D02*
X9550000Y-6925000D01*
X9575000Y-8050000D02*
X9575000Y-8100000D01*
X9550000Y-8075000D02*
X9600000Y-8075000D01*
X9600000Y-6900000D02*
X9600000Y-6950000D01*
X9575000Y-6925000D02*
X9625000Y-6925000D01*
X9650000Y-8050000D02*
X9650000Y-8100000D01*
X9625000Y-8075000D02*
X9675000Y-8075000D01*
X9675000Y-6900000D02*
X9675000Y-6950000D01*
X9650000Y-6925000D02*
X9700000Y-6925000D01*
X9725000Y-8050000D02*
X9725000Y-8100000D01*
X9700000Y-8075000D02*
X9750000Y-8075000D01*
X9750000Y-6900000D02*
X9750000Y-6950000D01*
X9725000Y-6925000D02*
X9775000Y-6925000D01*
X9800000Y-8050000D02*
X9800000Y-8100000D01*
X9775000Y-8075000D02*
X9825000Y-8075000D01*
X9850000Y-6900000D02*
X9850000Y-6950000D01*
X9825000Y-6925000D02*
X9875000Y-6925000D01*
X9875000Y-8050000D02*
X9875000Y-8100000D01*
X9850000Y-8075000D02*
X9900000Y-8075000D01*
X9925000Y-6900000D02*
X9925000Y-6950000D01*
X9900000Y-6925000D02*
X9950000Y-6925000D01*
X10000000Y-6900000D02*
X10000000Y-6950000D01*
X9975000Y-6925000D02*
X10025000Y-6925000D01*
X10075000Y-6900000D02*
X10075000Y-6950000D01*
X10050000Y-6925000D02*
X10100000Y-6925000D01*
X10100000Y-8050000D02*
X10100000Y-8100000D01*
X10075000Y-8075000D02*
X10125000Y-8075000D01*
X10150000Y-6900000D02*
X10150000Y-6950000D01*
X10125000Y-6925000D02*
X10175000Y-6925000D01*
X10175000Y-8050000D02*
X10175000Y-8100000D01*
X10150000Y-8075000D02*
X10200000Y-8075000D01*
X10175000Y-8050000D02*
X10175000Y-8100000D01*
X10150000Y-8075000D02*
X10200000Y-8075000D01*
X10250000Y-6900000D02*
X10250000Y-6950000D01*
X10225000Y-6925000D02*
X10275000Y-6925000D01*
X10250000Y-8050000D02*
X10250000Y-8100000D01*
X10225000Y-8075000D02*
X10275000Y-8075000D01*
X10325000Y-6900000D02*
X10325000Y-6950000D01*
X10300000Y-6925000D02*
X10350000Y-6925000D01*
X10325000Y-8050000D02*
X10325000Y-8100000D01*
X10300000Y-8075000D02*
X10350000Y-8075000D01*
X10400000Y-6900000D02*
X10400000Y-6950000D01*
X10375000Y-6925000D02*
X10425000Y-6925000D01*
X10400000Y-8050000D02*
X10400000Y-8100000D01*
X10375000Y-8075000D02*
X10425000Y-8075000D01*
X10475000Y-6900000D02*
X10475000Y-6950000D01*
X10450000Y-6925000D02*
X10500000Y-6925000D01*
X10475000Y-8050000D02*
X10475000Y-8100000D01*
X10450000Y-8075000D02*
X10500000Y-8075000D01*
X10550000Y-6900000D02*
X10550000Y-6950000D01*
X10525000Y-6925000D02*
X10575000Y-6925000D01*
X10550000Y-8050000D02*
X10550000Y-8100000D01*
X10525000Y-8075000D02*
X10575000Y-8075000D01*
X10625000Y-6900000D02*
X10625000Y-6950000D01*
X10600000Y-6925000D02*
X10650000Y-6925000D01*
X10625000Y-8050000D02*
X10625000Y-8100000D01*
X10600000Y-8075000D02*
X10650000Y-8075000D01*
X10625000Y-8050000D02*
X10625000Y-8100000D01*
X10600000Y-8075000D02*
X10650000Y-8075000D01*
X10700000Y-6900000D02*
X10700000Y-6950000D01*
X10675000Y-6925000D02*
X10725000Y-6925000D01*
X10775000Y-6900000D02*
X10775000Y-6950000D01*
X10750000Y-6925000D02*
X10800000Y-6925000D01*
X10850000Y-6900000D02*
X10850000Y-6950000D01*
X10825000Y-6925000D02*
X10875000Y-6925000D01*
X10850000Y-7025000D02*
X10850000Y-7075000D01*
X10825000Y-7050000D02*
X10875000Y-7050000D01*
X10925000Y-6900000D02*
X10925000Y-6950000D01*
X10900000Y-6925000D02*
X10950000Y-6925000D01*
X10925000Y-6900000D02*
X10925000Y-6950000D01*
X10900000Y-6925000D02*
X10950000Y-6925000D01*
X11000000Y-6900000D02*
X11000000Y-6950000D01*
X10975000Y-6925000D02*
X11025000Y-6925000D01*
X11075000Y-6900000D02*
X11075000Y-6950000D01*
X11050000Y-6925000D02*
X11100000Y-6925000D01*
X11150000Y-6900000D02*
X11150000Y-6950000D01*
X11125000Y-6925000D02*
X11175000Y-6925000D01*
X11225000Y-6900000D02*
X11225000Y-6950000D01*
X11200000Y-6925000D02*
X11250000Y-6925000D01*
X11300000Y-6900000D02*
X11300000Y-6950000D01*
X11275000Y-6925000D02*
X11325000Y-6925000D01*
X11375000Y-6900000D02*
X11375000Y-6950000D01*
X11350000Y-6925000D02*
X11400000Y-6925000D01*
X11450000Y-6900000D02*
X11450000Y-6950000D01*
X11425000Y-6925000D02*
X11475000Y-6925000D01*
X11525000Y-6900000D02*
X11525000Y-6950000D01*
X11500000Y-6925000D02*
X11550000Y-6925000D01*
X11525000Y-6900000D02*
X11525000Y-6950000D01*
X11500000Y-6925000D02*
X11550000Y-6925000D01*
X13618713Y-9114213D02*
X13618713Y-9071787D01*
X13576287Y-9071787D01*
X13576287Y-9114213D01*
X13618713Y-9114213D01*
X13542500Y-9123000D02*
X13652500Y-9123000D01*
X13652500Y-9063000D02*
G75*
G02*
X13652500Y-9123000I0J-30000D01*
G01*
X13652500Y-9063000D02*
X13542500Y-9063000D01*
X13542500Y-9063000D02*
G75*
G03*
X13542500Y-9123000I0J-30000D01*
G01*
X13618713Y-9978213D02*
X13618713Y-9935787D01*
X13576287Y-9935787D01*
X13576287Y-9978213D01*
X13618713Y-9978213D01*
X13542500Y-9987000D02*
X13652500Y-9987000D01*
X13652500Y-9927000D02*
G75*
G02*
X13652500Y-9987000I0J-30000D01*
G01*
X13652500Y-9927000D02*
X13542500Y-9927000D01*
X13542500Y-9927000D02*
G75*
G03*
X13542500Y-9987000I0J-30000D01*
G01*
X14036713Y-9114213D02*
X14036713Y-9071787D01*
X13994287Y-9071787D01*
X13994287Y-9114213D01*
X14036713Y-9114213D01*
X13975500Y-9123000D02*
X14055500Y-9123000D01*
X14055500Y-9063000D02*
G75*
G02*
X14055500Y-9123000I0J-30000D01*
G01*
X14055500Y-9063000D02*
X13975500Y-9063000D01*
X13975500Y-9063000D02*
G75*
G03*
X13975500Y-9123000I0J-30000D01*
G01*
X14036713Y-9978213D02*
X14036713Y-9935787D01*
X13994287Y-9935787D01*
X13994287Y-9978213D01*
X14036713Y-9978213D01*
X13975500Y-9987000D02*
X14055500Y-9987000D01*
X14055500Y-9927000D02*
G75*
G02*
X14055500Y-9987000I0J-30000D01*
G01*
X14055500Y-9927000D02*
X13975500Y-9927000D01*
X13975500Y-9927000D02*
G75*
G03*
X13975500Y-9987000I0J-30000D01*
G01*
X7500000Y-6350000D02*
X7550000Y-6300000D01*
X7500000Y-6250000D01*
X7450000Y-6300000D01*
X7500000Y-6350000D01*
X7500000Y-8750000D02*
X7550000Y-8700000D01*
X7500000Y-8650000D01*
X7450000Y-8700000D01*
X7500000Y-8750000D01*
X7750000Y-6350000D02*
X7800000Y-6300000D01*
X7750000Y-6250000D01*
X7700000Y-6300000D01*
X7750000Y-6350000D01*
X7750000Y-8750000D02*
X7800000Y-8700000D01*
X7750000Y-8650000D01*
X7700000Y-8700000D01*
X7750000Y-8750000D01*
X8000000Y-6350000D02*
X8050000Y-6300000D01*
X8000000Y-6250000D01*
X7950000Y-6300000D01*
X8000000Y-6350000D01*
X8000000Y-8750000D02*
X8050000Y-8700000D01*
X8000000Y-8650000D01*
X7950000Y-8700000D01*
X8000000Y-8750000D01*
X8250000Y-6350000D02*
X8300000Y-6300000D01*
X8250000Y-6250000D01*
X8200000Y-6300000D01*
X8250000Y-6350000D01*
X8250000Y-8750000D02*
X8300000Y-8700000D01*
X8250000Y-8650000D01*
X8200000Y-8700000D01*
X8250000Y-8750000D01*
X8500000Y-6350000D02*
X8550000Y-6300000D01*
X8500000Y-6250000D01*
X8450000Y-6300000D01*
X8500000Y-6350000D01*
X8500000Y-8750000D02*
X8550000Y-8700000D01*
X8500000Y-8650000D01*
X8450000Y-8700000D01*
X8500000Y-8750000D01*
X8750000Y-8750000D02*
X8800000Y-8700000D01*
X8750000Y-8650000D01*
X8700000Y-8700000D01*
X8750000Y-8750000D01*
X9745500Y-10474750D02*
X9795500Y-10424750D01*
X9745500Y-10374750D01*
X9695500Y-10424750D01*
X9745500Y-10474750D01*
X9745500Y-10728750D02*
X9795500Y-10678750D01*
X9745500Y-10628750D01*
X9695500Y-10678750D01*
X9745500Y-10728750D01*
X9999500Y-10474750D02*
X10049500Y-10424750D01*
X9999500Y-10374750D01*
X9949500Y-10424750D01*
X9999500Y-10474750D01*
X9999500Y-10728750D02*
X10049500Y-10678750D01*
X9999500Y-10628750D01*
X9949500Y-10678750D01*
X9999500Y-10728750D01*
X10253500Y-10474750D02*
X10303500Y-10424750D01*
X10253500Y-10374750D01*
X10203500Y-10424750D01*
X10253500Y-10474750D01*
X10253500Y-10728750D02*
X10303500Y-10678750D01*
X10253500Y-10628750D01*
X10203500Y-10678750D01*
X10253500Y-10728750D01*
X11250000Y-8750000D02*
X11300000Y-8700000D01*
X11250000Y-8650000D01*
X11200000Y-8700000D01*
X11250000Y-8750000D01*
X11500000Y-6350000D02*
X11550000Y-6300000D01*
X11500000Y-6250000D01*
X11450000Y-6300000D01*
X11500000Y-6350000D01*
X11500000Y-8750000D02*
X11550000Y-8700000D01*
X11500000Y-8650000D01*
X11450000Y-8700000D01*
X11500000Y-8750000D01*
X11750000Y-6350000D02*
X11800000Y-6300000D01*
X11750000Y-6250000D01*
X11700000Y-6300000D01*
X11750000Y-6350000D01*
X11750000Y-8750000D02*
X11800000Y-8700000D01*
X11750000Y-8650000D01*
X11700000Y-8700000D01*
X11750000Y-8750000D01*
X12000000Y-6350000D02*
X12050000Y-6300000D01*
X12000000Y-6250000D01*
X11950000Y-6300000D01*
X12000000Y-6350000D01*
X12000000Y-8750000D02*
X12050000Y-8700000D01*
X12000000Y-8650000D01*
X11950000Y-8700000D01*
X12000000Y-8750000D01*
X12250000Y-6350000D02*
X12300000Y-6300000D01*
X12250000Y-6250000D01*
X12200000Y-6300000D01*
X12250000Y-6350000D01*
X12250000Y-8750000D02*
X12300000Y-8700000D01*
X12250000Y-8650000D01*
X12200000Y-8700000D01*
X12250000Y-8750000D01*
X12500000Y-6350000D02*
X12550000Y-6300000D01*
X12500000Y-6250000D01*
X12450000Y-6300000D01*
X12500000Y-6350000D01*
X12500000Y-8750000D02*
X12550000Y-8700000D01*
X12500000Y-8650000D01*
X12450000Y-8700000D01*
X12500000Y-8750000D01*
D13*
X5925000Y-6325000D02*
X6275000Y-6675000D01*
X6275000Y-6325000D02*
X5925000Y-6675000D01*
X6275000Y-6500000D02*
G75*
G02*
X5925000Y-6500000I-175000J0D01*
G01*
X5925000Y-6500000D02*
G75*
G02*
X6275000Y-6500000I175000J0D01*
G01*
X9025000Y-9625000D02*
X9375000Y-9975000D01*
X9375000Y-9625000D02*
X9025000Y-9975000D01*
X9375000Y-9800000D02*
G75*
G02*
X9025000Y-9800000I-175000J0D01*
G01*
X9025000Y-9800000D02*
G75*
G02*
X9375000Y-9800000I175000J0D01*
G01*
X12725000Y-9125000D02*
X13075000Y-9475000D01*
X13075000Y-9125000D02*
X12725000Y-9475000D01*
X13075000Y-9300000D02*
G75*
G02*
X12725000Y-9300000I-175000J0D01*
G01*
X12725000Y-9300000D02*
G75*
G02*
X13075000Y-9300000I175000J0D01*
G01*
X13725000Y-6325000D02*
X14075000Y-6675000D01*
X14075000Y-6325000D02*
X13725000Y-6675000D01*
X14075000Y-6500000D02*
G75*
G02*
X13725000Y-6500000I-175000J0D01*
G01*
X13725000Y-6500000D02*
G75*
G02*
X14075000Y-6500000I175000J0D01*
G01*
D12*
X5852777Y-11319484D02*
X5852777Y-11119484D01*
X5852777Y-11119484D02*
X5900396Y-11119484D01*
X5900396Y-11119484D02*
X5928967Y-11129008D01*
X5928967Y-11129008D02*
X5948015Y-11148055D01*
X5948015Y-11148055D02*
X5957539Y-11167103D01*
X5957539Y-11167103D02*
X5967062Y-11205198D01*
X5967062Y-11205198D02*
X5967062Y-11233769D01*
X5967062Y-11233769D02*
X5957539Y-11271865D01*
X5957539Y-11271865D02*
X5948015Y-11290912D01*
X5948015Y-11290912D02*
X5928967Y-11309960D01*
X5928967Y-11309960D02*
X5900396Y-11319484D01*
X5900396Y-11319484D02*
X5852777Y-11319484D01*
X6052777Y-11319484D02*
X6052777Y-11186150D01*
X6052777Y-11224246D02*
X6062301Y-11205198D01*
X6062301Y-11205198D02*
X6071824Y-11195674D01*
X6071824Y-11195674D02*
X6090872Y-11186150D01*
X6090872Y-11186150D02*
X6109920Y-11186150D01*
X6176586Y-11319484D02*
X6176586Y-11186150D01*
X6176586Y-11119484D02*
X6167062Y-11129008D01*
X6167062Y-11129008D02*
X6176586Y-11138531D01*
X6176586Y-11138531D02*
X6186110Y-11129008D01*
X6186110Y-11129008D02*
X6176586Y-11119484D01*
X6176586Y-11119484D02*
X6176586Y-11138531D01*
X6300396Y-11319484D02*
X6281348Y-11309960D01*
X6281348Y-11309960D02*
X6271824Y-11290912D01*
X6271824Y-11290912D02*
X6271824Y-11119484D01*
X6405158Y-11319484D02*
X6386110Y-11309960D01*
X6386110Y-11309960D02*
X6376586Y-11290912D01*
X6376586Y-11290912D02*
X6376586Y-11119484D01*
X6633729Y-11319484D02*
X6633729Y-11119484D01*
X6633729Y-11119484D02*
X6700396Y-11262341D01*
X6700396Y-11262341D02*
X6767062Y-11119484D01*
X6767062Y-11119484D02*
X6767062Y-11319484D01*
X6948015Y-11319484D02*
X6948015Y-11214722D01*
X6948015Y-11214722D02*
X6938491Y-11195674D01*
X6938491Y-11195674D02*
X6919443Y-11186150D01*
X6919443Y-11186150D02*
X6881348Y-11186150D01*
X6881348Y-11186150D02*
X6862301Y-11195674D01*
X6948015Y-11309960D02*
X6928967Y-11319484D01*
X6928967Y-11319484D02*
X6881348Y-11319484D01*
X6881348Y-11319484D02*
X6862301Y-11309960D01*
X6862301Y-11309960D02*
X6852777Y-11290912D01*
X6852777Y-11290912D02*
X6852777Y-11271865D01*
X6852777Y-11271865D02*
X6862301Y-11252817D01*
X6862301Y-11252817D02*
X6881348Y-11243293D01*
X6881348Y-11243293D02*
X6928967Y-11243293D01*
X6928967Y-11243293D02*
X6948015Y-11233769D01*
X7043253Y-11186150D02*
X7043253Y-11386150D01*
X7043253Y-11195674D02*
X7062301Y-11186150D01*
X7062301Y-11186150D02*
X7100396Y-11186150D01*
X7100396Y-11186150D02*
X7119443Y-11195674D01*
X7119443Y-11195674D02*
X7128967Y-11205198D01*
X7128967Y-11205198D02*
X7138491Y-11224246D01*
X7138491Y-11224246D02*
X7138491Y-11281388D01*
X7138491Y-11281388D02*
X7128967Y-11300436D01*
X7128967Y-11300436D02*
X7119443Y-11309960D01*
X7119443Y-11309960D02*
X7100396Y-11319484D01*
X7100396Y-11319484D02*
X7062301Y-11319484D01*
X7062301Y-11319484D02*
X7043253Y-11309960D01*
X7224205Y-11300436D02*
X7233729Y-11309960D01*
X7233729Y-11309960D02*
X7224205Y-11319484D01*
X7224205Y-11319484D02*
X7214682Y-11309960D01*
X7214682Y-11309960D02*
X7224205Y-11300436D01*
X7224205Y-11300436D02*
X7224205Y-11319484D01*
X7224205Y-11195674D02*
X7233729Y-11205198D01*
X7233729Y-11205198D02*
X7224205Y-11214722D01*
X7224205Y-11214722D02*
X7214682Y-11205198D01*
X7214682Y-11205198D02*
X7224205Y-11195674D01*
X7224205Y-11195674D02*
X7224205Y-11214722D01*
D11*
X5572000Y-11638000D02*
X5592000Y-11658000D01*
X5592000Y-11638000D02*
X5572000Y-11658000D01*
D12*
X5890872Y-11539484D02*
X5909920Y-11539484D01*
X5909920Y-11539484D02*
X5928967Y-11549008D01*
X5928967Y-11549008D02*
X5938491Y-11558531D01*
X5938491Y-11558531D02*
X5948015Y-11577579D01*
X5948015Y-11577579D02*
X5957539Y-11615674D01*
X5957539Y-11615674D02*
X5957539Y-11663293D01*
X5957539Y-11663293D02*
X5948015Y-11701388D01*
X5948015Y-11701388D02*
X5938491Y-11720436D01*
X5938491Y-11720436D02*
X5928967Y-11729960D01*
X5928967Y-11729960D02*
X5909920Y-11739484D01*
X5909920Y-11739484D02*
X5890872Y-11739484D01*
X5890872Y-11739484D02*
X5871824Y-11729960D01*
X5871824Y-11729960D02*
X5862301Y-11720436D01*
X5862301Y-11720436D02*
X5852777Y-11701388D01*
X5852777Y-11701388D02*
X5843253Y-11663293D01*
X5843253Y-11663293D02*
X5843253Y-11615674D01*
X5843253Y-11615674D02*
X5852777Y-11577579D01*
X5852777Y-11577579D02*
X5862301Y-11558531D01*
X5862301Y-11558531D02*
X5871824Y-11549008D01*
X5871824Y-11549008D02*
X5890872Y-11539484D01*
X6043253Y-11720436D02*
X6052777Y-11729960D01*
X6052777Y-11729960D02*
X6043253Y-11739484D01*
X6043253Y-11739484D02*
X6033729Y-11729960D01*
X6033729Y-11729960D02*
X6043253Y-11720436D01*
X6043253Y-11720436D02*
X6043253Y-11739484D01*
X6128967Y-11558531D02*
X6138491Y-11549008D01*
X6138491Y-11549008D02*
X6157539Y-11539484D01*
X6157539Y-11539484D02*
X6205158Y-11539484D01*
X6205158Y-11539484D02*
X6224205Y-11549008D01*
X6224205Y-11549008D02*
X6233729Y-11558531D01*
X6233729Y-11558531D02*
X6243253Y-11577579D01*
X6243253Y-11577579D02*
X6243253Y-11596627D01*
X6243253Y-11596627D02*
X6233729Y-11625198D01*
X6233729Y-11625198D02*
X6119443Y-11739484D01*
X6119443Y-11739484D02*
X6243253Y-11739484D01*
X6367062Y-11539484D02*
X6386110Y-11539484D01*
X6386110Y-11539484D02*
X6405158Y-11549008D01*
X6405158Y-11549008D02*
X6414682Y-11558531D01*
X6414682Y-11558531D02*
X6424205Y-11577579D01*
X6424205Y-11577579D02*
X6433729Y-11615674D01*
X6433729Y-11615674D02*
X6433729Y-11663293D01*
X6433729Y-11663293D02*
X6424205Y-11701388D01*
X6424205Y-11701388D02*
X6414682Y-11720436D01*
X6414682Y-11720436D02*
X6405158Y-11729960D01*
X6405158Y-11729960D02*
X6386110Y-11739484D01*
X6386110Y-11739484D02*
X6367062Y-11739484D01*
X6367062Y-11739484D02*
X6348015Y-11729960D01*
X6348015Y-11729960D02*
X6338491Y-11720436D01*
X6338491Y-11720436D02*
X6328967Y-11701388D01*
X6328967Y-11701388D02*
X6319443Y-11663293D01*
X6319443Y-11663293D02*
X6319443Y-11615674D01*
X6319443Y-11615674D02*
X6328967Y-11577579D01*
X6328967Y-11577579D02*
X6338491Y-11558531D01*
X6338491Y-11558531D02*
X6348015Y-11549008D01*
X6348015Y-11549008D02*
X6367062Y-11539484D01*
X6557539Y-11539484D02*
X6576586Y-11539484D01*
X6576586Y-11539484D02*
X6595634Y-11549008D01*
X6595634Y-11549008D02*
X6605158Y-11558531D01*
X6605158Y-11558531D02*
X6614682Y-11577579D01*
X6614682Y-11577579D02*
X6624205Y-11615674D01*
X6624205Y-11615674D02*
X6624205Y-11663293D01*
X6624205Y-11663293D02*
X6614682Y-11701388D01*
X6614682Y-11701388D02*
X6605158Y-11720436D01*
X6605158Y-11720436D02*
X6595634Y-11729960D01*
X6595634Y-11729960D02*
X6576586Y-11739484D01*
X6576586Y-11739484D02*
X6557539Y-11739484D01*
X6557539Y-11739484D02*
X6538491Y-11729960D01*
X6538491Y-11729960D02*
X6528967Y-11720436D01*
X6528967Y-11720436D02*
X6519443Y-11701388D01*
X6519443Y-11701388D02*
X6509920Y-11663293D01*
X6509920Y-11663293D02*
X6509920Y-11615674D01*
X6509920Y-11615674D02*
X6519443Y-11577579D01*
X6519443Y-11577579D02*
X6528967Y-11558531D01*
X6528967Y-11558531D02*
X6538491Y-11549008D01*
X6538491Y-11549008D02*
X6557539Y-11539484D01*
X6709920Y-11739484D02*
X6709920Y-11606150D01*
X6709920Y-11625198D02*
X6719443Y-11615674D01*
X6719443Y-11615674D02*
X6738491Y-11606150D01*
X6738491Y-11606150D02*
X6767063Y-11606150D01*
X6767063Y-11606150D02*
X6786110Y-11615674D01*
X6786110Y-11615674D02*
X6795634Y-11634722D01*
X6795634Y-11634722D02*
X6795634Y-11739484D01*
X6795634Y-11634722D02*
X6805158Y-11615674D01*
X6805158Y-11615674D02*
X6824205Y-11606150D01*
X6824205Y-11606150D02*
X6852777Y-11606150D01*
X6852777Y-11606150D02*
X6871824Y-11615674D01*
X6871824Y-11615674D02*
X6881348Y-11634722D01*
X6881348Y-11634722D02*
X6881348Y-11739484D01*
X6976586Y-11739484D02*
X6976586Y-11606150D01*
X6976586Y-11625198D02*
X6986110Y-11615674D01*
X6986110Y-11615674D02*
X7005158Y-11606150D01*
X7005158Y-11606150D02*
X7033729Y-11606150D01*
X7033729Y-11606150D02*
X7052777Y-11615674D01*
X7052777Y-11615674D02*
X7062301Y-11634722D01*
X7062301Y-11634722D02*
X7062301Y-11739484D01*
X7062301Y-11634722D02*
X7071824Y-11615674D01*
X7071824Y-11615674D02*
X7090872Y-11606150D01*
X7090872Y-11606150D02*
X7119443Y-11606150D01*
X7119443Y-11606150D02*
X7138491Y-11615674D01*
X7138491Y-11615674D02*
X7148015Y-11634722D01*
X7148015Y-11634722D02*
X7148015Y-11739484D01*
X7538491Y-11529960D02*
X7367063Y-11787103D01*
X7795634Y-11539484D02*
X7814682Y-11539484D01*
X7814682Y-11539484D02*
X7833729Y-11549008D01*
X7833729Y-11549008D02*
X7843253Y-11558531D01*
X7843253Y-11558531D02*
X7852777Y-11577579D01*
X7852777Y-11577579D02*
X7862301Y-11615674D01*
X7862301Y-11615674D02*
X7862301Y-11663293D01*
X7862301Y-11663293D02*
X7852777Y-11701388D01*
X7852777Y-11701388D02*
X7843253Y-11720436D01*
X7843253Y-11720436D02*
X7833729Y-11729960D01*
X7833729Y-11729960D02*
X7814682Y-11739484D01*
X7814682Y-11739484D02*
X7795634Y-11739484D01*
X7795634Y-11739484D02*
X7776586Y-11729960D01*
X7776586Y-11729960D02*
X7767063Y-11720436D01*
X7767063Y-11720436D02*
X7757539Y-11701388D01*
X7757539Y-11701388D02*
X7748015Y-11663293D01*
X7748015Y-11663293D02*
X7748015Y-11615674D01*
X7748015Y-11615674D02*
X7757539Y-11577579D01*
X7757539Y-11577579D02*
X7767063Y-11558531D01*
X7767063Y-11558531D02*
X7776586Y-11549008D01*
X7776586Y-11549008D02*
X7795634Y-11539484D01*
X7948015Y-11720436D02*
X7957539Y-11729960D01*
X7957539Y-11729960D02*
X7948015Y-11739484D01*
X7948015Y-11739484D02*
X7938491Y-11729960D01*
X7938491Y-11729960D02*
X7948015Y-11720436D01*
X7948015Y-11720436D02*
X7948015Y-11739484D01*
X8081348Y-11539484D02*
X8100396Y-11539484D01*
X8100396Y-11539484D02*
X8119444Y-11549008D01*
X8119444Y-11549008D02*
X8128967Y-11558531D01*
X8128967Y-11558531D02*
X8138491Y-11577579D01*
X8138491Y-11577579D02*
X8148015Y-11615674D01*
X8148015Y-11615674D02*
X8148015Y-11663293D01*
X8148015Y-11663293D02*
X8138491Y-11701388D01*
X8138491Y-11701388D02*
X8128967Y-11720436D01*
X8128967Y-11720436D02*
X8119444Y-11729960D01*
X8119444Y-11729960D02*
X8100396Y-11739484D01*
X8100396Y-11739484D02*
X8081348Y-11739484D01*
X8081348Y-11739484D02*
X8062301Y-11729960D01*
X8062301Y-11729960D02*
X8052777Y-11720436D01*
X8052777Y-11720436D02*
X8043253Y-11701388D01*
X8043253Y-11701388D02*
X8033729Y-11663293D01*
X8033729Y-11663293D02*
X8033729Y-11615674D01*
X8033729Y-11615674D02*
X8043253Y-11577579D01*
X8043253Y-11577579D02*
X8052777Y-11558531D01*
X8052777Y-11558531D02*
X8062301Y-11549008D01*
X8062301Y-11549008D02*
X8081348Y-11539484D01*
X8271825Y-11539484D02*
X8290872Y-11539484D01*
X8290872Y-11539484D02*
X8309920Y-11549008D01*
X8309920Y-11549008D02*
X8319444Y-11558531D01*
X8319444Y-11558531D02*
X8328967Y-11577579D01*
X8328967Y-11577579D02*
X8338491Y-11615674D01*
X8338491Y-11615674D02*
X8338491Y-11663293D01*
X8338491Y-11663293D02*
X8328967Y-11701388D01*
X8328967Y-11701388D02*
X8319444Y-11720436D01*
X8319444Y-11720436D02*
X8309920Y-11729960D01*
X8309920Y-11729960D02*
X8290872Y-11739484D01*
X8290872Y-11739484D02*
X8271825Y-11739484D01*
X8271825Y-11739484D02*
X8252777Y-11729960D01*
X8252777Y-11729960D02*
X8243253Y-11720436D01*
X8243253Y-11720436D02*
X8233729Y-11701388D01*
X8233729Y-11701388D02*
X8224206Y-11663293D01*
X8224206Y-11663293D02*
X8224206Y-11615674D01*
X8224206Y-11615674D02*
X8233729Y-11577579D01*
X8233729Y-11577579D02*
X8243253Y-11558531D01*
X8243253Y-11558531D02*
X8252777Y-11549008D01*
X8252777Y-11549008D02*
X8271825Y-11539484D01*
X8405158Y-11539484D02*
X8538491Y-11539484D01*
X8538491Y-11539484D02*
X8452777Y-11739484D01*
X8624206Y-11739484D02*
X8662301Y-11739484D01*
X8662301Y-11739484D02*
X8681349Y-11729960D01*
X8681349Y-11729960D02*
X8690872Y-11720436D01*
X8690872Y-11720436D02*
X8709920Y-11691865D01*
X8709920Y-11691865D02*
X8719444Y-11653769D01*
X8719444Y-11653769D02*
X8719444Y-11577579D01*
X8719444Y-11577579D02*
X8709920Y-11558531D01*
X8709920Y-11558531D02*
X8700396Y-11549008D01*
X8700396Y-11549008D02*
X8681349Y-11539484D01*
X8681349Y-11539484D02*
X8643253Y-11539484D01*
X8643253Y-11539484D02*
X8624206Y-11549008D01*
X8624206Y-11549008D02*
X8614682Y-11558531D01*
X8614682Y-11558531D02*
X8605158Y-11577579D01*
X8605158Y-11577579D02*
X8605158Y-11625198D01*
X8605158Y-11625198D02*
X8614682Y-11644246D01*
X8614682Y-11644246D02*
X8624206Y-11653769D01*
X8624206Y-11653769D02*
X8643253Y-11663293D01*
X8643253Y-11663293D02*
X8681349Y-11663293D01*
X8681349Y-11663293D02*
X8700396Y-11653769D01*
X8700396Y-11653769D02*
X8709920Y-11644246D01*
X8709920Y-11644246D02*
X8719444Y-11625198D01*
X8795634Y-11539484D02*
X8795634Y-11577579D01*
X8871825Y-11539484D02*
X8871825Y-11577579D01*
X9167063Y-11815674D02*
X9157539Y-11806150D01*
X9157539Y-11806150D02*
X9138491Y-11777579D01*
X9138491Y-11777579D02*
X9128968Y-11758531D01*
X9128968Y-11758531D02*
X9119444Y-11729960D01*
X9119444Y-11729960D02*
X9109920Y-11682341D01*
X9109920Y-11682341D02*
X9109920Y-11644246D01*
X9109920Y-11644246D02*
X9119444Y-11596627D01*
X9119444Y-11596627D02*
X9128968Y-11568055D01*
X9128968Y-11568055D02*
X9138491Y-11549008D01*
X9138491Y-11549008D02*
X9157539Y-11520436D01*
X9157539Y-11520436D02*
X9167063Y-11510912D01*
X9233730Y-11558531D02*
X9243253Y-11549008D01*
X9243253Y-11549008D02*
X9262301Y-11539484D01*
X9262301Y-11539484D02*
X9309920Y-11539484D01*
X9309920Y-11539484D02*
X9328968Y-11549008D01*
X9328968Y-11549008D02*
X9338491Y-11558531D01*
X9338491Y-11558531D02*
X9348015Y-11577579D01*
X9348015Y-11577579D02*
X9348015Y-11596627D01*
X9348015Y-11596627D02*
X9338491Y-11625198D01*
X9338491Y-11625198D02*
X9224206Y-11739484D01*
X9224206Y-11739484D02*
X9348015Y-11739484D01*
X9414682Y-11539484D02*
X9548015Y-11539484D01*
X9548015Y-11539484D02*
X9462301Y-11739484D01*
X9605158Y-11539484D02*
X9728968Y-11539484D01*
X9728968Y-11539484D02*
X9662301Y-11615674D01*
X9662301Y-11615674D02*
X9690872Y-11615674D01*
X9690872Y-11615674D02*
X9709920Y-11625198D01*
X9709920Y-11625198D02*
X9719444Y-11634722D01*
X9719444Y-11634722D02*
X9728968Y-11653769D01*
X9728968Y-11653769D02*
X9728968Y-11701388D01*
X9728968Y-11701388D02*
X9719444Y-11720436D01*
X9719444Y-11720436D02*
X9709920Y-11729960D01*
X9709920Y-11729960D02*
X9690872Y-11739484D01*
X9690872Y-11739484D02*
X9633730Y-11739484D01*
X9633730Y-11739484D02*
X9614682Y-11729960D01*
X9614682Y-11729960D02*
X9605158Y-11720436D01*
X9967063Y-11739484D02*
X9967063Y-11539484D01*
X10052777Y-11739484D02*
X10052777Y-11634722D01*
X10052777Y-11634722D02*
X10043253Y-11615674D01*
X10043253Y-11615674D02*
X10024206Y-11606150D01*
X10024206Y-11606150D02*
X9995634Y-11606150D01*
X9995634Y-11606150D02*
X9976587Y-11615674D01*
X9976587Y-11615674D02*
X9967063Y-11625198D01*
X10176587Y-11739484D02*
X10157539Y-11729960D01*
X10157539Y-11729960D02*
X10148015Y-11720436D01*
X10148015Y-11720436D02*
X10138492Y-11701388D01*
X10138492Y-11701388D02*
X10138492Y-11644246D01*
X10138492Y-11644246D02*
X10148015Y-11625198D01*
X10148015Y-11625198D02*
X10157539Y-11615674D01*
X10157539Y-11615674D02*
X10176587Y-11606150D01*
X10176587Y-11606150D02*
X10205158Y-11606150D01*
X10205158Y-11606150D02*
X10224206Y-11615674D01*
X10224206Y-11615674D02*
X10233730Y-11625198D01*
X10233730Y-11625198D02*
X10243253Y-11644246D01*
X10243253Y-11644246D02*
X10243253Y-11701388D01*
X10243253Y-11701388D02*
X10233730Y-11720436D01*
X10233730Y-11720436D02*
X10224206Y-11729960D01*
X10224206Y-11729960D02*
X10205158Y-11739484D01*
X10205158Y-11739484D02*
X10176587Y-11739484D01*
X10357539Y-11739484D02*
X10338492Y-11729960D01*
X10338492Y-11729960D02*
X10328968Y-11710912D01*
X10328968Y-11710912D02*
X10328968Y-11539484D01*
X10509920Y-11729960D02*
X10490873Y-11739484D01*
X10490873Y-11739484D02*
X10452777Y-11739484D01*
X10452777Y-11739484D02*
X10433730Y-11729960D01*
X10433730Y-11729960D02*
X10424206Y-11710912D01*
X10424206Y-11710912D02*
X10424206Y-11634722D01*
X10424206Y-11634722D02*
X10433730Y-11615674D01*
X10433730Y-11615674D02*
X10452777Y-11606150D01*
X10452777Y-11606150D02*
X10490873Y-11606150D01*
X10490873Y-11606150D02*
X10509920Y-11615674D01*
X10509920Y-11615674D02*
X10519444Y-11634722D01*
X10519444Y-11634722D02*
X10519444Y-11653769D01*
X10519444Y-11653769D02*
X10424206Y-11672817D01*
X10595634Y-11729960D02*
X10614682Y-11739484D01*
X10614682Y-11739484D02*
X10652777Y-11739484D01*
X10652777Y-11739484D02*
X10671825Y-11729960D01*
X10671825Y-11729960D02*
X10681349Y-11710912D01*
X10681349Y-11710912D02*
X10681349Y-11701388D01*
X10681349Y-11701388D02*
X10671825Y-11682341D01*
X10671825Y-11682341D02*
X10652777Y-11672817D01*
X10652777Y-11672817D02*
X10624206Y-11672817D01*
X10624206Y-11672817D02*
X10605158Y-11663293D01*
X10605158Y-11663293D02*
X10595634Y-11644246D01*
X10595634Y-11644246D02*
X10595634Y-11634722D01*
X10595634Y-11634722D02*
X10605158Y-11615674D01*
X10605158Y-11615674D02*
X10624206Y-11606150D01*
X10624206Y-11606150D02*
X10652777Y-11606150D01*
X10652777Y-11606150D02*
X10671825Y-11615674D01*
X10748015Y-11815674D02*
X10757539Y-11806150D01*
X10757539Y-11806150D02*
X10776587Y-11777579D01*
X10776587Y-11777579D02*
X10786111Y-11758531D01*
X10786111Y-11758531D02*
X10795634Y-11729960D01*
X10795634Y-11729960D02*
X10805158Y-11682341D01*
X10805158Y-11682341D02*
X10805158Y-11644246D01*
X10805158Y-11644246D02*
X10795634Y-11596627D01*
X10795634Y-11596627D02*
X10786111Y-11568055D01*
X10786111Y-11568055D02*
X10776587Y-11549008D01*
X10776587Y-11549008D02*
X10757539Y-11520436D01*
X10757539Y-11520436D02*
X10748015Y-11510912D01*
D11*
X5592000Y-11912000D02*
G75*
G02*
X5562000Y-11912000I-15000J0D01*
G01*
X5562000Y-11912000D02*
G75*
G02*
X5592000Y-11912000I15000J0D01*
G01*
D12*
X5890872Y-11803484D02*
X5909920Y-11803484D01*
X5909920Y-11803484D02*
X5928967Y-11813008D01*
X5928967Y-11813008D02*
X5938491Y-11822531D01*
X5938491Y-11822531D02*
X5948015Y-11841579D01*
X5948015Y-11841579D02*
X5957539Y-11879674D01*
X5957539Y-11879674D02*
X5957539Y-11927293D01*
X5957539Y-11927293D02*
X5948015Y-11965388D01*
X5948015Y-11965388D02*
X5938491Y-11984436D01*
X5938491Y-11984436D02*
X5928967Y-11993960D01*
X5928967Y-11993960D02*
X5909920Y-12003484D01*
X5909920Y-12003484D02*
X5890872Y-12003484D01*
X5890872Y-12003484D02*
X5871824Y-11993960D01*
X5871824Y-11993960D02*
X5862301Y-11984436D01*
X5862301Y-11984436D02*
X5852777Y-11965388D01*
X5852777Y-11965388D02*
X5843253Y-11927293D01*
X5843253Y-11927293D02*
X5843253Y-11879674D01*
X5843253Y-11879674D02*
X5852777Y-11841579D01*
X5852777Y-11841579D02*
X5862301Y-11822531D01*
X5862301Y-11822531D02*
X5871824Y-11813008D01*
X5871824Y-11813008D02*
X5890872Y-11803484D01*
X6043253Y-11984436D02*
X6052777Y-11993960D01*
X6052777Y-11993960D02*
X6043253Y-12003484D01*
X6043253Y-12003484D02*
X6033729Y-11993960D01*
X6033729Y-11993960D02*
X6043253Y-11984436D01*
X6043253Y-11984436D02*
X6043253Y-12003484D01*
X6119443Y-11803484D02*
X6243253Y-11803484D01*
X6243253Y-11803484D02*
X6176586Y-11879674D01*
X6176586Y-11879674D02*
X6205158Y-11879674D01*
X6205158Y-11879674D02*
X6224205Y-11889198D01*
X6224205Y-11889198D02*
X6233729Y-11898722D01*
X6233729Y-11898722D02*
X6243253Y-11917769D01*
X6243253Y-11917769D02*
X6243253Y-11965388D01*
X6243253Y-11965388D02*
X6233729Y-11984436D01*
X6233729Y-11984436D02*
X6224205Y-11993960D01*
X6224205Y-11993960D02*
X6205158Y-12003484D01*
X6205158Y-12003484D02*
X6148015Y-12003484D01*
X6148015Y-12003484D02*
X6128967Y-11993960D01*
X6128967Y-11993960D02*
X6119443Y-11984436D01*
X6367062Y-11803484D02*
X6386110Y-11803484D01*
X6386110Y-11803484D02*
X6405158Y-11813008D01*
X6405158Y-11813008D02*
X6414682Y-11822531D01*
X6414682Y-11822531D02*
X6424205Y-11841579D01*
X6424205Y-11841579D02*
X6433729Y-11879674D01*
X6433729Y-11879674D02*
X6433729Y-11927293D01*
X6433729Y-11927293D02*
X6424205Y-11965388D01*
X6424205Y-11965388D02*
X6414682Y-11984436D01*
X6414682Y-11984436D02*
X6405158Y-11993960D01*
X6405158Y-11993960D02*
X6386110Y-12003484D01*
X6386110Y-12003484D02*
X6367062Y-12003484D01*
X6367062Y-12003484D02*
X6348015Y-11993960D01*
X6348015Y-11993960D02*
X6338491Y-11984436D01*
X6338491Y-11984436D02*
X6328967Y-11965388D01*
X6328967Y-11965388D02*
X6319443Y-11927293D01*
X6319443Y-11927293D02*
X6319443Y-11879674D01*
X6319443Y-11879674D02*
X6328967Y-11841579D01*
X6328967Y-11841579D02*
X6338491Y-11822531D01*
X6338491Y-11822531D02*
X6348015Y-11813008D01*
X6348015Y-11813008D02*
X6367062Y-11803484D01*
X6557539Y-11803484D02*
X6576586Y-11803484D01*
X6576586Y-11803484D02*
X6595634Y-11813008D01*
X6595634Y-11813008D02*
X6605158Y-11822531D01*
X6605158Y-11822531D02*
X6614682Y-11841579D01*
X6614682Y-11841579D02*
X6624205Y-11879674D01*
X6624205Y-11879674D02*
X6624205Y-11927293D01*
X6624205Y-11927293D02*
X6614682Y-11965388D01*
X6614682Y-11965388D02*
X6605158Y-11984436D01*
X6605158Y-11984436D02*
X6595634Y-11993960D01*
X6595634Y-11993960D02*
X6576586Y-12003484D01*
X6576586Y-12003484D02*
X6557539Y-12003484D01*
X6557539Y-12003484D02*
X6538491Y-11993960D01*
X6538491Y-11993960D02*
X6528967Y-11984436D01*
X6528967Y-11984436D02*
X6519443Y-11965388D01*
X6519443Y-11965388D02*
X6509920Y-11927293D01*
X6509920Y-11927293D02*
X6509920Y-11879674D01*
X6509920Y-11879674D02*
X6519443Y-11841579D01*
X6519443Y-11841579D02*
X6528967Y-11822531D01*
X6528967Y-11822531D02*
X6538491Y-11813008D01*
X6538491Y-11813008D02*
X6557539Y-11803484D01*
X6709920Y-12003484D02*
X6709920Y-11870150D01*
X6709920Y-11889198D02*
X6719443Y-11879674D01*
X6719443Y-11879674D02*
X6738491Y-11870150D01*
X6738491Y-11870150D02*
X6767063Y-11870150D01*
X6767063Y-11870150D02*
X6786110Y-11879674D01*
X6786110Y-11879674D02*
X6795634Y-11898722D01*
X6795634Y-11898722D02*
X6795634Y-12003484D01*
X6795634Y-11898722D02*
X6805158Y-11879674D01*
X6805158Y-11879674D02*
X6824205Y-11870150D01*
X6824205Y-11870150D02*
X6852777Y-11870150D01*
X6852777Y-11870150D02*
X6871824Y-11879674D01*
X6871824Y-11879674D02*
X6881348Y-11898722D01*
X6881348Y-11898722D02*
X6881348Y-12003484D01*
X6976586Y-12003484D02*
X6976586Y-11870150D01*
X6976586Y-11889198D02*
X6986110Y-11879674D01*
X6986110Y-11879674D02*
X7005158Y-11870150D01*
X7005158Y-11870150D02*
X7033729Y-11870150D01*
X7033729Y-11870150D02*
X7052777Y-11879674D01*
X7052777Y-11879674D02*
X7062301Y-11898722D01*
X7062301Y-11898722D02*
X7062301Y-12003484D01*
X7062301Y-11898722D02*
X7071824Y-11879674D01*
X7071824Y-11879674D02*
X7090872Y-11870150D01*
X7090872Y-11870150D02*
X7119443Y-11870150D01*
X7119443Y-11870150D02*
X7138491Y-11879674D01*
X7138491Y-11879674D02*
X7148015Y-11898722D01*
X7148015Y-11898722D02*
X7148015Y-12003484D01*
X7538491Y-11793960D02*
X7367063Y-12051103D01*
X7795634Y-11803484D02*
X7814682Y-11803484D01*
X7814682Y-11803484D02*
X7833729Y-11813008D01*
X7833729Y-11813008D02*
X7843253Y-11822531D01*
X7843253Y-11822531D02*
X7852777Y-11841579D01*
X7852777Y-11841579D02*
X7862301Y-11879674D01*
X7862301Y-11879674D02*
X7862301Y-11927293D01*
X7862301Y-11927293D02*
X7852777Y-11965388D01*
X7852777Y-11965388D02*
X7843253Y-11984436D01*
X7843253Y-11984436D02*
X7833729Y-11993960D01*
X7833729Y-11993960D02*
X7814682Y-12003484D01*
X7814682Y-12003484D02*
X7795634Y-12003484D01*
X7795634Y-12003484D02*
X7776586Y-11993960D01*
X7776586Y-11993960D02*
X7767063Y-11984436D01*
X7767063Y-11984436D02*
X7757539Y-11965388D01*
X7757539Y-11965388D02*
X7748015Y-11927293D01*
X7748015Y-11927293D02*
X7748015Y-11879674D01*
X7748015Y-11879674D02*
X7757539Y-11841579D01*
X7757539Y-11841579D02*
X7767063Y-11822531D01*
X7767063Y-11822531D02*
X7776586Y-11813008D01*
X7776586Y-11813008D02*
X7795634Y-11803484D01*
X7948015Y-11984436D02*
X7957539Y-11993960D01*
X7957539Y-11993960D02*
X7948015Y-12003484D01*
X7948015Y-12003484D02*
X7938491Y-11993960D01*
X7938491Y-11993960D02*
X7948015Y-11984436D01*
X7948015Y-11984436D02*
X7948015Y-12003484D01*
X8081348Y-11803484D02*
X8100396Y-11803484D01*
X8100396Y-11803484D02*
X8119444Y-11813008D01*
X8119444Y-11813008D02*
X8128967Y-11822531D01*
X8128967Y-11822531D02*
X8138491Y-11841579D01*
X8138491Y-11841579D02*
X8148015Y-11879674D01*
X8148015Y-11879674D02*
X8148015Y-11927293D01*
X8148015Y-11927293D02*
X8138491Y-11965388D01*
X8138491Y-11965388D02*
X8128967Y-11984436D01*
X8128967Y-11984436D02*
X8119444Y-11993960D01*
X8119444Y-11993960D02*
X8100396Y-12003484D01*
X8100396Y-12003484D02*
X8081348Y-12003484D01*
X8081348Y-12003484D02*
X8062301Y-11993960D01*
X8062301Y-11993960D02*
X8052777Y-11984436D01*
X8052777Y-11984436D02*
X8043253Y-11965388D01*
X8043253Y-11965388D02*
X8033729Y-11927293D01*
X8033729Y-11927293D02*
X8033729Y-11879674D01*
X8033729Y-11879674D02*
X8043253Y-11841579D01*
X8043253Y-11841579D02*
X8052777Y-11822531D01*
X8052777Y-11822531D02*
X8062301Y-11813008D01*
X8062301Y-11813008D02*
X8081348Y-11803484D01*
X8338491Y-12003484D02*
X8224206Y-12003484D01*
X8281348Y-12003484D02*
X8281348Y-11803484D01*
X8281348Y-11803484D02*
X8262301Y-11832055D01*
X8262301Y-11832055D02*
X8243253Y-11851103D01*
X8243253Y-11851103D02*
X8224206Y-11860627D01*
X8528968Y-12003484D02*
X8414682Y-12003484D01*
X8471825Y-12003484D02*
X8471825Y-11803484D01*
X8471825Y-11803484D02*
X8452777Y-11832055D01*
X8452777Y-11832055D02*
X8433729Y-11851103D01*
X8433729Y-11851103D02*
X8414682Y-11860627D01*
X8643253Y-11889198D02*
X8624206Y-11879674D01*
X8624206Y-11879674D02*
X8614682Y-11870150D01*
X8614682Y-11870150D02*
X8605158Y-11851103D01*
X8605158Y-11851103D02*
X8605158Y-11841579D01*
X8605158Y-11841579D02*
X8614682Y-11822531D01*
X8614682Y-11822531D02*
X8624206Y-11813008D01*
X8624206Y-11813008D02*
X8643253Y-11803484D01*
X8643253Y-11803484D02*
X8681349Y-11803484D01*
X8681349Y-11803484D02*
X8700396Y-11813008D01*
X8700396Y-11813008D02*
X8709920Y-11822531D01*
X8709920Y-11822531D02*
X8719444Y-11841579D01*
X8719444Y-11841579D02*
X8719444Y-11851103D01*
X8719444Y-11851103D02*
X8709920Y-11870150D01*
X8709920Y-11870150D02*
X8700396Y-11879674D01*
X8700396Y-11879674D02*
X8681349Y-11889198D01*
X8681349Y-11889198D02*
X8643253Y-11889198D01*
X8643253Y-11889198D02*
X8624206Y-11898722D01*
X8624206Y-11898722D02*
X8614682Y-11908246D01*
X8614682Y-11908246D02*
X8605158Y-11927293D01*
X8605158Y-11927293D02*
X8605158Y-11965388D01*
X8605158Y-11965388D02*
X8614682Y-11984436D01*
X8614682Y-11984436D02*
X8624206Y-11993960D01*
X8624206Y-11993960D02*
X8643253Y-12003484D01*
X8643253Y-12003484D02*
X8681349Y-12003484D01*
X8681349Y-12003484D02*
X8700396Y-11993960D01*
X8700396Y-11993960D02*
X8709920Y-11984436D01*
X8709920Y-11984436D02*
X8719444Y-11965388D01*
X8719444Y-11965388D02*
X8719444Y-11927293D01*
X8719444Y-11927293D02*
X8709920Y-11908246D01*
X8709920Y-11908246D02*
X8700396Y-11898722D01*
X8700396Y-11898722D02*
X8681349Y-11889198D01*
X8795634Y-11803484D02*
X8795634Y-11841579D01*
X8871825Y-11803484D02*
X8871825Y-11841579D01*
X9167063Y-12079674D02*
X9157539Y-12070150D01*
X9157539Y-12070150D02*
X9138491Y-12041579D01*
X9138491Y-12041579D02*
X9128968Y-12022531D01*
X9128968Y-12022531D02*
X9119444Y-11993960D01*
X9119444Y-11993960D02*
X9109920Y-11946341D01*
X9109920Y-11946341D02*
X9109920Y-11908246D01*
X9109920Y-11908246D02*
X9119444Y-11860627D01*
X9119444Y-11860627D02*
X9128968Y-11832055D01*
X9128968Y-11832055D02*
X9138491Y-11813008D01*
X9138491Y-11813008D02*
X9157539Y-11784436D01*
X9157539Y-11784436D02*
X9167063Y-11774912D01*
X9348015Y-12003484D02*
X9233730Y-12003484D01*
X9290872Y-12003484D02*
X9290872Y-11803484D01*
X9290872Y-11803484D02*
X9271825Y-11832055D01*
X9271825Y-11832055D02*
X9252777Y-11851103D01*
X9252777Y-11851103D02*
X9233730Y-11860627D01*
X9586111Y-12003484D02*
X9586111Y-11803484D01*
X9671825Y-12003484D02*
X9671825Y-11898722D01*
X9671825Y-11898722D02*
X9662301Y-11879674D01*
X9662301Y-11879674D02*
X9643253Y-11870150D01*
X9643253Y-11870150D02*
X9614682Y-11870150D01*
X9614682Y-11870150D02*
X9595634Y-11879674D01*
X9595634Y-11879674D02*
X9586111Y-11889198D01*
X9795634Y-12003484D02*
X9776587Y-11993960D01*
X9776587Y-11993960D02*
X9767063Y-11984436D01*
X9767063Y-11984436D02*
X9757539Y-11965388D01*
X9757539Y-11965388D02*
X9757539Y-11908246D01*
X9757539Y-11908246D02*
X9767063Y-11889198D01*
X9767063Y-11889198D02*
X9776587Y-11879674D01*
X9776587Y-11879674D02*
X9795634Y-11870150D01*
X9795634Y-11870150D02*
X9824206Y-11870150D01*
X9824206Y-11870150D02*
X9843253Y-11879674D01*
X9843253Y-11879674D02*
X9852777Y-11889198D01*
X9852777Y-11889198D02*
X9862301Y-11908246D01*
X9862301Y-11908246D02*
X9862301Y-11965388D01*
X9862301Y-11965388D02*
X9852777Y-11984436D01*
X9852777Y-11984436D02*
X9843253Y-11993960D01*
X9843253Y-11993960D02*
X9824206Y-12003484D01*
X9824206Y-12003484D02*
X9795634Y-12003484D01*
X9976587Y-12003484D02*
X9957539Y-11993960D01*
X9957539Y-11993960D02*
X9948015Y-11974912D01*
X9948015Y-11974912D02*
X9948015Y-11803484D01*
X10128968Y-11993960D02*
X10109920Y-12003484D01*
X10109920Y-12003484D02*
X10071825Y-12003484D01*
X10071825Y-12003484D02*
X10052777Y-11993960D01*
X10052777Y-11993960D02*
X10043253Y-11974912D01*
X10043253Y-11974912D02*
X10043253Y-11898722D01*
X10043253Y-11898722D02*
X10052777Y-11879674D01*
X10052777Y-11879674D02*
X10071825Y-11870150D01*
X10071825Y-11870150D02*
X10109920Y-11870150D01*
X10109920Y-11870150D02*
X10128968Y-11879674D01*
X10128968Y-11879674D02*
X10138492Y-11898722D01*
X10138492Y-11898722D02*
X10138492Y-11917769D01*
X10138492Y-11917769D02*
X10043253Y-11936817D01*
X10205158Y-12079674D02*
X10214682Y-12070150D01*
X10214682Y-12070150D02*
X10233730Y-12041579D01*
X10233730Y-12041579D02*
X10243253Y-12022531D01*
X10243253Y-12022531D02*
X10252777Y-11993960D01*
X10252777Y-11993960D02*
X10262301Y-11946341D01*
X10262301Y-11946341D02*
X10262301Y-11908246D01*
X10262301Y-11908246D02*
X10252777Y-11860627D01*
X10252777Y-11860627D02*
X10243253Y-11832055D01*
X10243253Y-11832055D02*
X10233730Y-11813008D01*
X10233730Y-11813008D02*
X10214682Y-11784436D01*
X10214682Y-11784436D02*
X10205158Y-11774912D01*
D11*
X5567000Y-12151000D02*
X5567000Y-12201000D01*
X5542000Y-12176000D02*
X5592000Y-12176000D01*
D12*
X5890872Y-12067484D02*
X5909920Y-12067484D01*
X5909920Y-12067484D02*
X5928967Y-12077008D01*
X5928967Y-12077008D02*
X5938491Y-12086531D01*
X5938491Y-12086531D02*
X5948015Y-12105579D01*
X5948015Y-12105579D02*
X5957539Y-12143674D01*
X5957539Y-12143674D02*
X5957539Y-12191293D01*
X5957539Y-12191293D02*
X5948015Y-12229388D01*
X5948015Y-12229388D02*
X5938491Y-12248436D01*
X5938491Y-12248436D02*
X5928967Y-12257960D01*
X5928967Y-12257960D02*
X5909920Y-12267484D01*
X5909920Y-12267484D02*
X5890872Y-12267484D01*
X5890872Y-12267484D02*
X5871824Y-12257960D01*
X5871824Y-12257960D02*
X5862301Y-12248436D01*
X5862301Y-12248436D02*
X5852777Y-12229388D01*
X5852777Y-12229388D02*
X5843253Y-12191293D01*
X5843253Y-12191293D02*
X5843253Y-12143674D01*
X5843253Y-12143674D02*
X5852777Y-12105579D01*
X5852777Y-12105579D02*
X5862301Y-12086531D01*
X5862301Y-12086531D02*
X5871824Y-12077008D01*
X5871824Y-12077008D02*
X5890872Y-12067484D01*
X6043253Y-12248436D02*
X6052777Y-12257960D01*
X6052777Y-12257960D02*
X6043253Y-12267484D01*
X6043253Y-12267484D02*
X6033729Y-12257960D01*
X6033729Y-12257960D02*
X6043253Y-12248436D01*
X6043253Y-12248436D02*
X6043253Y-12267484D01*
X6233729Y-12067484D02*
X6138491Y-12067484D01*
X6138491Y-12067484D02*
X6128967Y-12162722D01*
X6128967Y-12162722D02*
X6138491Y-12153198D01*
X6138491Y-12153198D02*
X6157539Y-12143674D01*
X6157539Y-12143674D02*
X6205158Y-12143674D01*
X6205158Y-12143674D02*
X6224205Y-12153198D01*
X6224205Y-12153198D02*
X6233729Y-12162722D01*
X6233729Y-12162722D02*
X6243253Y-12181769D01*
X6243253Y-12181769D02*
X6243253Y-12229388D01*
X6243253Y-12229388D02*
X6233729Y-12248436D01*
X6233729Y-12248436D02*
X6224205Y-12257960D01*
X6224205Y-12257960D02*
X6205158Y-12267484D01*
X6205158Y-12267484D02*
X6157539Y-12267484D01*
X6157539Y-12267484D02*
X6138491Y-12257960D01*
X6138491Y-12257960D02*
X6128967Y-12248436D01*
X6367062Y-12067484D02*
X6386110Y-12067484D01*
X6386110Y-12067484D02*
X6405158Y-12077008D01*
X6405158Y-12077008D02*
X6414682Y-12086531D01*
X6414682Y-12086531D02*
X6424205Y-12105579D01*
X6424205Y-12105579D02*
X6433729Y-12143674D01*
X6433729Y-12143674D02*
X6433729Y-12191293D01*
X6433729Y-12191293D02*
X6424205Y-12229388D01*
X6424205Y-12229388D02*
X6414682Y-12248436D01*
X6414682Y-12248436D02*
X6405158Y-12257960D01*
X6405158Y-12257960D02*
X6386110Y-12267484D01*
X6386110Y-12267484D02*
X6367062Y-12267484D01*
X6367062Y-12267484D02*
X6348015Y-12257960D01*
X6348015Y-12257960D02*
X6338491Y-12248436D01*
X6338491Y-12248436D02*
X6328967Y-12229388D01*
X6328967Y-12229388D02*
X6319443Y-12191293D01*
X6319443Y-12191293D02*
X6319443Y-12143674D01*
X6319443Y-12143674D02*
X6328967Y-12105579D01*
X6328967Y-12105579D02*
X6338491Y-12086531D01*
X6338491Y-12086531D02*
X6348015Y-12077008D01*
X6348015Y-12077008D02*
X6367062Y-12067484D01*
X6557539Y-12067484D02*
X6576586Y-12067484D01*
X6576586Y-12067484D02*
X6595634Y-12077008D01*
X6595634Y-12077008D02*
X6605158Y-12086531D01*
X6605158Y-12086531D02*
X6614682Y-12105579D01*
X6614682Y-12105579D02*
X6624205Y-12143674D01*
X6624205Y-12143674D02*
X6624205Y-12191293D01*
X6624205Y-12191293D02*
X6614682Y-12229388D01*
X6614682Y-12229388D02*
X6605158Y-12248436D01*
X6605158Y-12248436D02*
X6595634Y-12257960D01*
X6595634Y-12257960D02*
X6576586Y-12267484D01*
X6576586Y-12267484D02*
X6557539Y-12267484D01*
X6557539Y-12267484D02*
X6538491Y-12257960D01*
X6538491Y-12257960D02*
X6528967Y-12248436D01*
X6528967Y-12248436D02*
X6519443Y-12229388D01*
X6519443Y-12229388D02*
X6509920Y-12191293D01*
X6509920Y-12191293D02*
X6509920Y-12143674D01*
X6509920Y-12143674D02*
X6519443Y-12105579D01*
X6519443Y-12105579D02*
X6528967Y-12086531D01*
X6528967Y-12086531D02*
X6538491Y-12077008D01*
X6538491Y-12077008D02*
X6557539Y-12067484D01*
X6709920Y-12267484D02*
X6709920Y-12134150D01*
X6709920Y-12153198D02*
X6719443Y-12143674D01*
X6719443Y-12143674D02*
X6738491Y-12134150D01*
X6738491Y-12134150D02*
X6767063Y-12134150D01*
X6767063Y-12134150D02*
X6786110Y-12143674D01*
X6786110Y-12143674D02*
X6795634Y-12162722D01*
X6795634Y-12162722D02*
X6795634Y-12267484D01*
X6795634Y-12162722D02*
X6805158Y-12143674D01*
X6805158Y-12143674D02*
X6824205Y-12134150D01*
X6824205Y-12134150D02*
X6852777Y-12134150D01*
X6852777Y-12134150D02*
X6871824Y-12143674D01*
X6871824Y-12143674D02*
X6881348Y-12162722D01*
X6881348Y-12162722D02*
X6881348Y-12267484D01*
X6976586Y-12267484D02*
X6976586Y-12134150D01*
X6976586Y-12153198D02*
X6986110Y-12143674D01*
X6986110Y-12143674D02*
X7005158Y-12134150D01*
X7005158Y-12134150D02*
X7033729Y-12134150D01*
X7033729Y-12134150D02*
X7052777Y-12143674D01*
X7052777Y-12143674D02*
X7062301Y-12162722D01*
X7062301Y-12162722D02*
X7062301Y-12267484D01*
X7062301Y-12162722D02*
X7071824Y-12143674D01*
X7071824Y-12143674D02*
X7090872Y-12134150D01*
X7090872Y-12134150D02*
X7119443Y-12134150D01*
X7119443Y-12134150D02*
X7138491Y-12143674D01*
X7138491Y-12143674D02*
X7148015Y-12162722D01*
X7148015Y-12162722D02*
X7148015Y-12267484D01*
X7538491Y-12057960D02*
X7367063Y-12315103D01*
X7795634Y-12067484D02*
X7814682Y-12067484D01*
X7814682Y-12067484D02*
X7833729Y-12077008D01*
X7833729Y-12077008D02*
X7843253Y-12086531D01*
X7843253Y-12086531D02*
X7852777Y-12105579D01*
X7852777Y-12105579D02*
X7862301Y-12143674D01*
X7862301Y-12143674D02*
X7862301Y-12191293D01*
X7862301Y-12191293D02*
X7852777Y-12229388D01*
X7852777Y-12229388D02*
X7843253Y-12248436D01*
X7843253Y-12248436D02*
X7833729Y-12257960D01*
X7833729Y-12257960D02*
X7814682Y-12267484D01*
X7814682Y-12267484D02*
X7795634Y-12267484D01*
X7795634Y-12267484D02*
X7776586Y-12257960D01*
X7776586Y-12257960D02*
X7767063Y-12248436D01*
X7767063Y-12248436D02*
X7757539Y-12229388D01*
X7757539Y-12229388D02*
X7748015Y-12191293D01*
X7748015Y-12191293D02*
X7748015Y-12143674D01*
X7748015Y-12143674D02*
X7757539Y-12105579D01*
X7757539Y-12105579D02*
X7767063Y-12086531D01*
X7767063Y-12086531D02*
X7776586Y-12077008D01*
X7776586Y-12077008D02*
X7795634Y-12067484D01*
X7948015Y-12248436D02*
X7957539Y-12257960D01*
X7957539Y-12257960D02*
X7948015Y-12267484D01*
X7948015Y-12267484D02*
X7938491Y-12257960D01*
X7938491Y-12257960D02*
X7948015Y-12248436D01*
X7948015Y-12248436D02*
X7948015Y-12267484D01*
X8081348Y-12067484D02*
X8100396Y-12067484D01*
X8100396Y-12067484D02*
X8119444Y-12077008D01*
X8119444Y-12077008D02*
X8128967Y-12086531D01*
X8128967Y-12086531D02*
X8138491Y-12105579D01*
X8138491Y-12105579D02*
X8148015Y-12143674D01*
X8148015Y-12143674D02*
X8148015Y-12191293D01*
X8148015Y-12191293D02*
X8138491Y-12229388D01*
X8138491Y-12229388D02*
X8128967Y-12248436D01*
X8128967Y-12248436D02*
X8119444Y-12257960D01*
X8119444Y-12257960D02*
X8100396Y-12267484D01*
X8100396Y-12267484D02*
X8081348Y-12267484D01*
X8081348Y-12267484D02*
X8062301Y-12257960D01*
X8062301Y-12257960D02*
X8052777Y-12248436D01*
X8052777Y-12248436D02*
X8043253Y-12229388D01*
X8043253Y-12229388D02*
X8033729Y-12191293D01*
X8033729Y-12191293D02*
X8033729Y-12143674D01*
X8033729Y-12143674D02*
X8043253Y-12105579D01*
X8043253Y-12105579D02*
X8052777Y-12086531D01*
X8052777Y-12086531D02*
X8062301Y-12077008D01*
X8062301Y-12077008D02*
X8081348Y-12067484D01*
X8338491Y-12267484D02*
X8224206Y-12267484D01*
X8281348Y-12267484D02*
X8281348Y-12067484D01*
X8281348Y-12067484D02*
X8262301Y-12096055D01*
X8262301Y-12096055D02*
X8243253Y-12115103D01*
X8243253Y-12115103D02*
X8224206Y-12124627D01*
X8433729Y-12267484D02*
X8471825Y-12267484D01*
X8471825Y-12267484D02*
X8490872Y-12257960D01*
X8490872Y-12257960D02*
X8500396Y-12248436D01*
X8500396Y-12248436D02*
X8519444Y-12219865D01*
X8519444Y-12219865D02*
X8528968Y-12181769D01*
X8528968Y-12181769D02*
X8528968Y-12105579D01*
X8528968Y-12105579D02*
X8519444Y-12086531D01*
X8519444Y-12086531D02*
X8509920Y-12077008D01*
X8509920Y-12077008D02*
X8490872Y-12067484D01*
X8490872Y-12067484D02*
X8452777Y-12067484D01*
X8452777Y-12067484D02*
X8433729Y-12077008D01*
X8433729Y-12077008D02*
X8424206Y-12086531D01*
X8424206Y-12086531D02*
X8414682Y-12105579D01*
X8414682Y-12105579D02*
X8414682Y-12153198D01*
X8414682Y-12153198D02*
X8424206Y-12172246D01*
X8424206Y-12172246D02*
X8433729Y-12181769D01*
X8433729Y-12181769D02*
X8452777Y-12191293D01*
X8452777Y-12191293D02*
X8490872Y-12191293D01*
X8490872Y-12191293D02*
X8509920Y-12181769D01*
X8509920Y-12181769D02*
X8519444Y-12172246D01*
X8519444Y-12172246D02*
X8528968Y-12153198D01*
X8595634Y-12067484D02*
X8728968Y-12067484D01*
X8728968Y-12067484D02*
X8643253Y-12267484D01*
X8795634Y-12067484D02*
X8795634Y-12105579D01*
X8871825Y-12067484D02*
X8871825Y-12105579D01*
X9167063Y-12343674D02*
X9157539Y-12334150D01*
X9157539Y-12334150D02*
X9138491Y-12305579D01*
X9138491Y-12305579D02*
X9128968Y-12286531D01*
X9128968Y-12286531D02*
X9119444Y-12257960D01*
X9119444Y-12257960D02*
X9109920Y-12210341D01*
X9109920Y-12210341D02*
X9109920Y-12172246D01*
X9109920Y-12172246D02*
X9119444Y-12124627D01*
X9119444Y-12124627D02*
X9128968Y-12096055D01*
X9128968Y-12096055D02*
X9138491Y-12077008D01*
X9138491Y-12077008D02*
X9157539Y-12048436D01*
X9157539Y-12048436D02*
X9167063Y-12038912D01*
X9328968Y-12067484D02*
X9290872Y-12067484D01*
X9290872Y-12067484D02*
X9271825Y-12077008D01*
X9271825Y-12077008D02*
X9262301Y-12086531D01*
X9262301Y-12086531D02*
X9243253Y-12115103D01*
X9243253Y-12115103D02*
X9233730Y-12153198D01*
X9233730Y-12153198D02*
X9233730Y-12229388D01*
X9233730Y-12229388D02*
X9243253Y-12248436D01*
X9243253Y-12248436D02*
X9252777Y-12257960D01*
X9252777Y-12257960D02*
X9271825Y-12267484D01*
X9271825Y-12267484D02*
X9309920Y-12267484D01*
X9309920Y-12267484D02*
X9328968Y-12257960D01*
X9328968Y-12257960D02*
X9338491Y-12248436D01*
X9338491Y-12248436D02*
X9348015Y-12229388D01*
X9348015Y-12229388D02*
X9348015Y-12181769D01*
X9348015Y-12181769D02*
X9338491Y-12162722D01*
X9338491Y-12162722D02*
X9328968Y-12153198D01*
X9328968Y-12153198D02*
X9309920Y-12143674D01*
X9309920Y-12143674D02*
X9271825Y-12143674D01*
X9271825Y-12143674D02*
X9252777Y-12153198D01*
X9252777Y-12153198D02*
X9243253Y-12162722D01*
X9243253Y-12162722D02*
X9233730Y-12181769D01*
X9414682Y-12067484D02*
X9548015Y-12067484D01*
X9548015Y-12067484D02*
X9462301Y-12267484D01*
X9776587Y-12267484D02*
X9776587Y-12067484D01*
X9862301Y-12267484D02*
X9862301Y-12162722D01*
X9862301Y-12162722D02*
X9852777Y-12143674D01*
X9852777Y-12143674D02*
X9833730Y-12134150D01*
X9833730Y-12134150D02*
X9805158Y-12134150D01*
X9805158Y-12134150D02*
X9786111Y-12143674D01*
X9786111Y-12143674D02*
X9776587Y-12153198D01*
X9986111Y-12267484D02*
X9967063Y-12257960D01*
X9967063Y-12257960D02*
X9957539Y-12248436D01*
X9957539Y-12248436D02*
X9948015Y-12229388D01*
X9948015Y-12229388D02*
X9948015Y-12172246D01*
X9948015Y-12172246D02*
X9957539Y-12153198D01*
X9957539Y-12153198D02*
X9967063Y-12143674D01*
X9967063Y-12143674D02*
X9986111Y-12134150D01*
X9986111Y-12134150D02*
X10014682Y-12134150D01*
X10014682Y-12134150D02*
X10033730Y-12143674D01*
X10033730Y-12143674D02*
X10043253Y-12153198D01*
X10043253Y-12153198D02*
X10052777Y-12172246D01*
X10052777Y-12172246D02*
X10052777Y-12229388D01*
X10052777Y-12229388D02*
X10043253Y-12248436D01*
X10043253Y-12248436D02*
X10033730Y-12257960D01*
X10033730Y-12257960D02*
X10014682Y-12267484D01*
X10014682Y-12267484D02*
X9986111Y-12267484D01*
X10167063Y-12267484D02*
X10148015Y-12257960D01*
X10148015Y-12257960D02*
X10138492Y-12238912D01*
X10138492Y-12238912D02*
X10138492Y-12067484D01*
X10319444Y-12257960D02*
X10300396Y-12267484D01*
X10300396Y-12267484D02*
X10262301Y-12267484D01*
X10262301Y-12267484D02*
X10243253Y-12257960D01*
X10243253Y-12257960D02*
X10233730Y-12238912D01*
X10233730Y-12238912D02*
X10233730Y-12162722D01*
X10233730Y-12162722D02*
X10243253Y-12143674D01*
X10243253Y-12143674D02*
X10262301Y-12134150D01*
X10262301Y-12134150D02*
X10300396Y-12134150D01*
X10300396Y-12134150D02*
X10319444Y-12143674D01*
X10319444Y-12143674D02*
X10328968Y-12162722D01*
X10328968Y-12162722D02*
X10328968Y-12181769D01*
X10328968Y-12181769D02*
X10233730Y-12200817D01*
X10405158Y-12257960D02*
X10424206Y-12267484D01*
X10424206Y-12267484D02*
X10462301Y-12267484D01*
X10462301Y-12267484D02*
X10481349Y-12257960D01*
X10481349Y-12257960D02*
X10490873Y-12238912D01*
X10490873Y-12238912D02*
X10490873Y-12229388D01*
X10490873Y-12229388D02*
X10481349Y-12210341D01*
X10481349Y-12210341D02*
X10462301Y-12200817D01*
X10462301Y-12200817D02*
X10433730Y-12200817D01*
X10433730Y-12200817D02*
X10414682Y-12191293D01*
X10414682Y-12191293D02*
X10405158Y-12172246D01*
X10405158Y-12172246D02*
X10405158Y-12162722D01*
X10405158Y-12162722D02*
X10414682Y-12143674D01*
X10414682Y-12143674D02*
X10433730Y-12134150D01*
X10433730Y-12134150D02*
X10462301Y-12134150D01*
X10462301Y-12134150D02*
X10481349Y-12143674D01*
X10557539Y-12343674D02*
X10567063Y-12334150D01*
X10567063Y-12334150D02*
X10586111Y-12305579D01*
X10586111Y-12305579D02*
X10595634Y-12286531D01*
X10595634Y-12286531D02*
X10605158Y-12257960D01*
X10605158Y-12257960D02*
X10614682Y-12210341D01*
X10614682Y-12210341D02*
X10614682Y-12172246D01*
X10614682Y-12172246D02*
X10605158Y-12124627D01*
X10605158Y-12124627D02*
X10595634Y-12096055D01*
X10595634Y-12096055D02*
X10586111Y-12077008D01*
X10586111Y-12077008D02*
X10567063Y-12048436D01*
X10567063Y-12048436D02*
X10557539Y-12038912D01*
D11*
X5583213Y-12461213D02*
X5583213Y-12418787D01*
X5540787Y-12418787D01*
X5540787Y-12461213D01*
X5583213Y-12461213D01*
D12*
X5890872Y-12331484D02*
X5909920Y-12331484D01*
X5909920Y-12331484D02*
X5928967Y-12341008D01*
X5928967Y-12341008D02*
X5938491Y-12350531D01*
X5938491Y-12350531D02*
X5948015Y-12369579D01*
X5948015Y-12369579D02*
X5957539Y-12407674D01*
X5957539Y-12407674D02*
X5957539Y-12455293D01*
X5957539Y-12455293D02*
X5948015Y-12493388D01*
X5948015Y-12493388D02*
X5938491Y-12512436D01*
X5938491Y-12512436D02*
X5928967Y-12521960D01*
X5928967Y-12521960D02*
X5909920Y-12531484D01*
X5909920Y-12531484D02*
X5890872Y-12531484D01*
X5890872Y-12531484D02*
X5871824Y-12521960D01*
X5871824Y-12521960D02*
X5862301Y-12512436D01*
X5862301Y-12512436D02*
X5852777Y-12493388D01*
X5852777Y-12493388D02*
X5843253Y-12455293D01*
X5843253Y-12455293D02*
X5843253Y-12407674D01*
X5843253Y-12407674D02*
X5852777Y-12369579D01*
X5852777Y-12369579D02*
X5862301Y-12350531D01*
X5862301Y-12350531D02*
X5871824Y-12341008D01*
X5871824Y-12341008D02*
X5890872Y-12331484D01*
X6043253Y-12512436D02*
X6052777Y-12521960D01*
X6052777Y-12521960D02*
X6043253Y-12531484D01*
X6043253Y-12531484D02*
X6033729Y-12521960D01*
X6033729Y-12521960D02*
X6043253Y-12512436D01*
X6043253Y-12512436D02*
X6043253Y-12531484D01*
X6224205Y-12331484D02*
X6186110Y-12331484D01*
X6186110Y-12331484D02*
X6167062Y-12341008D01*
X6167062Y-12341008D02*
X6157539Y-12350531D01*
X6157539Y-12350531D02*
X6138491Y-12379103D01*
X6138491Y-12379103D02*
X6128967Y-12417198D01*
X6128967Y-12417198D02*
X6128967Y-12493388D01*
X6128967Y-12493388D02*
X6138491Y-12512436D01*
X6138491Y-12512436D02*
X6148015Y-12521960D01*
X6148015Y-12521960D02*
X6167062Y-12531484D01*
X6167062Y-12531484D02*
X6205158Y-12531484D01*
X6205158Y-12531484D02*
X6224205Y-12521960D01*
X6224205Y-12521960D02*
X6233729Y-12512436D01*
X6233729Y-12512436D02*
X6243253Y-12493388D01*
X6243253Y-12493388D02*
X6243253Y-12445769D01*
X6243253Y-12445769D02*
X6233729Y-12426722D01*
X6233729Y-12426722D02*
X6224205Y-12417198D01*
X6224205Y-12417198D02*
X6205158Y-12407674D01*
X6205158Y-12407674D02*
X6167062Y-12407674D01*
X6167062Y-12407674D02*
X6148015Y-12417198D01*
X6148015Y-12417198D02*
X6138491Y-12426722D01*
X6138491Y-12426722D02*
X6128967Y-12445769D01*
X6367062Y-12331484D02*
X6386110Y-12331484D01*
X6386110Y-12331484D02*
X6405158Y-12341008D01*
X6405158Y-12341008D02*
X6414682Y-12350531D01*
X6414682Y-12350531D02*
X6424205Y-12369579D01*
X6424205Y-12369579D02*
X6433729Y-12407674D01*
X6433729Y-12407674D02*
X6433729Y-12455293D01*
X6433729Y-12455293D02*
X6424205Y-12493388D01*
X6424205Y-12493388D02*
X6414682Y-12512436D01*
X6414682Y-12512436D02*
X6405158Y-12521960D01*
X6405158Y-12521960D02*
X6386110Y-12531484D01*
X6386110Y-12531484D02*
X6367062Y-12531484D01*
X6367062Y-12531484D02*
X6348015Y-12521960D01*
X6348015Y-12521960D02*
X6338491Y-12512436D01*
X6338491Y-12512436D02*
X6328967Y-12493388D01*
X6328967Y-12493388D02*
X6319443Y-12455293D01*
X6319443Y-12455293D02*
X6319443Y-12407674D01*
X6319443Y-12407674D02*
X6328967Y-12369579D01*
X6328967Y-12369579D02*
X6338491Y-12350531D01*
X6338491Y-12350531D02*
X6348015Y-12341008D01*
X6348015Y-12341008D02*
X6367062Y-12331484D01*
X6557539Y-12331484D02*
X6576586Y-12331484D01*
X6576586Y-12331484D02*
X6595634Y-12341008D01*
X6595634Y-12341008D02*
X6605158Y-12350531D01*
X6605158Y-12350531D02*
X6614682Y-12369579D01*
X6614682Y-12369579D02*
X6624205Y-12407674D01*
X6624205Y-12407674D02*
X6624205Y-12455293D01*
X6624205Y-12455293D02*
X6614682Y-12493388D01*
X6614682Y-12493388D02*
X6605158Y-12512436D01*
X6605158Y-12512436D02*
X6595634Y-12521960D01*
X6595634Y-12521960D02*
X6576586Y-12531484D01*
X6576586Y-12531484D02*
X6557539Y-12531484D01*
X6557539Y-12531484D02*
X6538491Y-12521960D01*
X6538491Y-12521960D02*
X6528967Y-12512436D01*
X6528967Y-12512436D02*
X6519443Y-12493388D01*
X6519443Y-12493388D02*
X6509920Y-12455293D01*
X6509920Y-12455293D02*
X6509920Y-12407674D01*
X6509920Y-12407674D02*
X6519443Y-12369579D01*
X6519443Y-12369579D02*
X6528967Y-12350531D01*
X6528967Y-12350531D02*
X6538491Y-12341008D01*
X6538491Y-12341008D02*
X6557539Y-12331484D01*
X6709920Y-12531484D02*
X6709920Y-12398150D01*
X6709920Y-12417198D02*
X6719443Y-12407674D01*
X6719443Y-12407674D02*
X6738491Y-12398150D01*
X6738491Y-12398150D02*
X6767063Y-12398150D01*
X6767063Y-12398150D02*
X6786110Y-12407674D01*
X6786110Y-12407674D02*
X6795634Y-12426722D01*
X6795634Y-12426722D02*
X6795634Y-12531484D01*
X6795634Y-12426722D02*
X6805158Y-12407674D01*
X6805158Y-12407674D02*
X6824205Y-12398150D01*
X6824205Y-12398150D02*
X6852777Y-12398150D01*
X6852777Y-12398150D02*
X6871824Y-12407674D01*
X6871824Y-12407674D02*
X6881348Y-12426722D01*
X6881348Y-12426722D02*
X6881348Y-12531484D01*
X6976586Y-12531484D02*
X6976586Y-12398150D01*
X6976586Y-12417198D02*
X6986110Y-12407674D01*
X6986110Y-12407674D02*
X7005158Y-12398150D01*
X7005158Y-12398150D02*
X7033729Y-12398150D01*
X7033729Y-12398150D02*
X7052777Y-12407674D01*
X7052777Y-12407674D02*
X7062301Y-12426722D01*
X7062301Y-12426722D02*
X7062301Y-12531484D01*
X7062301Y-12426722D02*
X7071824Y-12407674D01*
X7071824Y-12407674D02*
X7090872Y-12398150D01*
X7090872Y-12398150D02*
X7119443Y-12398150D01*
X7119443Y-12398150D02*
X7138491Y-12407674D01*
X7138491Y-12407674D02*
X7148015Y-12426722D01*
X7148015Y-12426722D02*
X7148015Y-12531484D01*
X7538491Y-12321960D02*
X7367063Y-12579103D01*
X7795634Y-12331484D02*
X7814682Y-12331484D01*
X7814682Y-12331484D02*
X7833729Y-12341008D01*
X7833729Y-12341008D02*
X7843253Y-12350531D01*
X7843253Y-12350531D02*
X7852777Y-12369579D01*
X7852777Y-12369579D02*
X7862301Y-12407674D01*
X7862301Y-12407674D02*
X7862301Y-12455293D01*
X7862301Y-12455293D02*
X7852777Y-12493388D01*
X7852777Y-12493388D02*
X7843253Y-12512436D01*
X7843253Y-12512436D02*
X7833729Y-12521960D01*
X7833729Y-12521960D02*
X7814682Y-12531484D01*
X7814682Y-12531484D02*
X7795634Y-12531484D01*
X7795634Y-12531484D02*
X7776586Y-12521960D01*
X7776586Y-12521960D02*
X7767063Y-12512436D01*
X7767063Y-12512436D02*
X7757539Y-12493388D01*
X7757539Y-12493388D02*
X7748015Y-12455293D01*
X7748015Y-12455293D02*
X7748015Y-12407674D01*
X7748015Y-12407674D02*
X7757539Y-12369579D01*
X7757539Y-12369579D02*
X7767063Y-12350531D01*
X7767063Y-12350531D02*
X7776586Y-12341008D01*
X7776586Y-12341008D02*
X7795634Y-12331484D01*
X7948015Y-12512436D02*
X7957539Y-12521960D01*
X7957539Y-12521960D02*
X7948015Y-12531484D01*
X7948015Y-12531484D02*
X7938491Y-12521960D01*
X7938491Y-12521960D02*
X7948015Y-12512436D01*
X7948015Y-12512436D02*
X7948015Y-12531484D01*
X8081348Y-12331484D02*
X8100396Y-12331484D01*
X8100396Y-12331484D02*
X8119444Y-12341008D01*
X8119444Y-12341008D02*
X8128967Y-12350531D01*
X8128967Y-12350531D02*
X8138491Y-12369579D01*
X8138491Y-12369579D02*
X8148015Y-12407674D01*
X8148015Y-12407674D02*
X8148015Y-12455293D01*
X8148015Y-12455293D02*
X8138491Y-12493388D01*
X8138491Y-12493388D02*
X8128967Y-12512436D01*
X8128967Y-12512436D02*
X8119444Y-12521960D01*
X8119444Y-12521960D02*
X8100396Y-12531484D01*
X8100396Y-12531484D02*
X8081348Y-12531484D01*
X8081348Y-12531484D02*
X8062301Y-12521960D01*
X8062301Y-12521960D02*
X8052777Y-12512436D01*
X8052777Y-12512436D02*
X8043253Y-12493388D01*
X8043253Y-12493388D02*
X8033729Y-12455293D01*
X8033729Y-12455293D02*
X8033729Y-12407674D01*
X8033729Y-12407674D02*
X8043253Y-12369579D01*
X8043253Y-12369579D02*
X8052777Y-12350531D01*
X8052777Y-12350531D02*
X8062301Y-12341008D01*
X8062301Y-12341008D02*
X8081348Y-12331484D01*
X8224206Y-12350531D02*
X8233729Y-12341008D01*
X8233729Y-12341008D02*
X8252777Y-12331484D01*
X8252777Y-12331484D02*
X8300396Y-12331484D01*
X8300396Y-12331484D02*
X8319444Y-12341008D01*
X8319444Y-12341008D02*
X8328967Y-12350531D01*
X8328967Y-12350531D02*
X8338491Y-12369579D01*
X8338491Y-12369579D02*
X8338491Y-12388627D01*
X8338491Y-12388627D02*
X8328967Y-12417198D01*
X8328967Y-12417198D02*
X8214682Y-12531484D01*
X8214682Y-12531484D02*
X8338491Y-12531484D01*
X8405158Y-12331484D02*
X8528968Y-12331484D01*
X8528968Y-12331484D02*
X8462301Y-12407674D01*
X8462301Y-12407674D02*
X8490872Y-12407674D01*
X8490872Y-12407674D02*
X8509920Y-12417198D01*
X8509920Y-12417198D02*
X8519444Y-12426722D01*
X8519444Y-12426722D02*
X8528968Y-12445769D01*
X8528968Y-12445769D02*
X8528968Y-12493388D01*
X8528968Y-12493388D02*
X8519444Y-12512436D01*
X8519444Y-12512436D02*
X8509920Y-12521960D01*
X8509920Y-12521960D02*
X8490872Y-12531484D01*
X8490872Y-12531484D02*
X8433729Y-12531484D01*
X8433729Y-12531484D02*
X8414682Y-12521960D01*
X8414682Y-12521960D02*
X8405158Y-12512436D01*
X8700396Y-12331484D02*
X8662301Y-12331484D01*
X8662301Y-12331484D02*
X8643253Y-12341008D01*
X8643253Y-12341008D02*
X8633729Y-12350531D01*
X8633729Y-12350531D02*
X8614682Y-12379103D01*
X8614682Y-12379103D02*
X8605158Y-12417198D01*
X8605158Y-12417198D02*
X8605158Y-12493388D01*
X8605158Y-12493388D02*
X8614682Y-12512436D01*
X8614682Y-12512436D02*
X8624206Y-12521960D01*
X8624206Y-12521960D02*
X8643253Y-12531484D01*
X8643253Y-12531484D02*
X8681349Y-12531484D01*
X8681349Y-12531484D02*
X8700396Y-12521960D01*
X8700396Y-12521960D02*
X8709920Y-12512436D01*
X8709920Y-12512436D02*
X8719444Y-12493388D01*
X8719444Y-12493388D02*
X8719444Y-12445769D01*
X8719444Y-12445769D02*
X8709920Y-12426722D01*
X8709920Y-12426722D02*
X8700396Y-12417198D01*
X8700396Y-12417198D02*
X8681349Y-12407674D01*
X8681349Y-12407674D02*
X8643253Y-12407674D01*
X8643253Y-12407674D02*
X8624206Y-12417198D01*
X8624206Y-12417198D02*
X8614682Y-12426722D01*
X8614682Y-12426722D02*
X8605158Y-12445769D01*
X8795634Y-12331484D02*
X8795634Y-12369579D01*
X8871825Y-12331484D02*
X8871825Y-12369579D01*
X9167063Y-12607674D02*
X9157539Y-12598150D01*
X9157539Y-12598150D02*
X9138491Y-12569579D01*
X9138491Y-12569579D02*
X9128968Y-12550531D01*
X9128968Y-12550531D02*
X9119444Y-12521960D01*
X9119444Y-12521960D02*
X9109920Y-12474341D01*
X9109920Y-12474341D02*
X9109920Y-12436246D01*
X9109920Y-12436246D02*
X9119444Y-12388627D01*
X9119444Y-12388627D02*
X9128968Y-12360055D01*
X9128968Y-12360055D02*
X9138491Y-12341008D01*
X9138491Y-12341008D02*
X9157539Y-12312436D01*
X9157539Y-12312436D02*
X9167063Y-12302912D01*
X9281349Y-12331484D02*
X9300396Y-12331484D01*
X9300396Y-12331484D02*
X9319444Y-12341008D01*
X9319444Y-12341008D02*
X9328968Y-12350531D01*
X9328968Y-12350531D02*
X9338491Y-12369579D01*
X9338491Y-12369579D02*
X9348015Y-12407674D01*
X9348015Y-12407674D02*
X9348015Y-12455293D01*
X9348015Y-12455293D02*
X9338491Y-12493388D01*
X9338491Y-12493388D02*
X9328968Y-12512436D01*
X9328968Y-12512436D02*
X9319444Y-12521960D01*
X9319444Y-12521960D02*
X9300396Y-12531484D01*
X9300396Y-12531484D02*
X9281349Y-12531484D01*
X9281349Y-12531484D02*
X9262301Y-12521960D01*
X9262301Y-12521960D02*
X9252777Y-12512436D01*
X9252777Y-12512436D02*
X9243253Y-12493388D01*
X9243253Y-12493388D02*
X9233730Y-12455293D01*
X9233730Y-12455293D02*
X9233730Y-12407674D01*
X9233730Y-12407674D02*
X9243253Y-12369579D01*
X9243253Y-12369579D02*
X9252777Y-12350531D01*
X9252777Y-12350531D02*
X9262301Y-12341008D01*
X9262301Y-12341008D02*
X9281349Y-12331484D01*
X9586111Y-12531484D02*
X9586111Y-12331484D01*
X9671825Y-12531484D02*
X9671825Y-12426722D01*
X9671825Y-12426722D02*
X9662301Y-12407674D01*
X9662301Y-12407674D02*
X9643253Y-12398150D01*
X9643253Y-12398150D02*
X9614682Y-12398150D01*
X9614682Y-12398150D02*
X9595634Y-12407674D01*
X9595634Y-12407674D02*
X9586111Y-12417198D01*
X9795634Y-12531484D02*
X9776587Y-12521960D01*
X9776587Y-12521960D02*
X9767063Y-12512436D01*
X9767063Y-12512436D02*
X9757539Y-12493388D01*
X9757539Y-12493388D02*
X9757539Y-12436246D01*
X9757539Y-12436246D02*
X9767063Y-12417198D01*
X9767063Y-12417198D02*
X9776587Y-12407674D01*
X9776587Y-12407674D02*
X9795634Y-12398150D01*
X9795634Y-12398150D02*
X9824206Y-12398150D01*
X9824206Y-12398150D02*
X9843253Y-12407674D01*
X9843253Y-12407674D02*
X9852777Y-12417198D01*
X9852777Y-12417198D02*
X9862301Y-12436246D01*
X9862301Y-12436246D02*
X9862301Y-12493388D01*
X9862301Y-12493388D02*
X9852777Y-12512436D01*
X9852777Y-12512436D02*
X9843253Y-12521960D01*
X9843253Y-12521960D02*
X9824206Y-12531484D01*
X9824206Y-12531484D02*
X9795634Y-12531484D01*
X9976587Y-12531484D02*
X9957539Y-12521960D01*
X9957539Y-12521960D02*
X9948015Y-12502912D01*
X9948015Y-12502912D02*
X9948015Y-12331484D01*
X10128968Y-12521960D02*
X10109920Y-12531484D01*
X10109920Y-12531484D02*
X10071825Y-12531484D01*
X10071825Y-12531484D02*
X10052777Y-12521960D01*
X10052777Y-12521960D02*
X10043253Y-12502912D01*
X10043253Y-12502912D02*
X10043253Y-12426722D01*
X10043253Y-12426722D02*
X10052777Y-12407674D01*
X10052777Y-12407674D02*
X10071825Y-12398150D01*
X10071825Y-12398150D02*
X10109920Y-12398150D01*
X10109920Y-12398150D02*
X10128968Y-12407674D01*
X10128968Y-12407674D02*
X10138492Y-12426722D01*
X10138492Y-12426722D02*
X10138492Y-12445769D01*
X10138492Y-12445769D02*
X10043253Y-12464817D01*
X10214682Y-12521960D02*
X10233730Y-12531484D01*
X10233730Y-12531484D02*
X10271825Y-12531484D01*
X10271825Y-12531484D02*
X10290873Y-12521960D01*
X10290873Y-12521960D02*
X10300396Y-12502912D01*
X10300396Y-12502912D02*
X10300396Y-12493388D01*
X10300396Y-12493388D02*
X10290873Y-12474341D01*
X10290873Y-12474341D02*
X10271825Y-12464817D01*
X10271825Y-12464817D02*
X10243253Y-12464817D01*
X10243253Y-12464817D02*
X10224206Y-12455293D01*
X10224206Y-12455293D02*
X10214682Y-12436246D01*
X10214682Y-12436246D02*
X10214682Y-12426722D01*
X10214682Y-12426722D02*
X10224206Y-12407674D01*
X10224206Y-12407674D02*
X10243253Y-12398150D01*
X10243253Y-12398150D02*
X10271825Y-12398150D01*
X10271825Y-12398150D02*
X10290873Y-12407674D01*
X10538492Y-12455293D02*
X10690873Y-12455293D01*
X10614682Y-12531484D02*
X10614682Y-12379103D01*
X11024206Y-12398150D02*
X11024206Y-12531484D01*
X10976587Y-12321960D02*
X10928968Y-12464817D01*
X10928968Y-12464817D02*
X11052777Y-12464817D01*
X11271825Y-12521960D02*
X11290873Y-12531484D01*
X11290873Y-12531484D02*
X11328968Y-12531484D01*
X11328968Y-12531484D02*
X11348015Y-12521960D01*
X11348015Y-12521960D02*
X11357539Y-12502912D01*
X11357539Y-12502912D02*
X11357539Y-12493388D01*
X11357539Y-12493388D02*
X11348015Y-12474341D01*
X11348015Y-12474341D02*
X11328968Y-12464817D01*
X11328968Y-12464817D02*
X11300396Y-12464817D01*
X11300396Y-12464817D02*
X11281349Y-12455293D01*
X11281349Y-12455293D02*
X11271825Y-12436246D01*
X11271825Y-12436246D02*
X11271825Y-12426722D01*
X11271825Y-12426722D02*
X11281349Y-12407674D01*
X11281349Y-12407674D02*
X11300396Y-12398150D01*
X11300396Y-12398150D02*
X11328968Y-12398150D01*
X11328968Y-12398150D02*
X11348015Y-12407674D01*
X11471825Y-12531484D02*
X11452777Y-12521960D01*
X11452777Y-12521960D02*
X11443254Y-12502912D01*
X11443254Y-12502912D02*
X11443254Y-12331484D01*
X11576587Y-12531484D02*
X11557539Y-12521960D01*
X11557539Y-12521960D02*
X11548015Y-12512436D01*
X11548015Y-12512436D02*
X11538492Y-12493388D01*
X11538492Y-12493388D02*
X11538492Y-12436246D01*
X11538492Y-12436246D02*
X11548015Y-12417198D01*
X11548015Y-12417198D02*
X11557539Y-12407674D01*
X11557539Y-12407674D02*
X11576587Y-12398150D01*
X11576587Y-12398150D02*
X11605158Y-12398150D01*
X11605158Y-12398150D02*
X11624206Y-12407674D01*
X11624206Y-12407674D02*
X11633730Y-12417198D01*
X11633730Y-12417198D02*
X11643254Y-12436246D01*
X11643254Y-12436246D02*
X11643254Y-12493388D01*
X11643254Y-12493388D02*
X11633730Y-12512436D01*
X11633730Y-12512436D02*
X11624206Y-12521960D01*
X11624206Y-12521960D02*
X11605158Y-12531484D01*
X11605158Y-12531484D02*
X11576587Y-12531484D01*
X11700396Y-12398150D02*
X11776587Y-12398150D01*
X11728968Y-12331484D02*
X11728968Y-12502912D01*
X11728968Y-12502912D02*
X11738492Y-12521960D01*
X11738492Y-12521960D02*
X11757539Y-12531484D01*
X11757539Y-12531484D02*
X11776587Y-12531484D01*
X11833730Y-12521960D02*
X11852777Y-12531484D01*
X11852777Y-12531484D02*
X11890873Y-12531484D01*
X11890873Y-12531484D02*
X11909920Y-12521960D01*
X11909920Y-12521960D02*
X11919444Y-12502912D01*
X11919444Y-12502912D02*
X11919444Y-12493388D01*
X11919444Y-12493388D02*
X11909920Y-12474341D01*
X11909920Y-12474341D02*
X11890873Y-12464817D01*
X11890873Y-12464817D02*
X11862301Y-12464817D01*
X11862301Y-12464817D02*
X11843254Y-12455293D01*
X11843254Y-12455293D02*
X11833730Y-12436246D01*
X11833730Y-12436246D02*
X11833730Y-12426722D01*
X11833730Y-12426722D02*
X11843254Y-12407674D01*
X11843254Y-12407674D02*
X11862301Y-12398150D01*
X11862301Y-12398150D02*
X11890873Y-12398150D01*
X11890873Y-12398150D02*
X11909920Y-12407674D01*
X11986111Y-12607674D02*
X11995635Y-12598150D01*
X11995635Y-12598150D02*
X12014682Y-12569579D01*
X12014682Y-12569579D02*
X12024206Y-12550531D01*
X12024206Y-12550531D02*
X12033730Y-12521960D01*
X12033730Y-12521960D02*
X12043254Y-12474341D01*
X12043254Y-12474341D02*
X12043254Y-12436246D01*
X12043254Y-12436246D02*
X12033730Y-12388627D01*
X12033730Y-12388627D02*
X12024206Y-12360055D01*
X12024206Y-12360055D02*
X12014682Y-12341008D01*
X12014682Y-12341008D02*
X11995635Y-12312436D01*
X11995635Y-12312436D02*
X11986111Y-12302912D01*
D11*
X5542000Y-12754000D02*
X5592000Y-12704000D01*
X5542000Y-12654000D01*
X5492000Y-12704000D01*
X5542000Y-12754000D01*
D12*
X5957539Y-12795484D02*
X5843253Y-12795484D01*
X5900396Y-12795484D02*
X5900396Y-12595484D01*
X5900396Y-12595484D02*
X5881348Y-12624055D01*
X5881348Y-12624055D02*
X5862301Y-12643103D01*
X5862301Y-12643103D02*
X5843253Y-12652627D01*
X6043253Y-12776436D02*
X6052777Y-12785960D01*
X6052777Y-12785960D02*
X6043253Y-12795484D01*
X6043253Y-12795484D02*
X6033729Y-12785960D01*
X6033729Y-12785960D02*
X6043253Y-12776436D01*
X6043253Y-12776436D02*
X6043253Y-12795484D01*
X6176586Y-12595484D02*
X6195634Y-12595484D01*
X6195634Y-12595484D02*
X6214682Y-12605008D01*
X6214682Y-12605008D02*
X6224205Y-12614531D01*
X6224205Y-12614531D02*
X6233729Y-12633579D01*
X6233729Y-12633579D02*
X6243253Y-12671674D01*
X6243253Y-12671674D02*
X6243253Y-12719293D01*
X6243253Y-12719293D02*
X6233729Y-12757388D01*
X6233729Y-12757388D02*
X6224205Y-12776436D01*
X6224205Y-12776436D02*
X6214682Y-12785960D01*
X6214682Y-12785960D02*
X6195634Y-12795484D01*
X6195634Y-12795484D02*
X6176586Y-12795484D01*
X6176586Y-12795484D02*
X6157539Y-12785960D01*
X6157539Y-12785960D02*
X6148015Y-12776436D01*
X6148015Y-12776436D02*
X6138491Y-12757388D01*
X6138491Y-12757388D02*
X6128967Y-12719293D01*
X6128967Y-12719293D02*
X6128967Y-12671674D01*
X6128967Y-12671674D02*
X6138491Y-12633579D01*
X6138491Y-12633579D02*
X6148015Y-12614531D01*
X6148015Y-12614531D02*
X6157539Y-12605008D01*
X6157539Y-12605008D02*
X6176586Y-12595484D01*
X6367062Y-12595484D02*
X6386110Y-12595484D01*
X6386110Y-12595484D02*
X6405158Y-12605008D01*
X6405158Y-12605008D02*
X6414682Y-12614531D01*
X6414682Y-12614531D02*
X6424205Y-12633579D01*
X6424205Y-12633579D02*
X6433729Y-12671674D01*
X6433729Y-12671674D02*
X6433729Y-12719293D01*
X6433729Y-12719293D02*
X6424205Y-12757388D01*
X6424205Y-12757388D02*
X6414682Y-12776436D01*
X6414682Y-12776436D02*
X6405158Y-12785960D01*
X6405158Y-12785960D02*
X6386110Y-12795484D01*
X6386110Y-12795484D02*
X6367062Y-12795484D01*
X6367062Y-12795484D02*
X6348015Y-12785960D01*
X6348015Y-12785960D02*
X6338491Y-12776436D01*
X6338491Y-12776436D02*
X6328967Y-12757388D01*
X6328967Y-12757388D02*
X6319443Y-12719293D01*
X6319443Y-12719293D02*
X6319443Y-12671674D01*
X6319443Y-12671674D02*
X6328967Y-12633579D01*
X6328967Y-12633579D02*
X6338491Y-12614531D01*
X6338491Y-12614531D02*
X6348015Y-12605008D01*
X6348015Y-12605008D02*
X6367062Y-12595484D01*
X6557539Y-12595484D02*
X6576586Y-12595484D01*
X6576586Y-12595484D02*
X6595634Y-12605008D01*
X6595634Y-12605008D02*
X6605158Y-12614531D01*
X6605158Y-12614531D02*
X6614682Y-12633579D01*
X6614682Y-12633579D02*
X6624205Y-12671674D01*
X6624205Y-12671674D02*
X6624205Y-12719293D01*
X6624205Y-12719293D02*
X6614682Y-12757388D01*
X6614682Y-12757388D02*
X6605158Y-12776436D01*
X6605158Y-12776436D02*
X6595634Y-12785960D01*
X6595634Y-12785960D02*
X6576586Y-12795484D01*
X6576586Y-12795484D02*
X6557539Y-12795484D01*
X6557539Y-12795484D02*
X6538491Y-12785960D01*
X6538491Y-12785960D02*
X6528967Y-12776436D01*
X6528967Y-12776436D02*
X6519443Y-12757388D01*
X6519443Y-12757388D02*
X6509920Y-12719293D01*
X6509920Y-12719293D02*
X6509920Y-12671674D01*
X6509920Y-12671674D02*
X6519443Y-12633579D01*
X6519443Y-12633579D02*
X6528967Y-12614531D01*
X6528967Y-12614531D02*
X6538491Y-12605008D01*
X6538491Y-12605008D02*
X6557539Y-12595484D01*
X6709920Y-12795484D02*
X6709920Y-12662150D01*
X6709920Y-12681198D02*
X6719443Y-12671674D01*
X6719443Y-12671674D02*
X6738491Y-12662150D01*
X6738491Y-12662150D02*
X6767063Y-12662150D01*
X6767063Y-12662150D02*
X6786110Y-12671674D01*
X6786110Y-12671674D02*
X6795634Y-12690722D01*
X6795634Y-12690722D02*
X6795634Y-12795484D01*
X6795634Y-12690722D02*
X6805158Y-12671674D01*
X6805158Y-12671674D02*
X6824205Y-12662150D01*
X6824205Y-12662150D02*
X6852777Y-12662150D01*
X6852777Y-12662150D02*
X6871824Y-12671674D01*
X6871824Y-12671674D02*
X6881348Y-12690722D01*
X6881348Y-12690722D02*
X6881348Y-12795484D01*
X6976586Y-12795484D02*
X6976586Y-12662150D01*
X6976586Y-12681198D02*
X6986110Y-12671674D01*
X6986110Y-12671674D02*
X7005158Y-12662150D01*
X7005158Y-12662150D02*
X7033729Y-12662150D01*
X7033729Y-12662150D02*
X7052777Y-12671674D01*
X7052777Y-12671674D02*
X7062301Y-12690722D01*
X7062301Y-12690722D02*
X7062301Y-12795484D01*
X7062301Y-12690722D02*
X7071824Y-12671674D01*
X7071824Y-12671674D02*
X7090872Y-12662150D01*
X7090872Y-12662150D02*
X7119443Y-12662150D01*
X7119443Y-12662150D02*
X7138491Y-12671674D01*
X7138491Y-12671674D02*
X7148015Y-12690722D01*
X7148015Y-12690722D02*
X7148015Y-12795484D01*
X7538491Y-12585960D02*
X7367063Y-12843103D01*
X7795634Y-12595484D02*
X7814682Y-12595484D01*
X7814682Y-12595484D02*
X7833729Y-12605008D01*
X7833729Y-12605008D02*
X7843253Y-12614531D01*
X7843253Y-12614531D02*
X7852777Y-12633579D01*
X7852777Y-12633579D02*
X7862301Y-12671674D01*
X7862301Y-12671674D02*
X7862301Y-12719293D01*
X7862301Y-12719293D02*
X7852777Y-12757388D01*
X7852777Y-12757388D02*
X7843253Y-12776436D01*
X7843253Y-12776436D02*
X7833729Y-12785960D01*
X7833729Y-12785960D02*
X7814682Y-12795484D01*
X7814682Y-12795484D02*
X7795634Y-12795484D01*
X7795634Y-12795484D02*
X7776586Y-12785960D01*
X7776586Y-12785960D02*
X7767063Y-12776436D01*
X7767063Y-12776436D02*
X7757539Y-12757388D01*
X7757539Y-12757388D02*
X7748015Y-12719293D01*
X7748015Y-12719293D02*
X7748015Y-12671674D01*
X7748015Y-12671674D02*
X7757539Y-12633579D01*
X7757539Y-12633579D02*
X7767063Y-12614531D01*
X7767063Y-12614531D02*
X7776586Y-12605008D01*
X7776586Y-12605008D02*
X7795634Y-12595484D01*
X7948015Y-12776436D02*
X7957539Y-12785960D01*
X7957539Y-12785960D02*
X7948015Y-12795484D01*
X7948015Y-12795484D02*
X7938491Y-12785960D01*
X7938491Y-12785960D02*
X7948015Y-12776436D01*
X7948015Y-12776436D02*
X7948015Y-12795484D01*
X8081348Y-12595484D02*
X8100396Y-12595484D01*
X8100396Y-12595484D02*
X8119444Y-12605008D01*
X8119444Y-12605008D02*
X8128967Y-12614531D01*
X8128967Y-12614531D02*
X8138491Y-12633579D01*
X8138491Y-12633579D02*
X8148015Y-12671674D01*
X8148015Y-12671674D02*
X8148015Y-12719293D01*
X8148015Y-12719293D02*
X8138491Y-12757388D01*
X8138491Y-12757388D02*
X8128967Y-12776436D01*
X8128967Y-12776436D02*
X8119444Y-12785960D01*
X8119444Y-12785960D02*
X8100396Y-12795484D01*
X8100396Y-12795484D02*
X8081348Y-12795484D01*
X8081348Y-12795484D02*
X8062301Y-12785960D01*
X8062301Y-12785960D02*
X8052777Y-12776436D01*
X8052777Y-12776436D02*
X8043253Y-12757388D01*
X8043253Y-12757388D02*
X8033729Y-12719293D01*
X8033729Y-12719293D02*
X8033729Y-12671674D01*
X8033729Y-12671674D02*
X8043253Y-12633579D01*
X8043253Y-12633579D02*
X8052777Y-12614531D01*
X8052777Y-12614531D02*
X8062301Y-12605008D01*
X8062301Y-12605008D02*
X8081348Y-12595484D01*
X8214682Y-12595484D02*
X8338491Y-12595484D01*
X8338491Y-12595484D02*
X8271825Y-12671674D01*
X8271825Y-12671674D02*
X8300396Y-12671674D01*
X8300396Y-12671674D02*
X8319444Y-12681198D01*
X8319444Y-12681198D02*
X8328967Y-12690722D01*
X8328967Y-12690722D02*
X8338491Y-12709769D01*
X8338491Y-12709769D02*
X8338491Y-12757388D01*
X8338491Y-12757388D02*
X8328967Y-12776436D01*
X8328967Y-12776436D02*
X8319444Y-12785960D01*
X8319444Y-12785960D02*
X8300396Y-12795484D01*
X8300396Y-12795484D02*
X8243253Y-12795484D01*
X8243253Y-12795484D02*
X8224206Y-12785960D01*
X8224206Y-12785960D02*
X8214682Y-12776436D01*
X8433729Y-12795484D02*
X8471825Y-12795484D01*
X8471825Y-12795484D02*
X8490872Y-12785960D01*
X8490872Y-12785960D02*
X8500396Y-12776436D01*
X8500396Y-12776436D02*
X8519444Y-12747865D01*
X8519444Y-12747865D02*
X8528968Y-12709769D01*
X8528968Y-12709769D02*
X8528968Y-12633579D01*
X8528968Y-12633579D02*
X8519444Y-12614531D01*
X8519444Y-12614531D02*
X8509920Y-12605008D01*
X8509920Y-12605008D02*
X8490872Y-12595484D01*
X8490872Y-12595484D02*
X8452777Y-12595484D01*
X8452777Y-12595484D02*
X8433729Y-12605008D01*
X8433729Y-12605008D02*
X8424206Y-12614531D01*
X8424206Y-12614531D02*
X8414682Y-12633579D01*
X8414682Y-12633579D02*
X8414682Y-12681198D01*
X8414682Y-12681198D02*
X8424206Y-12700246D01*
X8424206Y-12700246D02*
X8433729Y-12709769D01*
X8433729Y-12709769D02*
X8452777Y-12719293D01*
X8452777Y-12719293D02*
X8490872Y-12719293D01*
X8490872Y-12719293D02*
X8509920Y-12709769D01*
X8509920Y-12709769D02*
X8519444Y-12700246D01*
X8519444Y-12700246D02*
X8528968Y-12681198D01*
X8700396Y-12662150D02*
X8700396Y-12795484D01*
X8652777Y-12585960D02*
X8605158Y-12728817D01*
X8605158Y-12728817D02*
X8728968Y-12728817D01*
X8795634Y-12595484D02*
X8795634Y-12633579D01*
X8871825Y-12595484D02*
X8871825Y-12633579D01*
X9167063Y-12871674D02*
X9157539Y-12862150D01*
X9157539Y-12862150D02*
X9138491Y-12833579D01*
X9138491Y-12833579D02*
X9128968Y-12814531D01*
X9128968Y-12814531D02*
X9119444Y-12785960D01*
X9119444Y-12785960D02*
X9109920Y-12738341D01*
X9109920Y-12738341D02*
X9109920Y-12700246D01*
X9109920Y-12700246D02*
X9119444Y-12652627D01*
X9119444Y-12652627D02*
X9128968Y-12624055D01*
X9128968Y-12624055D02*
X9138491Y-12605008D01*
X9138491Y-12605008D02*
X9157539Y-12576436D01*
X9157539Y-12576436D02*
X9167063Y-12566912D01*
X9233730Y-12614531D02*
X9243253Y-12605008D01*
X9243253Y-12605008D02*
X9262301Y-12595484D01*
X9262301Y-12595484D02*
X9309920Y-12595484D01*
X9309920Y-12595484D02*
X9328968Y-12605008D01*
X9328968Y-12605008D02*
X9338491Y-12614531D01*
X9338491Y-12614531D02*
X9348015Y-12633579D01*
X9348015Y-12633579D02*
X9348015Y-12652627D01*
X9348015Y-12652627D02*
X9338491Y-12681198D01*
X9338491Y-12681198D02*
X9224206Y-12795484D01*
X9224206Y-12795484D02*
X9348015Y-12795484D01*
X9462301Y-12681198D02*
X9443253Y-12671674D01*
X9443253Y-12671674D02*
X9433730Y-12662150D01*
X9433730Y-12662150D02*
X9424206Y-12643103D01*
X9424206Y-12643103D02*
X9424206Y-12633579D01*
X9424206Y-12633579D02*
X9433730Y-12614531D01*
X9433730Y-12614531D02*
X9443253Y-12605008D01*
X9443253Y-12605008D02*
X9462301Y-12595484D01*
X9462301Y-12595484D02*
X9500396Y-12595484D01*
X9500396Y-12595484D02*
X9519444Y-12605008D01*
X9519444Y-12605008D02*
X9528968Y-12614531D01*
X9528968Y-12614531D02*
X9538491Y-12633579D01*
X9538491Y-12633579D02*
X9538491Y-12643103D01*
X9538491Y-12643103D02*
X9528968Y-12662150D01*
X9528968Y-12662150D02*
X9519444Y-12671674D01*
X9519444Y-12671674D02*
X9500396Y-12681198D01*
X9500396Y-12681198D02*
X9462301Y-12681198D01*
X9462301Y-12681198D02*
X9443253Y-12690722D01*
X9443253Y-12690722D02*
X9433730Y-12700246D01*
X9433730Y-12700246D02*
X9424206Y-12719293D01*
X9424206Y-12719293D02*
X9424206Y-12757388D01*
X9424206Y-12757388D02*
X9433730Y-12776436D01*
X9433730Y-12776436D02*
X9443253Y-12785960D01*
X9443253Y-12785960D02*
X9462301Y-12795484D01*
X9462301Y-12795484D02*
X9500396Y-12795484D01*
X9500396Y-12795484D02*
X9519444Y-12785960D01*
X9519444Y-12785960D02*
X9528968Y-12776436D01*
X9528968Y-12776436D02*
X9538491Y-12757388D01*
X9538491Y-12757388D02*
X9538491Y-12719293D01*
X9538491Y-12719293D02*
X9528968Y-12700246D01*
X9528968Y-12700246D02*
X9519444Y-12690722D01*
X9519444Y-12690722D02*
X9500396Y-12681198D01*
X9776587Y-12795484D02*
X9776587Y-12595484D01*
X9862301Y-12795484D02*
X9862301Y-12690722D01*
X9862301Y-12690722D02*
X9852777Y-12671674D01*
X9852777Y-12671674D02*
X9833730Y-12662150D01*
X9833730Y-12662150D02*
X9805158Y-12662150D01*
X9805158Y-12662150D02*
X9786111Y-12671674D01*
X9786111Y-12671674D02*
X9776587Y-12681198D01*
X9986111Y-12795484D02*
X9967063Y-12785960D01*
X9967063Y-12785960D02*
X9957539Y-12776436D01*
X9957539Y-12776436D02*
X9948015Y-12757388D01*
X9948015Y-12757388D02*
X9948015Y-12700246D01*
X9948015Y-12700246D02*
X9957539Y-12681198D01*
X9957539Y-12681198D02*
X9967063Y-12671674D01*
X9967063Y-12671674D02*
X9986111Y-12662150D01*
X9986111Y-12662150D02*
X10014682Y-12662150D01*
X10014682Y-12662150D02*
X10033730Y-12671674D01*
X10033730Y-12671674D02*
X10043253Y-12681198D01*
X10043253Y-12681198D02*
X10052777Y-12700246D01*
X10052777Y-12700246D02*
X10052777Y-12757388D01*
X10052777Y-12757388D02*
X10043253Y-12776436D01*
X10043253Y-12776436D02*
X10033730Y-12785960D01*
X10033730Y-12785960D02*
X10014682Y-12795484D01*
X10014682Y-12795484D02*
X9986111Y-12795484D01*
X10167063Y-12795484D02*
X10148015Y-12785960D01*
X10148015Y-12785960D02*
X10138492Y-12766912D01*
X10138492Y-12766912D02*
X10138492Y-12595484D01*
X10319444Y-12785960D02*
X10300396Y-12795484D01*
X10300396Y-12795484D02*
X10262301Y-12795484D01*
X10262301Y-12795484D02*
X10243253Y-12785960D01*
X10243253Y-12785960D02*
X10233730Y-12766912D01*
X10233730Y-12766912D02*
X10233730Y-12690722D01*
X10233730Y-12690722D02*
X10243253Y-12671674D01*
X10243253Y-12671674D02*
X10262301Y-12662150D01*
X10262301Y-12662150D02*
X10300396Y-12662150D01*
X10300396Y-12662150D02*
X10319444Y-12671674D01*
X10319444Y-12671674D02*
X10328968Y-12690722D01*
X10328968Y-12690722D02*
X10328968Y-12709769D01*
X10328968Y-12709769D02*
X10233730Y-12728817D01*
X10405158Y-12785960D02*
X10424206Y-12795484D01*
X10424206Y-12795484D02*
X10462301Y-12795484D01*
X10462301Y-12795484D02*
X10481349Y-12785960D01*
X10481349Y-12785960D02*
X10490873Y-12766912D01*
X10490873Y-12766912D02*
X10490873Y-12757388D01*
X10490873Y-12757388D02*
X10481349Y-12738341D01*
X10481349Y-12738341D02*
X10462301Y-12728817D01*
X10462301Y-12728817D02*
X10433730Y-12728817D01*
X10433730Y-12728817D02*
X10414682Y-12719293D01*
X10414682Y-12719293D02*
X10405158Y-12700246D01*
X10405158Y-12700246D02*
X10405158Y-12690722D01*
X10405158Y-12690722D02*
X10414682Y-12671674D01*
X10414682Y-12671674D02*
X10433730Y-12662150D01*
X10433730Y-12662150D02*
X10462301Y-12662150D01*
X10462301Y-12662150D02*
X10481349Y-12671674D01*
X10557539Y-12871674D02*
X10567063Y-12862150D01*
X10567063Y-12862150D02*
X10586111Y-12833579D01*
X10586111Y-12833579D02*
X10595634Y-12814531D01*
X10595634Y-12814531D02*
X10605158Y-12785960D01*
X10605158Y-12785960D02*
X10614682Y-12738341D01*
X10614682Y-12738341D02*
X10614682Y-12700246D01*
X10614682Y-12700246D02*
X10605158Y-12652627D01*
X10605158Y-12652627D02*
X10595634Y-12624055D01*
X10595634Y-12624055D02*
X10586111Y-12605008D01*
X10586111Y-12605008D02*
X10567063Y-12576436D01*
X10567063Y-12576436D02*
X10557539Y-12566912D01*
X5392000Y-12868000D02*
X5592000Y-13068000D01*
X5592000Y-12868000D02*
X5392000Y-13068000D01*
X5592000Y-12968000D02*
G75*
G02*
X5392000Y-12968000I-100000J0D01*
G01*
X5392000Y-12968000D02*
G75*
G02*
X5592000Y-12968000I100000J0D01*
G01*
X5833729Y-12859484D02*
X5957539Y-12859484D01*
X5957539Y-12859484D02*
X5890872Y-12935674D01*
X5890872Y-12935674D02*
X5919443Y-12935674D01*
X5919443Y-12935674D02*
X5938491Y-12945198D01*
X5938491Y-12945198D02*
X5948015Y-12954722D01*
X5948015Y-12954722D02*
X5957539Y-12973769D01*
X5957539Y-12973769D02*
X5957539Y-13021388D01*
X5957539Y-13021388D02*
X5948015Y-13040436D01*
X5948015Y-13040436D02*
X5938491Y-13049960D01*
X5938491Y-13049960D02*
X5919443Y-13059484D01*
X5919443Y-13059484D02*
X5862301Y-13059484D01*
X5862301Y-13059484D02*
X5843253Y-13049960D01*
X5843253Y-13049960D02*
X5833729Y-13040436D01*
X6043253Y-13040436D02*
X6052777Y-13049960D01*
X6052777Y-13049960D02*
X6043253Y-13059484D01*
X6043253Y-13059484D02*
X6033729Y-13049960D01*
X6033729Y-13049960D02*
X6043253Y-13040436D01*
X6043253Y-13040436D02*
X6043253Y-13059484D01*
X6233729Y-12859484D02*
X6138491Y-12859484D01*
X6138491Y-12859484D02*
X6128967Y-12954722D01*
X6128967Y-12954722D02*
X6138491Y-12945198D01*
X6138491Y-12945198D02*
X6157539Y-12935674D01*
X6157539Y-12935674D02*
X6205158Y-12935674D01*
X6205158Y-12935674D02*
X6224205Y-12945198D01*
X6224205Y-12945198D02*
X6233729Y-12954722D01*
X6233729Y-12954722D02*
X6243253Y-12973769D01*
X6243253Y-12973769D02*
X6243253Y-13021388D01*
X6243253Y-13021388D02*
X6233729Y-13040436D01*
X6233729Y-13040436D02*
X6224205Y-13049960D01*
X6224205Y-13049960D02*
X6205158Y-13059484D01*
X6205158Y-13059484D02*
X6157539Y-13059484D01*
X6157539Y-13059484D02*
X6138491Y-13049960D01*
X6138491Y-13049960D02*
X6128967Y-13040436D01*
X6367062Y-12859484D02*
X6386110Y-12859484D01*
X6386110Y-12859484D02*
X6405158Y-12869008D01*
X6405158Y-12869008D02*
X6414682Y-12878531D01*
X6414682Y-12878531D02*
X6424205Y-12897579D01*
X6424205Y-12897579D02*
X6433729Y-12935674D01*
X6433729Y-12935674D02*
X6433729Y-12983293D01*
X6433729Y-12983293D02*
X6424205Y-13021388D01*
X6424205Y-13021388D02*
X6414682Y-13040436D01*
X6414682Y-13040436D02*
X6405158Y-13049960D01*
X6405158Y-13049960D02*
X6386110Y-13059484D01*
X6386110Y-13059484D02*
X6367062Y-13059484D01*
X6367062Y-13059484D02*
X6348015Y-13049960D01*
X6348015Y-13049960D02*
X6338491Y-13040436D01*
X6338491Y-13040436D02*
X6328967Y-13021388D01*
X6328967Y-13021388D02*
X6319443Y-12983293D01*
X6319443Y-12983293D02*
X6319443Y-12935674D01*
X6319443Y-12935674D02*
X6328967Y-12897579D01*
X6328967Y-12897579D02*
X6338491Y-12878531D01*
X6338491Y-12878531D02*
X6348015Y-12869008D01*
X6348015Y-12869008D02*
X6367062Y-12859484D01*
X6557539Y-12859484D02*
X6576586Y-12859484D01*
X6576586Y-12859484D02*
X6595634Y-12869008D01*
X6595634Y-12869008D02*
X6605158Y-12878531D01*
X6605158Y-12878531D02*
X6614682Y-12897579D01*
X6614682Y-12897579D02*
X6624205Y-12935674D01*
X6624205Y-12935674D02*
X6624205Y-12983293D01*
X6624205Y-12983293D02*
X6614682Y-13021388D01*
X6614682Y-13021388D02*
X6605158Y-13040436D01*
X6605158Y-13040436D02*
X6595634Y-13049960D01*
X6595634Y-13049960D02*
X6576586Y-13059484D01*
X6576586Y-13059484D02*
X6557539Y-13059484D01*
X6557539Y-13059484D02*
X6538491Y-13049960D01*
X6538491Y-13049960D02*
X6528967Y-13040436D01*
X6528967Y-13040436D02*
X6519443Y-13021388D01*
X6519443Y-13021388D02*
X6509920Y-12983293D01*
X6509920Y-12983293D02*
X6509920Y-12935674D01*
X6509920Y-12935674D02*
X6519443Y-12897579D01*
X6519443Y-12897579D02*
X6528967Y-12878531D01*
X6528967Y-12878531D02*
X6538491Y-12869008D01*
X6538491Y-12869008D02*
X6557539Y-12859484D01*
X6709920Y-13059484D02*
X6709920Y-12926150D01*
X6709920Y-12945198D02*
X6719443Y-12935674D01*
X6719443Y-12935674D02*
X6738491Y-12926150D01*
X6738491Y-12926150D02*
X6767063Y-12926150D01*
X6767063Y-12926150D02*
X6786110Y-12935674D01*
X6786110Y-12935674D02*
X6795634Y-12954722D01*
X6795634Y-12954722D02*
X6795634Y-13059484D01*
X6795634Y-12954722D02*
X6805158Y-12935674D01*
X6805158Y-12935674D02*
X6824205Y-12926150D01*
X6824205Y-12926150D02*
X6852777Y-12926150D01*
X6852777Y-12926150D02*
X6871824Y-12935674D01*
X6871824Y-12935674D02*
X6881348Y-12954722D01*
X6881348Y-12954722D02*
X6881348Y-13059484D01*
X6976586Y-13059484D02*
X6976586Y-12926150D01*
X6976586Y-12945198D02*
X6986110Y-12935674D01*
X6986110Y-12935674D02*
X7005158Y-12926150D01*
X7005158Y-12926150D02*
X7033729Y-12926150D01*
X7033729Y-12926150D02*
X7052777Y-12935674D01*
X7052777Y-12935674D02*
X7062301Y-12954722D01*
X7062301Y-12954722D02*
X7062301Y-13059484D01*
X7062301Y-12954722D02*
X7071824Y-12935674D01*
X7071824Y-12935674D02*
X7090872Y-12926150D01*
X7090872Y-12926150D02*
X7119443Y-12926150D01*
X7119443Y-12926150D02*
X7138491Y-12935674D01*
X7138491Y-12935674D02*
X7148015Y-12954722D01*
X7148015Y-12954722D02*
X7148015Y-13059484D01*
X7538491Y-12849960D02*
X7367063Y-13107103D01*
X7795634Y-12859484D02*
X7814682Y-12859484D01*
X7814682Y-12859484D02*
X7833729Y-12869008D01*
X7833729Y-12869008D02*
X7843253Y-12878531D01*
X7843253Y-12878531D02*
X7852777Y-12897579D01*
X7852777Y-12897579D02*
X7862301Y-12935674D01*
X7862301Y-12935674D02*
X7862301Y-12983293D01*
X7862301Y-12983293D02*
X7852777Y-13021388D01*
X7852777Y-13021388D02*
X7843253Y-13040436D01*
X7843253Y-13040436D02*
X7833729Y-13049960D01*
X7833729Y-13049960D02*
X7814682Y-13059484D01*
X7814682Y-13059484D02*
X7795634Y-13059484D01*
X7795634Y-13059484D02*
X7776586Y-13049960D01*
X7776586Y-13049960D02*
X7767063Y-13040436D01*
X7767063Y-13040436D02*
X7757539Y-13021388D01*
X7757539Y-13021388D02*
X7748015Y-12983293D01*
X7748015Y-12983293D02*
X7748015Y-12935674D01*
X7748015Y-12935674D02*
X7757539Y-12897579D01*
X7757539Y-12897579D02*
X7767063Y-12878531D01*
X7767063Y-12878531D02*
X7776586Y-12869008D01*
X7776586Y-12869008D02*
X7795634Y-12859484D01*
X7948015Y-13040436D02*
X7957539Y-13049960D01*
X7957539Y-13049960D02*
X7948015Y-13059484D01*
X7948015Y-13059484D02*
X7938491Y-13049960D01*
X7938491Y-13049960D02*
X7948015Y-13040436D01*
X7948015Y-13040436D02*
X7948015Y-13059484D01*
X8148015Y-13059484D02*
X8033729Y-13059484D01*
X8090872Y-13059484D02*
X8090872Y-12859484D01*
X8090872Y-12859484D02*
X8071825Y-12888055D01*
X8071825Y-12888055D02*
X8052777Y-12907103D01*
X8052777Y-12907103D02*
X8033729Y-12916627D01*
X8214682Y-12859484D02*
X8338491Y-12859484D01*
X8338491Y-12859484D02*
X8271825Y-12935674D01*
X8271825Y-12935674D02*
X8300396Y-12935674D01*
X8300396Y-12935674D02*
X8319444Y-12945198D01*
X8319444Y-12945198D02*
X8328967Y-12954722D01*
X8328967Y-12954722D02*
X8338491Y-12973769D01*
X8338491Y-12973769D02*
X8338491Y-13021388D01*
X8338491Y-13021388D02*
X8328967Y-13040436D01*
X8328967Y-13040436D02*
X8319444Y-13049960D01*
X8319444Y-13049960D02*
X8300396Y-13059484D01*
X8300396Y-13059484D02*
X8243253Y-13059484D01*
X8243253Y-13059484D02*
X8224206Y-13049960D01*
X8224206Y-13049960D02*
X8214682Y-13040436D01*
X8405158Y-12859484D02*
X8538491Y-12859484D01*
X8538491Y-12859484D02*
X8452777Y-13059484D01*
X8643253Y-12945198D02*
X8624206Y-12935674D01*
X8624206Y-12935674D02*
X8614682Y-12926150D01*
X8614682Y-12926150D02*
X8605158Y-12907103D01*
X8605158Y-12907103D02*
X8605158Y-12897579D01*
X8605158Y-12897579D02*
X8614682Y-12878531D01*
X8614682Y-12878531D02*
X8624206Y-12869008D01*
X8624206Y-12869008D02*
X8643253Y-12859484D01*
X8643253Y-12859484D02*
X8681349Y-12859484D01*
X8681349Y-12859484D02*
X8700396Y-12869008D01*
X8700396Y-12869008D02*
X8709920Y-12878531D01*
X8709920Y-12878531D02*
X8719444Y-12897579D01*
X8719444Y-12897579D02*
X8719444Y-12907103D01*
X8719444Y-12907103D02*
X8709920Y-12926150D01*
X8709920Y-12926150D02*
X8700396Y-12935674D01*
X8700396Y-12935674D02*
X8681349Y-12945198D01*
X8681349Y-12945198D02*
X8643253Y-12945198D01*
X8643253Y-12945198D02*
X8624206Y-12954722D01*
X8624206Y-12954722D02*
X8614682Y-12964246D01*
X8614682Y-12964246D02*
X8605158Y-12983293D01*
X8605158Y-12983293D02*
X8605158Y-13021388D01*
X8605158Y-13021388D02*
X8614682Y-13040436D01*
X8614682Y-13040436D02*
X8624206Y-13049960D01*
X8624206Y-13049960D02*
X8643253Y-13059484D01*
X8643253Y-13059484D02*
X8681349Y-13059484D01*
X8681349Y-13059484D02*
X8700396Y-13049960D01*
X8700396Y-13049960D02*
X8709920Y-13040436D01*
X8709920Y-13040436D02*
X8719444Y-13021388D01*
X8719444Y-13021388D02*
X8719444Y-12983293D01*
X8719444Y-12983293D02*
X8709920Y-12964246D01*
X8709920Y-12964246D02*
X8700396Y-12954722D01*
X8700396Y-12954722D02*
X8681349Y-12945198D01*
X8795634Y-12859484D02*
X8795634Y-12897579D01*
X8871825Y-12859484D02*
X8871825Y-12897579D01*
X9167063Y-13135674D02*
X9157539Y-13126150D01*
X9157539Y-13126150D02*
X9138491Y-13097579D01*
X9138491Y-13097579D02*
X9128968Y-13078531D01*
X9128968Y-13078531D02*
X9119444Y-13049960D01*
X9119444Y-13049960D02*
X9109920Y-13002341D01*
X9109920Y-13002341D02*
X9109920Y-12964246D01*
X9109920Y-12964246D02*
X9119444Y-12916627D01*
X9119444Y-12916627D02*
X9128968Y-12888055D01*
X9128968Y-12888055D02*
X9138491Y-12869008D01*
X9138491Y-12869008D02*
X9157539Y-12840436D01*
X9157539Y-12840436D02*
X9167063Y-12830912D01*
X9328968Y-12926150D02*
X9328968Y-13059484D01*
X9281349Y-12849960D02*
X9233730Y-12992817D01*
X9233730Y-12992817D02*
X9357539Y-12992817D01*
X9586111Y-13059484D02*
X9586111Y-12859484D01*
X9671825Y-13059484D02*
X9671825Y-12954722D01*
X9671825Y-12954722D02*
X9662301Y-12935674D01*
X9662301Y-12935674D02*
X9643253Y-12926150D01*
X9643253Y-12926150D02*
X9614682Y-12926150D01*
X9614682Y-12926150D02*
X9595634Y-12935674D01*
X9595634Y-12935674D02*
X9586111Y-12945198D01*
X9795634Y-13059484D02*
X9776587Y-13049960D01*
X9776587Y-13049960D02*
X9767063Y-13040436D01*
X9767063Y-13040436D02*
X9757539Y-13021388D01*
X9757539Y-13021388D02*
X9757539Y-12964246D01*
X9757539Y-12964246D02*
X9767063Y-12945198D01*
X9767063Y-12945198D02*
X9776587Y-12935674D01*
X9776587Y-12935674D02*
X9795634Y-12926150D01*
X9795634Y-12926150D02*
X9824206Y-12926150D01*
X9824206Y-12926150D02*
X9843253Y-12935674D01*
X9843253Y-12935674D02*
X9852777Y-12945198D01*
X9852777Y-12945198D02*
X9862301Y-12964246D01*
X9862301Y-12964246D02*
X9862301Y-13021388D01*
X9862301Y-13021388D02*
X9852777Y-13040436D01*
X9852777Y-13040436D02*
X9843253Y-13049960D01*
X9843253Y-13049960D02*
X9824206Y-13059484D01*
X9824206Y-13059484D02*
X9795634Y-13059484D01*
X9976587Y-13059484D02*
X9957539Y-13049960D01*
X9957539Y-13049960D02*
X9948015Y-13030912D01*
X9948015Y-13030912D02*
X9948015Y-12859484D01*
X10128968Y-13049960D02*
X10109920Y-13059484D01*
X10109920Y-13059484D02*
X10071825Y-13059484D01*
X10071825Y-13059484D02*
X10052777Y-13049960D01*
X10052777Y-13049960D02*
X10043253Y-13030912D01*
X10043253Y-13030912D02*
X10043253Y-12954722D01*
X10043253Y-12954722D02*
X10052777Y-12935674D01*
X10052777Y-12935674D02*
X10071825Y-12926150D01*
X10071825Y-12926150D02*
X10109920Y-12926150D01*
X10109920Y-12926150D02*
X10128968Y-12935674D01*
X10128968Y-12935674D02*
X10138492Y-12954722D01*
X10138492Y-12954722D02*
X10138492Y-12973769D01*
X10138492Y-12973769D02*
X10043253Y-12992817D01*
X10214682Y-13049960D02*
X10233730Y-13059484D01*
X10233730Y-13059484D02*
X10271825Y-13059484D01*
X10271825Y-13059484D02*
X10290873Y-13049960D01*
X10290873Y-13049960D02*
X10300396Y-13030912D01*
X10300396Y-13030912D02*
X10300396Y-13021388D01*
X10300396Y-13021388D02*
X10290873Y-13002341D01*
X10290873Y-13002341D02*
X10271825Y-12992817D01*
X10271825Y-12992817D02*
X10243253Y-12992817D01*
X10243253Y-12992817D02*
X10224206Y-12983293D01*
X10224206Y-12983293D02*
X10214682Y-12964246D01*
X10214682Y-12964246D02*
X10214682Y-12954722D01*
X10214682Y-12954722D02*
X10224206Y-12935674D01*
X10224206Y-12935674D02*
X10243253Y-12926150D01*
X10243253Y-12926150D02*
X10271825Y-12926150D01*
X10271825Y-12926150D02*
X10290873Y-12935674D01*
X10367063Y-13135674D02*
X10376587Y-13126150D01*
X10376587Y-13126150D02*
X10395634Y-13097579D01*
X10395634Y-13097579D02*
X10405158Y-13078531D01*
X10405158Y-13078531D02*
X10414682Y-13049960D01*
X10414682Y-13049960D02*
X10424206Y-13002341D01*
X10424206Y-13002341D02*
X10424206Y-12964246D01*
X10424206Y-12964246D02*
X10414682Y-12916627D01*
X10414682Y-12916627D02*
X10405158Y-12888055D01*
X10405158Y-12888055D02*
X10395634Y-12869008D01*
X10395634Y-12869008D02*
X10376587Y-12840436D01*
X10376587Y-12840436D02*
X10367063Y-12830912D01*
M02*
