%TF.GenerationSoftware,KiCad,Pcbnew,8.0.6*%
%TF.CreationDate,2024-12-15T00:33:14-05:00*%
%TF.ProjectId,VFDSAO,56464453-414f-42e6-9b69-6361645f7063,rev?*%
%TF.SameCoordinates,Original*%
%TF.FileFunction,Profile,NP*%
%FSLAX46Y46*%
G04 Gerber Fmt 4.6, Leading zero omitted, Abs format (unit mm)*
G04 Created by KiCad (PCBNEW 8.0.6) date 2024-12-15 00:33:14*
%MOMM*%
%LPD*%
G01*
G04 APERTURE LIST*
%TA.AperFunction,Profile*%
%ADD10C,0.160000*%
%TD*%
%TA.AperFunction,Profile*%
%ADD11C,0.100000*%
%TD*%
G04 APERTURE END LIST*
D10*
X136000000Y-106000000D02*
G75*
G02*
X128000000Y-106000000I-4000000J0D01*
G01*
X98961907Y-73250000D02*
G75*
G02*
X97190863Y-72729842I-7J3275100D01*
G01*
X109397347Y-108743715D02*
X112602653Y-104256285D01*
X142050000Y-99500000D02*
X142050000Y-90864336D01*
X92507143Y-81000000D02*
X79000000Y-81000000D01*
X56000000Y-63000000D02*
G75*
G02*
X59000000Y-60000000I3000000J0D01*
G01*
X143734157Y-101321020D02*
G75*
G02*
X143000000Y-103000000I-734157J-678980D01*
G01*
X56000000Y-63000000D02*
X56000000Y-100000000D01*
X122000000Y-80000000D02*
X122000000Y-70000000D01*
X84500000Y-71000000D02*
G75*
G02*
X84000000Y-70500000I0J500000D01*
G01*
X93043854Y-110000000D02*
X106956146Y-110000000D01*
X141000000Y-60000000D02*
X59000000Y-60000000D01*
X126000000Y-103000000D02*
G75*
G02*
X128000000Y-105000000I0J-2000000D01*
G01*
X84956146Y-103000000D02*
G75*
G02*
X87397316Y-104256307I-46J-3000000D01*
G01*
X83500000Y-69000000D02*
G75*
G02*
X84000000Y-69500000I0J-500000D01*
G01*
X84956146Y-103000000D02*
X74000000Y-103000000D01*
X121000000Y-69000000D02*
X116500000Y-69000000D01*
X93043854Y-110000000D02*
G75*
G02*
X90602684Y-108743693I46J3000000D01*
G01*
X144000000Y-88140822D02*
G75*
G02*
X143771455Y-88777084I-1000000J22D01*
G01*
X59000000Y-103000000D02*
X62000000Y-103000000D01*
X72000000Y-105000000D02*
G75*
G02*
X74000000Y-103000000I2000000J0D01*
G01*
X102809136Y-72729841D02*
G75*
G02*
X101038093Y-73249998I-1771036J2754941D01*
G01*
X141000000Y-60000000D02*
G75*
G02*
X144000000Y-63000000I0J-3000000D01*
G01*
X136000000Y-105000000D02*
G75*
G02*
X138000000Y-103000000I2000000J0D01*
G01*
X143734157Y-101321020D02*
X142050000Y-99500000D01*
X94500000Y-71000000D02*
X84500000Y-71000000D01*
X116000000Y-69500000D02*
G75*
G02*
X116500000Y-69000000I500000J0D01*
G01*
X78000000Y-70000000D02*
G75*
G02*
X79000000Y-69000000I1000000J0D01*
G01*
X144000000Y-88140822D02*
X144000000Y-63000000D01*
X136000000Y-105000000D02*
X136000000Y-106000000D01*
X87397347Y-104256285D02*
X90602653Y-108743715D01*
X102809136Y-72729841D02*
X105500000Y-71000000D01*
X105500000Y-71000000D02*
X115500000Y-71000000D01*
X112602653Y-104256285D02*
G75*
G02*
X115043854Y-102999962I2441247J-1743715D01*
G01*
X84000000Y-70500000D02*
X84000000Y-69500000D01*
X128000000Y-105000000D02*
X128000000Y-106000000D01*
X79000000Y-81000000D02*
G75*
G02*
X78000000Y-80000000I0J1000000D01*
G01*
X72000000Y-106000000D02*
G75*
G02*
X64000000Y-106000000I-4000000J0D01*
G01*
X64000000Y-105000000D02*
X64000000Y-106000000D01*
X116000000Y-70500000D02*
G75*
G02*
X115500000Y-71000000I-500000J0D01*
G01*
X72000000Y-105000000D02*
X72000000Y-106000000D01*
X143000000Y-103000000D02*
X138000000Y-103000000D01*
X78000000Y-80000000D02*
X78000000Y-70000000D01*
X121000000Y-69000000D02*
G75*
G02*
X122000000Y-70000000I0J-1000000D01*
G01*
X98961907Y-73250000D02*
X101038093Y-73250000D01*
X142050000Y-90864336D02*
X143771466Y-88777093D01*
X115043854Y-103000000D02*
X126000000Y-103000000D01*
X122000000Y-80000000D02*
G75*
G02*
X121000000Y-81000000I-1000000J0D01*
G01*
D11*
X92507143Y-81000000D02*
G75*
G02*
X107492857Y-81000000I7492857J-3500001D01*
G01*
D10*
X62000000Y-103000000D02*
G75*
G02*
X64000000Y-105000000I0J-2000000D01*
G01*
X109397347Y-108743715D02*
G75*
G02*
X106956146Y-110000038I-2441247J1743715D01*
G01*
X94500000Y-71000000D02*
X97190864Y-72729841D01*
X59000000Y-103000000D02*
G75*
G02*
X56000000Y-100000000I0J3000000D01*
G01*
X116000000Y-69500000D02*
X116000000Y-70500000D01*
X79000000Y-69000000D02*
X83500000Y-69000000D01*
X107492857Y-81000000D02*
X121000000Y-81000000D01*
M02*
