%TF.GenerationSoftware,KiCad,Pcbnew,8.0.6*%
%TF.CreationDate,2024-12-15T00:33:14-05:00*%
%TF.ProjectId,VFDSAO,56464453-414f-42e6-9b69-6361645f7063,rev?*%
%TF.SameCoordinates,Original*%
%TF.FileFunction,Legend,Bot*%
%TF.FilePolarity,Positive*%
%FSLAX46Y46*%
G04 Gerber Fmt 4.6, Leading zero omitted, Abs format (unit mm)*
G04 Created by KiCad (PCBNEW 8.0.6) date 2024-12-15 00:33:14*
%MOMM*%
%LPD*%
G01*
G04 APERTURE LIST*
%ADD10C,0.100000*%
%ADD11C,0.300000*%
%ADD12C,0.150000*%
G04 APERTURE END LIST*
D10*
X137499999Y-84415505D02*
X137733332Y-84415505D01*
X137733332Y-84782172D02*
X137733332Y-84082172D01*
X137733332Y-84082172D02*
X137399999Y-84082172D01*
X137133332Y-84782172D02*
X137133332Y-84082172D01*
X136466666Y-84782172D02*
X136799999Y-84782172D01*
X136799999Y-84782172D02*
X136799999Y-84082172D01*
X136266665Y-84582172D02*
X135933332Y-84582172D01*
X136333332Y-84782172D02*
X136099999Y-84082172D01*
X136099999Y-84082172D02*
X135866665Y-84782172D01*
X135633332Y-84782172D02*
X135633332Y-84082172D01*
X135633332Y-84082172D02*
X135399999Y-84582172D01*
X135399999Y-84582172D02*
X135166665Y-84082172D01*
X135166665Y-84082172D02*
X135166665Y-84782172D01*
X134833332Y-84415505D02*
X134599999Y-84415505D01*
X134499999Y-84782172D02*
X134833332Y-84782172D01*
X134833332Y-84782172D02*
X134833332Y-84082172D01*
X134833332Y-84082172D02*
X134499999Y-84082172D01*
X134199999Y-84782172D02*
X134199999Y-84082172D01*
X134199999Y-84082172D02*
X133799999Y-84782172D01*
X133799999Y-84782172D02*
X133799999Y-84082172D01*
X133566666Y-84082172D02*
X133166666Y-84082172D01*
X133366666Y-84782172D02*
X133366666Y-84082172D01*
X132433333Y-84748839D02*
X132333333Y-84782172D01*
X132333333Y-84782172D02*
X132166667Y-84782172D01*
X132166667Y-84782172D02*
X132100000Y-84748839D01*
X132100000Y-84748839D02*
X132066667Y-84715505D01*
X132066667Y-84715505D02*
X132033333Y-84648839D01*
X132033333Y-84648839D02*
X132033333Y-84582172D01*
X132033333Y-84582172D02*
X132066667Y-84515505D01*
X132066667Y-84515505D02*
X132100000Y-84482172D01*
X132100000Y-84482172D02*
X132166667Y-84448839D01*
X132166667Y-84448839D02*
X132300000Y-84415505D01*
X132300000Y-84415505D02*
X132366667Y-84382172D01*
X132366667Y-84382172D02*
X132400000Y-84348839D01*
X132400000Y-84348839D02*
X132433333Y-84282172D01*
X132433333Y-84282172D02*
X132433333Y-84215505D01*
X132433333Y-84215505D02*
X132400000Y-84148839D01*
X132400000Y-84148839D02*
X132366667Y-84115505D01*
X132366667Y-84115505D02*
X132300000Y-84082172D01*
X132300000Y-84082172D02*
X132133333Y-84082172D01*
X132133333Y-84082172D02*
X132033333Y-84115505D01*
X131733333Y-84082172D02*
X131733333Y-84648839D01*
X131733333Y-84648839D02*
X131700000Y-84715505D01*
X131700000Y-84715505D02*
X131666666Y-84748839D01*
X131666666Y-84748839D02*
X131600000Y-84782172D01*
X131600000Y-84782172D02*
X131466666Y-84782172D01*
X131466666Y-84782172D02*
X131400000Y-84748839D01*
X131400000Y-84748839D02*
X131366666Y-84715505D01*
X131366666Y-84715505D02*
X131333333Y-84648839D01*
X131333333Y-84648839D02*
X131333333Y-84082172D01*
X131000000Y-84782172D02*
X131000000Y-84082172D01*
X131000000Y-84082172D02*
X130733333Y-84082172D01*
X130733333Y-84082172D02*
X130666667Y-84115505D01*
X130666667Y-84115505D02*
X130633333Y-84148839D01*
X130633333Y-84148839D02*
X130600000Y-84215505D01*
X130600000Y-84215505D02*
X130600000Y-84315505D01*
X130600000Y-84315505D02*
X130633333Y-84382172D01*
X130633333Y-84382172D02*
X130666667Y-84415505D01*
X130666667Y-84415505D02*
X130733333Y-84448839D01*
X130733333Y-84448839D02*
X131000000Y-84448839D01*
X130300000Y-84782172D02*
X130300000Y-84082172D01*
X130300000Y-84082172D02*
X130033333Y-84082172D01*
X130033333Y-84082172D02*
X129966667Y-84115505D01*
X129966667Y-84115505D02*
X129933333Y-84148839D01*
X129933333Y-84148839D02*
X129900000Y-84215505D01*
X129900000Y-84215505D02*
X129900000Y-84315505D01*
X129900000Y-84315505D02*
X129933333Y-84382172D01*
X129933333Y-84382172D02*
X129966667Y-84415505D01*
X129966667Y-84415505D02*
X130033333Y-84448839D01*
X130033333Y-84448839D02*
X130300000Y-84448839D01*
X129266667Y-84782172D02*
X129600000Y-84782172D01*
X129600000Y-84782172D02*
X129600000Y-84082172D01*
X128900000Y-84448839D02*
X128900000Y-84782172D01*
X129133333Y-84082172D02*
X128900000Y-84448839D01*
X128900000Y-84448839D02*
X128666666Y-84082172D01*
X135416666Y-85209133D02*
X135183333Y-85909133D01*
X135183333Y-85909133D02*
X134949999Y-85209133D01*
X134316666Y-85842466D02*
X134349999Y-85875800D01*
X134349999Y-85875800D02*
X134449999Y-85909133D01*
X134449999Y-85909133D02*
X134516666Y-85909133D01*
X134516666Y-85909133D02*
X134616666Y-85875800D01*
X134616666Y-85875800D02*
X134683333Y-85809133D01*
X134683333Y-85809133D02*
X134716666Y-85742466D01*
X134716666Y-85742466D02*
X134749999Y-85609133D01*
X134749999Y-85609133D02*
X134749999Y-85509133D01*
X134749999Y-85509133D02*
X134716666Y-85375800D01*
X134716666Y-85375800D02*
X134683333Y-85309133D01*
X134683333Y-85309133D02*
X134616666Y-85242466D01*
X134616666Y-85242466D02*
X134516666Y-85209133D01*
X134516666Y-85209133D02*
X134449999Y-85209133D01*
X134449999Y-85209133D02*
X134349999Y-85242466D01*
X134349999Y-85242466D02*
X134316666Y-85275800D01*
X133616666Y-85842466D02*
X133649999Y-85875800D01*
X133649999Y-85875800D02*
X133749999Y-85909133D01*
X133749999Y-85909133D02*
X133816666Y-85909133D01*
X133816666Y-85909133D02*
X133916666Y-85875800D01*
X133916666Y-85875800D02*
X133983333Y-85809133D01*
X133983333Y-85809133D02*
X134016666Y-85742466D01*
X134016666Y-85742466D02*
X134049999Y-85609133D01*
X134049999Y-85609133D02*
X134049999Y-85509133D01*
X134049999Y-85509133D02*
X134016666Y-85375800D01*
X134016666Y-85375800D02*
X133983333Y-85309133D01*
X133983333Y-85309133D02*
X133916666Y-85242466D01*
X133916666Y-85242466D02*
X133816666Y-85209133D01*
X133816666Y-85209133D02*
X133749999Y-85209133D01*
X133749999Y-85209133D02*
X133649999Y-85242466D01*
X133649999Y-85242466D02*
X133616666Y-85275800D01*
X132850000Y-85209133D02*
X132416666Y-85209133D01*
X132416666Y-85209133D02*
X132650000Y-85475800D01*
X132650000Y-85475800D02*
X132550000Y-85475800D01*
X132550000Y-85475800D02*
X132483333Y-85509133D01*
X132483333Y-85509133D02*
X132450000Y-85542466D01*
X132450000Y-85542466D02*
X132416666Y-85609133D01*
X132416666Y-85609133D02*
X132416666Y-85775800D01*
X132416666Y-85775800D02*
X132450000Y-85842466D01*
X132450000Y-85842466D02*
X132483333Y-85875800D01*
X132483333Y-85875800D02*
X132550000Y-85909133D01*
X132550000Y-85909133D02*
X132750000Y-85909133D01*
X132750000Y-85909133D02*
X132816666Y-85875800D01*
X132816666Y-85875800D02*
X132850000Y-85842466D01*
X132216666Y-85209133D02*
X131983333Y-85909133D01*
X131983333Y-85909133D02*
X131749999Y-85209133D01*
X131583333Y-85209133D02*
X131149999Y-85209133D01*
X131149999Y-85209133D02*
X131383333Y-85475800D01*
X131383333Y-85475800D02*
X131283333Y-85475800D01*
X131283333Y-85475800D02*
X131216666Y-85509133D01*
X131216666Y-85509133D02*
X131183333Y-85542466D01*
X131183333Y-85542466D02*
X131149999Y-85609133D01*
X131149999Y-85609133D02*
X131149999Y-85775800D01*
X131149999Y-85775800D02*
X131183333Y-85842466D01*
X131183333Y-85842466D02*
X131216666Y-85875800D01*
X131216666Y-85875800D02*
X131283333Y-85909133D01*
X131283333Y-85909133D02*
X131483333Y-85909133D01*
X131483333Y-85909133D02*
X131549999Y-85875800D01*
X131549999Y-85875800D02*
X131583333Y-85842466D01*
D11*
X124815114Y-67254510D02*
X124886542Y-67468796D01*
X124886542Y-67468796D02*
X124957971Y-67540225D01*
X124957971Y-67540225D02*
X125100828Y-67611653D01*
X125100828Y-67611653D02*
X125315114Y-67611653D01*
X125315114Y-67611653D02*
X125457971Y-67540225D01*
X125457971Y-67540225D02*
X125529400Y-67468796D01*
X125529400Y-67468796D02*
X125600828Y-67325939D01*
X125600828Y-67325939D02*
X125600828Y-66754510D01*
X125600828Y-66754510D02*
X124100828Y-66754510D01*
X124100828Y-66754510D02*
X124100828Y-67254510D01*
X124100828Y-67254510D02*
X124172257Y-67397368D01*
X124172257Y-67397368D02*
X124243685Y-67468796D01*
X124243685Y-67468796D02*
X124386542Y-67540225D01*
X124386542Y-67540225D02*
X124529400Y-67540225D01*
X124529400Y-67540225D02*
X124672257Y-67468796D01*
X124672257Y-67468796D02*
X124743685Y-67397368D01*
X124743685Y-67397368D02*
X124815114Y-67254510D01*
X124815114Y-67254510D02*
X124815114Y-66754510D01*
X124100828Y-68540225D02*
X124100828Y-68825939D01*
X124100828Y-68825939D02*
X124172257Y-68968796D01*
X124172257Y-68968796D02*
X124315114Y-69111653D01*
X124315114Y-69111653D02*
X124600828Y-69183082D01*
X124600828Y-69183082D02*
X125100828Y-69183082D01*
X125100828Y-69183082D02*
X125386542Y-69111653D01*
X125386542Y-69111653D02*
X125529400Y-68968796D01*
X125529400Y-68968796D02*
X125600828Y-68825939D01*
X125600828Y-68825939D02*
X125600828Y-68540225D01*
X125600828Y-68540225D02*
X125529400Y-68397368D01*
X125529400Y-68397368D02*
X125386542Y-68254510D01*
X125386542Y-68254510D02*
X125100828Y-68183082D01*
X125100828Y-68183082D02*
X124600828Y-68183082D01*
X124600828Y-68183082D02*
X124315114Y-68254510D01*
X124315114Y-68254510D02*
X124172257Y-68397368D01*
X124172257Y-68397368D02*
X124100828Y-68540225D01*
X124100828Y-70111654D02*
X124100828Y-70397368D01*
X124100828Y-70397368D02*
X124172257Y-70540225D01*
X124172257Y-70540225D02*
X124315114Y-70683082D01*
X124315114Y-70683082D02*
X124600828Y-70754511D01*
X124600828Y-70754511D02*
X125100828Y-70754511D01*
X125100828Y-70754511D02*
X125386542Y-70683082D01*
X125386542Y-70683082D02*
X125529400Y-70540225D01*
X125529400Y-70540225D02*
X125600828Y-70397368D01*
X125600828Y-70397368D02*
X125600828Y-70111654D01*
X125600828Y-70111654D02*
X125529400Y-69968797D01*
X125529400Y-69968797D02*
X125386542Y-69825939D01*
X125386542Y-69825939D02*
X125100828Y-69754511D01*
X125100828Y-69754511D02*
X124600828Y-69754511D01*
X124600828Y-69754511D02*
X124315114Y-69825939D01*
X124315114Y-69825939D02*
X124172257Y-69968797D01*
X124172257Y-69968797D02*
X124100828Y-70111654D01*
X124100828Y-71183083D02*
X124100828Y-72040226D01*
X125600828Y-71611654D02*
X124100828Y-71611654D01*
X124100828Y-72825940D02*
X124100828Y-72968797D01*
X124100828Y-72968797D02*
X124172257Y-73111654D01*
X124172257Y-73111654D02*
X124243685Y-73183083D01*
X124243685Y-73183083D02*
X124386542Y-73254511D01*
X124386542Y-73254511D02*
X124672257Y-73325940D01*
X124672257Y-73325940D02*
X125029400Y-73325940D01*
X125029400Y-73325940D02*
X125315114Y-73254511D01*
X125315114Y-73254511D02*
X125457971Y-73183083D01*
X125457971Y-73183083D02*
X125529400Y-73111654D01*
X125529400Y-73111654D02*
X125600828Y-72968797D01*
X125600828Y-72968797D02*
X125600828Y-72825940D01*
X125600828Y-72825940D02*
X125529400Y-72683083D01*
X125529400Y-72683083D02*
X125457971Y-72611654D01*
X125457971Y-72611654D02*
X125315114Y-72540225D01*
X125315114Y-72540225D02*
X125029400Y-72468797D01*
X125029400Y-72468797D02*
X124672257Y-72468797D01*
X124672257Y-72468797D02*
X124386542Y-72540225D01*
X124386542Y-72540225D02*
X124243685Y-72611654D01*
X124243685Y-72611654D02*
X124172257Y-72683083D01*
X124172257Y-72683083D02*
X124100828Y-72825940D01*
D10*
X75800877Y-64815505D02*
X75867544Y-64782172D01*
X75867544Y-64782172D02*
X75967544Y-64782172D01*
X75967544Y-64782172D02*
X76067544Y-64815505D01*
X76067544Y-64815505D02*
X76134211Y-64882172D01*
X76134211Y-64882172D02*
X76167544Y-64948839D01*
X76167544Y-64948839D02*
X76200877Y-65082172D01*
X76200877Y-65082172D02*
X76200877Y-65182172D01*
X76200877Y-65182172D02*
X76167544Y-65315505D01*
X76167544Y-65315505D02*
X76134211Y-65382172D01*
X76134211Y-65382172D02*
X76067544Y-65448839D01*
X76067544Y-65448839D02*
X75967544Y-65482172D01*
X75967544Y-65482172D02*
X75900877Y-65482172D01*
X75900877Y-65482172D02*
X75800877Y-65448839D01*
X75800877Y-65448839D02*
X75767544Y-65415505D01*
X75767544Y-65415505D02*
X75767544Y-65182172D01*
X75767544Y-65182172D02*
X75900877Y-65182172D01*
X75467544Y-65482172D02*
X75467544Y-64782172D01*
X75467544Y-64782172D02*
X75067544Y-65482172D01*
X75067544Y-65482172D02*
X75067544Y-64782172D01*
X74734211Y-65482172D02*
X74734211Y-64782172D01*
X74734211Y-64782172D02*
X74567544Y-64782172D01*
X74567544Y-64782172D02*
X74467544Y-64815505D01*
X74467544Y-64815505D02*
X74400878Y-64882172D01*
X74400878Y-64882172D02*
X74367544Y-64948839D01*
X74367544Y-64948839D02*
X74334211Y-65082172D01*
X74334211Y-65082172D02*
X74334211Y-65182172D01*
X74334211Y-65182172D02*
X74367544Y-65315505D01*
X74367544Y-65315505D02*
X74400878Y-65382172D01*
X74400878Y-65382172D02*
X74467544Y-65448839D01*
X74467544Y-65448839D02*
X74567544Y-65482172D01*
X74567544Y-65482172D02*
X74734211Y-65482172D01*
X73100878Y-65482172D02*
X73334211Y-65148839D01*
X73500878Y-65482172D02*
X73500878Y-64782172D01*
X73500878Y-64782172D02*
X73234211Y-64782172D01*
X73234211Y-64782172D02*
X73167545Y-64815505D01*
X73167545Y-64815505D02*
X73134211Y-64848839D01*
X73134211Y-64848839D02*
X73100878Y-64915505D01*
X73100878Y-64915505D02*
X73100878Y-65015505D01*
X73100878Y-65015505D02*
X73134211Y-65082172D01*
X73134211Y-65082172D02*
X73167545Y-65115505D01*
X73167545Y-65115505D02*
X73234211Y-65148839D01*
X73234211Y-65148839D02*
X73500878Y-65148839D01*
X72834211Y-65448839D02*
X72734211Y-65482172D01*
X72734211Y-65482172D02*
X72567545Y-65482172D01*
X72567545Y-65482172D02*
X72500878Y-65448839D01*
X72500878Y-65448839D02*
X72467545Y-65415505D01*
X72467545Y-65415505D02*
X72434211Y-65348839D01*
X72434211Y-65348839D02*
X72434211Y-65282172D01*
X72434211Y-65282172D02*
X72467545Y-65215505D01*
X72467545Y-65215505D02*
X72500878Y-65182172D01*
X72500878Y-65182172D02*
X72567545Y-65148839D01*
X72567545Y-65148839D02*
X72700878Y-65115505D01*
X72700878Y-65115505D02*
X72767545Y-65082172D01*
X72767545Y-65082172D02*
X72800878Y-65048839D01*
X72800878Y-65048839D02*
X72834211Y-64982172D01*
X72834211Y-64982172D02*
X72834211Y-64915505D01*
X72834211Y-64915505D02*
X72800878Y-64848839D01*
X72800878Y-64848839D02*
X72767545Y-64815505D01*
X72767545Y-64815505D02*
X72700878Y-64782172D01*
X72700878Y-64782172D02*
X72534211Y-64782172D01*
X72534211Y-64782172D02*
X72434211Y-64815505D01*
X72234211Y-64782172D02*
X71834211Y-64782172D01*
X72034211Y-65482172D02*
X72034211Y-64782172D01*
X71134212Y-64782172D02*
X70700878Y-64782172D01*
X70700878Y-64782172D02*
X70934212Y-65048839D01*
X70934212Y-65048839D02*
X70834212Y-65048839D01*
X70834212Y-65048839D02*
X70767545Y-65082172D01*
X70767545Y-65082172D02*
X70734212Y-65115505D01*
X70734212Y-65115505D02*
X70700878Y-65182172D01*
X70700878Y-65182172D02*
X70700878Y-65348839D01*
X70700878Y-65348839D02*
X70734212Y-65415505D01*
X70734212Y-65415505D02*
X70767545Y-65448839D01*
X70767545Y-65448839D02*
X70834212Y-65482172D01*
X70834212Y-65482172D02*
X71034212Y-65482172D01*
X71034212Y-65482172D02*
X71100878Y-65448839D01*
X71100878Y-65448839D02*
X71134212Y-65415505D01*
X70500878Y-64782172D02*
X70267545Y-65482172D01*
X70267545Y-65482172D02*
X70034211Y-64782172D01*
X69867545Y-64782172D02*
X69434211Y-64782172D01*
X69434211Y-64782172D02*
X69667545Y-65048839D01*
X69667545Y-65048839D02*
X69567545Y-65048839D01*
X69567545Y-65048839D02*
X69500878Y-65082172D01*
X69500878Y-65082172D02*
X69467545Y-65115505D01*
X69467545Y-65115505D02*
X69434211Y-65182172D01*
X69434211Y-65182172D02*
X69434211Y-65348839D01*
X69434211Y-65348839D02*
X69467545Y-65415505D01*
X69467545Y-65415505D02*
X69500878Y-65448839D01*
X69500878Y-65448839D02*
X69567545Y-65482172D01*
X69567545Y-65482172D02*
X69767545Y-65482172D01*
X69767545Y-65482172D02*
X69834211Y-65448839D01*
X69834211Y-65448839D02*
X69867545Y-65415505D01*
X76167544Y-66609133D02*
X76167544Y-65909133D01*
X76167544Y-65909133D02*
X75767544Y-66609133D01*
X75767544Y-66609133D02*
X75767544Y-65909133D01*
X75034211Y-66542466D02*
X75067544Y-66575800D01*
X75067544Y-66575800D02*
X75167544Y-66609133D01*
X75167544Y-66609133D02*
X75234211Y-66609133D01*
X75234211Y-66609133D02*
X75334211Y-66575800D01*
X75334211Y-66575800D02*
X75400878Y-66509133D01*
X75400878Y-66509133D02*
X75434211Y-66442466D01*
X75434211Y-66442466D02*
X75467544Y-66309133D01*
X75467544Y-66309133D02*
X75467544Y-66209133D01*
X75467544Y-66209133D02*
X75434211Y-66075800D01*
X75434211Y-66075800D02*
X75400878Y-66009133D01*
X75400878Y-66009133D02*
X75334211Y-65942466D01*
X75334211Y-65942466D02*
X75234211Y-65909133D01*
X75234211Y-65909133D02*
X75167544Y-65909133D01*
X75167544Y-65909133D02*
X75067544Y-65942466D01*
X75067544Y-65942466D02*
X75034211Y-65975800D01*
X73267545Y-66542466D02*
X73300878Y-66575800D01*
X73300878Y-66575800D02*
X73400878Y-66609133D01*
X73400878Y-66609133D02*
X73467545Y-66609133D01*
X73467545Y-66609133D02*
X73567545Y-66575800D01*
X73567545Y-66575800D02*
X73634212Y-66509133D01*
X73634212Y-66509133D02*
X73667545Y-66442466D01*
X73667545Y-66442466D02*
X73700878Y-66309133D01*
X73700878Y-66309133D02*
X73700878Y-66209133D01*
X73700878Y-66209133D02*
X73667545Y-66075800D01*
X73667545Y-66075800D02*
X73634212Y-66009133D01*
X73634212Y-66009133D02*
X73567545Y-65942466D01*
X73567545Y-65942466D02*
X73467545Y-65909133D01*
X73467545Y-65909133D02*
X73400878Y-65909133D01*
X73400878Y-65909133D02*
X73300878Y-65942466D01*
X73300878Y-65942466D02*
X73267545Y-65975800D01*
X72634212Y-66609133D02*
X72967545Y-66609133D01*
X72967545Y-66609133D02*
X72967545Y-65909133D01*
X72400878Y-66609133D02*
X72400878Y-65909133D01*
X72000878Y-66609133D02*
X72300878Y-66209133D01*
X72000878Y-65909133D02*
X72400878Y-66309133D01*
X71167545Y-66609133D02*
X71167545Y-65909133D01*
X71167545Y-65909133D02*
X71000878Y-65909133D01*
X71000878Y-65909133D02*
X70900878Y-65942466D01*
X70900878Y-65942466D02*
X70834212Y-66009133D01*
X70834212Y-66009133D02*
X70800878Y-66075800D01*
X70800878Y-66075800D02*
X70767545Y-66209133D01*
X70767545Y-66209133D02*
X70767545Y-66309133D01*
X70767545Y-66309133D02*
X70800878Y-66442466D01*
X70800878Y-66442466D02*
X70834212Y-66509133D01*
X70834212Y-66509133D02*
X70900878Y-66575800D01*
X70900878Y-66575800D02*
X71000878Y-66609133D01*
X71000878Y-66609133D02*
X71167545Y-66609133D01*
X70467545Y-66609133D02*
X70467545Y-65909133D01*
X70000879Y-65909133D02*
X69867545Y-65909133D01*
X69867545Y-65909133D02*
X69800879Y-65942466D01*
X69800879Y-65942466D02*
X69734212Y-66009133D01*
X69734212Y-66009133D02*
X69700879Y-66142466D01*
X69700879Y-66142466D02*
X69700879Y-66375800D01*
X69700879Y-66375800D02*
X69734212Y-66509133D01*
X69734212Y-66509133D02*
X69800879Y-66575800D01*
X69800879Y-66575800D02*
X69867545Y-66609133D01*
X69867545Y-66609133D02*
X70000879Y-66609133D01*
X70000879Y-66609133D02*
X70067545Y-66575800D01*
X70067545Y-66575800D02*
X70134212Y-66509133D01*
X70134212Y-66509133D02*
X70167545Y-66375800D01*
X70167545Y-66375800D02*
X70167545Y-66142466D01*
X70167545Y-66142466D02*
X70134212Y-66009133D01*
X70134212Y-66009133D02*
X70067545Y-65942466D01*
X70067545Y-65942466D02*
X70000879Y-65909133D01*
D12*
X124729887Y-88957106D02*
X125063220Y-88957106D01*
X125063220Y-89585677D02*
X125063220Y-88385677D01*
X125063220Y-88385677D02*
X124587030Y-88385677D01*
X124063220Y-89585677D02*
X124158458Y-89528535D01*
X124158458Y-89528535D02*
X124206077Y-89471392D01*
X124206077Y-89471392D02*
X124253696Y-89357106D01*
X124253696Y-89357106D02*
X124253696Y-89014249D01*
X124253696Y-89014249D02*
X124206077Y-88899963D01*
X124206077Y-88899963D02*
X124158458Y-88842820D01*
X124158458Y-88842820D02*
X124063220Y-88785677D01*
X124063220Y-88785677D02*
X123920363Y-88785677D01*
X123920363Y-88785677D02*
X123825125Y-88842820D01*
X123825125Y-88842820D02*
X123777506Y-88899963D01*
X123777506Y-88899963D02*
X123729887Y-89014249D01*
X123729887Y-89014249D02*
X123729887Y-89357106D01*
X123729887Y-89357106D02*
X123777506Y-89471392D01*
X123777506Y-89471392D02*
X123825125Y-89528535D01*
X123825125Y-89528535D02*
X123920363Y-89585677D01*
X123920363Y-89585677D02*
X124063220Y-89585677D01*
X123301315Y-89585677D02*
X123301315Y-88785677D01*
X123301315Y-89014249D02*
X123253696Y-88899963D01*
X123253696Y-88899963D02*
X123206077Y-88842820D01*
X123206077Y-88842820D02*
X123110839Y-88785677D01*
X123110839Y-88785677D02*
X123015601Y-88785677D01*
X121920362Y-89585677D02*
X121920362Y-88385677D01*
X121920362Y-88842820D02*
X121825124Y-88785677D01*
X121825124Y-88785677D02*
X121634648Y-88785677D01*
X121634648Y-88785677D02*
X121539410Y-88842820D01*
X121539410Y-88842820D02*
X121491791Y-88899963D01*
X121491791Y-88899963D02*
X121444172Y-89014249D01*
X121444172Y-89014249D02*
X121444172Y-89357106D01*
X121444172Y-89357106D02*
X121491791Y-89471392D01*
X121491791Y-89471392D02*
X121539410Y-89528535D01*
X121539410Y-89528535D02*
X121634648Y-89585677D01*
X121634648Y-89585677D02*
X121825124Y-89585677D01*
X121825124Y-89585677D02*
X121920362Y-89528535D01*
X120587029Y-89585677D02*
X120587029Y-88957106D01*
X120587029Y-88957106D02*
X120634648Y-88842820D01*
X120634648Y-88842820D02*
X120729886Y-88785677D01*
X120729886Y-88785677D02*
X120920362Y-88785677D01*
X120920362Y-88785677D02*
X121015600Y-88842820D01*
X120587029Y-89528535D02*
X120682267Y-89585677D01*
X120682267Y-89585677D02*
X120920362Y-89585677D01*
X120920362Y-89585677D02*
X121015600Y-89528535D01*
X121015600Y-89528535D02*
X121063219Y-89414249D01*
X121063219Y-89414249D02*
X121063219Y-89299963D01*
X121063219Y-89299963D02*
X121015600Y-89185677D01*
X121015600Y-89185677D02*
X120920362Y-89128535D01*
X120920362Y-89128535D02*
X120682267Y-89128535D01*
X120682267Y-89128535D02*
X120587029Y-89071392D01*
X120253695Y-88785677D02*
X119872743Y-88785677D01*
X120110838Y-88385677D02*
X120110838Y-89414249D01*
X120110838Y-89414249D02*
X120063219Y-89528535D01*
X120063219Y-89528535D02*
X119967981Y-89585677D01*
X119967981Y-89585677D02*
X119872743Y-89585677D01*
X119682266Y-88785677D02*
X119301314Y-88785677D01*
X119539409Y-88385677D02*
X119539409Y-89414249D01*
X119539409Y-89414249D02*
X119491790Y-89528535D01*
X119491790Y-89528535D02*
X119396552Y-89585677D01*
X119396552Y-89585677D02*
X119301314Y-89585677D01*
X118587028Y-89528535D02*
X118682266Y-89585677D01*
X118682266Y-89585677D02*
X118872742Y-89585677D01*
X118872742Y-89585677D02*
X118967980Y-89528535D01*
X118967980Y-89528535D02*
X119015599Y-89414249D01*
X119015599Y-89414249D02*
X119015599Y-88957106D01*
X119015599Y-88957106D02*
X118967980Y-88842820D01*
X118967980Y-88842820D02*
X118872742Y-88785677D01*
X118872742Y-88785677D02*
X118682266Y-88785677D01*
X118682266Y-88785677D02*
X118587028Y-88842820D01*
X118587028Y-88842820D02*
X118539409Y-88957106D01*
X118539409Y-88957106D02*
X118539409Y-89071392D01*
X118539409Y-89071392D02*
X119015599Y-89185677D01*
X118110837Y-89585677D02*
X118110837Y-88785677D01*
X118110837Y-89014249D02*
X118063218Y-88899963D01*
X118063218Y-88899963D02*
X118015599Y-88842820D01*
X118015599Y-88842820D02*
X117920361Y-88785677D01*
X117920361Y-88785677D02*
X117825123Y-88785677D01*
X117587027Y-88785677D02*
X117348932Y-89585677D01*
X117110837Y-88785677D02*
X117348932Y-89585677D01*
X117348932Y-89585677D02*
X117444170Y-89871392D01*
X117444170Y-89871392D02*
X117491789Y-89928535D01*
X117491789Y-89928535D02*
X117587027Y-89985677D01*
X115825122Y-89585677D02*
X115920360Y-89528535D01*
X115920360Y-89528535D02*
X115967979Y-89471392D01*
X115967979Y-89471392D02*
X116015598Y-89357106D01*
X116015598Y-89357106D02*
X116015598Y-89014249D01*
X116015598Y-89014249D02*
X115967979Y-88899963D01*
X115967979Y-88899963D02*
X115920360Y-88842820D01*
X115920360Y-88842820D02*
X115825122Y-88785677D01*
X115825122Y-88785677D02*
X115682265Y-88785677D01*
X115682265Y-88785677D02*
X115587027Y-88842820D01*
X115587027Y-88842820D02*
X115539408Y-88899963D01*
X115539408Y-88899963D02*
X115491789Y-89014249D01*
X115491789Y-89014249D02*
X115491789Y-89357106D01*
X115491789Y-89357106D02*
X115539408Y-89471392D01*
X115539408Y-89471392D02*
X115587027Y-89528535D01*
X115587027Y-89528535D02*
X115682265Y-89585677D01*
X115682265Y-89585677D02*
X115825122Y-89585677D01*
X115063217Y-88785677D02*
X115063217Y-89985677D01*
X115063217Y-88842820D02*
X114967979Y-88785677D01*
X114967979Y-88785677D02*
X114777503Y-88785677D01*
X114777503Y-88785677D02*
X114682265Y-88842820D01*
X114682265Y-88842820D02*
X114634646Y-88899963D01*
X114634646Y-88899963D02*
X114587027Y-89014249D01*
X114587027Y-89014249D02*
X114587027Y-89357106D01*
X114587027Y-89357106D02*
X114634646Y-89471392D01*
X114634646Y-89471392D02*
X114682265Y-89528535D01*
X114682265Y-89528535D02*
X114777503Y-89585677D01*
X114777503Y-89585677D02*
X114967979Y-89585677D01*
X114967979Y-89585677D02*
X115063217Y-89528535D01*
X113777503Y-89528535D02*
X113872741Y-89585677D01*
X113872741Y-89585677D02*
X114063217Y-89585677D01*
X114063217Y-89585677D02*
X114158455Y-89528535D01*
X114158455Y-89528535D02*
X114206074Y-89414249D01*
X114206074Y-89414249D02*
X114206074Y-88957106D01*
X114206074Y-88957106D02*
X114158455Y-88842820D01*
X114158455Y-88842820D02*
X114063217Y-88785677D01*
X114063217Y-88785677D02*
X113872741Y-88785677D01*
X113872741Y-88785677D02*
X113777503Y-88842820D01*
X113777503Y-88842820D02*
X113729884Y-88957106D01*
X113729884Y-88957106D02*
X113729884Y-89071392D01*
X113729884Y-89071392D02*
X114206074Y-89185677D01*
X113301312Y-89585677D02*
X113301312Y-88785677D01*
X113301312Y-89014249D02*
X113253693Y-88899963D01*
X113253693Y-88899963D02*
X113206074Y-88842820D01*
X113206074Y-88842820D02*
X113110836Y-88785677D01*
X113110836Y-88785677D02*
X113015598Y-88785677D01*
X112253693Y-89585677D02*
X112253693Y-88957106D01*
X112253693Y-88957106D02*
X112301312Y-88842820D01*
X112301312Y-88842820D02*
X112396550Y-88785677D01*
X112396550Y-88785677D02*
X112587026Y-88785677D01*
X112587026Y-88785677D02*
X112682264Y-88842820D01*
X112253693Y-89528535D02*
X112348931Y-89585677D01*
X112348931Y-89585677D02*
X112587026Y-89585677D01*
X112587026Y-89585677D02*
X112682264Y-89528535D01*
X112682264Y-89528535D02*
X112729883Y-89414249D01*
X112729883Y-89414249D02*
X112729883Y-89299963D01*
X112729883Y-89299963D02*
X112682264Y-89185677D01*
X112682264Y-89185677D02*
X112587026Y-89128535D01*
X112587026Y-89128535D02*
X112348931Y-89128535D01*
X112348931Y-89128535D02*
X112253693Y-89071392D01*
X111920359Y-88785677D02*
X111539407Y-88785677D01*
X111777502Y-88385677D02*
X111777502Y-89414249D01*
X111777502Y-89414249D02*
X111729883Y-89528535D01*
X111729883Y-89528535D02*
X111634645Y-89585677D01*
X111634645Y-89585677D02*
X111539407Y-89585677D01*
X111206073Y-89585677D02*
X111206073Y-88785677D01*
X111206073Y-88385677D02*
X111253692Y-88442820D01*
X111253692Y-88442820D02*
X111206073Y-88499963D01*
X111206073Y-88499963D02*
X111158454Y-88442820D01*
X111158454Y-88442820D02*
X111206073Y-88385677D01*
X111206073Y-88385677D02*
X111206073Y-88499963D01*
X110587026Y-89585677D02*
X110682264Y-89528535D01*
X110682264Y-89528535D02*
X110729883Y-89471392D01*
X110729883Y-89471392D02*
X110777502Y-89357106D01*
X110777502Y-89357106D02*
X110777502Y-89014249D01*
X110777502Y-89014249D02*
X110729883Y-88899963D01*
X110729883Y-88899963D02*
X110682264Y-88842820D01*
X110682264Y-88842820D02*
X110587026Y-88785677D01*
X110587026Y-88785677D02*
X110444169Y-88785677D01*
X110444169Y-88785677D02*
X110348931Y-88842820D01*
X110348931Y-88842820D02*
X110301312Y-88899963D01*
X110301312Y-88899963D02*
X110253693Y-89014249D01*
X110253693Y-89014249D02*
X110253693Y-89357106D01*
X110253693Y-89357106D02*
X110301312Y-89471392D01*
X110301312Y-89471392D02*
X110348931Y-89528535D01*
X110348931Y-89528535D02*
X110444169Y-89585677D01*
X110444169Y-89585677D02*
X110587026Y-89585677D01*
X109825121Y-88785677D02*
X109825121Y-89585677D01*
X109825121Y-88899963D02*
X109777502Y-88842820D01*
X109777502Y-88842820D02*
X109682264Y-88785677D01*
X109682264Y-88785677D02*
X109539407Y-88785677D01*
X109539407Y-88785677D02*
X109444169Y-88842820D01*
X109444169Y-88842820D02*
X109396550Y-88957106D01*
X109396550Y-88957106D02*
X109396550Y-89585677D01*
X108872740Y-89528535D02*
X108872740Y-89585677D01*
X108872740Y-89585677D02*
X108920359Y-89699963D01*
X108920359Y-89699963D02*
X108967978Y-89757106D01*
X124634649Y-91460468D02*
X124729887Y-91517610D01*
X124729887Y-91517610D02*
X124920363Y-91517610D01*
X124920363Y-91517610D02*
X125015601Y-91460468D01*
X125015601Y-91460468D02*
X125063220Y-91403325D01*
X125063220Y-91403325D02*
X125110839Y-91289039D01*
X125110839Y-91289039D02*
X125110839Y-90946182D01*
X125110839Y-90946182D02*
X125063220Y-90831896D01*
X125063220Y-90831896D02*
X125015601Y-90774753D01*
X125015601Y-90774753D02*
X124920363Y-90717610D01*
X124920363Y-90717610D02*
X124729887Y-90717610D01*
X124729887Y-90717610D02*
X124634649Y-90774753D01*
X124206077Y-91517610D02*
X124206077Y-90317610D01*
X123777506Y-91517610D02*
X123777506Y-90889039D01*
X123777506Y-90889039D02*
X123825125Y-90774753D01*
X123825125Y-90774753D02*
X123920363Y-90717610D01*
X123920363Y-90717610D02*
X124063220Y-90717610D01*
X124063220Y-90717610D02*
X124158458Y-90774753D01*
X124158458Y-90774753D02*
X124206077Y-90831896D01*
X122872744Y-91517610D02*
X122872744Y-90889039D01*
X122872744Y-90889039D02*
X122920363Y-90774753D01*
X122920363Y-90774753D02*
X123015601Y-90717610D01*
X123015601Y-90717610D02*
X123206077Y-90717610D01*
X123206077Y-90717610D02*
X123301315Y-90774753D01*
X122872744Y-91460468D02*
X122967982Y-91517610D01*
X122967982Y-91517610D02*
X123206077Y-91517610D01*
X123206077Y-91517610D02*
X123301315Y-91460468D01*
X123301315Y-91460468D02*
X123348934Y-91346182D01*
X123348934Y-91346182D02*
X123348934Y-91231896D01*
X123348934Y-91231896D02*
X123301315Y-91117610D01*
X123301315Y-91117610D02*
X123206077Y-91060468D01*
X123206077Y-91060468D02*
X122967982Y-91060468D01*
X122967982Y-91060468D02*
X122872744Y-91003325D01*
X122396553Y-90717610D02*
X122396553Y-91517610D01*
X122396553Y-90831896D02*
X122348934Y-90774753D01*
X122348934Y-90774753D02*
X122253696Y-90717610D01*
X122253696Y-90717610D02*
X122110839Y-90717610D01*
X122110839Y-90717610D02*
X122015601Y-90774753D01*
X122015601Y-90774753D02*
X121967982Y-90889039D01*
X121967982Y-90889039D02*
X121967982Y-91517610D01*
X121063220Y-90717610D02*
X121063220Y-91689039D01*
X121063220Y-91689039D02*
X121110839Y-91803325D01*
X121110839Y-91803325D02*
X121158458Y-91860468D01*
X121158458Y-91860468D02*
X121253696Y-91917610D01*
X121253696Y-91917610D02*
X121396553Y-91917610D01*
X121396553Y-91917610D02*
X121491791Y-91860468D01*
X121063220Y-91460468D02*
X121158458Y-91517610D01*
X121158458Y-91517610D02*
X121348934Y-91517610D01*
X121348934Y-91517610D02*
X121444172Y-91460468D01*
X121444172Y-91460468D02*
X121491791Y-91403325D01*
X121491791Y-91403325D02*
X121539410Y-91289039D01*
X121539410Y-91289039D02*
X121539410Y-90946182D01*
X121539410Y-90946182D02*
X121491791Y-90831896D01*
X121491791Y-90831896D02*
X121444172Y-90774753D01*
X121444172Y-90774753D02*
X121348934Y-90717610D01*
X121348934Y-90717610D02*
X121158458Y-90717610D01*
X121158458Y-90717610D02*
X121063220Y-90774753D01*
X120206077Y-91460468D02*
X120301315Y-91517610D01*
X120301315Y-91517610D02*
X120491791Y-91517610D01*
X120491791Y-91517610D02*
X120587029Y-91460468D01*
X120587029Y-91460468D02*
X120634648Y-91346182D01*
X120634648Y-91346182D02*
X120634648Y-90889039D01*
X120634648Y-90889039D02*
X120587029Y-90774753D01*
X120587029Y-90774753D02*
X120491791Y-90717610D01*
X120491791Y-90717610D02*
X120301315Y-90717610D01*
X120301315Y-90717610D02*
X120206077Y-90774753D01*
X120206077Y-90774753D02*
X120158458Y-90889039D01*
X120158458Y-90889039D02*
X120158458Y-91003325D01*
X120158458Y-91003325D02*
X120634648Y-91117610D01*
X119110838Y-90717610D02*
X118729886Y-90717610D01*
X118967981Y-91517610D02*
X118967981Y-90489039D01*
X118967981Y-90489039D02*
X118920362Y-90374753D01*
X118920362Y-90374753D02*
X118825124Y-90317610D01*
X118825124Y-90317610D02*
X118729886Y-90317610D01*
X118396552Y-91517610D02*
X118396552Y-90717610D01*
X118396552Y-90317610D02*
X118444171Y-90374753D01*
X118444171Y-90374753D02*
X118396552Y-90431896D01*
X118396552Y-90431896D02*
X118348933Y-90374753D01*
X118348933Y-90374753D02*
X118396552Y-90317610D01*
X118396552Y-90317610D02*
X118396552Y-90431896D01*
X117777505Y-91517610D02*
X117872743Y-91460468D01*
X117872743Y-91460468D02*
X117920362Y-91346182D01*
X117920362Y-91346182D02*
X117920362Y-90317610D01*
X116967981Y-91517610D02*
X116967981Y-90889039D01*
X116967981Y-90889039D02*
X117015600Y-90774753D01*
X117015600Y-90774753D02*
X117110838Y-90717610D01*
X117110838Y-90717610D02*
X117301314Y-90717610D01*
X117301314Y-90717610D02*
X117396552Y-90774753D01*
X116967981Y-91460468D02*
X117063219Y-91517610D01*
X117063219Y-91517610D02*
X117301314Y-91517610D01*
X117301314Y-91517610D02*
X117396552Y-91460468D01*
X117396552Y-91460468D02*
X117444171Y-91346182D01*
X117444171Y-91346182D02*
X117444171Y-91231896D01*
X117444171Y-91231896D02*
X117396552Y-91117610D01*
X117396552Y-91117610D02*
X117301314Y-91060468D01*
X117301314Y-91060468D02*
X117063219Y-91060468D01*
X117063219Y-91060468D02*
X116967981Y-91003325D01*
X116491790Y-91517610D02*
X116491790Y-90717610D01*
X116491790Y-90831896D02*
X116444171Y-90774753D01*
X116444171Y-90774753D02*
X116348933Y-90717610D01*
X116348933Y-90717610D02*
X116206076Y-90717610D01*
X116206076Y-90717610D02*
X116110838Y-90774753D01*
X116110838Y-90774753D02*
X116063219Y-90889039D01*
X116063219Y-90889039D02*
X116063219Y-91517610D01*
X116063219Y-90889039D02*
X116015600Y-90774753D01*
X116015600Y-90774753D02*
X115920362Y-90717610D01*
X115920362Y-90717610D02*
X115777505Y-90717610D01*
X115777505Y-90717610D02*
X115682266Y-90774753D01*
X115682266Y-90774753D02*
X115634647Y-90889039D01*
X115634647Y-90889039D02*
X115634647Y-91517610D01*
X114777505Y-91460468D02*
X114872743Y-91517610D01*
X114872743Y-91517610D02*
X115063219Y-91517610D01*
X115063219Y-91517610D02*
X115158457Y-91460468D01*
X115158457Y-91460468D02*
X115206076Y-91346182D01*
X115206076Y-91346182D02*
X115206076Y-90889039D01*
X115206076Y-90889039D02*
X115158457Y-90774753D01*
X115158457Y-90774753D02*
X115063219Y-90717610D01*
X115063219Y-90717610D02*
X114872743Y-90717610D01*
X114872743Y-90717610D02*
X114777505Y-90774753D01*
X114777505Y-90774753D02*
X114729886Y-90889039D01*
X114729886Y-90889039D02*
X114729886Y-91003325D01*
X114729886Y-91003325D02*
X115206076Y-91117610D01*
X114301314Y-90717610D02*
X114301314Y-91517610D01*
X114301314Y-90831896D02*
X114253695Y-90774753D01*
X114253695Y-90774753D02*
X114158457Y-90717610D01*
X114158457Y-90717610D02*
X114015600Y-90717610D01*
X114015600Y-90717610D02*
X113920362Y-90774753D01*
X113920362Y-90774753D02*
X113872743Y-90889039D01*
X113872743Y-90889039D02*
X113872743Y-91517610D01*
X113539409Y-90717610D02*
X113158457Y-90717610D01*
X113396552Y-90317610D02*
X113396552Y-91346182D01*
X113396552Y-91346182D02*
X113348933Y-91460468D01*
X113348933Y-91460468D02*
X113253695Y-91517610D01*
X113253695Y-91517610D02*
X113158457Y-91517610D01*
X112110837Y-91460468D02*
X112015599Y-91517610D01*
X112015599Y-91517610D02*
X111825123Y-91517610D01*
X111825123Y-91517610D02*
X111729885Y-91460468D01*
X111729885Y-91460468D02*
X111682266Y-91346182D01*
X111682266Y-91346182D02*
X111682266Y-91289039D01*
X111682266Y-91289039D02*
X111729885Y-91174753D01*
X111729885Y-91174753D02*
X111825123Y-91117610D01*
X111825123Y-91117610D02*
X111967980Y-91117610D01*
X111967980Y-91117610D02*
X112063218Y-91060468D01*
X112063218Y-91060468D02*
X112110837Y-90946182D01*
X112110837Y-90946182D02*
X112110837Y-90889039D01*
X112110837Y-90889039D02*
X112063218Y-90774753D01*
X112063218Y-90774753D02*
X111967980Y-90717610D01*
X111967980Y-90717610D02*
X111825123Y-90717610D01*
X111825123Y-90717610D02*
X111729885Y-90774753D01*
X110825123Y-90717610D02*
X110825123Y-91517610D01*
X111253694Y-90717610D02*
X111253694Y-91346182D01*
X111253694Y-91346182D02*
X111206075Y-91460468D01*
X111206075Y-91460468D02*
X111110837Y-91517610D01*
X111110837Y-91517610D02*
X110967980Y-91517610D01*
X110967980Y-91517610D02*
X110872742Y-91460468D01*
X110872742Y-91460468D02*
X110825123Y-91403325D01*
X110348932Y-90717610D02*
X110348932Y-91917610D01*
X110348932Y-90774753D02*
X110253694Y-90717610D01*
X110253694Y-90717610D02*
X110063218Y-90717610D01*
X110063218Y-90717610D02*
X109967980Y-90774753D01*
X109967980Y-90774753D02*
X109920361Y-90831896D01*
X109920361Y-90831896D02*
X109872742Y-90946182D01*
X109872742Y-90946182D02*
X109872742Y-91289039D01*
X109872742Y-91289039D02*
X109920361Y-91403325D01*
X109920361Y-91403325D02*
X109967980Y-91460468D01*
X109967980Y-91460468D02*
X110063218Y-91517610D01*
X110063218Y-91517610D02*
X110253694Y-91517610D01*
X110253694Y-91517610D02*
X110348932Y-91460468D01*
X109444170Y-90717610D02*
X109444170Y-91917610D01*
X109444170Y-90774753D02*
X109348932Y-90717610D01*
X109348932Y-90717610D02*
X109158456Y-90717610D01*
X109158456Y-90717610D02*
X109063218Y-90774753D01*
X109063218Y-90774753D02*
X109015599Y-90831896D01*
X109015599Y-90831896D02*
X108967980Y-90946182D01*
X108967980Y-90946182D02*
X108967980Y-91289039D01*
X108967980Y-91289039D02*
X109015599Y-91403325D01*
X109015599Y-91403325D02*
X109063218Y-91460468D01*
X109063218Y-91460468D02*
X109158456Y-91517610D01*
X109158456Y-91517610D02*
X109348932Y-91517610D01*
X109348932Y-91517610D02*
X109444170Y-91460468D01*
X108396551Y-91517610D02*
X108491789Y-91460468D01*
X108491789Y-91460468D02*
X108539408Y-91346182D01*
X108539408Y-91346182D02*
X108539408Y-90317610D01*
X108110836Y-90717610D02*
X107872741Y-91517610D01*
X107634646Y-90717610D02*
X107872741Y-91517610D01*
X107872741Y-91517610D02*
X107967979Y-91803325D01*
X107967979Y-91803325D02*
X108015598Y-91860468D01*
X108015598Y-91860468D02*
X108110836Y-91917610D01*
X106491788Y-90717610D02*
X106491788Y-91746182D01*
X106491788Y-91746182D02*
X106539407Y-91860468D01*
X106539407Y-91860468D02*
X106634645Y-91917610D01*
X106634645Y-91917610D02*
X106682264Y-91917610D01*
X106491788Y-90317610D02*
X106539407Y-90374753D01*
X106539407Y-90374753D02*
X106491788Y-90431896D01*
X106491788Y-90431896D02*
X106444169Y-90374753D01*
X106444169Y-90374753D02*
X106491788Y-90317610D01*
X106491788Y-90317610D02*
X106491788Y-90431896D01*
X105587027Y-90717610D02*
X105587027Y-91517610D01*
X106015598Y-90717610D02*
X106015598Y-91346182D01*
X106015598Y-91346182D02*
X105967979Y-91460468D01*
X105967979Y-91460468D02*
X105872741Y-91517610D01*
X105872741Y-91517610D02*
X105729884Y-91517610D01*
X105729884Y-91517610D02*
X105634646Y-91460468D01*
X105634646Y-91460468D02*
X105587027Y-91403325D01*
X105110836Y-91517610D02*
X105110836Y-90717610D01*
X105110836Y-90831896D02*
X105063217Y-90774753D01*
X105063217Y-90774753D02*
X104967979Y-90717610D01*
X104967979Y-90717610D02*
X104825122Y-90717610D01*
X104825122Y-90717610D02*
X104729884Y-90774753D01*
X104729884Y-90774753D02*
X104682265Y-90889039D01*
X104682265Y-90889039D02*
X104682265Y-91517610D01*
X104682265Y-90889039D02*
X104634646Y-90774753D01*
X104634646Y-90774753D02*
X104539408Y-90717610D01*
X104539408Y-90717610D02*
X104396551Y-90717610D01*
X104396551Y-90717610D02*
X104301312Y-90774753D01*
X104301312Y-90774753D02*
X104253693Y-90889039D01*
X104253693Y-90889039D02*
X104253693Y-91517610D01*
X103777503Y-90717610D02*
X103777503Y-91917610D01*
X103777503Y-90774753D02*
X103682265Y-90717610D01*
X103682265Y-90717610D02*
X103491789Y-90717610D01*
X103491789Y-90717610D02*
X103396551Y-90774753D01*
X103396551Y-90774753D02*
X103348932Y-90831896D01*
X103348932Y-90831896D02*
X103301313Y-90946182D01*
X103301313Y-90946182D02*
X103301313Y-91289039D01*
X103301313Y-91289039D02*
X103348932Y-91403325D01*
X103348932Y-91403325D02*
X103396551Y-91460468D01*
X103396551Y-91460468D02*
X103491789Y-91517610D01*
X103491789Y-91517610D02*
X103682265Y-91517610D01*
X103682265Y-91517610D02*
X103777503Y-91460468D01*
X102491789Y-91460468D02*
X102587027Y-91517610D01*
X102587027Y-91517610D02*
X102777503Y-91517610D01*
X102777503Y-91517610D02*
X102872741Y-91460468D01*
X102872741Y-91460468D02*
X102920360Y-91346182D01*
X102920360Y-91346182D02*
X102920360Y-90889039D01*
X102920360Y-90889039D02*
X102872741Y-90774753D01*
X102872741Y-90774753D02*
X102777503Y-90717610D01*
X102777503Y-90717610D02*
X102587027Y-90717610D01*
X102587027Y-90717610D02*
X102491789Y-90774753D01*
X102491789Y-90774753D02*
X102444170Y-90889039D01*
X102444170Y-90889039D02*
X102444170Y-91003325D01*
X102444170Y-91003325D02*
X102920360Y-91117610D01*
X102015598Y-91517610D02*
X102015598Y-90717610D01*
X102015598Y-90946182D02*
X101967979Y-90831896D01*
X101967979Y-90831896D02*
X101920360Y-90774753D01*
X101920360Y-90774753D02*
X101825122Y-90717610D01*
X101825122Y-90717610D02*
X101729884Y-90717610D01*
X125206077Y-92649543D02*
X124825125Y-92649543D01*
X125063220Y-92249543D02*
X125063220Y-93278115D01*
X125063220Y-93278115D02*
X125015601Y-93392401D01*
X125015601Y-93392401D02*
X124920363Y-93449543D01*
X124920363Y-93449543D02*
X124825125Y-93449543D01*
X124348934Y-93449543D02*
X124444172Y-93392401D01*
X124444172Y-93392401D02*
X124491791Y-93335258D01*
X124491791Y-93335258D02*
X124539410Y-93220972D01*
X124539410Y-93220972D02*
X124539410Y-92878115D01*
X124539410Y-92878115D02*
X124491791Y-92763829D01*
X124491791Y-92763829D02*
X124444172Y-92706686D01*
X124444172Y-92706686D02*
X124348934Y-92649543D01*
X124348934Y-92649543D02*
X124206077Y-92649543D01*
X124206077Y-92649543D02*
X124110839Y-92706686D01*
X124110839Y-92706686D02*
X124063220Y-92763829D01*
X124063220Y-92763829D02*
X124015601Y-92878115D01*
X124015601Y-92878115D02*
X124015601Y-93220972D01*
X124015601Y-93220972D02*
X124063220Y-93335258D01*
X124063220Y-93335258D02*
X124110839Y-93392401D01*
X124110839Y-93392401D02*
X124206077Y-93449543D01*
X124206077Y-93449543D02*
X124348934Y-93449543D01*
X122825124Y-92649543D02*
X122825124Y-93849543D01*
X122825124Y-92706686D02*
X122729886Y-92649543D01*
X122729886Y-92649543D02*
X122539410Y-92649543D01*
X122539410Y-92649543D02*
X122444172Y-92706686D01*
X122444172Y-92706686D02*
X122396553Y-92763829D01*
X122396553Y-92763829D02*
X122348934Y-92878115D01*
X122348934Y-92878115D02*
X122348934Y-93220972D01*
X122348934Y-93220972D02*
X122396553Y-93335258D01*
X122396553Y-93335258D02*
X122444172Y-93392401D01*
X122444172Y-93392401D02*
X122539410Y-93449543D01*
X122539410Y-93449543D02*
X122729886Y-93449543D01*
X122729886Y-93449543D02*
X122825124Y-93392401D01*
X121777505Y-93449543D02*
X121872743Y-93392401D01*
X121872743Y-93392401D02*
X121920362Y-93335258D01*
X121920362Y-93335258D02*
X121967981Y-93220972D01*
X121967981Y-93220972D02*
X121967981Y-92878115D01*
X121967981Y-92878115D02*
X121920362Y-92763829D01*
X121920362Y-92763829D02*
X121872743Y-92706686D01*
X121872743Y-92706686D02*
X121777505Y-92649543D01*
X121777505Y-92649543D02*
X121634648Y-92649543D01*
X121634648Y-92649543D02*
X121539410Y-92706686D01*
X121539410Y-92706686D02*
X121491791Y-92763829D01*
X121491791Y-92763829D02*
X121444172Y-92878115D01*
X121444172Y-92878115D02*
X121444172Y-93220972D01*
X121444172Y-93220972D02*
X121491791Y-93335258D01*
X121491791Y-93335258D02*
X121539410Y-93392401D01*
X121539410Y-93392401D02*
X121634648Y-93449543D01*
X121634648Y-93449543D02*
X121777505Y-93449543D01*
X121110838Y-92649543D02*
X120920362Y-93449543D01*
X120920362Y-93449543D02*
X120729886Y-92878115D01*
X120729886Y-92878115D02*
X120539410Y-93449543D01*
X120539410Y-93449543D02*
X120348934Y-92649543D01*
X119587029Y-93392401D02*
X119682267Y-93449543D01*
X119682267Y-93449543D02*
X119872743Y-93449543D01*
X119872743Y-93449543D02*
X119967981Y-93392401D01*
X119967981Y-93392401D02*
X120015600Y-93278115D01*
X120015600Y-93278115D02*
X120015600Y-92820972D01*
X120015600Y-92820972D02*
X119967981Y-92706686D01*
X119967981Y-92706686D02*
X119872743Y-92649543D01*
X119872743Y-92649543D02*
X119682267Y-92649543D01*
X119682267Y-92649543D02*
X119587029Y-92706686D01*
X119587029Y-92706686D02*
X119539410Y-92820972D01*
X119539410Y-92820972D02*
X119539410Y-92935258D01*
X119539410Y-92935258D02*
X120015600Y-93049543D01*
X119110838Y-93449543D02*
X119110838Y-92649543D01*
X119110838Y-92878115D02*
X119063219Y-92763829D01*
X119063219Y-92763829D02*
X119015600Y-92706686D01*
X119015600Y-92706686D02*
X118920362Y-92649543D01*
X118920362Y-92649543D02*
X118825124Y-92649543D01*
X117872742Y-92649543D02*
X117491790Y-92649543D01*
X117729885Y-92249543D02*
X117729885Y-93278115D01*
X117729885Y-93278115D02*
X117682266Y-93392401D01*
X117682266Y-93392401D02*
X117587028Y-93449543D01*
X117587028Y-93449543D02*
X117491790Y-93449543D01*
X117158456Y-93449543D02*
X117158456Y-92249543D01*
X116729885Y-93449543D02*
X116729885Y-92820972D01*
X116729885Y-92820972D02*
X116777504Y-92706686D01*
X116777504Y-92706686D02*
X116872742Y-92649543D01*
X116872742Y-92649543D02*
X117015599Y-92649543D01*
X117015599Y-92649543D02*
X117110837Y-92706686D01*
X117110837Y-92706686D02*
X117158456Y-92763829D01*
X115872742Y-93392401D02*
X115967980Y-93449543D01*
X115967980Y-93449543D02*
X116158456Y-93449543D01*
X116158456Y-93449543D02*
X116253694Y-93392401D01*
X116253694Y-93392401D02*
X116301313Y-93278115D01*
X116301313Y-93278115D02*
X116301313Y-92820972D01*
X116301313Y-92820972D02*
X116253694Y-92706686D01*
X116253694Y-92706686D02*
X116158456Y-92649543D01*
X116158456Y-92649543D02*
X115967980Y-92649543D01*
X115967980Y-92649543D02*
X115872742Y-92706686D01*
X115872742Y-92706686D02*
X115825123Y-92820972D01*
X115825123Y-92820972D02*
X115825123Y-92935258D01*
X115825123Y-92935258D02*
X116301313Y-93049543D01*
X114777503Y-92649543D02*
X114396551Y-92649543D01*
X114634646Y-93449543D02*
X114634646Y-92420972D01*
X114634646Y-92420972D02*
X114587027Y-92306686D01*
X114587027Y-92306686D02*
X114491789Y-92249543D01*
X114491789Y-92249543D02*
X114396551Y-92249543D01*
X114063217Y-93449543D02*
X114063217Y-92649543D01*
X114063217Y-92249543D02*
X114110836Y-92306686D01*
X114110836Y-92306686D02*
X114063217Y-92363829D01*
X114063217Y-92363829D02*
X114015598Y-92306686D01*
X114015598Y-92306686D02*
X114063217Y-92249543D01*
X114063217Y-92249543D02*
X114063217Y-92363829D01*
X113444170Y-93449543D02*
X113539408Y-93392401D01*
X113539408Y-93392401D02*
X113587027Y-93278115D01*
X113587027Y-93278115D02*
X113587027Y-92249543D01*
X112634646Y-93449543D02*
X112634646Y-92820972D01*
X112634646Y-92820972D02*
X112682265Y-92706686D01*
X112682265Y-92706686D02*
X112777503Y-92649543D01*
X112777503Y-92649543D02*
X112967979Y-92649543D01*
X112967979Y-92649543D02*
X113063217Y-92706686D01*
X112634646Y-93392401D02*
X112729884Y-93449543D01*
X112729884Y-93449543D02*
X112967979Y-93449543D01*
X112967979Y-93449543D02*
X113063217Y-93392401D01*
X113063217Y-93392401D02*
X113110836Y-93278115D01*
X113110836Y-93278115D02*
X113110836Y-93163829D01*
X113110836Y-93163829D02*
X113063217Y-93049543D01*
X113063217Y-93049543D02*
X112967979Y-92992401D01*
X112967979Y-92992401D02*
X112729884Y-92992401D01*
X112729884Y-92992401D02*
X112634646Y-92935258D01*
X112158455Y-93449543D02*
X112158455Y-92649543D01*
X112158455Y-92763829D02*
X112110836Y-92706686D01*
X112110836Y-92706686D02*
X112015598Y-92649543D01*
X112015598Y-92649543D02*
X111872741Y-92649543D01*
X111872741Y-92649543D02*
X111777503Y-92706686D01*
X111777503Y-92706686D02*
X111729884Y-92820972D01*
X111729884Y-92820972D02*
X111729884Y-93449543D01*
X111729884Y-92820972D02*
X111682265Y-92706686D01*
X111682265Y-92706686D02*
X111587027Y-92649543D01*
X111587027Y-92649543D02*
X111444170Y-92649543D01*
X111444170Y-92649543D02*
X111348931Y-92706686D01*
X111348931Y-92706686D02*
X111301312Y-92820972D01*
X111301312Y-92820972D02*
X111301312Y-93449543D01*
X110444170Y-93392401D02*
X110539408Y-93449543D01*
X110539408Y-93449543D02*
X110729884Y-93449543D01*
X110729884Y-93449543D02*
X110825122Y-93392401D01*
X110825122Y-93392401D02*
X110872741Y-93278115D01*
X110872741Y-93278115D02*
X110872741Y-92820972D01*
X110872741Y-92820972D02*
X110825122Y-92706686D01*
X110825122Y-92706686D02*
X110729884Y-92649543D01*
X110729884Y-92649543D02*
X110539408Y-92649543D01*
X110539408Y-92649543D02*
X110444170Y-92706686D01*
X110444170Y-92706686D02*
X110396551Y-92820972D01*
X110396551Y-92820972D02*
X110396551Y-92935258D01*
X110396551Y-92935258D02*
X110872741Y-93049543D01*
X109967979Y-92649543D02*
X109967979Y-93449543D01*
X109967979Y-92763829D02*
X109920360Y-92706686D01*
X109920360Y-92706686D02*
X109825122Y-92649543D01*
X109825122Y-92649543D02*
X109682265Y-92649543D01*
X109682265Y-92649543D02*
X109587027Y-92706686D01*
X109587027Y-92706686D02*
X109539408Y-92820972D01*
X109539408Y-92820972D02*
X109539408Y-93449543D01*
X109206074Y-92649543D02*
X108825122Y-92649543D01*
X109063217Y-92249543D02*
X109063217Y-93278115D01*
X109063217Y-93278115D02*
X109015598Y-93392401D01*
X109015598Y-93392401D02*
X108920360Y-93449543D01*
X108920360Y-93449543D02*
X108825122Y-93449543D01*
X107872740Y-92649543D02*
X107491788Y-92649543D01*
X107729883Y-93449543D02*
X107729883Y-92420972D01*
X107729883Y-92420972D02*
X107682264Y-92306686D01*
X107682264Y-92306686D02*
X107587026Y-92249543D01*
X107587026Y-92249543D02*
X107491788Y-92249543D01*
X107158454Y-93449543D02*
X107158454Y-92649543D01*
X107158454Y-92878115D02*
X107110835Y-92763829D01*
X107110835Y-92763829D02*
X107063216Y-92706686D01*
X107063216Y-92706686D02*
X106967978Y-92649543D01*
X106967978Y-92649543D02*
X106872740Y-92649543D01*
X106396549Y-93449543D02*
X106491787Y-93392401D01*
X106491787Y-93392401D02*
X106539406Y-93335258D01*
X106539406Y-93335258D02*
X106587025Y-93220972D01*
X106587025Y-93220972D02*
X106587025Y-92878115D01*
X106587025Y-92878115D02*
X106539406Y-92763829D01*
X106539406Y-92763829D02*
X106491787Y-92706686D01*
X106491787Y-92706686D02*
X106396549Y-92649543D01*
X106396549Y-92649543D02*
X106253692Y-92649543D01*
X106253692Y-92649543D02*
X106158454Y-92706686D01*
X106158454Y-92706686D02*
X106110835Y-92763829D01*
X106110835Y-92763829D02*
X106063216Y-92878115D01*
X106063216Y-92878115D02*
X106063216Y-93220972D01*
X106063216Y-93220972D02*
X106110835Y-93335258D01*
X106110835Y-93335258D02*
X106158454Y-93392401D01*
X106158454Y-93392401D02*
X106253692Y-93449543D01*
X106253692Y-93449543D02*
X106396549Y-93449543D01*
X105634644Y-93449543D02*
X105634644Y-92649543D01*
X105634644Y-92763829D02*
X105587025Y-92706686D01*
X105587025Y-92706686D02*
X105491787Y-92649543D01*
X105491787Y-92649543D02*
X105348930Y-92649543D01*
X105348930Y-92649543D02*
X105253692Y-92706686D01*
X105253692Y-92706686D02*
X105206073Y-92820972D01*
X105206073Y-92820972D02*
X105206073Y-93449543D01*
X105206073Y-92820972D02*
X105158454Y-92706686D01*
X105158454Y-92706686D02*
X105063216Y-92649543D01*
X105063216Y-92649543D02*
X104920359Y-92649543D01*
X104920359Y-92649543D02*
X104825120Y-92706686D01*
X104825120Y-92706686D02*
X104777501Y-92820972D01*
X104777501Y-92820972D02*
X104777501Y-93449543D01*
X103682263Y-92249543D02*
X103348930Y-93449543D01*
X103348930Y-93449543D02*
X103015597Y-92249543D01*
X102110835Y-93335258D02*
X102158454Y-93392401D01*
X102158454Y-93392401D02*
X102301311Y-93449543D01*
X102301311Y-93449543D02*
X102396549Y-93449543D01*
X102396549Y-93449543D02*
X102539406Y-93392401D01*
X102539406Y-93392401D02*
X102634644Y-93278115D01*
X102634644Y-93278115D02*
X102682263Y-93163829D01*
X102682263Y-93163829D02*
X102729882Y-92935258D01*
X102729882Y-92935258D02*
X102729882Y-92763829D01*
X102729882Y-92763829D02*
X102682263Y-92535258D01*
X102682263Y-92535258D02*
X102634644Y-92420972D01*
X102634644Y-92420972D02*
X102539406Y-92306686D01*
X102539406Y-92306686D02*
X102396549Y-92249543D01*
X102396549Y-92249543D02*
X102301311Y-92249543D01*
X102301311Y-92249543D02*
X102158454Y-92306686D01*
X102158454Y-92306686D02*
X102110835Y-92363829D01*
X101110835Y-93335258D02*
X101158454Y-93392401D01*
X101158454Y-93392401D02*
X101301311Y-93449543D01*
X101301311Y-93449543D02*
X101396549Y-93449543D01*
X101396549Y-93449543D02*
X101539406Y-93392401D01*
X101539406Y-93392401D02*
X101634644Y-93278115D01*
X101634644Y-93278115D02*
X101682263Y-93163829D01*
X101682263Y-93163829D02*
X101729882Y-92935258D01*
X101729882Y-92935258D02*
X101729882Y-92763829D01*
X101729882Y-92763829D02*
X101682263Y-92535258D01*
X101682263Y-92535258D02*
X101634644Y-92420972D01*
X101634644Y-92420972D02*
X101539406Y-92306686D01*
X101539406Y-92306686D02*
X101396549Y-92249543D01*
X101396549Y-92249543D02*
X101301311Y-92249543D01*
X101301311Y-92249543D02*
X101158454Y-92306686D01*
X101158454Y-92306686D02*
X101110835Y-92363829D01*
X125063220Y-95381476D02*
X125063220Y-94181476D01*
X124634649Y-94295762D02*
X124587030Y-94238619D01*
X124587030Y-94238619D02*
X124491792Y-94181476D01*
X124491792Y-94181476D02*
X124253697Y-94181476D01*
X124253697Y-94181476D02*
X124158459Y-94238619D01*
X124158459Y-94238619D02*
X124110840Y-94295762D01*
X124110840Y-94295762D02*
X124063221Y-94410048D01*
X124063221Y-94410048D02*
X124063221Y-94524334D01*
X124063221Y-94524334D02*
X124110840Y-94695762D01*
X124110840Y-94695762D02*
X124682268Y-95381476D01*
X124682268Y-95381476D02*
X124063221Y-95381476D01*
X123063221Y-95267191D02*
X123110840Y-95324334D01*
X123110840Y-95324334D02*
X123253697Y-95381476D01*
X123253697Y-95381476D02*
X123348935Y-95381476D01*
X123348935Y-95381476D02*
X123491792Y-95324334D01*
X123491792Y-95324334D02*
X123587030Y-95210048D01*
X123587030Y-95210048D02*
X123634649Y-95095762D01*
X123634649Y-95095762D02*
X123682268Y-94867191D01*
X123682268Y-94867191D02*
X123682268Y-94695762D01*
X123682268Y-94695762D02*
X123634649Y-94467191D01*
X123634649Y-94467191D02*
X123587030Y-94352905D01*
X123587030Y-94352905D02*
X123491792Y-94238619D01*
X123491792Y-94238619D02*
X123348935Y-94181476D01*
X123348935Y-94181476D02*
X123253697Y-94181476D01*
X123253697Y-94181476D02*
X123110840Y-94238619D01*
X123110840Y-94238619D02*
X123063221Y-94295762D01*
X122634649Y-95267191D02*
X122587030Y-95324334D01*
X122587030Y-95324334D02*
X122634649Y-95381476D01*
X122634649Y-95381476D02*
X122682268Y-95324334D01*
X122682268Y-95324334D02*
X122634649Y-95267191D01*
X122634649Y-95267191D02*
X122634649Y-95381476D01*
X122634649Y-94638619D02*
X122587030Y-94695762D01*
X122587030Y-94695762D02*
X122634649Y-94752905D01*
X122634649Y-94752905D02*
X122682268Y-94695762D01*
X122682268Y-94695762D02*
X122634649Y-94638619D01*
X122634649Y-94638619D02*
X122634649Y-94752905D01*
X121206078Y-94181476D02*
X121110840Y-94181476D01*
X121110840Y-94181476D02*
X121015602Y-94238619D01*
X121015602Y-94238619D02*
X120967983Y-94295762D01*
X120967983Y-94295762D02*
X120920364Y-94410048D01*
X120920364Y-94410048D02*
X120872745Y-94638619D01*
X120872745Y-94638619D02*
X120872745Y-94924334D01*
X120872745Y-94924334D02*
X120920364Y-95152905D01*
X120920364Y-95152905D02*
X120967983Y-95267191D01*
X120967983Y-95267191D02*
X121015602Y-95324334D01*
X121015602Y-95324334D02*
X121110840Y-95381476D01*
X121110840Y-95381476D02*
X121206078Y-95381476D01*
X121206078Y-95381476D02*
X121301316Y-95324334D01*
X121301316Y-95324334D02*
X121348935Y-95267191D01*
X121348935Y-95267191D02*
X121396554Y-95152905D01*
X121396554Y-95152905D02*
X121444173Y-94924334D01*
X121444173Y-94924334D02*
X121444173Y-94638619D01*
X121444173Y-94638619D02*
X121396554Y-94410048D01*
X121396554Y-94410048D02*
X121348935Y-94295762D01*
X121348935Y-94295762D02*
X121301316Y-94238619D01*
X121301316Y-94238619D02*
X121206078Y-94181476D01*
X120539411Y-95381476D02*
X120015602Y-94581476D01*
X120539411Y-94581476D02*
X120015602Y-95381476D01*
X119158459Y-94181476D02*
X119634649Y-94181476D01*
X119634649Y-94181476D02*
X119682268Y-94752905D01*
X119682268Y-94752905D02*
X119634649Y-94695762D01*
X119634649Y-94695762D02*
X119539411Y-94638619D01*
X119539411Y-94638619D02*
X119301316Y-94638619D01*
X119301316Y-94638619D02*
X119206078Y-94695762D01*
X119206078Y-94695762D02*
X119158459Y-94752905D01*
X119158459Y-94752905D02*
X119110840Y-94867191D01*
X119110840Y-94867191D02*
X119110840Y-95152905D01*
X119110840Y-95152905D02*
X119158459Y-95267191D01*
X119158459Y-95267191D02*
X119206078Y-95324334D01*
X119206078Y-95324334D02*
X119301316Y-95381476D01*
X119301316Y-95381476D02*
X119539411Y-95381476D01*
X119539411Y-95381476D02*
X119634649Y-95324334D01*
X119634649Y-95324334D02*
X119682268Y-95267191D01*
X118682268Y-94752905D02*
X118348935Y-94752905D01*
X118206078Y-95381476D02*
X118682268Y-95381476D01*
X118682268Y-95381476D02*
X118682268Y-94181476D01*
X118682268Y-94181476D02*
X118206078Y-94181476D01*
X124491792Y-97313409D02*
X124825125Y-96741981D01*
X125063220Y-97313409D02*
X125063220Y-96113409D01*
X125063220Y-96113409D02*
X124682268Y-96113409D01*
X124682268Y-96113409D02*
X124587030Y-96170552D01*
X124587030Y-96170552D02*
X124539411Y-96227695D01*
X124539411Y-96227695D02*
X124491792Y-96341981D01*
X124491792Y-96341981D02*
X124491792Y-96513409D01*
X124491792Y-96513409D02*
X124539411Y-96627695D01*
X124539411Y-96627695D02*
X124587030Y-96684838D01*
X124587030Y-96684838D02*
X124682268Y-96741981D01*
X124682268Y-96741981D02*
X125063220Y-96741981D01*
X124063220Y-96684838D02*
X123729887Y-96684838D01*
X123587030Y-97313409D02*
X124063220Y-97313409D01*
X124063220Y-97313409D02*
X124063220Y-96113409D01*
X124063220Y-96113409D02*
X123587030Y-96113409D01*
X122634649Y-96170552D02*
X122729887Y-96113409D01*
X122729887Y-96113409D02*
X122872744Y-96113409D01*
X122872744Y-96113409D02*
X123015601Y-96170552D01*
X123015601Y-96170552D02*
X123110839Y-96284838D01*
X123110839Y-96284838D02*
X123158458Y-96399124D01*
X123158458Y-96399124D02*
X123206077Y-96627695D01*
X123206077Y-96627695D02*
X123206077Y-96799124D01*
X123206077Y-96799124D02*
X123158458Y-97027695D01*
X123158458Y-97027695D02*
X123110839Y-97141981D01*
X123110839Y-97141981D02*
X123015601Y-97256267D01*
X123015601Y-97256267D02*
X122872744Y-97313409D01*
X122872744Y-97313409D02*
X122777506Y-97313409D01*
X122777506Y-97313409D02*
X122634649Y-97256267D01*
X122634649Y-97256267D02*
X122587030Y-97199124D01*
X122587030Y-97199124D02*
X122587030Y-96799124D01*
X122587030Y-96799124D02*
X122777506Y-96799124D01*
X121206077Y-96113409D02*
X121110839Y-96113409D01*
X121110839Y-96113409D02*
X121015601Y-96170552D01*
X121015601Y-96170552D02*
X120967982Y-96227695D01*
X120967982Y-96227695D02*
X120920363Y-96341981D01*
X120920363Y-96341981D02*
X120872744Y-96570552D01*
X120872744Y-96570552D02*
X120872744Y-96856267D01*
X120872744Y-96856267D02*
X120920363Y-97084838D01*
X120920363Y-97084838D02*
X120967982Y-97199124D01*
X120967982Y-97199124D02*
X121015601Y-97256267D01*
X121015601Y-97256267D02*
X121110839Y-97313409D01*
X121110839Y-97313409D02*
X121206077Y-97313409D01*
X121206077Y-97313409D02*
X121301315Y-97256267D01*
X121301315Y-97256267D02*
X121348934Y-97199124D01*
X121348934Y-97199124D02*
X121396553Y-97084838D01*
X121396553Y-97084838D02*
X121444172Y-96856267D01*
X121444172Y-96856267D02*
X121444172Y-96570552D01*
X121444172Y-96570552D02*
X121396553Y-96341981D01*
X121396553Y-96341981D02*
X121348934Y-96227695D01*
X121348934Y-96227695D02*
X121301315Y-96170552D01*
X121301315Y-96170552D02*
X121206077Y-96113409D01*
X120539410Y-97313409D02*
X120015601Y-96513409D01*
X120539410Y-96513409D02*
X120015601Y-97313409D01*
X119729886Y-96113409D02*
X119110839Y-96113409D01*
X119110839Y-96113409D02*
X119444172Y-96570552D01*
X119444172Y-96570552D02*
X119301315Y-96570552D01*
X119301315Y-96570552D02*
X119206077Y-96627695D01*
X119206077Y-96627695D02*
X119158458Y-96684838D01*
X119158458Y-96684838D02*
X119110839Y-96799124D01*
X119110839Y-96799124D02*
X119110839Y-97084838D01*
X119110839Y-97084838D02*
X119158458Y-97199124D01*
X119158458Y-97199124D02*
X119206077Y-97256267D01*
X119206077Y-97256267D02*
X119301315Y-97313409D01*
X119301315Y-97313409D02*
X119587029Y-97313409D01*
X119587029Y-97313409D02*
X119682267Y-97256267D01*
X119682267Y-97256267D02*
X119729886Y-97199124D01*
X118491791Y-96113409D02*
X118396553Y-96113409D01*
X118396553Y-96113409D02*
X118301315Y-96170552D01*
X118301315Y-96170552D02*
X118253696Y-96227695D01*
X118253696Y-96227695D02*
X118206077Y-96341981D01*
X118206077Y-96341981D02*
X118158458Y-96570552D01*
X118158458Y-96570552D02*
X118158458Y-96856267D01*
X118158458Y-96856267D02*
X118206077Y-97084838D01*
X118206077Y-97084838D02*
X118253696Y-97199124D01*
X118253696Y-97199124D02*
X118301315Y-97256267D01*
X118301315Y-97256267D02*
X118396553Y-97313409D01*
X118396553Y-97313409D02*
X118491791Y-97313409D01*
X118491791Y-97313409D02*
X118587029Y-97256267D01*
X118587029Y-97256267D02*
X118634648Y-97199124D01*
X118634648Y-97199124D02*
X118682267Y-97084838D01*
X118682267Y-97084838D02*
X118729886Y-96856267D01*
X118729886Y-96856267D02*
X118729886Y-96570552D01*
X118729886Y-96570552D02*
X118682267Y-96341981D01*
X118682267Y-96341981D02*
X118634648Y-96227695D01*
X118634648Y-96227695D02*
X118587029Y-96170552D01*
X118587029Y-96170552D02*
X118491791Y-96113409D01*
X116967981Y-96856267D02*
X116206077Y-96856267D01*
X114777505Y-96113409D02*
X114682267Y-96113409D01*
X114682267Y-96113409D02*
X114587029Y-96170552D01*
X114587029Y-96170552D02*
X114539410Y-96227695D01*
X114539410Y-96227695D02*
X114491791Y-96341981D01*
X114491791Y-96341981D02*
X114444172Y-96570552D01*
X114444172Y-96570552D02*
X114444172Y-96856267D01*
X114444172Y-96856267D02*
X114491791Y-97084838D01*
X114491791Y-97084838D02*
X114539410Y-97199124D01*
X114539410Y-97199124D02*
X114587029Y-97256267D01*
X114587029Y-97256267D02*
X114682267Y-97313409D01*
X114682267Y-97313409D02*
X114777505Y-97313409D01*
X114777505Y-97313409D02*
X114872743Y-97256267D01*
X114872743Y-97256267D02*
X114920362Y-97199124D01*
X114920362Y-97199124D02*
X114967981Y-97084838D01*
X114967981Y-97084838D02*
X115015600Y-96856267D01*
X115015600Y-96856267D02*
X115015600Y-96570552D01*
X115015600Y-96570552D02*
X114967981Y-96341981D01*
X114967981Y-96341981D02*
X114920362Y-96227695D01*
X114920362Y-96227695D02*
X114872743Y-96170552D01*
X114872743Y-96170552D02*
X114777505Y-96113409D01*
X114110838Y-97313409D02*
X113587029Y-96513409D01*
X114110838Y-96513409D02*
X113587029Y-97313409D01*
X113301314Y-96113409D02*
X112682267Y-96113409D01*
X112682267Y-96113409D02*
X113015600Y-96570552D01*
X113015600Y-96570552D02*
X112872743Y-96570552D01*
X112872743Y-96570552D02*
X112777505Y-96627695D01*
X112777505Y-96627695D02*
X112729886Y-96684838D01*
X112729886Y-96684838D02*
X112682267Y-96799124D01*
X112682267Y-96799124D02*
X112682267Y-97084838D01*
X112682267Y-97084838D02*
X112729886Y-97199124D01*
X112729886Y-97199124D02*
X112777505Y-97256267D01*
X112777505Y-97256267D02*
X112872743Y-97313409D01*
X112872743Y-97313409D02*
X113158457Y-97313409D01*
X113158457Y-97313409D02*
X113253695Y-97256267D01*
X113253695Y-97256267D02*
X113301314Y-97199124D01*
X112301314Y-96970552D02*
X111825124Y-96970552D01*
X112396552Y-97313409D02*
X112063219Y-96113409D01*
X112063219Y-96113409D02*
X111729886Y-97313409D01*
X111348933Y-97256267D02*
X111348933Y-97313409D01*
X111348933Y-97313409D02*
X111396552Y-97427695D01*
X111396552Y-97427695D02*
X111444171Y-97484838D01*
X110206076Y-97256267D02*
X110110838Y-97313409D01*
X110110838Y-97313409D02*
X109920362Y-97313409D01*
X109920362Y-97313409D02*
X109825124Y-97256267D01*
X109825124Y-97256267D02*
X109777505Y-97141981D01*
X109777505Y-97141981D02*
X109777505Y-97084838D01*
X109777505Y-97084838D02*
X109825124Y-96970552D01*
X109825124Y-96970552D02*
X109920362Y-96913409D01*
X109920362Y-96913409D02*
X110063219Y-96913409D01*
X110063219Y-96913409D02*
X110158457Y-96856267D01*
X110158457Y-96856267D02*
X110206076Y-96741981D01*
X110206076Y-96741981D02*
X110206076Y-96684838D01*
X110206076Y-96684838D02*
X110158457Y-96570552D01*
X110158457Y-96570552D02*
X110063219Y-96513409D01*
X110063219Y-96513409D02*
X109920362Y-96513409D01*
X109920362Y-96513409D02*
X109825124Y-96570552D01*
X108967981Y-97256267D02*
X109063219Y-97313409D01*
X109063219Y-97313409D02*
X109253695Y-97313409D01*
X109253695Y-97313409D02*
X109348933Y-97256267D01*
X109348933Y-97256267D02*
X109396552Y-97141981D01*
X109396552Y-97141981D02*
X109396552Y-96684838D01*
X109396552Y-96684838D02*
X109348933Y-96570552D01*
X109348933Y-96570552D02*
X109253695Y-96513409D01*
X109253695Y-96513409D02*
X109063219Y-96513409D01*
X109063219Y-96513409D02*
X108967981Y-96570552D01*
X108967981Y-96570552D02*
X108920362Y-96684838D01*
X108920362Y-96684838D02*
X108920362Y-96799124D01*
X108920362Y-96799124D02*
X109396552Y-96913409D01*
X108063219Y-96513409D02*
X108063219Y-97484838D01*
X108063219Y-97484838D02*
X108110838Y-97599124D01*
X108110838Y-97599124D02*
X108158457Y-97656267D01*
X108158457Y-97656267D02*
X108253695Y-97713409D01*
X108253695Y-97713409D02*
X108396552Y-97713409D01*
X108396552Y-97713409D02*
X108491790Y-97656267D01*
X108063219Y-97256267D02*
X108158457Y-97313409D01*
X108158457Y-97313409D02*
X108348933Y-97313409D01*
X108348933Y-97313409D02*
X108444171Y-97256267D01*
X108444171Y-97256267D02*
X108491790Y-97199124D01*
X108491790Y-97199124D02*
X108539409Y-97084838D01*
X108539409Y-97084838D02*
X108539409Y-96741981D01*
X108539409Y-96741981D02*
X108491790Y-96627695D01*
X108491790Y-96627695D02*
X108444171Y-96570552D01*
X108444171Y-96570552D02*
X108348933Y-96513409D01*
X108348933Y-96513409D02*
X108158457Y-96513409D01*
X108158457Y-96513409D02*
X108063219Y-96570552D01*
X107587028Y-97313409D02*
X107587028Y-96513409D01*
X107587028Y-96627695D02*
X107539409Y-96570552D01*
X107539409Y-96570552D02*
X107444171Y-96513409D01*
X107444171Y-96513409D02*
X107301314Y-96513409D01*
X107301314Y-96513409D02*
X107206076Y-96570552D01*
X107206076Y-96570552D02*
X107158457Y-96684838D01*
X107158457Y-96684838D02*
X107158457Y-97313409D01*
X107158457Y-96684838D02*
X107110838Y-96570552D01*
X107110838Y-96570552D02*
X107015600Y-96513409D01*
X107015600Y-96513409D02*
X106872743Y-96513409D01*
X106872743Y-96513409D02*
X106777504Y-96570552D01*
X106777504Y-96570552D02*
X106729885Y-96684838D01*
X106729885Y-96684838D02*
X106729885Y-97313409D01*
X105872743Y-97256267D02*
X105967981Y-97313409D01*
X105967981Y-97313409D02*
X106158457Y-97313409D01*
X106158457Y-97313409D02*
X106253695Y-97256267D01*
X106253695Y-97256267D02*
X106301314Y-97141981D01*
X106301314Y-97141981D02*
X106301314Y-96684838D01*
X106301314Y-96684838D02*
X106253695Y-96570552D01*
X106253695Y-96570552D02*
X106158457Y-96513409D01*
X106158457Y-96513409D02*
X105967981Y-96513409D01*
X105967981Y-96513409D02*
X105872743Y-96570552D01*
X105872743Y-96570552D02*
X105825124Y-96684838D01*
X105825124Y-96684838D02*
X105825124Y-96799124D01*
X105825124Y-96799124D02*
X106301314Y-96913409D01*
X105396552Y-96513409D02*
X105396552Y-97313409D01*
X105396552Y-96627695D02*
X105348933Y-96570552D01*
X105348933Y-96570552D02*
X105253695Y-96513409D01*
X105253695Y-96513409D02*
X105110838Y-96513409D01*
X105110838Y-96513409D02*
X105015600Y-96570552D01*
X105015600Y-96570552D02*
X104967981Y-96684838D01*
X104967981Y-96684838D02*
X104967981Y-97313409D01*
X104634647Y-96513409D02*
X104253695Y-96513409D01*
X104491790Y-96113409D02*
X104491790Y-97141981D01*
X104491790Y-97141981D02*
X104444171Y-97256267D01*
X104444171Y-97256267D02*
X104348933Y-97313409D01*
X104348933Y-97313409D02*
X104253695Y-97313409D01*
X103967980Y-97256267D02*
X103872742Y-97313409D01*
X103872742Y-97313409D02*
X103682266Y-97313409D01*
X103682266Y-97313409D02*
X103587028Y-97256267D01*
X103587028Y-97256267D02*
X103539409Y-97141981D01*
X103539409Y-97141981D02*
X103539409Y-97084838D01*
X103539409Y-97084838D02*
X103587028Y-96970552D01*
X103587028Y-96970552D02*
X103682266Y-96913409D01*
X103682266Y-96913409D02*
X103825123Y-96913409D01*
X103825123Y-96913409D02*
X103920361Y-96856267D01*
X103920361Y-96856267D02*
X103967980Y-96741981D01*
X103967980Y-96741981D02*
X103967980Y-96684838D01*
X103967980Y-96684838D02*
X103920361Y-96570552D01*
X103920361Y-96570552D02*
X103825123Y-96513409D01*
X103825123Y-96513409D02*
X103682266Y-96513409D01*
X103682266Y-96513409D02*
X103587028Y-96570552D01*
X124491792Y-99245342D02*
X124825125Y-98673914D01*
X125063220Y-99245342D02*
X125063220Y-98045342D01*
X125063220Y-98045342D02*
X124682268Y-98045342D01*
X124682268Y-98045342D02*
X124587030Y-98102485D01*
X124587030Y-98102485D02*
X124539411Y-98159628D01*
X124539411Y-98159628D02*
X124491792Y-98273914D01*
X124491792Y-98273914D02*
X124491792Y-98445342D01*
X124491792Y-98445342D02*
X124539411Y-98559628D01*
X124539411Y-98559628D02*
X124587030Y-98616771D01*
X124587030Y-98616771D02*
X124682268Y-98673914D01*
X124682268Y-98673914D02*
X125063220Y-98673914D01*
X124063220Y-98616771D02*
X123729887Y-98616771D01*
X123587030Y-99245342D02*
X124063220Y-99245342D01*
X124063220Y-99245342D02*
X124063220Y-98045342D01*
X124063220Y-98045342D02*
X123587030Y-98045342D01*
X122634649Y-98102485D02*
X122729887Y-98045342D01*
X122729887Y-98045342D02*
X122872744Y-98045342D01*
X122872744Y-98045342D02*
X123015601Y-98102485D01*
X123015601Y-98102485D02*
X123110839Y-98216771D01*
X123110839Y-98216771D02*
X123158458Y-98331057D01*
X123158458Y-98331057D02*
X123206077Y-98559628D01*
X123206077Y-98559628D02*
X123206077Y-98731057D01*
X123206077Y-98731057D02*
X123158458Y-98959628D01*
X123158458Y-98959628D02*
X123110839Y-99073914D01*
X123110839Y-99073914D02*
X123015601Y-99188200D01*
X123015601Y-99188200D02*
X122872744Y-99245342D01*
X122872744Y-99245342D02*
X122777506Y-99245342D01*
X122777506Y-99245342D02*
X122634649Y-99188200D01*
X122634649Y-99188200D02*
X122587030Y-99131057D01*
X122587030Y-99131057D02*
X122587030Y-98731057D01*
X122587030Y-98731057D02*
X122777506Y-98731057D01*
X121206077Y-98045342D02*
X121110839Y-98045342D01*
X121110839Y-98045342D02*
X121015601Y-98102485D01*
X121015601Y-98102485D02*
X120967982Y-98159628D01*
X120967982Y-98159628D02*
X120920363Y-98273914D01*
X120920363Y-98273914D02*
X120872744Y-98502485D01*
X120872744Y-98502485D02*
X120872744Y-98788200D01*
X120872744Y-98788200D02*
X120920363Y-99016771D01*
X120920363Y-99016771D02*
X120967982Y-99131057D01*
X120967982Y-99131057D02*
X121015601Y-99188200D01*
X121015601Y-99188200D02*
X121110839Y-99245342D01*
X121110839Y-99245342D02*
X121206077Y-99245342D01*
X121206077Y-99245342D02*
X121301315Y-99188200D01*
X121301315Y-99188200D02*
X121348934Y-99131057D01*
X121348934Y-99131057D02*
X121396553Y-99016771D01*
X121396553Y-99016771D02*
X121444172Y-98788200D01*
X121444172Y-98788200D02*
X121444172Y-98502485D01*
X121444172Y-98502485D02*
X121396553Y-98273914D01*
X121396553Y-98273914D02*
X121348934Y-98159628D01*
X121348934Y-98159628D02*
X121301315Y-98102485D01*
X121301315Y-98102485D02*
X121206077Y-98045342D01*
X120539410Y-99245342D02*
X120015601Y-98445342D01*
X120539410Y-98445342D02*
X120015601Y-99245342D01*
X119206077Y-98445342D02*
X119206077Y-99245342D01*
X119444172Y-97988200D02*
X119682267Y-98845342D01*
X119682267Y-98845342D02*
X119063220Y-98845342D01*
X118491791Y-98045342D02*
X118396553Y-98045342D01*
X118396553Y-98045342D02*
X118301315Y-98102485D01*
X118301315Y-98102485D02*
X118253696Y-98159628D01*
X118253696Y-98159628D02*
X118206077Y-98273914D01*
X118206077Y-98273914D02*
X118158458Y-98502485D01*
X118158458Y-98502485D02*
X118158458Y-98788200D01*
X118158458Y-98788200D02*
X118206077Y-99016771D01*
X118206077Y-99016771D02*
X118253696Y-99131057D01*
X118253696Y-99131057D02*
X118301315Y-99188200D01*
X118301315Y-99188200D02*
X118396553Y-99245342D01*
X118396553Y-99245342D02*
X118491791Y-99245342D01*
X118491791Y-99245342D02*
X118587029Y-99188200D01*
X118587029Y-99188200D02*
X118634648Y-99131057D01*
X118634648Y-99131057D02*
X118682267Y-99016771D01*
X118682267Y-99016771D02*
X118729886Y-98788200D01*
X118729886Y-98788200D02*
X118729886Y-98502485D01*
X118729886Y-98502485D02*
X118682267Y-98273914D01*
X118682267Y-98273914D02*
X118634648Y-98159628D01*
X118634648Y-98159628D02*
X118587029Y-98102485D01*
X118587029Y-98102485D02*
X118491791Y-98045342D01*
X116967981Y-98788200D02*
X116206077Y-98788200D01*
X114777505Y-98045342D02*
X114682267Y-98045342D01*
X114682267Y-98045342D02*
X114587029Y-98102485D01*
X114587029Y-98102485D02*
X114539410Y-98159628D01*
X114539410Y-98159628D02*
X114491791Y-98273914D01*
X114491791Y-98273914D02*
X114444172Y-98502485D01*
X114444172Y-98502485D02*
X114444172Y-98788200D01*
X114444172Y-98788200D02*
X114491791Y-99016771D01*
X114491791Y-99016771D02*
X114539410Y-99131057D01*
X114539410Y-99131057D02*
X114587029Y-99188200D01*
X114587029Y-99188200D02*
X114682267Y-99245342D01*
X114682267Y-99245342D02*
X114777505Y-99245342D01*
X114777505Y-99245342D02*
X114872743Y-99188200D01*
X114872743Y-99188200D02*
X114920362Y-99131057D01*
X114920362Y-99131057D02*
X114967981Y-99016771D01*
X114967981Y-99016771D02*
X115015600Y-98788200D01*
X115015600Y-98788200D02*
X115015600Y-98502485D01*
X115015600Y-98502485D02*
X114967981Y-98273914D01*
X114967981Y-98273914D02*
X114920362Y-98159628D01*
X114920362Y-98159628D02*
X114872743Y-98102485D01*
X114872743Y-98102485D02*
X114777505Y-98045342D01*
X114110838Y-99245342D02*
X113587029Y-98445342D01*
X114110838Y-98445342D02*
X113587029Y-99245342D01*
X112777505Y-98445342D02*
X112777505Y-99245342D01*
X113015600Y-97988200D02*
X113253695Y-98845342D01*
X113253695Y-98845342D02*
X112634648Y-98845342D01*
X112301314Y-98902485D02*
X111825124Y-98902485D01*
X112396552Y-99245342D02*
X112063219Y-98045342D01*
X112063219Y-98045342D02*
X111729886Y-99245342D01*
X111348933Y-99188200D02*
X111348933Y-99245342D01*
X111348933Y-99245342D02*
X111396552Y-99359628D01*
X111396552Y-99359628D02*
X111444171Y-99416771D01*
X110206076Y-98902485D02*
X109729886Y-98902485D01*
X110301314Y-99245342D02*
X109967981Y-98045342D01*
X109967981Y-98045342D02*
X109634648Y-99245342D01*
X109348933Y-99188200D02*
X109206076Y-99245342D01*
X109206076Y-99245342D02*
X108967981Y-99245342D01*
X108967981Y-99245342D02*
X108872743Y-99188200D01*
X108872743Y-99188200D02*
X108825124Y-99131057D01*
X108825124Y-99131057D02*
X108777505Y-99016771D01*
X108777505Y-99016771D02*
X108777505Y-98902485D01*
X108777505Y-98902485D02*
X108825124Y-98788200D01*
X108825124Y-98788200D02*
X108872743Y-98731057D01*
X108872743Y-98731057D02*
X108967981Y-98673914D01*
X108967981Y-98673914D02*
X109158457Y-98616771D01*
X109158457Y-98616771D02*
X109253695Y-98559628D01*
X109253695Y-98559628D02*
X109301314Y-98502485D01*
X109301314Y-98502485D02*
X109348933Y-98388200D01*
X109348933Y-98388200D02*
X109348933Y-98273914D01*
X109348933Y-98273914D02*
X109301314Y-98159628D01*
X109301314Y-98159628D02*
X109253695Y-98102485D01*
X109253695Y-98102485D02*
X109158457Y-98045342D01*
X109158457Y-98045342D02*
X108920362Y-98045342D01*
X108920362Y-98045342D02*
X108777505Y-98102485D01*
X107777505Y-99131057D02*
X107825124Y-99188200D01*
X107825124Y-99188200D02*
X107967981Y-99245342D01*
X107967981Y-99245342D02*
X108063219Y-99245342D01*
X108063219Y-99245342D02*
X108206076Y-99188200D01*
X108206076Y-99188200D02*
X108301314Y-99073914D01*
X108301314Y-99073914D02*
X108348933Y-98959628D01*
X108348933Y-98959628D02*
X108396552Y-98731057D01*
X108396552Y-98731057D02*
X108396552Y-98559628D01*
X108396552Y-98559628D02*
X108348933Y-98331057D01*
X108348933Y-98331057D02*
X108301314Y-98216771D01*
X108301314Y-98216771D02*
X108206076Y-98102485D01*
X108206076Y-98102485D02*
X108063219Y-98045342D01*
X108063219Y-98045342D02*
X107967981Y-98045342D01*
X107967981Y-98045342D02*
X107825124Y-98102485D01*
X107825124Y-98102485D02*
X107777505Y-98159628D01*
X107348933Y-99245342D02*
X107348933Y-98045342D01*
X106872743Y-99245342D02*
X106872743Y-98045342D01*
X105777505Y-98445342D02*
X105396553Y-98445342D01*
X105634648Y-98045342D02*
X105634648Y-99073914D01*
X105634648Y-99073914D02*
X105587029Y-99188200D01*
X105587029Y-99188200D02*
X105491791Y-99245342D01*
X105491791Y-99245342D02*
X105396553Y-99245342D01*
X104682267Y-99188200D02*
X104777505Y-99245342D01*
X104777505Y-99245342D02*
X104967981Y-99245342D01*
X104967981Y-99245342D02*
X105063219Y-99188200D01*
X105063219Y-99188200D02*
X105110838Y-99073914D01*
X105110838Y-99073914D02*
X105110838Y-98616771D01*
X105110838Y-98616771D02*
X105063219Y-98502485D01*
X105063219Y-98502485D02*
X104967981Y-98445342D01*
X104967981Y-98445342D02*
X104777505Y-98445342D01*
X104777505Y-98445342D02*
X104682267Y-98502485D01*
X104682267Y-98502485D02*
X104634648Y-98616771D01*
X104634648Y-98616771D02*
X104634648Y-98731057D01*
X104634648Y-98731057D02*
X105110838Y-98845342D01*
X104301314Y-99245342D02*
X103777505Y-98445342D01*
X104301314Y-98445342D02*
X103777505Y-99245342D01*
X103539409Y-98445342D02*
X103158457Y-98445342D01*
X103396552Y-98045342D02*
X103396552Y-99073914D01*
X103396552Y-99073914D02*
X103348933Y-99188200D01*
X103348933Y-99188200D02*
X103253695Y-99245342D01*
X103253695Y-99245342D02*
X103158457Y-99245342D01*
D11*
X141945489Y-84479400D02*
X140802632Y-84479400D01*
D10*
X87016666Y-91115505D02*
X87083333Y-91082172D01*
X87083333Y-91082172D02*
X87183333Y-91082172D01*
X87183333Y-91082172D02*
X87283333Y-91115505D01*
X87283333Y-91115505D02*
X87350000Y-91182172D01*
X87350000Y-91182172D02*
X87383333Y-91248839D01*
X87383333Y-91248839D02*
X87416666Y-91382172D01*
X87416666Y-91382172D02*
X87416666Y-91482172D01*
X87416666Y-91482172D02*
X87383333Y-91615505D01*
X87383333Y-91615505D02*
X87350000Y-91682172D01*
X87350000Y-91682172D02*
X87283333Y-91748839D01*
X87283333Y-91748839D02*
X87183333Y-91782172D01*
X87183333Y-91782172D02*
X87116666Y-91782172D01*
X87116666Y-91782172D02*
X87016666Y-91748839D01*
X87016666Y-91748839D02*
X86983333Y-91715505D01*
X86983333Y-91715505D02*
X86983333Y-91482172D01*
X86983333Y-91482172D02*
X87116666Y-91482172D01*
X86683333Y-91782172D02*
X86683333Y-91082172D01*
X86683333Y-91082172D02*
X86283333Y-91782172D01*
X86283333Y-91782172D02*
X86283333Y-91082172D01*
X85950000Y-91782172D02*
X85950000Y-91082172D01*
X85950000Y-91082172D02*
X85783333Y-91082172D01*
X85783333Y-91082172D02*
X85683333Y-91115505D01*
X85683333Y-91115505D02*
X85616667Y-91182172D01*
X85616667Y-91182172D02*
X85583333Y-91248839D01*
X85583333Y-91248839D02*
X85550000Y-91382172D01*
X85550000Y-91382172D02*
X85550000Y-91482172D01*
X85550000Y-91482172D02*
X85583333Y-91615505D01*
X85583333Y-91615505D02*
X85616667Y-91682172D01*
X85616667Y-91682172D02*
X85683333Y-91748839D01*
X85683333Y-91748839D02*
X85783333Y-91782172D01*
X85783333Y-91782172D02*
X85950000Y-91782172D01*
X84783334Y-91082172D02*
X84350000Y-91082172D01*
X84350000Y-91082172D02*
X84583334Y-91348839D01*
X84583334Y-91348839D02*
X84483334Y-91348839D01*
X84483334Y-91348839D02*
X84416667Y-91382172D01*
X84416667Y-91382172D02*
X84383334Y-91415505D01*
X84383334Y-91415505D02*
X84350000Y-91482172D01*
X84350000Y-91482172D02*
X84350000Y-91648839D01*
X84350000Y-91648839D02*
X84383334Y-91715505D01*
X84383334Y-91715505D02*
X84416667Y-91748839D01*
X84416667Y-91748839D02*
X84483334Y-91782172D01*
X84483334Y-91782172D02*
X84683334Y-91782172D01*
X84683334Y-91782172D02*
X84750000Y-91748839D01*
X84750000Y-91748839D02*
X84783334Y-91715505D01*
X84150000Y-91082172D02*
X83916667Y-91782172D01*
X83916667Y-91782172D02*
X83683333Y-91082172D01*
X83516667Y-91082172D02*
X83083333Y-91082172D01*
X83083333Y-91082172D02*
X83316667Y-91348839D01*
X83316667Y-91348839D02*
X83216667Y-91348839D01*
X83216667Y-91348839D02*
X83150000Y-91382172D01*
X83150000Y-91382172D02*
X83116667Y-91415505D01*
X83116667Y-91415505D02*
X83083333Y-91482172D01*
X83083333Y-91482172D02*
X83083333Y-91648839D01*
X83083333Y-91648839D02*
X83116667Y-91715505D01*
X83116667Y-91715505D02*
X83150000Y-91748839D01*
X83150000Y-91748839D02*
X83216667Y-91782172D01*
X83216667Y-91782172D02*
X83416667Y-91782172D01*
X83416667Y-91782172D02*
X83483333Y-91748839D01*
X83483333Y-91748839D02*
X83516667Y-91715505D01*
X86533333Y-92542466D02*
X86433333Y-92575800D01*
X86433333Y-92575800D02*
X86399999Y-92609133D01*
X86399999Y-92609133D02*
X86366666Y-92675800D01*
X86366666Y-92675800D02*
X86366666Y-92775800D01*
X86366666Y-92775800D02*
X86399999Y-92842466D01*
X86399999Y-92842466D02*
X86433333Y-92875800D01*
X86433333Y-92875800D02*
X86499999Y-92909133D01*
X86499999Y-92909133D02*
X86766666Y-92909133D01*
X86766666Y-92909133D02*
X86766666Y-92209133D01*
X86766666Y-92209133D02*
X86533333Y-92209133D01*
X86533333Y-92209133D02*
X86466666Y-92242466D01*
X86466666Y-92242466D02*
X86433333Y-92275800D01*
X86433333Y-92275800D02*
X86399999Y-92342466D01*
X86399999Y-92342466D02*
X86399999Y-92409133D01*
X86399999Y-92409133D02*
X86433333Y-92475800D01*
X86433333Y-92475800D02*
X86466666Y-92509133D01*
X86466666Y-92509133D02*
X86533333Y-92542466D01*
X86533333Y-92542466D02*
X86766666Y-92542466D01*
X85933333Y-92209133D02*
X85799999Y-92209133D01*
X85799999Y-92209133D02*
X85733333Y-92242466D01*
X85733333Y-92242466D02*
X85666666Y-92309133D01*
X85666666Y-92309133D02*
X85633333Y-92442466D01*
X85633333Y-92442466D02*
X85633333Y-92675800D01*
X85633333Y-92675800D02*
X85666666Y-92809133D01*
X85666666Y-92809133D02*
X85733333Y-92875800D01*
X85733333Y-92875800D02*
X85799999Y-92909133D01*
X85799999Y-92909133D02*
X85933333Y-92909133D01*
X85933333Y-92909133D02*
X85999999Y-92875800D01*
X85999999Y-92875800D02*
X86066666Y-92809133D01*
X86066666Y-92809133D02*
X86099999Y-92675800D01*
X86099999Y-92675800D02*
X86099999Y-92442466D01*
X86099999Y-92442466D02*
X86066666Y-92309133D01*
X86066666Y-92309133D02*
X85999999Y-92242466D01*
X85999999Y-92242466D02*
X85933333Y-92209133D01*
X85200000Y-92209133D02*
X85066666Y-92209133D01*
X85066666Y-92209133D02*
X85000000Y-92242466D01*
X85000000Y-92242466D02*
X84933333Y-92309133D01*
X84933333Y-92309133D02*
X84900000Y-92442466D01*
X84900000Y-92442466D02*
X84900000Y-92675800D01*
X84900000Y-92675800D02*
X84933333Y-92809133D01*
X84933333Y-92809133D02*
X85000000Y-92875800D01*
X85000000Y-92875800D02*
X85066666Y-92909133D01*
X85066666Y-92909133D02*
X85200000Y-92909133D01*
X85200000Y-92909133D02*
X85266666Y-92875800D01*
X85266666Y-92875800D02*
X85333333Y-92809133D01*
X85333333Y-92809133D02*
X85366666Y-92675800D01*
X85366666Y-92675800D02*
X85366666Y-92442466D01*
X85366666Y-92442466D02*
X85333333Y-92309133D01*
X85333333Y-92309133D02*
X85266666Y-92242466D01*
X85266666Y-92242466D02*
X85200000Y-92209133D01*
X84700000Y-92209133D02*
X84300000Y-92209133D01*
X84500000Y-92909133D02*
X84500000Y-92209133D01*
X83700000Y-92909133D02*
X84100000Y-92909133D01*
X83900000Y-92909133D02*
X83900000Y-92209133D01*
X83900000Y-92209133D02*
X83966667Y-92309133D01*
X83966667Y-92309133D02*
X84033334Y-92375800D01*
X84033334Y-92375800D02*
X84100000Y-92409133D01*
D11*
X59195489Y-84229400D02*
X58052632Y-84229400D01*
X58624060Y-84800828D02*
X58624060Y-83657971D01*
D10*
X68757533Y-76467544D02*
X68757533Y-75934211D01*
X68490866Y-76200877D02*
X69024200Y-76200877D01*
X65690866Y-78067544D02*
X65690866Y-77667544D01*
X64990866Y-77867544D02*
X65690866Y-77867544D01*
X65690866Y-77300878D02*
X65690866Y-77167544D01*
X65690866Y-77167544D02*
X65657533Y-77100878D01*
X65657533Y-77100878D02*
X65590866Y-77034211D01*
X65590866Y-77034211D02*
X65457533Y-77000878D01*
X65457533Y-77000878D02*
X65224200Y-77000878D01*
X65224200Y-77000878D02*
X65090866Y-77034211D01*
X65090866Y-77034211D02*
X65024200Y-77100878D01*
X65024200Y-77100878D02*
X64990866Y-77167544D01*
X64990866Y-77167544D02*
X64990866Y-77300878D01*
X64990866Y-77300878D02*
X65024200Y-77367544D01*
X65024200Y-77367544D02*
X65090866Y-77434211D01*
X65090866Y-77434211D02*
X65224200Y-77467544D01*
X65224200Y-77467544D02*
X65457533Y-77467544D01*
X65457533Y-77467544D02*
X65590866Y-77434211D01*
X65590866Y-77434211D02*
X65657533Y-77367544D01*
X65657533Y-77367544D02*
X65690866Y-77300878D01*
X65690866Y-76567545D02*
X65690866Y-76434211D01*
X65690866Y-76434211D02*
X65657533Y-76367545D01*
X65657533Y-76367545D02*
X65590866Y-76300878D01*
X65590866Y-76300878D02*
X65457533Y-76267545D01*
X65457533Y-76267545D02*
X65224200Y-76267545D01*
X65224200Y-76267545D02*
X65090866Y-76300878D01*
X65090866Y-76300878D02*
X65024200Y-76367545D01*
X65024200Y-76367545D02*
X64990866Y-76434211D01*
X64990866Y-76434211D02*
X64990866Y-76567545D01*
X64990866Y-76567545D02*
X65024200Y-76634211D01*
X65024200Y-76634211D02*
X65090866Y-76700878D01*
X65090866Y-76700878D02*
X65224200Y-76734211D01*
X65224200Y-76734211D02*
X65457533Y-76734211D01*
X65457533Y-76734211D02*
X65590866Y-76700878D01*
X65590866Y-76700878D02*
X65657533Y-76634211D01*
X65657533Y-76634211D02*
X65690866Y-76567545D01*
X65690866Y-76067545D02*
X65690866Y-75667545D01*
X64990866Y-75867545D02*
X65690866Y-75867545D01*
X65257533Y-74900879D02*
X65257533Y-74367546D01*
X65457533Y-74034212D02*
X65257533Y-73500879D01*
X65257533Y-73500879D02*
X65057533Y-74034212D01*
%TO.C,BZ11*%
X63400000Y-67700000D02*
X68400000Y-67700000D01*
X63400000Y-67700000D02*
X68400000Y-67700000D01*
X63400000Y-69700000D02*
X63400000Y-67700000D01*
X63400000Y-69700000D02*
X63400000Y-67700000D01*
X68400000Y-67700000D02*
X68400000Y-69700000D01*
X68400000Y-69700000D02*
X68400000Y-67700000D01*
X68400000Y-69700000D02*
G75*
G02*
X63400000Y-69700000I-2500000J-4000000D01*
G01*
X68400000Y-69700000D02*
G75*
G02*
X63400000Y-69700000I-2500000J-4000000D01*
G01*
%TO.C,SW11*%
X126525000Y-74825000D02*
X126525000Y-64825000D01*
X126525000Y-74825000D02*
X133025000Y-74825000D01*
X126545000Y-66595000D02*
X126575000Y-66595000D01*
X126545000Y-73055000D02*
X126545000Y-66595000D01*
X126575000Y-73055000D02*
X126545000Y-73055000D01*
X126775000Y-66825000D02*
X126775000Y-72825000D01*
X126775000Y-72825000D02*
X132775000Y-72825000D01*
X131075000Y-66595000D02*
X128475000Y-66595000D01*
X131075000Y-73055000D02*
X128475000Y-73055000D01*
X132775000Y-66825000D02*
X126775000Y-66825000D01*
X132775000Y-72825000D02*
X132775000Y-66825000D01*
X132975000Y-66595000D02*
X133005000Y-66595000D01*
X132975000Y-73055000D02*
X133005000Y-73055000D01*
X133005000Y-73055000D02*
X133005000Y-66595000D01*
X133025000Y-64825000D02*
X126525000Y-64825000D01*
X133025000Y-74825000D02*
X133025000Y-64825000D01*
X131525714Y-69825000D02*
G75*
G02*
X128024286Y-69825000I-1750714J0D01*
G01*
X128024286Y-69825000D02*
G75*
G02*
X131525714Y-69825000I1750714J0D01*
G01*
%TD*%
M02*
